<svg viewBox="0 0 24 24" fill="none" xmlns="http://www.w3.org/2000/svg">
<path d="M15.15 10.65H14.25L12.9 13.35L11.1 7.95L9.75 10.65H8.85M11.9938 4.92223C10.1944 2.81856 7.19377 2.25268 4.93923 4.17901C2.68468 6.10535 2.36727 9.32608 4.13778 11.6044C5.47508 13.3252 9.27416 16.7799 11.0532 18.3674C11.3802 18.6592 11.5438 18.8051 11.7352 18.8626C11.9015 18.9125 12.0862 18.9125 12.2524 18.8626C12.4439 18.8051 12.6074 18.6592 12.9345 18.3674C14.7135 16.7799 18.5126 13.3252 19.8499 11.6044C21.6204 9.32608 21.3417 6.08508 19.0484 4.17901C16.7551 2.27294 13.7933 2.81856 11.9938 4.92223Z" stroke="black" stroke-width="2" stroke-linecap="round" stroke-linejoin="round"/>
</svg>