<svg viewBox="0 0 24 24" fill="none" xmlns="http://www.w3.org/2000/svg">
<path d="M5.7 16.5C4.20883 16.5 3 15.2912 3 13.8V7.32C3 5.80786 3 5.05179 3.29428 4.47423C3.55314 3.96619 3.96619 3.55314 4.47423 3.29428C5.05179 3 5.80786 3 7.32 3H16.68C18.1921 3 18.9482 3 19.5258 3.29428C20.0338 3.55314 20.4469 3.96619 20.7057 4.47423C21 5.05179 21 5.80786 21 7.32V13.8C21 15.2912 19.7912 16.5 18.3 16.5M9.03723 19.2H14.9628C15.4531 19.2 15.6983 19.2 15.8221 19.1C15.9296 19.0131 15.9913 18.8815 15.9892 18.7432C15.9868 18.5841 15.8298 18.3958 15.5159 18.0191L12.5531 14.4637C12.3632 14.2358 12.2682 14.1218 12.1545 14.0803C12.0547 14.0438 11.9453 14.0438 11.8455 14.0803C11.7318 14.1218 11.6368 14.2358 11.4469 14.4637L8.48411 18.0191C8.17018 18.3958 8.01322 18.5841 8.01082 18.7432C8.00873 18.8815 8.07036 19.0131 8.17793 19.1C8.30167 19.2 8.54686 19.2 9.03723 19.2Z" stroke="black" stroke-width="2" stroke-linecap="round" stroke-linejoin="round"/>
</svg>