<svg width="24" height="24" viewBox="0 0 24 24" fill="none" xmlns="http://www.w3.org/2000/svg">
<path d="M3 7.2125C3 9.26286 4.66214 10.925 6.7125 10.925C6.9878 10.925 7.12545 10.925 7.19677 10.9496C7.346 11.0011 7.42391 11.079 7.47539 11.2282C7.5 11.2996 7.5 11.4113 7.5 11.6347V17.3375C7.5 18.1452 8.15478 18.8 8.9625 18.8C9.77022 18.8 10.425 18.1452 10.425 17.3375V7.2125C10.425 5.16214 8.76286 3.5 6.7125 3.5C4.66214 3.5 3 5.16214 3 7.2125Z" stroke="black" stroke-width="2" stroke-linecap="round" stroke-linejoin="round"/>
<path d="M21 7.2125C21 9.26286 19.3379 10.925 17.2875 10.925C17.0122 10.925 16.8746 10.925 16.8032 10.9496C16.654 11.0011 16.5761 11.079 16.5246 11.2282C16.5 11.2996 16.5 11.4113 16.5 11.6347V17.3375C16.5 18.1452 15.8452 18.8 15.0375 18.8C14.2298 18.8 13.575 18.1452 13.575 17.3375V7.2125C13.575 5.16214 15.2371 3.5 17.2875 3.5C19.3379 3.5 21 5.16214 21 7.2125Z" stroke="black" stroke-width="2" stroke-linecap="round" stroke-linejoin="round"/>
</svg>
