<svg viewBox="0 0 24 24" fill="none" xmlns="http://www.w3.org/2000/svg">
<path d="M5.7 3L3 5.7M21 5.7L18.3 3M6.6 17.4L4.8 19.2M17.4 17.4L19.2 19.2M9.3 12H14.7M12 19.2C13.9096 19.2 15.7409 18.4414 17.0912 17.0912C18.4414 15.7409 19.2 13.9096 19.2 12C19.2 10.0904 18.4414 8.25909 17.0912 6.90883C15.7409 5.55857 13.9096 4.8 12 4.8C10.0904 4.8 8.25909 5.55857 6.90883 6.90883C5.55857 8.25909 4.8 10.0904 4.8 12C4.8 13.9096 5.55857 15.7409 6.90883 17.0912C8.25909 18.4414 10.0904 19.2 12 19.2Z" stroke="black" stroke-width="2" stroke-linecap="round" stroke-linejoin="round"/>
</svg>