<svg viewBox="0 0 24 24" fill="none" xmlns="http://www.w3.org/2000/svg">
<path d="M12 7.4V11M12 14.6H12.009M3 7.87047V14.1295C3 14.3497 3 14.4597 3.02487 14.5633C3.04691 14.6551 3.08328 14.7429 3.13262 14.8235C3.18828 14.9143 3.26611 14.9921 3.42177 15.1478L7.85223 19.5782C8.00789 19.7339 8.08572 19.8117 8.17654 19.8674C8.25707 19.9167 8.34486 19.9531 8.43669 19.9751C8.54027 20 8.65034 20 8.87047 20H15.1295C15.3497 20 15.4597 20 15.5633 19.9751C15.6551 19.9531 15.7429 19.9167 15.8235 19.8674C15.9143 19.8117 15.9921 19.7339 16.1478 19.5782L20.5782 15.1478C20.7339 14.9921 20.8117 14.9143 20.8674 14.8235C20.9167 14.7429 20.9531 14.6551 20.9751 14.5633C21 14.4597 21 14.3497 21 14.1295V7.87047C21 7.65034 21 7.54027 20.9751 7.43669C20.9531 7.34486 20.9167 7.25707 20.8674 7.17654C20.8117 7.08572 20.7339 7.00789 20.5782 6.85223L16.1478 2.42177C15.9921 2.26611 15.9143 2.18828 15.8235 2.13262C15.7429 2.08328 15.6551 2.04691 15.5633 2.02487C15.4597 2 15.3497 2 15.1295 2H8.87047C8.65034 2 8.54027 2 8.43669 2.02487C8.34486 2.04691 8.25707 2.08328 8.17654 2.13262C8.08572 2.18828 8.00789 2.26611 7.85223 2.42177L3.42177 6.85223C3.26611 7.00789 3.18828 7.08572 3.13262 7.17654C3.08328 7.25707 3.04691 7.34486 3.02487 7.43669C3 7.54027 3 7.65034 3 7.87047Z" stroke="black" stroke-width="2" stroke-linecap="round" stroke-linejoin="round"/>
</svg>