<svg width="24" height="24" viewBox="0 0 24 24" fill="none" xmlns="http://www.w3.org/2000/svg">
<path d="M12 8.4C13.4912 8.4 14.7 7.19117 14.7 5.7C14.7 4.20883 13.4912 3 12 3C10.5088 3 9.3 4.20883 9.3 5.7C9.3 7.19117 10.5088 8.4 12 8.4Z" fill="white" fill-opacity="0.01"/>
<path d="M5.7 12H3C3 14.3869 3.94821 16.6761 5.63604 18.364C7.32387 20.0518 9.61305 21 12 21C14.3869 21 16.6761 20.0518 18.364 18.364C20.0518 16.6761 21 14.3869 21 12H18.3" fill="white" fill-opacity="0.01"/>
<path d="M12 8.4C13.4912 8.4 14.7 7.19117 14.7 5.7C14.7 4.20883 13.4912 3 12 3C10.5088 3 9.3 4.20883 9.3 5.7C9.3 7.19117 10.5088 8.4 12 8.4ZM12 8.4V21M12 21C9.61305 21 7.32387 20.0518 5.63604 18.364C3.94821 16.6761 3 14.3869 3 12H5.7M12 21C14.3869 21 16.6761 20.0518 18.364 18.364C20.0518 16.6761 21 14.3869 21 12H18.3" stroke="black" stroke-width="2" stroke-linecap="round" stroke-linejoin="round"/>
</svg>
