<svg viewBox="0 0 24 24" fill="none" xmlns="http://www.w3.org/2000/svg">
<path d="M17.85 14.7C19.5897 14.7 21 12.0809 21 8.85C21 5.61913 19.5897 3 17.85 3M17.85 14.7C16.1103 14.7 14.7 12.0809 14.7 8.85C14.7 5.61913 16.1103 3 17.85 3M17.85 14.7L6.09919 12.5635C5.26445 12.4117 4.84707 12.3358 4.50959 12.1701C3.82302 11.8328 3.31172 11.2202 3.10273 10.4843C3 10.1226 3 9.69843 3 8.85C3 8.00157 3 7.57736 3.10273 7.21566C3.31172 6.47984 3.82302 5.86719 4.50959 5.52994C4.84707 5.36417 5.26445 5.28828 6.09919 5.13651L17.85 3M5.7 12.9L6.05447 17.8626C6.08813 18.3339 6.10497 18.5695 6.20749 18.7481C6.29775 18.9053 6.4334 19.0316 6.59666 19.1105C6.78209 19.2 7.01833 19.2 7.49081 19.2H9.09498C9.63511 19.2 9.90517 19.2 10.1051 19.0923C10.2807 18.9976 10.4199 18.8473 10.5008 18.6649C10.5929 18.4574 10.5722 18.1881 10.5307 17.6496L10.2 13.35" stroke="black" stroke-width="2" stroke-linecap="round" stroke-linejoin="round"/>
</svg>