<svg width="24" height="24" viewBox="0 0 24 24" fill="none" xmlns="http://www.w3.org/2000/svg">
<path d="M4.8 7.5H19.2V14.88C19.2 16.3921 19.2 17.1482 18.9057 17.7258C18.6469 18.2338 18.2338 18.6469 17.7258 18.9057C17.1482 19.2 16.3921 19.2 14.88 19.2H9.12C7.60786 19.2 6.85179 19.2 6.27423 18.9057C5.76619 18.6469 5.35314 18.2338 5.09428 17.7258C4.8 17.1482 4.8 16.3921 4.8 14.88V7.5Z" fill="white" fill-opacity="0.01"/>
<path d="M4.8 7.49694C4.65239 7.49313 4.54521 7.48458 4.44884 7.46541C3.73479 7.32338 3.17662 6.76521 3.03459 6.05116C3 5.87728 3 5.66819 3 5.25C3 4.83181 3 4.62272 3.03459 4.44884C3.17662 3.73479 3.73479 3.17662 4.44884 3.03459C4.62272 3 4.83181 3 5.25 3H18.75C19.1682 3 19.3773 3 19.5512 3.03459C20.2652 3.17662 20.8234 3.73479 20.9654 4.44884C21 4.62272 21 4.83181 21 5.25C21 5.66819 21 5.87728 20.9654 6.05116C20.8234 6.76521 20.2652 7.32338 19.5512 7.46541C19.4548 7.48458 19.3476 7.49313 19.2 7.49694M10.2 12H13.8M4.8 7.5H19.2V14.88C19.2 16.3921 19.2 17.1482 18.9057 17.7258C18.6469 18.2338 18.2338 18.6469 17.7258 18.9057C17.1482 19.2 16.3921 19.2 14.88 19.2H9.12C7.60786 19.2 6.85179 19.2 6.27423 18.9057C5.76619 18.6469 5.35314 18.2338 5.09428 17.7258C4.8 17.1482 4.8 16.3921 4.8 14.88V7.5Z" stroke="black" stroke-width="2" stroke-linecap="round" stroke-linejoin="round"/>
</svg>
