<svg width="24" height="24" viewBox="0 0 24 24" fill="none" xmlns="http://www.w3.org/2000/svg">
<path d="M15.2074 11.0134C17.4919 13.298 17.4919 17.002 15.2074 19.2866C12.9228 21.5711 9.2188 21.5711 6.93422 19.2866C4.64966 17.002 4.64966 13.298 6.93422 11.0134C9.21878 8.72886 12.9228 8.72886 15.2074 11.0134Z" fill="white" fill-opacity="0.01"/>
<path d="M9.7208 13.8L11.0708 12.9V17.4" fill="white" fill-opacity="0.01"/>
<path d="M9.9458 17.4H12.1958H9.9458Z" fill="white" fill-opacity="0.01"/>
<path d="M6.69234 11.2701L3.26806 5.14247C2.87432 4.43788 2.67745 4.08559 2.71063 3.79715C2.73958 3.5455 2.87324 3.3177 3.07879 3.16967C3.3144 3 3.71797 3 4.5251 3H6.53644C6.83641 3 6.98639 3 7.12092 3.04332C7.23996 3.08165 7.34971 3.14437 7.44316 3.22748C7.54877 3.32141 7.62489 3.45063 7.77715 3.70909L11.0708 9.3L14.3644 3.70909C14.5167 3.45063 14.5928 3.32141 14.6984 3.22748C14.7919 3.14437 14.9016 3.08165 15.0207 3.04332C15.1552 3 15.3052 3 15.6052 3H17.6165C18.4236 3 18.8272 3 19.0628 3.16967C19.2684 3.3177 19.402 3.5455 19.431 3.79715C19.4641 4.08559 19.2673 4.43788 18.8735 5.14247L15.4493 11.2701M9.7208 13.8L11.0708 12.9V17.4M9.9458 17.4H12.1958M15.2074 11.0134C17.4919 13.298 17.4919 17.002 15.2074 19.2866C12.9228 21.5711 9.2188 21.5711 6.93422 19.2866C4.64966 17.002 4.64966 13.298 6.93422 11.0134C9.21878 8.72886 12.9228 8.72886 15.2074 11.0134Z" stroke="black" stroke-width="2" stroke-linecap="round" stroke-linejoin="round"/>
</svg>
