<svg width="24" height="24" viewBox="0 0 24 24" fill="none" xmlns="http://www.w3.org/2000/svg">
<path d="M8.38862 12.9858L4.6311 8.28887C4.39719 7.99649 4.28024 7.8503 4.19707 7.68751C4.12329 7.54308 4.06936 7.38934 4.03675 7.23047C4 7.0514 4 6.86418 4 6.48975V5.88C4 4.87191 4 4.36786 4.19619 3.98282C4.36876 3.64413 4.64413 3.36876 4.98282 3.19619C5.36786 3 5.87191 3 6.88 3H15.52C16.5281 3 17.0321 3 17.4172 3.19619C17.7559 3.36876 18.0312 3.64413 18.2038 3.98282C18.4 4.36786 18.4 4.87191 18.4 5.88V6.48975C18.4 6.86418 18.4 7.0514 18.3632 7.23047C18.3306 7.38934 18.2767 7.54308 18.2029 7.68751C18.1198 7.8503 18.0028 7.99649 17.7689 8.28887L14.0114 12.9858M4.90005 3.9L11.2 12L17.5 3.9M14.382 13.318C16.1393 15.0754 16.1393 17.9246 14.382 19.682C12.6246 21.4393 9.77538 21.4393 8.01802 19.682C6.26066 17.9246 6.26066 15.0754 8.01802 13.318C9.77537 11.5607 12.6246 11.5607 14.382 13.318Z" stroke="black" stroke-width="2" stroke-linecap="round" stroke-linejoin="round"/>
</svg>
