<svg viewBox="0 0 24 24" fill="none" xmlns="http://www.w3.org/2000/svg">
<path d="M6.6 10.3V13.9M17.4 8.5V12.1M16.5 4C18.7038 4 19.8958 4.33728 20.4889 4.5989C20.5679 4.63374 20.6074 4.65116 20.7214 4.75993C20.7897 4.82514 20.9144 5.01645 20.9465 5.10528C21 5.25346 21 5.33447 21 5.49647V15.17C21 15.9879 21 16.3969 20.8773 16.6071C20.7526 16.8209 20.6323 16.9203 20.3987 17.0025C20.1692 17.0833 19.7058 16.9942 18.779 16.8161C18.1302 16.6915 17.3609 16.6 16.5 16.6C13.8 16.6 11.1 18.4 7.5 18.4C5.29616 18.4 4.10418 18.0627 3.51109 17.8011C3.43211 17.7663 3.39262 17.7488 3.27864 17.6401C3.21032 17.5749 3.08561 17.3835 3.05352 17.2947C3 17.1465 3 17.0655 3 16.9035L3 7.22997C3 6.41208 3 6.00313 3.12265 5.79293C3.24741 5.57911 3.36773 5.4797 3.60125 5.39753C3.83082 5.31675 4.29423 5.40579 5.22105 5.58386C5.86976 5.70851 6.63913 5.8 7.5 5.8C10.2 5.8 12.9 4 16.5 4ZM14.25 11.2C14.25 12.4426 13.2426 13.45 12 13.45C10.7574 13.45 9.75 12.4426 9.75 11.2C9.75 9.95736 10.7574 8.95 12 8.95C13.2426 8.95 14.25 9.95736 14.25 11.2Z" stroke="black" stroke-width="2" stroke-linecap="round" stroke-linejoin="round"/>
</svg>