<svg viewBox="0 0 24 24" fill="none" xmlns="http://www.w3.org/2000/svg">
<path d="M13.8 8.6H11.55C10.8044 8.6 10.2 9.20442 10.2 9.95C10.2 10.6956 10.8044 11.3 11.55 11.3H12.45C13.1956 11.3 13.8 11.9044 13.8 12.65C13.8 13.3956 13.1956 14 12.45 14H10.2M12 7.7V8.6M12 14V14.9M17.4 11.3H17.409M6.6 11.3H6.609M3 7.88L3 14.72C3 15.7281 3 16.2321 3.19619 16.6172C3.36876 16.9559 3.64413 17.2312 3.98282 17.4038C4.36786 17.6 4.87191 17.6 5.88 17.6L18.12 17.6C19.1281 17.6 19.6321 17.6 20.0172 17.4038C20.3559 17.2312 20.6312 16.9559 20.8038 16.6172C21 16.2321 21 15.7281 21 14.72V7.88C21 6.87191 21 6.36786 20.8038 5.98282C20.6312 5.64413 20.3559 5.36876 20.0172 5.19619C19.6321 5 19.1281 5 18.12 5L5.88 5C4.87191 5 4.36786 5 3.98282 5.19619C3.64413 5.36876 3.36876 5.64413 3.19619 5.98282C3 6.36786 3 6.87191 3 7.88ZM17.85 11.3C17.85 11.5485 17.6485 11.75 17.4 11.75C17.1515 11.75 16.95 11.5485 16.95 11.3C16.95 11.0515 17.1515 10.85 17.4 10.85C17.6485 10.85 17.85 11.0515 17.85 11.3ZM7.05 11.3C7.05 11.5485 6.84853 11.75 6.6 11.75C6.35147 11.75 6.15 11.5485 6.15 11.3C6.15 11.0515 6.35147 10.85 6.6 10.85C6.84853 10.85 7.05 11.0515 7.05 11.3Z" stroke="black" stroke-width="2" stroke-linecap="round" stroke-linejoin="round"/>
</svg>