<svg width="24" height="24" viewBox="0 0 24 24" fill="none" xmlns="http://www.w3.org/2000/svg">
<path d="M7.05 9.6V13.2V9.6Z" fill="white" fill-opacity="0.01"/>
<path d="M10.65 9.6V13.2V9.6Z" fill="white" fill-opacity="0.01"/>
<path d="M14.25 9.6V13.2V9.6Z" fill="white" fill-opacity="0.01"/>
<path d="M3 10.32C3 8.80786 3 8.05179 3.29428 7.47423C3.55314 6.96619 3.96619 6.55314 4.47423 6.29428C5.05179 6 5.80786 6 7.32 6H13.98C15.4921 6 16.2482 6 16.8258 6.29428C17.3338 6.55314 17.7469 6.96619 18.0057 7.47423C18.3 8.05179 18.3 8.80786 18.3 10.32V12.48C18.3 13.9921 18.3 14.7482 18.0057 15.3258C17.7469 15.8338 17.3338 16.2469 16.8258 16.5057C16.2482 16.8 15.4921 16.8 13.98 16.8H7.32C5.80786 16.8 5.05179 16.8 4.47423 16.5057C3.96619 16.2469 3.55314 15.8338 3.29428 15.3258C3 14.7482 3 13.9921 3 12.48V10.32Z" fill="white" fill-opacity="0.01"/>
<path d="M7.05 9.6V13.2M10.65 9.6V13.2M14.25 9.6V13.2M21 12.3V10.5M7.32 16.8H13.98C15.4921 16.8 16.2482 16.8 16.8258 16.5057C17.3338 16.2469 17.7469 15.8338 18.0057 15.3258C18.3 14.7482 18.3 13.9921 18.3 12.48V10.32C18.3 8.80786 18.3 8.05179 18.0057 7.47423C17.7469 6.96619 17.3338 6.55314 16.8258 6.29428C16.2482 6 15.4921 6 13.98 6H7.32C5.80786 6 5.05179 6 4.47423 6.29428C3.96619 6.55314 3.55314 6.96619 3.29428 7.47423C3 8.05179 3 8.80786 3 10.32V12.48C3 13.9921 3 14.7482 3.29428 15.3258C3.55314 15.8338 3.96619 16.2469 4.47423 16.5057C5.05179 16.8 5.80786 16.8 7.32 16.8Z" stroke="black" stroke-width="2" stroke-linecap="round" stroke-linejoin="round"/>
</svg>
