<svg width="24" height="24" viewBox="0 0 24 24" fill="none" xmlns="http://www.w3.org/2000/svg">
<path d="M8.4 6.6V10.6511C8.4 11.1469 8.4 11.3948 8.33819 11.6246C8.28343 11.8281 8.19333 12.0205 8.07202 12.1929C7.9351 12.3874 7.74464 12.5461 7.36373 12.8636L4.03627 15.6364C3.65536 15.9539 3.4649 16.1126 3.32798 16.3071C3.20667 16.4795 3.11657 16.6719 3.06181 16.8754C3 17.1052 3 17.3531 3 17.8489V18.12C3 19.1281 3 19.6321 3.19619 20.0172C3.36876 20.3559 3.64413 20.6312 3.98282 20.8038C4.36786 21 4.87191 21 5.88 21H16.32C17.3281 21 17.8321 21 18.2172 20.8038C18.5559 20.6312 18.8312 20.3559 19.0038 20.0172C19.2 19.6321 19.2 19.1281 19.2 18.12V17.8489C19.2 17.3531 19.2 17.1052 19.1382 16.8754C19.0834 16.6719 18.9933 16.4795 18.872 16.3071C18.7351 16.1126 18.5446 15.9539 18.1637 15.6364L14.8363 12.8636C14.4554 12.5461 14.2649 12.3874 14.128 12.1929C14.0067 12.0205 13.9166 11.8281 13.8618 11.6246C13.8 11.3948 13.8 11.1469 13.8 10.6511V6.6M7.77 6.6H14.43C14.682 6.6 14.808 6.6 14.9043 6.55095C14.989 6.50781 15.0578 6.43897 15.101 6.3543C15.15 6.25804 15.15 6.13202 15.15 5.88V3.72C15.15 3.46798 15.15 3.34196 15.101 3.2457C15.0578 3.16103 14.989 3.09219 14.9043 3.04905C14.808 3 14.682 3 14.43 3H7.77C7.51798 3 7.39196 3 7.2957 3.04905C7.21103 3.09219 7.14219 3.16103 7.09905 3.2457C7.05 3.34196 7.05 3.46798 7.05 3.72V5.88C7.05 6.13202 7.05 6.25804 7.09905 6.3543C7.14219 6.43897 7.21103 6.50781 7.2957 6.55095C7.39196 6.6 7.51798 6.6 7.77 6.6ZM5.25 16.5H16.95C17.3682 16.5 17.5773 16.5 17.7512 16.5346C18.4652 16.6766 19.0234 17.2348 19.1654 17.9488C19.2 18.1227 19.2 18.3318 19.2 18.75C19.2 19.1682 19.2 19.3773 19.1654 19.5512C19.0234 20.2652 18.4652 20.8234 17.7512 20.9654C17.5773 21 17.3682 21 16.95 21H5.25C4.83181 21 4.62272 21 4.44884 20.9654C3.73479 20.8234 3.17662 20.2652 3.03459 19.5512C3 19.3773 3 19.1682 3 18.75C3 18.3318 3 18.1227 3.03459 17.9488C3.17662 17.2348 3.73479 16.6766 4.44884 16.5346C4.62272 16.5 4.83181 16.5 5.25 16.5Z" stroke="black" stroke-width="2" stroke-linecap="round" stroke-linejoin="round"/>
</svg>
