<svg width="24" height="24" viewBox="0 0 24 24" fill="none" xmlns="http://www.w3.org/2000/svg">
<path d="M13.8 18.3C13.8 19.7912 12.5912 21 11.1 21C9.60883 21 8.4 19.7912 8.4 18.3M6.93973 8.29631C6.14179 9.13193 5.7 10.1862 5.7 11.28C5.7 13.3336 5.19072 14.8355 4.55526 15.9102C3.831 17.1351 3.46888 17.7475 3.48318 17.8938C3.49954 18.0611 3.52966 18.114 3.66541 18.2132C3.78405 18.3 4.38016 18.3 5.57237 18.3H18.192M11.1 6.6C10.8364 6.6 10.5748 6.61671 10.317 6.64944C9.97362 6.69305 9.80194 6.71485 9.62962 6.66801C9.50556 6.63429 9.31851 6.52555 9.22781 6.43443C9.10184 6.30787 9.0743 6.24111 9.01921 6.10759C8.91016 5.84329 8.85 5.55367 8.85 5.25C8.85 4.00736 9.85736 3 11.1 3C12.3426 3 13.35 4.00736 13.35 5.25C13.35 5.85806 13.1088 6.40978 12.7169 6.8147C12.1983 6.67366 11.6535 6.6 11.1 6.6ZM11.1 6.6C12.5322 6.6 13.9057 7.09307 14.9184 7.97074C15.9311 8.84841 16.5 10.0388 16.5 11.28C16.5 11.5813 16.5082 11.8707 16.5238 12.1486M19.2 19.2L3 4.8" stroke="black" stroke-width="2" stroke-linecap="round" stroke-linejoin="round"/>
</svg>
