<svg viewBox="0 0 24 24" fill="none" xmlns="http://www.w3.org/2000/svg">
<path d="M8.64838 20.1C9.283 20.6601 10.1166 21 11.0296 21C11.9426 21 12.7762 20.6601 13.4109 20.1M2.29412 6.4379C2.28121 5.13169 2.98544 3.91192 4.12311 3.27M19.7615 6.43791C19.7745 5.1317 19.0702 3.91193 17.9325 3.27M16.4296 8.4C16.4296 6.96783 15.8607 5.59432 14.848 4.58162C13.8353 3.56893 12.4618 3 11.0296 3C9.59745 3 8.22394 3.56893 7.21124 4.58162C6.19855 5.59432 5.62962 6.96783 5.62962 8.4C5.62962 11.1812 4.92804 13.0854 4.14432 14.3449C3.48323 15.4073 3.15269 15.9385 3.16481 16.0867C3.17823 16.2508 3.21299 16.3133 3.34522 16.4114C3.46463 16.5 4.00295 16.5 5.07959 16.5H16.9796C18.0563 16.5 18.5946 16.5 18.714 16.4114C18.8462 16.3133 18.881 16.2508 18.8944 16.0867C18.9065 15.9385 18.576 15.4073 17.9149 14.3449C17.1312 13.0854 16.4296 11.1812 16.4296 8.4Z" stroke="black" stroke-width="2" stroke-linecap="round" stroke-linejoin="round"/>
</svg>