<svg width="24" height="24" viewBox="0 0 24 24" fill="none" xmlns="http://www.w3.org/2000/svg">
<path d="M13.8534 18.3C13.8534 19.7912 12.6445 21 11.1534 21C9.66219 21 8.45336 19.7912 8.45336 18.3M12.7702 6.8147C13.1622 6.40978 13.4034 5.85806 13.4034 5.25C13.4034 4.00736 12.396 3 11.1534 3C9.91072 3 8.90336 4.00736 8.90336 5.25C8.90336 5.85806 9.14456 6.40978 9.53651 6.8147M16.5534 11.28C16.5534 10.0388 15.9844 8.84841 14.9717 7.97074C13.959 7.09307 12.5855 6.6 11.1534 6.6C9.72119 6.6 8.34768 7.09307 7.33499 7.97074C6.32229 8.84841 5.75336 10.0388 5.75336 11.28C5.75336 13.3336 5.24408 14.8355 4.60862 15.9102C3.88437 17.1351 3.52224 17.7475 3.53654 17.8938C3.5529 18.0611 3.58303 18.114 3.71877 18.2132C3.83742 18.3 4.43352 18.3 5.62573 18.3H16.681C17.8732 18.3 18.4693 18.3 18.588 18.2132C18.7237 18.114 18.7538 18.0611 18.7702 17.8938C18.7845 17.7475 18.4224 17.1351 17.6981 15.9102C17.0626 14.8355 16.5534 13.3336 16.5534 11.28Z" stroke="black" stroke-width="2" stroke-linecap="round" stroke-linejoin="round"/>
</svg>
