<svg width="24" height="24" viewBox="0 0 24 24" fill="none" xmlns="http://www.w3.org/2000/svg">
<path d="M8.74487 20.1C9.37949 20.6601 10.2131 21 11.1261 21C12.0391 21 12.8727 20.6601 13.5074 20.1M16.5261 8.4C16.5261 6.96783 15.9572 5.59432 14.9445 4.58162C13.9318 3.56893 12.5583 3 11.1261 3C9.69395 3 8.32044 3.56893 7.30774 4.58162C6.29504 5.59432 5.72612 6.96783 5.72612 8.4C5.72612 11.1812 5.02454 13.0854 4.24081 14.3449C3.57973 15.4073 3.24919 15.9385 3.26131 16.0867C3.27473 16.2508 3.30949 16.3133 3.44171 16.4114C3.56113 16.5 4.09945 16.5 5.17608 16.5H17.0761C18.1528 16.5 18.6911 16.5 18.8105 16.4114C18.9427 16.3133 18.9775 16.2508 18.9909 16.0867C19.003 15.9385 18.6725 15.4073 18.0114 14.3449C17.2277 13.0854 16.5261 11.1812 16.5261 8.4Z" stroke="black" stroke-width="2" stroke-linecap="round" stroke-linejoin="round"/>
</svg>
