<svg width="24" height="24" viewBox="0 0 24 24" fill="none" xmlns="http://www.w3.org/2000/svg">
<path d="M13.7549 18.3C13.7549 19.7912 12.5461 21 11.0549 21C9.56374 21 8.35491 19.7912 8.35491 18.3M12.6718 6.8147C13.0637 6.40978 13.3049 5.85806 13.3049 5.25C13.3049 4.00736 12.2976 3 11.0549 3C9.81227 3 8.80491 4.00736 8.80491 5.25C8.80491 5.85806 9.04611 6.40978 9.43806 6.8147M2.54705 8.69066C2.53414 7.38445 3.23837 6.16468 4.37604 5.52276M19.5628 8.69066C19.5757 7.38445 18.8715 6.16468 17.7338 5.52276M16.4549 11.28C16.4549 10.0388 15.886 8.84841 14.8733 7.97074C13.8606 7.09307 12.4871 6.6 11.0549 6.6C9.62274 6.6 8.24923 7.09307 7.23654 7.97074C6.22384 8.84841 5.65491 10.0388 5.65491 11.28C5.65491 13.3336 5.14563 14.8355 4.51017 15.9102C3.78592 17.1351 3.42379 17.7475 3.43809 17.8938C3.45445 18.0611 3.48458 18.114 3.62032 18.2132C3.73897 18.3 4.33507 18.3 5.52728 18.3H16.5825C17.7748 18.3 18.3709 18.3 18.4895 18.2132C18.6252 18.114 18.6554 18.0611 18.6717 17.8938C18.686 17.7475 18.3239 17.1351 17.5997 15.9102C16.9642 14.8355 16.4549 13.3336 16.4549 11.28Z" stroke="black" stroke-width="2" stroke-linecap="round" stroke-linejoin="round"/>
</svg>
