<svg width="24" height="24" viewBox="0 0 24 24" fill="none" xmlns="http://www.w3.org/2000/svg">
<path d="M8.06976 3.93034C8.95763 3.32841 10.0119 3 11.1 3C12.5322 3 13.9057 3.56893 14.9184 4.58162C15.9311 5.59432 16.5 6.96783 16.5 8.4C16.5 10.2907 16.7432 11.7761 17.0836 12.9292M5.9328 6.83151C5.77979 7.33553 5.7 7.86365 5.7 8.4C5.7 11.1812 4.99842 13.0854 4.2147 14.3449C3.55361 15.4073 3.22307 15.9385 3.23519 16.0867C3.24861 16.2508 3.28337 16.3133 3.4156 16.4114C3.53501 16.5 4.07333 16.5 5.14997 16.5H15.6M8.71876 20.1C9.35338 20.6601 10.187 21 11.1 21C12.013 21 12.8466 20.6601 13.4812 20.1M19.2 20.1L3 3.9" stroke="black" stroke-width="2" stroke-linecap="round" stroke-linejoin="round"/>
</svg>
