<svg width="24" height="24" viewBox="0 0 24 24" fill="none" xmlns="http://www.w3.org/2000/svg">
<path d="M10.1998 18.437C7.4207 17.7667 5.23318 15.5791 4.56295 12.7999M19.4372 12.8C18.7669 15.5791 16.5794 17.7666 13.8004 18.4369M13.8002 3.56291C16.5793 4.23316 18.7669 6.42074 19.4372 9.1999M4.56313 9.2C5.23337 6.42079 7.42098 4.23317 10.2002 3.56291M4.44 12.8H5.16C5.66405 12.8 5.91607 12.8 6.10859 12.7019C6.27794 12.6156 6.41562 12.4779 6.50191 12.3086C6.6 12.1161 6.6 11.864 6.6 11.36V10.64C6.6 10.136 6.6 9.88393 6.50191 9.69141C6.41562 9.52206 6.27794 9.38438 6.10859 9.29809C5.91607 9.2 5.66405 9.2 5.16 9.2H4.44C3.93595 9.2 3.68393 9.2 3.49141 9.29809C3.32206 9.38438 3.18438 9.52206 3.09809 9.69141C3 9.88393 3 10.136 3 10.64V11.36C3 11.864 3 12.1161 3.09809 12.3086C3.18438 12.4779 3.32206 12.6156 3.49141 12.7019C3.68393 12.8 3.93595 12.8 4.44 12.8ZM18.84 12.8H19.56C20.064 12.8 20.3161 12.8 20.5086 12.7019C20.6779 12.6156 20.8156 12.4779 20.9019 12.3086C21 12.1161 21 11.864 21 11.36V10.64C21 10.136 21 9.88393 20.9019 9.69141C20.8156 9.52206 20.6779 9.38438 20.5086 9.29809C20.3161 9.2 20.064 9.2 19.56 9.2H18.84C18.336 9.2 18.0839 9.2 17.8914 9.29809C17.7221 9.38438 17.5844 9.52206 17.4981 9.69141C17.4 9.88393 17.4 10.136 17.4 10.64V11.36C17.4 11.864 17.4 12.1161 17.4981 12.3086C17.5844 12.4779 17.7221 12.6156 17.8914 12.7019C18.0839 12.8 18.336 12.8 18.84 12.8ZM11.64 5.6H12.36C12.864 5.6 13.1161 5.6 13.3086 5.50191C13.4779 5.41562 13.6156 5.27794 13.7019 5.10859C13.8 4.91607 13.8 4.66405 13.8 4.16V3.44C13.8 2.93595 13.8 2.68393 13.7019 2.49141C13.6156 2.32206 13.4779 2.18438 13.3086 2.09809C13.1161 2 12.864 2 12.36 2H11.64C11.136 2 10.8839 2 10.6914 2.09809C10.5221 2.18438 10.3844 2.32206 10.2981 2.49141C10.2 2.68393 10.2 2.93595 10.2 3.44V4.16C10.2 4.66405 10.2 4.91607 10.2981 5.10859C10.3844 5.27794 10.5221 5.41562 10.6914 5.50191C10.8839 5.6 11.136 5.6 11.64 5.6ZM11.64 20H12.36C12.864 20 13.1161 20 13.3086 19.9019C13.4779 19.8156 13.6156 19.6779 13.7019 19.5086C13.8 19.3161 13.8 19.064 13.8 18.56V17.84C13.8 17.336 13.8 17.0839 13.7019 16.8914C13.6156 16.7221 13.4779 16.5844 13.3086 16.4981C13.1161 16.4 12.864 16.4 12.36 16.4H11.64C11.136 16.4 10.8839 16.4 10.6914 16.4981C10.5221 16.5844 10.3844 16.7221 10.2981 16.8914C10.2 17.0839 10.2 17.336 10.2 17.84V18.56C10.2 19.064 10.2 19.3161 10.2981 19.5086C10.3844 19.6779 10.5221 19.8156 10.6914 19.9019C10.8839 20 11.136 20 11.64 20Z" stroke="black" stroke-width="2" stroke-linecap="round" stroke-linejoin="round"/>
</svg>
