<svg viewBox="0 0 24 24" fill="none" xmlns="http://www.w3.org/2000/svg">
<path d="M10.2 6.8L3.9 6.8M20.1 6.8L13.8 6.8M13.8 7.02676C16.9054 7.82603 19.2 10.645 19.2 13.9999M4.8 13.9999C4.8 10.645 7.09459 7.82603 10.2 7.02676M4.44 17.6H5.16C5.66405 17.6 5.91607 17.6 6.10859 17.5019C6.27794 17.4156 6.41562 17.2779 6.50191 17.1086C6.6 16.9161 6.6 16.664 6.6 16.16V15.44C6.6 14.936 6.6 14.6839 6.50191 14.4914C6.41562 14.3221 6.27794 14.1844 6.10859 14.0981C5.91607 14 5.66405 14 5.16 14H4.44C3.93595 14 3.68393 14 3.49141 14.0981C3.32206 14.1844 3.18438 14.3221 3.09809 14.4914C3 14.6839 3 14.936 3 15.44V16.16C3 16.664 3 16.9161 3.09809 17.1086C3.18438 17.2779 3.32206 17.4156 3.49141 17.5019C3.68393 17.6 3.93595 17.6 4.44 17.6ZM11.64 8.6H12.36C12.864 8.6 13.1161 8.6 13.3086 8.50191C13.4779 8.41562 13.6156 8.27794 13.7019 8.10859C13.8 7.91607 13.8 7.66405 13.8 7.16V6.44C13.8 5.93595 13.8 5.68393 13.7019 5.49141C13.6156 5.32206 13.4779 5.18438 13.3086 5.09809C13.1161 5 12.864 5 12.36 5H11.64C11.136 5 10.8839 5 10.6914 5.09809C10.5221 5.18438 10.3844 5.32206 10.2981 5.49141C10.2 5.68393 10.2 5.93595 10.2 6.44V7.16C10.2 7.66405 10.2 7.91607 10.2981 8.10859C10.3844 8.27794 10.5221 8.41562 10.6914 8.50191C10.8839 8.6 11.136 8.6 11.64 8.6ZM18.84 17.6H19.56C20.064 17.6 20.3161 17.6 20.5086 17.5019C20.6779 17.4156 20.8156 17.2779 20.9019 17.1086C21 16.9161 21 16.664 21 16.16V15.44C21 14.936 21 14.6839 20.9019 14.4914C20.8156 14.3221 20.6779 14.1844 20.5086 14.0981C20.3161 14 20.064 14 19.56 14H18.84C18.336 14 18.0839 14 17.8914 14.0981C17.7221 14.1844 17.5844 14.3221 17.4981 14.4914C17.4 14.6839 17.4 14.936 17.4 15.44V16.16C17.4 16.664 17.4 16.9161 17.4981 17.1086C17.5844 17.2779 17.7221 17.4156 17.8914 17.5019C18.0839 17.6 18.336 17.6 18.84 17.6ZM21 6.8C21 7.29706 20.5971 7.7 20.1 7.7C19.6029 7.7 19.2 7.29706 19.2 6.8C19.2 6.30294 19.6029 5.9 20.1 5.9C20.5971 5.9 21 6.30294 21 6.8ZM4.8 6.8C4.8 7.29706 4.39706 7.7 3.9 7.7C3.40294 7.7 3 7.29706 3 6.8C3 6.30294 3.40294 5.9 3.9 5.9C4.39706 5.9 4.8 6.30294 4.8 6.8Z" stroke="black" stroke-width="2" stroke-linecap="round" stroke-linejoin="round"/>
</svg>