<svg width="24" height="24" viewBox="0 0 24 24" fill="none" xmlns="http://www.w3.org/2000/svg">
<path d="M3 17.04C3 16.536 3 16.2839 3.09809 16.0914C3.18438 15.9221 3.32206 15.7844 3.49141 15.6981C3.68393 15.6 3.93595 15.6 4.44 15.6H5.16C5.66405 15.6 5.91607 15.6 6.10859 15.6981C6.27794 15.7844 6.41562 15.9221 6.50191 16.0914C6.6 16.2839 6.6 16.536 6.6 17.04V17.76C6.6 18.264 6.6 18.5161 6.50191 18.7086C6.41562 18.8779 6.27794 19.0156 6.10859 19.1019C5.91607 19.2 5.66405 19.2 5.16 19.2H4.44C3.93595 19.2 3.68393 19.2 3.49141 19.1019C3.32206 19.0156 3.18438 18.8779 3.09809 18.7086C3 18.5161 3 18.264 3 17.76V17.04Z" fill="white" fill-opacity="0.01"/>
<path d="M17.4 17.04C17.4 16.536 17.4 16.2839 17.4981 16.0914C17.5844 15.9221 17.7221 15.7844 17.8914 15.6981C18.0839 15.6 18.336 15.6 18.84 15.6H19.56C20.064 15.6 20.3161 15.6 20.5086 15.6981C20.6779 15.7844 20.8156 15.9221 20.9019 16.0914C21 16.2839 21 16.536 21 17.04V17.76C21 18.264 21 18.5161 20.9019 18.7086C20.8156 18.8779 20.6779 19.0156 20.5086 19.1019C20.3161 19.2 20.064 19.2 19.56 19.2H18.84C18.336 19.2 18.0839 19.2 17.8914 19.1019C17.7221 19.0156 17.5844 18.8779 17.4981 18.7086C17.4 18.5161 17.4 18.264 17.4 17.76V17.04Z" fill="white" fill-opacity="0.01"/>
<path d="M10.2 4.44C10.2 3.93595 10.2 3.68393 10.2981 3.49141C10.3844 3.32206 10.5221 3.18438 10.6914 3.09809C10.8839 3 11.136 3 11.64 3H12.36C12.864 3 13.1161 3 13.3086 3.09809C13.4779 3.18438 13.6156 3.32206 13.7019 3.49141C13.8 3.68393 13.8 3.93595 13.8 4.44V5.16C13.8 5.66405 13.8 5.91607 13.7019 6.10859C13.6156 6.27794 13.4779 6.41562 13.3086 6.50191C13.1161 6.6 12.864 6.6 12.36 6.6H11.64C11.136 6.6 10.8839 6.6 10.6914 6.50191C10.5221 6.41562 10.3844 6.27794 10.2981 6.10859C10.2 5.91607 10.2 5.66405 10.2 5.16V4.44Z" fill="white" fill-opacity="0.01"/>
<path d="M10.9714 6.6L5.82857 15.6M6.6 17.4H17.3998M18.1714 15.6L13.0286 6.6M4.44 19.2H5.16C5.66405 19.2 5.91607 19.2 6.10859 19.1019C6.27794 19.0156 6.41562 18.8779 6.50191 18.7086C6.6 18.5161 6.6 18.264 6.6 17.76V17.04C6.6 16.536 6.6 16.2839 6.50191 16.0914C6.41562 15.9221 6.27794 15.7844 6.10859 15.6981C5.91607 15.6 5.66405 15.6 5.16 15.6H4.44C3.93595 15.6 3.68393 15.6 3.49141 15.6981C3.32206 15.7844 3.18438 15.9221 3.09809 16.0914C3 16.2839 3 16.536 3 17.04V17.76C3 18.264 3 18.5161 3.09809 18.7086C3.18438 18.8779 3.32206 19.0156 3.49141 19.1019C3.68393 19.2 3.93595 19.2 4.44 19.2ZM18.84 19.2H19.56C20.064 19.2 20.3161 19.2 20.5086 19.1019C20.6779 19.0156 20.8156 18.8779 20.9019 18.7086C21 18.5161 21 18.264 21 17.76V17.04C21 16.536 21 16.2839 20.9019 16.0914C20.8156 15.9221 20.6779 15.7844 20.5086 15.6981C20.3161 15.6 20.064 15.6 19.56 15.6H18.84C18.336 15.6 18.0839 15.6 17.8914 15.6981C17.7221 15.7844 17.5844 15.9221 17.4981 16.0914C17.4 16.2839 17.4 16.536 17.4 17.04V17.76C17.4 18.264 17.4 18.5161 17.4981 18.7086C17.5844 18.8779 17.7221 19.0156 17.8914 19.1019C18.0839 19.2 18.336 19.2 18.84 19.2ZM11.64 6.6H12.36C12.864 6.6 13.1161 6.6 13.3086 6.50191C13.4779 6.41562 13.6156 6.27794 13.7019 6.10859C13.8 5.91607 13.8 5.66405 13.8 5.16V4.44C13.8 3.93595 13.8 3.68393 13.7019 3.49141C13.6156 3.32206 13.4779 3.18438 13.3086 3.09809C13.1161 3 12.864 3 12.36 3H11.64C11.136 3 10.8839 3 10.6914 3.09809C10.5221 3.18438 10.3844 3.32206 10.2981 3.49141C10.2 3.68393 10.2 3.93595 10.2 4.44V5.16C10.2 5.66405 10.2 5.91607 10.2981 6.10859C10.3844 6.27794 10.5221 6.41562 10.6914 6.50191C10.8839 6.6 11.136 6.6 11.64 6.6Z" stroke="black" stroke-width="2" stroke-linecap="round" stroke-linejoin="round"/>
</svg>
