<svg width="24" height="24" viewBox="0 0 24 24" fill="none" xmlns="http://www.w3.org/2000/svg">
<path d="M3 6.88C3 5.87191 3 5.36786 3.19619 4.98282C3.36876 4.64413 3.64413 4.36876 3.98282 4.19619C4.36786 4 4.87191 4 5.88 4H6.24C8.25619 4 9.26428 4 10.0344 4.39238C10.7117 4.73752 11.2625 5.28825 11.6076 5.96563C12 6.73572 12 7.74381 12 9.76V18.4H5.88C4.87191 18.4 4.36786 18.4 3.98282 18.2038C3.64413 18.0312 3.36876 17.7559 3.19619 17.4172C3 17.0321 3 16.5281 3 15.52V6.88Z" fill="white" fill-opacity="0.01"/>
<path d="M21 6.88C21 5.87191 21 5.36786 20.8038 4.98282C20.6312 4.64413 20.3559 4.36876 20.0172 4.19619C19.6321 4 19.1281 4 18.12 4H17.76C15.7438 4 14.7357 4 13.9656 4.39238C13.2883 4.73752 12.7375 5.28825 12.3924 5.96563C12 6.73572 12 7.74381 12 9.76V18.4H18.12C19.1281 18.4 19.6321 18.4 20.0172 18.2038C20.3559 18.0312 20.6312 17.7559 20.8038 17.4172C21 17.0321 21 16.5281 21 15.52V6.88Z" fill="white" fill-opacity="0.01"/>
<path d="M12 18.4H5.88C4.87191 18.4 4.36786 18.4 3.98282 18.2038C3.64413 18.0312 3.36876 17.7559 3.19619 17.4172C3 17.0321 3 16.5281 3 15.52V6.88C3 5.87191 3 5.36786 3.19619 4.98282C3.36876 4.64413 3.64413 4.36876 3.98282 4.19619C4.36786 4 4.87191 4 5.88 4H6.24C8.25619 4 9.26428 4 10.0344 4.39238C10.7117 4.73752 11.2625 5.28825 11.6076 5.96563C12 6.73572 12 7.74381 12 9.76M12 18.4V9.76M12 18.4H18.12C19.1281 18.4 19.6321 18.4 20.0172 18.2038C20.3559 18.0312 20.6312 17.7559 20.8038 17.4172C21 17.0321 21 16.5281 21 15.52V6.88C21 5.87191 21 5.36786 20.8038 4.98282C20.6312 4.64413 20.3559 4.36876 20.0172 4.19619C19.6321 4 19.1281 4 18.12 4H17.76C15.7438 4 14.7357 4 13.9656 4.39238C13.2883 4.73752 12.7375 5.28825 12.3924 5.96563C12 6.73572 12 7.74381 12 9.76" stroke="black" stroke-width="2" stroke-linecap="round" stroke-linejoin="round"/>
</svg>
