<svg width="24" height="24" viewBox="0 0 24 24" fill="none" xmlns="http://www.w3.org/2000/svg">
<path d="M12 19.2L11.91 19.0649C11.2848 18.1272 10.9722 17.6583 10.5592 17.3188C10.1936 17.0183 9.77229 16.7929 9.31944 16.6553C8.80793 16.5 8.2444 16.5 7.11734 16.5H5.88C4.87191 16.5 4.36786 16.5 3.98282 16.3038C3.64413 16.1312 3.36876 15.8559 3.19619 15.5172C3 15.1321 3 14.6281 3 13.62V5.88C3 4.87191 3 4.36786 3.19619 3.98282C3.36876 3.64413 3.64413 3.36876 3.98282 3.19619C4.36786 3 4.87191 3 5.88 3H6.24C8.25619 3 9.26428 3 10.0344 3.39238C10.7117 3.73752 11.2625 4.28825 11.6076 4.96563C12 5.73572 12 6.74381 12 8.76M12 19.2V8.76M12 19.2L12.09 19.0649C12.7152 18.1272 13.0278 17.6583 13.4408 17.3188C13.8064 17.0183 14.2277 16.7929 14.6806 16.6553C15.1921 16.5 15.7556 16.5 16.8827 16.5H18.12C19.1281 16.5 19.6321 16.5 20.0172 16.3038C20.3559 16.1312 20.6312 15.8559 20.8038 15.5172C21 15.1321 21 14.6281 21 13.62V5.88C21 4.87191 21 4.36786 20.8038 3.98282C20.6312 3.64413 20.3559 3.36876 20.0172 3.19619C19.6321 3 19.1281 3 18.12 3H17.76C15.7438 3 14.7357 3 13.9656 3.39238C13.2883 3.73752 12.7375 4.28825 12.3924 4.96563C12 5.73572 12 6.74381 12 8.76" stroke="black" stroke-width="2" stroke-linecap="round" stroke-linejoin="round"/>
</svg>
