<svg width="24" height="24" viewBox="0 0 24 24" fill="none" xmlns="http://www.w3.org/2000/svg">
<path d="M18.4 18.3V15.6H6.7C5.20883 15.6 4 16.8088 4 18.3M8.32 21H15.52C16.5281 21 17.0321 21 17.4172 20.8038C17.7559 20.6312 18.0312 20.3559 18.2038 20.0172C18.4 19.6321 18.4 19.1281 18.4 18.12V5.88C18.4 4.87191 18.4 4.36786 18.2038 3.98282C18.0312 3.64413 17.7559 3.36876 17.4172 3.19619C17.0321 3 16.5281 3 15.52 3H8.32C6.80786 3 6.05179 3 5.47423 3.29428C4.96619 3.55314 4.55314 3.96619 4.29428 4.47423C4 5.05179 4 5.80786 4 7.32V16.68C4 18.1921 4 18.9482 4.29428 19.5258C4.55314 20.0338 4.96619 20.4469 5.47423 20.7057C6.05179 21 6.80786 21 8.32 21Z" stroke="black" stroke-width="2" stroke-linecap="round" stroke-linejoin="round"/>
</svg>
