<svg viewBox="0 0 24 24" fill="none" xmlns="http://www.w3.org/2000/svg">
<path d="M19.65 7.5V14.88C19.65 16.3921 19.65 17.1482 19.3557 17.7258C19.0969 18.2338 18.6838 18.6469 18.1758 18.9057C17.5982 19.2 16.8421 19.2 15.33 19.2H8.67C7.15786 19.2 6.40179 19.2 5.82423 18.9057C5.31619 18.6469 4.90314 18.2338 4.64428 17.7258C4.35 17.1482 4.35 16.3921 4.35 14.88V7.5M4.44 3H19.56C20.064 3 20.3161 3 20.5086 3.09809C20.6779 3.18438 20.8156 3.32206 20.9019 3.49141C21 3.68393 21 3.93595 21 4.44V6.06C21 6.56405 21 6.81607 20.9019 7.00859C20.8156 7.17794 20.6779 7.31562 20.5086 7.40191C20.3161 7.5 20.064 7.5 19.56 7.5H4.44C3.93595 7.5 3.68393 7.5 3.49141 7.40191C3.32206 7.31562 3.18438 7.17794 3.09809 7.00859C3 6.81607 3 6.56405 3 6.06V4.44C3 3.93595 3 3.68393 3.09809 3.49141C3.18438 3.32206 3.32206 3.18438 3.49141 3.09809C3.68393 3 3.93595 3 4.44 3ZM9.84 10.65H14.16C14.664 10.65 14.9161 10.65 15.1086 10.7481C15.2779 10.8344 15.4156 10.9721 15.5019 11.1414C15.6 11.3339 15.6 11.586 15.6 12.09V12.81C15.6 13.314 15.6 13.5661 15.5019 13.7586C15.4156 13.9279 15.2779 14.0656 15.1086 14.1519C14.9161 14.25 14.664 14.25 14.16 14.25H9.84C9.33595 14.25 9.08393 14.25 8.89141 14.1519C8.72206 14.0656 8.58438 13.9279 8.49809 13.7586C8.4 13.5661 8.4 13.314 8.4 12.81V12.09C8.4 11.586 8.4 11.3339 8.49809 11.1414C8.58438 10.9721 8.72206 10.8344 8.89141 10.7481C9.08393 10.65 9.33595 10.65 9.84 10.65Z" stroke="black" stroke-width="2" stroke-linecap="round" stroke-linejoin="round"/>
</svg>