<svg width="24" height="24" viewBox="0 0 24 24" fill="none" xmlns="http://www.w3.org/2000/svg">
<path d="M3 9.48C3 8.47191 3 7.96786 3.19619 7.58282C3.36876 7.24413 3.64413 6.96876 3.98282 6.79619C4.36786 6.6 4.87191 6.6 5.88 6.6H18.12C19.1281 6.6 19.6321 6.6 20.0172 6.79619C20.3559 6.96876 20.6312 7.24413 20.8038 7.58282C21 7.96786 21 8.47191 21 9.48V16.32C21 17.3281 21 17.8321 20.8038 18.2172C20.6312 18.5559 20.3559 18.8312 20.0172 19.0038C19.6321 19.2 19.1281 19.2 18.12 19.2H5.88C4.87191 19.2 4.36786 19.2 3.98282 19.0038C3.64413 18.8312 3.36876 18.5559 3.19619 18.2172C3 17.8321 3 17.3281 3 16.32V9.48Z" fill="white" fill-opacity="0.01"/>
<path d="M15.6 6.6C15.6 5.76303 15.6 5.34454 15.508 5.00119C15.2583 4.06944 14.5306 3.34166 13.5988 3.092C13.2555 3 12.837 3 12 3C11.163 3 10.7445 3 10.4012 3.092C9.46944 3.34166 8.74166 4.06944 8.492 5.00119C8.4 5.34454 8.4 5.76303 8.4 6.6M5.88 19.2H18.12C19.1281 19.2 19.6321 19.2 20.0172 19.0038C20.3559 18.8312 20.6312 18.5559 20.8038 18.2172C21 17.8321 21 17.3281 21 16.32V9.48C21 8.47191 21 7.96786 20.8038 7.58282C20.6312 7.24413 20.3559 6.96876 20.0172 6.79619C19.6321 6.6 19.1281 6.6 18.12 6.6H5.88C4.87191 6.6 4.36786 6.6 3.98282 6.79619C3.64413 6.96876 3.36876 7.24413 3.19619 7.58282C3 7.96786 3 8.47191 3 9.48V16.32C3 17.3281 3 17.8321 3.19619 18.2172C3.36876 18.5559 3.64413 18.8312 3.98282 19.0038C4.36786 19.2 4.87191 19.2 5.88 19.2Z" stroke="black" stroke-width="2" stroke-linecap="round" stroke-linejoin="round"/>
</svg>
