<svg width="24" height="24" viewBox="0 0 24 24" fill="none" xmlns="http://www.w3.org/2000/svg">
<path d="M16.8 10.2V4.44C16.8 3.93595 16.8 3.68393 16.7019 3.49141C16.6156 3.32206 16.4779 3.18438 16.3086 3.09809C16.1161 3 15.864 3 15.36 3H7.44C6.93595 3 6.68393 3 6.49141 3.09809C6.32206 3.18438 6.18438 3.32206 6.09809 3.49141C6 3.68393 6 3.93595 6 4.44V10.2M16.8 10.2H6M16.8 10.2V10.38C16.8 11.8921 16.8 12.6482 16.5057 13.2258C16.2469 13.7338 15.8338 14.1469 15.3258 14.4057C14.7482 14.7 13.9921 14.7 12.48 14.7H10.32C8.80786 14.7 8.05179 14.7 7.47423 14.4057C6.96619 14.1469 6.55314 13.7338 6.29428 13.2258C6 12.6482 6 11.8921 6 10.38V10.2M13.65 14.7V18.75C13.65 19.9926 12.6426 21 11.4 21C10.1574 21 9.15 19.9926 9.15 18.75V14.7" stroke="black" stroke-width="2" stroke-linecap="round" stroke-linejoin="round"/>
</svg>
