<svg width="24" height="24" viewBox="0 0 24 24" fill="none" xmlns="http://www.w3.org/2000/svg">
<path d="M18.4 10.2V4.44C18.4 3.93595 18.4 3.68393 18.3019 3.49141C18.2156 3.32206 18.0779 3.18438 17.9086 3.09809C17.7161 3 17.464 3 16.96 3H5.44C4.93595 3 4.68393 3 4.49141 3.09809C4.32206 3.18438 4.18438 3.32206 4.09809 3.49141C4 3.68393 4 3.93595 4 4.44V10.2M18.4 10.2H4M18.4 10.2V10.38C18.4 11.8921 18.4 12.6482 18.1057 13.2258C17.8469 13.7338 17.4338 14.1469 16.9258 14.4057C16.3482 14.7 15.5921 14.7 14.08 14.7H8.32C6.80786 14.7 6.05179 14.7 5.47423 14.4057C4.96619 14.1469 4.55314 13.7338 4.29428 13.2258C4 12.6482 4 11.8921 4 10.38V10.2M13.45 14.7V18.75C13.45 19.9926 12.4426 21 11.2 21C9.95736 21 8.95 19.9926 8.95 18.75V14.7" stroke="black" stroke-width="2" stroke-linecap="round" stroke-linejoin="round"/>
</svg>
