<svg width="24" height="24" viewBox="0 0 24 24" fill="none" xmlns="http://www.w3.org/2000/svg">
<path d="M7.95 6.6H10.425M7.95 10.2H10.425M7.95 13.8H10.425M13.575 6.6H16.05M13.575 10.2H16.05M13.575 13.8H16.05M19.2 19.2V5.88C19.2 4.87191 19.2 4.36786 19.0038 3.98282C18.8312 3.64413 18.5559 3.36876 18.2172 3.19619C17.8321 3 17.3281 3 16.32 3H7.68C6.67191 3 6.16786 3 5.78282 3.19619C5.44413 3.36876 5.16876 3.64413 4.99619 3.98282C4.8 4.36786 4.8 4.87191 4.8 5.88V19.2M21 19.2H3" stroke="black" stroke-width="2" stroke-linecap="round" stroke-linejoin="round"/>
</svg>
