<svg width="24" height="24" viewBox="0 0 24 24" fill="none" xmlns="http://www.w3.org/2000/svg">
<path d="M7.95 18.3V20.28C7.95 20.532 7.95 20.658 7.90095 20.7543C7.85781 20.839 7.78897 20.9078 7.7043 20.951C7.60804 21 7.48202 21 7.23 21H5.52C5.26798 21 5.14196 21 5.0457 20.951C4.96103 20.9078 4.89219 20.839 4.84905 20.7543C4.8 20.658 4.8 20.532 4.8 20.28V18.3M17.4 18.3V20.28C17.4 20.532 17.4 20.658 17.351 20.7543C17.3078 20.839 17.239 20.9078 17.1543 20.951C17.058 21 16.932 21 16.68 21H14.97C14.718 21 14.592 21 14.4957 20.951C14.411 20.9078 14.3422 20.839 14.299 20.7543C14.25 20.658 14.25 20.532 14.25 20.28V18.3M3 12H19.2M3 6.15H19.2M6.15 15.15H7.5M14.7 15.15H16.05M7.32 18.3H14.88C16.3921 18.3 17.1482 18.3 17.7258 18.0057C18.2338 17.7469 18.6469 17.3338 18.9057 16.8258C19.2 16.2482 19.2 15.4921 19.2 13.98V7.32C19.2 5.80786 19.2 5.05179 18.9057 4.47423C18.6469 3.96619 18.2338 3.55314 17.7258 3.29428C17.1482 3 16.3921 3 14.88 3H7.32C5.80786 3 5.05179 3 4.47423 3.29428C3.96619 3.55314 3.55314 3.96619 3.29428 4.47423C3 5.05179 3 5.80786 3 7.32V13.98C3 15.4921 3 16.2482 3.29428 16.8258C3.55314 17.3338 3.96619 17.7469 4.47423 18.0057C5.05179 18.3 5.80786 18.3 7.32 18.3Z" stroke="black" stroke-width="2" stroke-linecap="round" stroke-linejoin="round"/>
</svg>
