<svg width="24" height="24" viewBox="0 0 24 24" fill="none" xmlns="http://www.w3.org/2000/svg">
<path d="M3 9.12C3 7.60786 3 6.85179 3.29428 6.27423C3.55314 5.76619 3.96619 5.35314 4.47423 5.09428C5.05179 4.8 5.80786 4.8 7.32 4.8H14.88C16.3921 4.8 17.1482 4.8 17.7258 5.09428C18.2338 5.35314 18.6469 5.76619 18.9057 6.27423C19.2 6.85179 19.2 7.60786 19.2 9.12V16.68C19.2 18.1921 19.2 18.9482 18.9057 19.5258C18.6469 20.0338 18.2338 20.4469 17.7258 20.7057C17.1482 21 16.3921 21 14.88 21H7.32C5.80786 21 5.05179 21 4.47423 20.7057C3.96619 20.4469 3.55314 20.0338 3.29428 19.5258C3 18.9482 3 18.1921 3 16.68V9.12Z" fill="white" fill-opacity="0.01"/>
<path d="M19.2 8.4H3M14.7 3V5.7M7.5 3V5.7M11.1 17.4V12M8.4 14.7H13.8M7.32 21H14.88C16.3921 21 17.1482 21 17.7258 20.7057C18.2338 20.4469 18.6469 20.0338 18.9057 19.5258C19.2 18.9482 19.2 18.1921 19.2 16.68V9.12C19.2 7.60786 19.2 6.85179 18.9057 6.27423C18.6469 5.76619 18.2338 5.35314 17.7258 5.09428C17.1482 4.8 16.3921 4.8 14.88 4.8H7.32C5.80786 4.8 5.05179 4.8 4.47423 5.09428C3.96619 5.35314 3.55314 5.76619 3.29428 6.27423C3 6.85179 3 7.60786 3 9.12V16.68C3 18.1921 3 18.9482 3.29428 19.5258C3.55314 20.0338 3.96619 20.4469 4.47423 20.7057C5.05179 21 5.80786 21 7.32 21Z" stroke="black" stroke-width="2" stroke-linecap="round" stroke-linejoin="round"/>
</svg>
