<svg width="24" height="24" viewBox="0 0 24 24" fill="none" xmlns="http://www.w3.org/2000/svg">
<path fill-rule="evenodd" clip-rule="evenodd" d="M16.0478 15.3407C15.418 14.6395 14.3678 14.4509 13.5787 15.093C12.7896 15.7351 12.6785 16.8087 13.2982 17.5681C13.9179 18.3275 16.0478 20.1 16.0478 20.1C16.0478 20.1 18.1778 18.3275 18.7975 17.5681C19.4171 16.8087 19.3196 15.7284 18.517 15.093C17.7143 14.4576 16.6776 14.6395 16.0478 15.3407Z" fill="white" fill-opacity="0.01"/>
<path d="M19.2 10.2H3M19.2 11.55V9.12C19.2 7.60786 19.2 6.85179 18.9057 6.27423C18.6469 5.76619 18.2338 5.35314 17.7258 5.09428C17.1482 4.8 16.3921 4.8 14.88 4.8H7.32C5.80786 4.8 5.05179 4.8 4.47423 5.09428C3.96619 5.35314 3.55314 5.76619 3.29428 6.27423C3 6.85179 3 7.60786 3 9.12V16.68C3 18.1921 3 18.9482 3.29428 19.5258C3.55314 20.0338 3.96619 20.4469 4.47423 20.7057C5.05179 21 5.80786 21 7.32 21H11.55M14.7 3V6.6M7.5 3V6.6M16.0478 15.3407C15.418 14.6395 14.3678 14.4509 13.5787 15.093C12.7896 15.7351 12.6785 16.8087 13.2982 17.5681C13.9179 18.3275 16.0478 20.1 16.0478 20.1C16.0478 20.1 18.1778 18.3275 18.7975 17.5681C19.4171 16.8087 19.3196 15.7284 18.517 15.093C17.7143 14.4576 16.6776 14.6395 16.0478 15.3407Z" stroke="black" stroke-width="2" stroke-linecap="round" stroke-linejoin="round"/>
</svg>
