<svg viewBox="0 0 24 24" fill="none" xmlns="http://www.w3.org/2000/svg">
<path d="M19.2 10.2H3M14.7 3V6.6M7.5 3V6.6M8.4 15.6L10.2 17.4L14.25 13.35M7.32 21H14.88C16.3921 21 17.1482 21 17.7258 20.7057C18.2338 20.4469 18.6469 20.0338 18.9057 19.5258C19.2 18.9482 19.2 18.1921 19.2 16.68V9.12C19.2 7.60786 19.2 6.85179 18.9057 6.27423C18.6469 5.76619 18.2338 5.35314 17.7258 5.09428C17.1482 4.8 16.3921 4.8 14.88 4.8H7.32C5.80786 4.8 5.05179 4.8 4.47423 5.09428C3.96619 5.35314 3.55314 5.76619 3.29428 6.27423C3 6.85179 3 7.60786 3 9.12V16.68C3 18.1921 3 18.9482 3.29428 19.5258C3.55314 20.0338 3.96619 20.4469 4.47423 20.7057C5.05179 21 5.80786 21 7.32 21Z" stroke="black" stroke-width="2" stroke-linecap="round" stroke-linejoin="round"/>
</svg>