<svg width="24" height="24" viewBox="0 0 24 24" fill="none" xmlns="http://www.w3.org/2000/svg">
<path d="M21 7.7395V16.4C21 17.3762 20.4819 18.2314 19.7057 18.7057L14.7607 13.7607L9.68932 8.68932L5.7 4.7H6.07698C6.19705 4.7 6.25709 4.7 6.31145 4.69671C7.00555 4.65467 7.61336 4.21659 7.87273 3.5714C7.89304 3.52087 7.91203 3.46391 7.95 3.35C7.98797 3.23609 8.00696 3.17913 8.02727 3.1286C8.28664 2.48341 8.89445 2.04533 9.58855 2.00329C9.64291 2 9.70295 2 9.82302 2H14.177C14.2971 2 14.3571 2 14.4114 2.00329C15.1055 2.04533 15.7134 2.48341 15.9727 3.1286C15.993 3.17913 16.012 3.23609 16.05 3.35C16.088 3.46391 16.107 3.52087 16.1273 3.5714C16.3866 4.21659 16.9944 4.65467 17.6886 4.69671C17.7429 4.7 17.8069 4.7 17.935 4.7C18.2673 4.7 18.4334 4.7 18.5662 4.71316C19.8469 4.84004 20.86 5.85314 20.9868 7.13379C21 7.26657 21 7.42421 21 7.7395Z" fill="white" fill-opacity="0.01"/>
<path d="M5.7 4.7H6.07698C6.19705 4.7 6.25709 4.7 6.31145 4.69671C7.00555 4.65467 7.61336 4.21659 7.87273 3.5714C7.89304 3.52087 7.91203 3.46391 7.95 3.35C7.98797 3.23609 8.00696 3.17913 8.02727 3.1286C8.28664 2.48341 8.89445 2.04533 9.58855 2.00329C9.64291 2 9.70295 2 9.82302 2H14.177C14.2971 2 14.3571 2 14.4114 2.00329C15.1055 2.04533 15.7134 2.48341 15.9727 3.1286C15.993 3.17913 16.012 3.23609 16.05 3.35C16.088 3.46391 16.107 3.52087 16.1273 3.5714C16.3866 4.21659 16.9944 4.65467 17.6886 4.69671C17.7429 4.7 17.8069 4.7 17.935 4.7C18.2673 4.7 18.4334 4.7 18.5662 4.71316C19.8469 4.84004 20.86 5.85314 20.9868 7.13379C21 7.26657 21 7.42421 21 7.7395V16.4C21 17.3764 20.4817 18.2318 19.7052 18.706M14.7577 13.7643C15.2834 13.1385 15.6 12.3312 15.6 11.45C15.6 9.46177 13.9882 7.85 12 7.85C11.1194 7.85 10.3127 8.16617 9.6871 8.69117M21 20L3 2M3 6.95V14.78C3 16.2921 3 17.0482 3.29428 17.6258C3.55314 18.1338 3.96619 18.5469 4.47423 18.8057C5.05179 19.1 5.80786 19.1 7.32 19.1H15.15M12 15.05C10.0118 15.05 8.4 13.4382 8.4 11.45" stroke="black" stroke-width="2" stroke-linecap="round" stroke-linejoin="round"/>
</svg>
