<svg viewBox="0 0 24 24" fill="none" xmlns="http://www.w3.org/2000/svg">
<path d="M3 7.1316C3 5.78866 4.08866 4.7 5.4316 4.7C6.12936 4.7 6.74883 4.25351 6.96948 3.59156L7.05 3.35C7.08797 3.23609 7.10696 3.17913 7.12727 3.1286C7.38664 2.48341 7.99445 2.04533 8.68855 2.00329C8.74291 2 8.80295 2 8.92302 2H15.077C15.1971 2 15.2571 2 15.3114 2.00329C16.0055 2.04533 16.6134 2.48341 16.8727 3.1286C16.893 3.17913 16.912 3.23609 16.95 3.35L17.0305 3.59156C17.2512 4.25351 17.8706 4.7 18.5684 4.7C19.9113 4.7 21 5.78866 21 7.1316V14.78C21 16.2921 21 17.0482 20.7057 17.6258C20.4469 18.1338 20.0338 18.5469 19.5258 18.8057C18.9482 19.1 18.1921 19.1 16.68 19.1H7.32C5.80786 19.1 5.05179 19.1 4.47423 18.8057C3.96619 18.5469 3.55314 18.1338 3.29428 17.6258C3 17.0482 3 16.2921 3 14.78V7.1316Z" stroke="black" stroke-width="2" stroke-linecap="round" stroke-linejoin="round"/>
<path d="M12 15.05C14.2368 15.05 16.05 13.2368 16.05 11C16.05 8.76325 14.2368 6.95 12 6.95C9.76325 6.95 7.95 8.76325 7.95 11C7.95 13.2368 9.76325 15.05 12 15.05Z" stroke="black" stroke-width="2" stroke-linecap="round" stroke-linejoin="round"/>
</svg>