<svg viewBox="0 0 24 24" fill="none" xmlns="http://www.w3.org/2000/svg">
<path d="M3 7.32C3 5.80786 3 5.05179 3.29428 4.47423C3.55314 3.96619 3.96619 3.55314 4.47423 3.29428C5.05179 3 5.80786 3 7.32 3H16.68C18.1921 3 18.9482 3 19.5258 3.29428C20.0338 3.55314 20.4469 3.96619 20.7057 4.47423C21 5.05179 21 5.80786 21 7.32V14.88C21 16.3921 21 17.1482 20.7057 17.7258C20.4469 18.2338 20.0338 18.6469 19.5258 18.9057C18.9482 19.2 18.1921 19.2 16.68 19.2H7.32C5.80786 19.2 5.05179 19.2 4.47423 18.9057C3.96619 18.6469 3.55314 18.2338 3.29428 17.7258C3 17.1482 3 16.3921 3 14.88V7.32Z" stroke="black" stroke-width="2" stroke-linecap="round" stroke-linejoin="round"/>
<path d="M12 14.7C13.9882 14.7 15.6 13.0882 15.6 11.1C15.6 9.11177 13.9882 7.5 12 7.5C10.0118 7.5 8.4 9.11177 8.4 11.1C8.4 13.0882 10.0118 14.7 12 14.7Z" stroke="black" stroke-width="2" stroke-linecap="round" stroke-linejoin="round"/>
</svg>