<svg width="24" height="24" viewBox="0 0 24 24" fill="none" xmlns="http://www.w3.org/2000/svg">
<path d="M17.4 3H4.8C3.80589 3 3 3.89543 3 5V19C3 20.1046 3.80589 21 4.8 21H17.4C18.3941 21 19.2 20.1046 19.2 19V5C19.2 3.89543 18.3941 3 17.4 3Z" fill="white" fill-opacity="0.01"/>
<path fill-rule="evenodd" clip-rule="evenodd" d="M11.0978 6.79074C10.468 6.08952 9.41782 5.90089 8.62873 6.543C7.83964 7.18511 7.72854 8.25869 8.34822 9.01812C8.9679 9.77755 11.0978 11.55 11.0978 11.55C11.0978 11.55 13.2278 9.77755 13.8475 9.01812C14.4671 8.25869 14.3696 7.17836 13.567 6.543C12.7643 5.90765 11.7276 6.08952 11.0978 6.79074Z" fill="white" fill-opacity="0.01"/>
<path d="M8.4 17.85H13.8M6.6 14.7H15.6M4.8 3H17.4C18.3941 3 19.2 3.89543 19.2 5V19C19.2 20.1046 18.3941 21 17.4 21H4.8C3.80589 21 3 20.1046 3 19V5C3 3.89543 3.80589 3 4.8 3ZM11.0978 6.79074C10.468 6.08952 9.41782 5.90089 8.62873 6.543C7.83964 7.18511 7.72854 8.25869 8.34822 9.01812C8.9679 9.77755 11.0978 11.55 11.0978 11.55C11.0978 11.55 13.2278 9.77755 13.8475 9.01812C14.4671 8.25869 14.3696 7.17836 13.567 6.543C12.7643 5.90765 11.7276 6.08952 11.0978 6.79074Z" stroke="black" stroke-width="2" stroke-linecap="round" stroke-linejoin="round"/>
</svg>
