<svg width="24" height="24" viewBox="0 0 24 24" fill="none" xmlns="http://www.w3.org/2000/svg">
<path d="M8.3 12L10.1 13.8L14.15 9.75M16.3111 5.69866C16.4964 6.14688 16.8521 6.50316 17.3 6.68917L18.8707 7.33978C19.319 7.52545 19.6751 7.88159 19.8608 8.32985C20.0464 8.77811 20.0464 9.28177 19.8608 9.73003L19.2106 11.2996C19.0249 11.7481 19.0246 12.2522 19.2112 12.7005L19.8602 14.2696C19.9523 14.4916 19.9996 14.7296 19.9997 14.97C19.9997 15.2103 19.9524 15.4483 19.8604 15.6703C19.7685 15.8924 19.6336 16.0941 19.4637 16.264C19.2937 16.434 19.0919 16.5687 18.8699 16.6606L17.3003 17.3108C16.8521 17.4961 16.4958 17.8519 16.3098 18.2998L15.6593 19.8705C15.4736 20.3188 15.1175 20.6749 14.6692 20.8606C14.221 21.0463 13.7173 21.0463 13.2691 20.8606L11.6996 20.2104C11.2513 20.0252 10.7478 20.0256 10.2999 20.2115L8.7292 20.8612C8.28121 21.0464 7.77801 21.0463 7.33013 20.8607C6.88225 20.6752 6.52633 20.3195 6.34053 19.8717L5.68975 18.3005C5.50442 17.8523 5.14869 17.496 4.70076 17.31L3.1301 16.6594C2.68205 16.4738 2.32603 16.1179 2.14029 15.6699C1.95456 15.2219 1.95431 14.7185 2.13959 14.2703L2.78972 12.7007C2.97493 12.2524 2.97455 11.7489 2.78867 11.301L2.13948 9.72911C2.04743 9.50709 2.00004 9.26911 2 9.02877C1.99996 8.78843 2.04728 8.55044 2.13925 8.32839C2.23122 8.10634 2.36604 7.9046 2.53601 7.73468C2.70598 7.56476 2.90776 7.43 3.12983 7.33809L4.69937 6.68795C5.14718 6.50277 5.50324 6.14748 5.68937 5.70005L6.33996 4.12933C6.52563 3.68107 6.88176 3.32493 7.33 3.13926C7.77824 2.95358 8.28188 2.95358 8.73012 3.13926L10.2997 3.7894C10.7479 3.97462 11.2514 3.97424 11.6993 3.78835L13.2707 3.14026C13.7189 2.95469 14.2224 2.95473 14.6705 3.14037C15.1187 3.32601 15.4748 3.68205 15.6605 4.13019L16.3113 5.70138L16.3111 5.69866Z" stroke="black" stroke-width="2" stroke-linecap="round" stroke-linejoin="round"/>
</svg>
