<svg viewBox="0 0 24 24" fill="none" xmlns="http://www.w3.org/2000/svg">
<path d="M3 11.145C4.82771 11.3483 6.53185 12.1674 7.8322 13.4678C9.13256 14.7682 9.95172 16.4723 10.155 18.3M3 14.79C3.8648 14.9664 4.65865 15.3932 5.28274 16.0172C5.90684 16.6413 6.33363 17.4352 6.51 18.3M3 18.3H3.009M13.8 19.2H16.68C18.1921 19.2 18.9482 19.2 19.5258 18.9057C20.0338 18.6469 20.4469 18.2338 20.7057 17.7258C21 17.1482 21 16.3921 21 14.88V7.32C21 5.80786 21 5.05179 20.7057 4.47423C20.4469 3.96619 20.0338 3.55314 19.5258 3.29428C18.9482 3 18.1921 3 16.68 3H7.32C5.80786 3 5.05179 3 4.47423 3.29428C3.96619 3.55314 3.55314 3.96619 3.29428 4.47423C3 5.05179 3 5.80786 3 7.32V7.5" stroke="black" stroke-width="2" stroke-linecap="round" stroke-linejoin="round"/>
</svg>