<svg width="24" height="24" viewBox="0 0 24 24" fill="none" xmlns="http://www.w3.org/2000/svg">
<path d="M3 7.32C3 5.80786 3 5.05179 3.29428 4.47423C3.55314 3.96619 3.96619 3.55314 4.47423 3.29428C5.05179 3 5.80786 3 7.32 3H16.68C18.1921 3 18.9482 3 19.5258 3.29428C20.0338 3.55314 20.4469 3.96619 20.7057 4.47423C21 5.05179 21 5.80786 21 7.32V14.88C21 16.3921 21 17.1482 20.7057 17.7258C20.4469 18.2338 20.0338 18.6469 19.5258 18.9057C18.9482 19.2 18.1921 19.2 16.68 19.2H7.32C5.80786 19.2 5.05179 19.2 4.47423 18.9057C3.96619 18.6469 3.55314 18.2338 3.29428 17.7258C3 17.1482 3 16.3921 3 14.88V7.32Z" fill="white" fill-opacity="0.01"/>
<path d="M9.3 3L8.4 7.5M15.6 3L14.7 7.5M21 7.5H3M7.32 19.2H16.68C18.1921 19.2 18.9482 19.2 19.5258 18.9057C20.0338 18.6469 20.4469 18.2338 20.7057 17.7258C21 17.1482 21 16.3921 21 14.88V7.32C21 5.80786 21 5.05179 20.7057 4.47423C20.4469 3.96619 20.0338 3.55314 19.5258 3.29428C18.9482 3 18.1921 3 16.68 3H7.32C5.80786 3 5.05179 3 4.47423 3.29428C3.96619 3.55314 3.55314 3.96619 3.29428 4.47423C3 5.05179 3 5.80786 3 7.32V14.88C3 16.3921 3 17.1482 3.29428 17.7258C3.55314 18.2338 3.96619 18.6469 4.47423 18.9057C5.05179 19.2 5.80786 19.2 7.32 19.2Z" stroke="black" stroke-width="2" stroke-linecap="round" stroke-linejoin="round"/>
</svg>
