<svg width="24" height="24" viewBox="0 0 24 24" fill="none" xmlns="http://www.w3.org/2000/svg">
<path d="M7.6 4.44C7.6 3.93595 7.6 3.68393 7.69809 3.49141C7.78438 3.32206 7.92206 3.18438 8.09141 3.09809C8.28393 3 8.53595 3 9.04 3H13.36C13.864 3 14.1161 3 14.3086 3.09809C14.4779 3.18438 14.6156 3.32206 14.7019 3.49141C14.8 3.68393 14.8 3.93595 14.8 4.44V5.16C14.8 5.66405 14.8 5.91607 14.7019 6.10859C14.6156 6.27794 14.4779 6.41562 14.3086 6.50191C14.1161 6.6 13.864 6.6 13.36 6.6H9.04C8.53595 6.6 8.28393 6.6 8.09141 6.50191C7.92206 6.41562 7.78438 6.27794 7.69809 6.10859C7.6 5.91607 7.6 5.66405 7.6 5.16V4.44Z" fill="white" fill-opacity="0.01"/>
<path d="M14.8 4.8C15.637 4.8 16.0555 4.8 16.3988 4.892C17.3306 5.14166 18.0583 5.86944 18.308 6.80119C18.4 7.14454 18.4 7.56303 18.4 8.4V16.68C18.4 18.1921 18.4 18.9482 18.1057 19.5258C17.8469 20.0338 17.4338 20.4469 16.9258 20.7057C16.3482 21 15.5921 21 14.08 21H8.32C6.80786 21 6.05179 21 5.47423 20.7057C4.96619 20.4469 4.55314 20.0338 4.29428 19.5258C4 18.9482 4 18.1921 4 16.68V8.4C4 7.56303 4 7.14454 4.092 6.80119C4.34166 5.86944 5.06944 5.14166 6.00119 4.892C6.34454 4.8 6.76303 4.8 7.6 4.8M8.5 13.8H13.9M9.04 6.6H13.36C13.864 6.6 14.1161 6.6 14.3086 6.50191C14.4779 6.41562 14.6156 6.27794 14.7019 6.10859C14.8 5.91607 14.8 5.66405 14.8 5.16V4.44C14.8 3.93595 14.8 3.68393 14.7019 3.49141C14.6156 3.32206 14.4779 3.18438 14.3086 3.09809C14.1161 3 13.864 3 13.36 3H9.04C8.53595 3 8.28393 3 8.09141 3.09809C7.92206 3.18438 7.78438 3.32206 7.69809 3.49141C7.6 3.68393 7.6 3.93595 7.6 4.44V5.16C7.6 5.66405 7.6 5.91607 7.69809 6.10859C7.78438 6.27794 7.92206 6.41562 8.09141 6.50191C8.28393 6.6 8.53595 6.6 9.04 6.6Z" stroke="black" stroke-width="2" stroke-linecap="round" stroke-linejoin="round"/>
</svg>
