<svg width="24" height="24" viewBox="0 0 24 24" fill="none" xmlns="http://www.w3.org/2000/svg">
<path d="M11.15 9.75V13.35L13.4 14.7" fill="white" fill-opacity="0.01"/>
<path d="M11.15 21C15.375 21 18.8 17.575 18.8 13.35C18.8 9.12502 15.375 5.7 11.15 5.7C6.92502 5.7 3.5 9.12502 3.5 13.35C3.5 17.575 6.92502 21 11.15 21Z" fill="white" fill-opacity="0.01"/>
<path d="M9.35 3H12.95H9.35Z" fill="white" fill-opacity="0.01"/>
<path d="M18.6461 6.23284L17.2961 4.88284L17.9711 5.55784" fill="white" fill-opacity="0.01"/>
<path d="M3.65392 6.23284L5.00392 4.88284L4.32892 5.55784" fill="white" fill-opacity="0.01"/>
<path d="M11.15 9.75V13.35L13.4 14.7M11.15 5.7C6.92502 5.7 3.5 9.12502 3.5 13.35C3.5 17.575 6.92502 21 11.15 21C15.375 21 18.8 17.575 18.8 13.35C18.8 9.12502 15.375 5.7 11.15 5.7ZM11.15 5.7V3M9.35 3H12.95M18.6461 6.23284L17.2961 4.88284L17.9711 5.55784M3.65392 6.23284L5.00392 4.88284L4.32892 5.55784" stroke="black" stroke-width="2" stroke-linecap="round" stroke-linejoin="round"/>
</svg>
