<svg width="24" height="24" viewBox="0 0 24 24" fill="none" xmlns="http://www.w3.org/2000/svg">
<path d="M6.6 20C4.61177 20 3 18.3882 3 16.4C3 14.4118 4.61177 12.8 6.6 12.8C6.702 12.8 6.803 12.8042 6.90285 12.8126C7.6406 10.7087 9.64412 9.2 12 9.2C14.0023 9.2 15.7501 10.2898 16.6826 11.9087C16.771 11.9029 16.8601 11.9 16.95 11.9C19.1868 11.9 21 13.7132 21 15.95C21 18.1868 19.1868 20 16.95 20C13.587 20 10.2491 20 6.6 20Z" fill="white" fill-opacity="0.01"/>
<path d="M4.03502 10.1C3.94648 9.6638 3.9 9.21233 3.9 8.75C3.9 5.02208 6.92208 2 10.65 2C14.0728 2 16.9005 4.54758 17.3405 7.85M6.6 20C4.61177 20 3 18.3882 3 16.4C3 14.4118 4.61177 12.8 6.6 12.8C6.702 12.8 6.803 12.8042 6.90285 12.8126C7.6406 10.7087 9.64412 9.2 12 9.2C14.0023 9.2 15.7501 10.2898 16.6826 11.9087C16.771 11.9029 16.8601 11.9 16.95 11.9C19.1868 11.9 21 13.7132 21 15.95C21 18.1868 19.1868 20 16.95 20C13.587 20 10.2491 20 6.6 20Z" stroke="black" stroke-width="2" stroke-linecap="round" stroke-linejoin="round"/>
</svg>
