<svg width="24" height="24" viewBox="0 0 24 24" fill="none" xmlns="http://www.w3.org/2000/svg">
<path d="M16.05 11.9164C18.3691 11.9164 20.3157 10.3215 20.8529 8.16879C20.4678 8.26494 20.0649 8.31598 19.65 8.31598C16.9162 8.31598 14.7 6.09979 14.7 3.36598C14.7 2.95129 14.751 2.54851 14.8471 2.16357C12.6946 2.70097 11.1 4.64746 11.1 6.96639C11.1 7.78784 11.3001 8.56255 11.6542 9.24445M5.7 6.51636V2.91636M3.9 4.71636H7.5M6.6 20.0164C4.61177 20.0164 3 18.4046 3 16.4164C3 14.6363 4.29196 13.158 5.98933 12.8679C6.71588 10.7437 8.72958 9.21636 11.1 9.21636C13.1594 9.21636 14.9495 10.3692 15.8603 12.0647C16.207 11.968 16.5725 11.9164 16.95 11.9164C19.1868 11.9164 21 13.7296 21 15.9664C21 18.2031 19.1868 20.0164 16.95 20.0164C13.5 20.0164 10.05 20.0164 6.6 20.0164Z" stroke="black" stroke-width="2" stroke-linecap="round" stroke-linejoin="round"/>
</svg>
