<svg width="24" height="24" viewBox="0 0 24 24" fill="none" xmlns="http://www.w3.org/2000/svg">
<path d="M15.6 16.85L14.7 19.1M8.4 16.85L7.5 19.1M12 16.85L11.1 19.1M7.5 13.7C5.01472 13.7 3 11.6853 3 9.2C3 6.71472 5.01472 4.7 7.5 4.7C7.52983 4.7 7.5596 4.70029 7.58929 4.70087C8.40846 3.09764 10.076 2 12 2C14.2673 2 16.1786 3.52438 16.7648 5.60416C16.8262 5.6014 16.8879 5.6 16.95 5.6C19.1868 5.6 21 7.41325 21 9.65C21 11.8868 19.1868 13.7 16.95 13.7C13.5691 13.7 11.3117 13.7 7.5 13.7Z" stroke="black" stroke-width="2" stroke-linecap="round" stroke-linejoin="round"/>
</svg>
