<svg width="24" height="24" viewBox="0 0 24 24" fill="none" xmlns="http://www.w3.org/2000/svg">
<path d="M7.05 17.4C4.81325 17.4 3 15.5868 3 13.35C3 11.2408 4.61236 9.50816 6.67177 9.31743C6.82277 8.39889 7.20556 7.55842 7.75807 6.85807L18.1265 17.2265C17.7542 17.3393 17.3592 17.4 16.95 17.4H7.05Z" fill="white" fill-opacity="0.01"/>
<path d="M20.7303 14.8063C20.9045 14.3544 21 13.8633 21 13.35C21 11.2408 19.3876 9.50816 17.3282 9.31743C16.907 6.75492 14.6818 4.8 12 4.8C11.5981 4.8 11.2064 4.84391 10.8296 4.92719M7.75871 6.85727C7.20585 7.55778 6.82283 8.39854 6.67177 9.31743C4.61236 9.50816 3 11.2408 3 13.35C3 15.5868 4.81325 17.4 7.05 17.4H16.95C17.3605 17.4 17.7567 17.3389 18.13 17.2254M3.9 3L20.1 19.2" stroke="black" stroke-width="2" stroke-linecap="round" stroke-linejoin="round"/>
</svg>
