<svg width="24" height="24" viewBox="0 0 24 24" fill="none" xmlns="http://www.w3.org/2000/svg">
<path d="M10.65 1.5V2.94M4.44 9.15H3M6.10608 4.60624L5.08784 3.588M15.1948 4.60623L16.2131 3.588M18.3 9.15H16.86M7.05006 9.15007C7.05006 7.16184 8.66184 5.55006 10.6501 5.55006C12.0055 5.55006 13.1859 6.29912 13.8001 7.40585M6.6 19.95C4.61177 19.95 3 18.3382 3 16.35C3 14.3618 4.61177 12.75 6.6 12.75C7.01777 12.75 7.41891 12.8212 7.79198 12.952C8.43655 11.2556 10.0775 10.05 12 10.05C13.9225 10.05 15.5635 11.2556 16.208 12.952C16.5811 12.8212 16.9822 12.75 17.4 12.75C19.3882 12.75 21 14.3618 21 16.35C21 18.3382 19.3882 19.95 17.4 19.95C13.2237 19.95 10.0913 19.95 6.6 19.95Z" stroke="black" stroke-width="2" stroke-linecap="round" stroke-linejoin="round"/>
</svg>
