<svg width="24" height="24" viewBox="0 0 24 24" fill="none" xmlns="http://www.w3.org/2000/svg">
<path d="M12 20C16.9706 20 21 15.9706 21 11C21 6.02944 16.9706 2 12 2C7.02944 2 3 6.02944 3 11C3 15.9706 7.02944 20 12 20Z" fill="white" fill-opacity="0.01"/>
<path d="M15.15 13.7L17.85 11L15.15 8.3" fill="white" fill-opacity="0.01"/>
<path d="M8.85 8.3L6.15 11L8.85 13.7" fill="white" fill-opacity="0.01"/>
<path d="M15.15 13.7L17.85 11L15.15 8.3M8.85 8.3L6.15 11L8.85 13.7M12.9 6.5L11.1 15.5M21 11C21 15.9706 16.9706 20 12 20C7.02944 20 3 15.9706 3 11C3 6.02944 7.02944 2 12 2C16.9706 2 21 6.02944 21 11Z" stroke="black" stroke-width="2" stroke-linecap="round" stroke-linejoin="round"/>
</svg>
