<svg width="24" height="24" viewBox="0 0 24 24" fill="none" xmlns="http://www.w3.org/2000/svg">
<path d="M12.7848 2.52932C12.5007 2.34468 12.3587 2.25236 12.2057 2.21644C12.0704 2.18469 11.9296 2.18469 11.7943 2.21644C11.6413 2.25236 11.4993 2.34468 11.2152 2.52932L3.65522 7.44332C3.41581 7.59893 3.29611 7.67674 3.20938 7.78052C3.13261 7.8724 3.07494 7.97866 3.03975 8.0931C3 8.22238 3 8.36514 3 8.65068V13.3877C3 13.6733 3 13.816 3.03975 13.9453C3.07494 14.0598 3.13261 14.166 3.20938 14.2579C3.29611 14.3617 3.41581 14.4395 3.65522 14.5951L11.2152 19.5091C11.4993 19.6937 11.6413 19.7861 11.7943 19.822C11.9296 19.8537 12.0704 19.8537 12.2057 19.822C12.3587 19.7861 12.5007 19.6937 12.7848 19.5091L20.3448 14.5951C20.5842 14.4395 20.7039 14.3617 20.7906 14.2579C20.8674 14.166 20.9251 14.0598 20.9602 13.9453C21 13.816 21 13.6733 21 13.3877V8.65068C21 8.36514 21 8.22238 20.9602 8.0931C20.9251 7.97866 20.8674 7.8724 20.7906 7.78052C20.7039 7.67674 20.5842 7.59893 20.3448 7.44332L12.7848 2.52932Z" fill="white" fill-opacity="0.01"/>
<path d="M12 8.31921L4.85748 12.9619C4.23841 13.3642 3.92888 13.5654 3.82168 13.8206C3.72799 14.0436 3.72799 14.2949 3.82168 14.5178M12 8.31921L19.1425 12.9619C19.7616 13.3642 20.0711 13.5654 20.1783 13.8206C20.272 14.0436 20.272 14.2949 20.1783 14.5178M12 8.31921V2.46921M12 13.7192L4.85748 9.07657C4.23841 8.67418 3.92888 8.47298 3.82168 8.21784C3.72799 7.99486 3.72799 7.74356 3.82168 7.52058M12 13.7192L19.1425 9.07657C19.7616 8.67418 20.0711 8.47298 20.1783 8.21784C20.272 7.99486 20.272 7.74356 20.1783 7.52058M12 13.7192V19.5692M20.3448 14.5951L12.7848 19.5091C12.5007 19.6937 12.3587 19.7861 12.2057 19.822C12.0704 19.8537 11.9296 19.8537 11.7943 19.822C11.6413 19.7861 11.4993 19.6937 11.2152 19.5091L3.65522 14.5951C3.41581 14.4395 3.29611 14.3617 3.20938 14.2579C3.13261 14.166 3.07494 14.0598 3.03975 13.9453C3 13.816 3 13.6733 3 13.3877V8.65068C3 8.36514 3 8.22238 3.03975 8.0931C3.07494 7.97866 3.13261 7.8724 3.20938 7.78052C3.29611 7.67674 3.41581 7.59893 3.65522 7.44332L11.2152 2.52932C11.4993 2.34468 11.6413 2.25236 11.7943 2.21644C11.9296 2.18469 12.0704 2.18469 12.2057 2.21644C12.3587 2.25236 12.5007 2.34468 12.7848 2.52932L20.3448 7.44332C20.5842 7.59893 20.7039 7.67674 20.7906 7.78052C20.8674 7.8724 20.9251 7.97866 20.9602 8.0931C21 8.22238 21 8.36514 21 8.65068V13.3877C21 13.6733 21 13.816 20.9602 13.9453C20.9251 14.0598 20.8674 14.166 20.7906 14.2579C20.7039 14.3617 20.5842 14.4395 20.3448 14.5951Z" stroke="black" stroke-width="2" stroke-linecap="round" stroke-linejoin="round"/>
</svg>
