<svg width="24" height="24" viewBox="0 0 24 24" fill="none" xmlns="http://www.w3.org/2000/svg">
<path d="M6.6 5.6L8.4 3.8L6.6 2" fill="white" fill-opacity="0.01"/>
<path d="M17.4 16.4L15.6 18.2L17.4 20" fill="white" fill-opacity="0.01"/>
<path d="M8.4 20C11.3823 20 13.8 17.5823 13.8 14.6C13.8 11.6177 11.3823 9.2 8.4 9.2C5.41766 9.2 3 11.6177 3 14.6C3 17.5823 5.41766 20 8.4 20Z" fill="white" fill-opacity="0.01"/>
<path d="M6.6 5.6L8.4 3.8M8.4 3.8L6.6 2M8.4 3.8H6.6C4.61177 3.8 3 5.41177 3 7.4M17.4 16.4L15.6 18.2M15.6 18.2L17.4 20M15.6 18.2H17.4C19.3882 18.2 21 16.5882 21 14.6M10.3701 6.05C10.9696 3.72094 13.0838 2 15.6 2C18.5823 2 21 4.41766 21 7.4C21 9.91616 19.2791 12.0304 16.9501 12.6299M13.8 14.6C13.8 17.5823 11.3823 20 8.4 20C5.41766 20 3 17.5823 3 14.6C3 11.6177 5.41766 9.2 8.4 9.2C11.3823 9.2 13.8 11.6177 13.8 14.6Z" stroke="black" stroke-width="2" stroke-linecap="round" stroke-linejoin="round"/>
</svg>
