<svg viewBox="0 0 24 24" fill="none" xmlns="http://www.w3.org/2000/svg">
<path d="M12.9 4.8C12.9 5.79411 10.6838 6.6 7.95 6.6C5.21619 6.6 3 5.79411 3 4.8M12.9 4.8C12.9 3.80589 10.6838 3 7.95 3C5.21619 3 3 3.80589 3 4.8M12.9 4.8V8.81144C11.8006 9.14159 11.1 9.64104 11.1 10.2M3 4.8V15.6C3 16.5941 5.21619 17.4 7.95 17.4C9.14667 17.4 10.2442 17.2456 11.1 16.9886V10.2M3 8.4C3 9.39411 5.21619 10.2 7.95 10.2C9.14667 10.2 10.2442 10.0456 11.1 9.78857M3 12C3 12.9941 5.21619 13.8 7.95 13.8C9.14667 13.8 10.2442 13.6456 11.1 13.3886M21 10.2C21 11.1941 18.7838 12 16.05 12C13.3162 12 11.1 11.1941 11.1 10.2M21 10.2C21 9.20589 18.7838 8.4 16.05 8.4C13.3162 8.4 11.1 9.20589 11.1 10.2M21 10.2V17.4C21 18.3941 18.7838 19.2 16.05 19.2C13.3162 19.2 11.1 18.3941 11.1 17.4V10.2M21 13.8C21 14.7941 18.7838 15.6 16.05 15.6C13.3162 15.6 11.1 14.7941 11.1 13.8" stroke="black" stroke-width="2" stroke-linecap="round" stroke-linejoin="round"/>
</svg>