<svg width="24" height="24" viewBox="0 0 24 24" fill="none" xmlns="http://www.w3.org/2000/svg">
<path d="M13.3765 7.71667C12.8614 8.08395 12.2309 8.3 11.55 8.3C9.8103 8.3 8.4 6.8897 8.4 5.15C8.4 3.4103 9.8103 2 11.55 2C12.6777 2 13.667 2.59258 14.2235 3.48333M6.6 18.2784H8.94926C9.25556 18.2784 9.55999 18.3149 9.85693 18.3878L12.3392 18.991C12.8778 19.1222 13.4389 19.135 13.9831 19.0293L16.7277 18.4953C17.4527 18.3541 18.1196 18.0069 18.6423 17.4985L20.5841 15.6095C21.1386 15.071 21.1386 14.1972 20.5841 13.6578C20.0848 13.1721 19.2943 13.1174 18.7294 13.5293L16.4663 15.1804C16.1422 15.4173 15.7479 15.5448 15.3423 15.5448H13.1569L14.548 15.5448C15.332 15.5448 15.9671 14.927 15.9671 14.1643V13.8882C15.9671 13.2549 15.524 12.7028 14.8927 12.5497L12.7457 12.0276C12.3963 11.9428 12.0385 11.9 11.6788 11.9C10.8105 11.9 9.2387 12.6189 9.2387 12.6189L6.6 13.7224M19.2 6.05C19.2 7.7897 17.7897 9.2 16.05 9.2C14.3103 9.2 12.9 7.7897 12.9 6.05C12.9 4.3103 14.3103 2.9 16.05 2.9C17.7897 2.9 19.2 4.3103 19.2 6.05ZM3 13.34L3 18.56C3 19.064 3 19.3161 3.09809 19.5086C3.18438 19.6779 3.32206 19.8156 3.49141 19.9019C3.68393 20 3.93595 20 4.44 20H5.16C5.66405 20 5.91607 20 6.10859 19.9019C6.27794 19.8156 6.41562 19.6779 6.50191 19.5086C6.6 19.3161 6.6 19.064 6.6 18.56V13.34C6.6 12.836 6.6 12.5839 6.50191 12.3914C6.41562 12.2221 6.27794 12.0844 6.10859 11.9981C5.91607 11.9 5.66405 11.9 5.16 11.9L4.44 11.9C3.93595 11.9 3.68393 11.9 3.49141 11.9981C3.32206 12.0844 3.18438 12.2221 3.09809 12.3914C3 12.5839 3 12.836 3 13.34Z" stroke="black" stroke-width="2" stroke-linecap="round" stroke-linejoin="round"/>
</svg>
