<svg width="24" height="24" viewBox="0 0 24 24" fill="none" xmlns="http://www.w3.org/2000/svg">
<path d="M18.4 5.7C18.4 7.19117 15.1765 8.4 11.2 8.4C7.22355 8.4 4 7.19117 4 5.7M18.4 5.7C18.4 4.20883 15.1765 3 11.2 3C7.22355 3 4 4.20883 4 5.7M18.4 5.7V18.3C18.4 19.7912 15.1764 21 11.2 21C7.22355 21 4 19.7912 4 18.3V5.7M18.4 9.89994C18.4 11.3911 15.1764 12.5999 11.2 12.5999C7.22355 12.5999 4 11.3911 4 9.89994M18.4 14.097C18.4 15.5882 15.1764 16.797 11.2 16.797C7.22355 16.797 4 15.5882 4 14.097" stroke="black" stroke-width="2" stroke-linecap="round" stroke-linejoin="round"/>
</svg>
