<svg width="24" height="24" viewBox="0 0 24 24" fill="none" xmlns="http://www.w3.org/2000/svg">
<path d="M6.6 5.6L8.4 3.8M8.4 3.8L6.6 2M8.4 3.8H6.6C4.61177 3.8 3 5.41177 3 7.4M17.4 16.4L15.6 18.2M15.6 18.2L17.4 20M15.6 18.2H17.4C19.3882 18.2 21 16.5882 21 14.6M13.2755 12.2755C13.9795 12.6117 14.7678 12.8 15.6 12.8C18.5823 12.8 21 10.3823 21 7.4C21 4.41766 18.5823 2 15.6 2C12.6177 2 10.2 4.41766 10.2 7.4C10.2 8.23224 10.3883 9.02052 10.7245 9.72455M13.8 14.6C13.8 17.5823 11.3823 20 8.4 20C5.41766 20 3 17.5823 3 14.6C3 11.6177 5.41766 9.2 8.4 9.2C11.3823 9.2 13.8 11.6177 13.8 14.6Z" stroke="black" stroke-width="2" stroke-linecap="round" stroke-linejoin="round"/>
</svg>
