<svg width="24" height="24" viewBox="0 0 24 24" fill="none" xmlns="http://www.w3.org/2000/svg">
<path d="M7.95 6.6C10.6838 6.6 12.9 5.79411 12.9 4.8C12.9 3.80589 10.6838 3 7.95 3C5.21619 3 3 3.80589 3 4.8C3 5.79411 5.21619 6.6 7.95 6.6Z" fill="white" fill-opacity="0.01"/>
<path d="M16.05 12.45C18.7838 12.45 21 11.6441 21 10.65C21 9.65589 18.7838 8.85 16.05 8.85C13.3162 8.85 11.1 9.65589 11.1 10.65C11.1 11.6441 13.3162 12.45 16.05 12.45Z" fill="white" fill-opacity="0.01"/>
<path d="M11.1 10.65C11.1 9.65589 13.3162 8.85 16.05 8.85C18.7838 8.85 21 9.65589 21 10.65V17.4C21 18.3941 18.7838 19.2 16.05 19.2C13.3162 19.2 11.1 18.3941 11.1 17.4V10.65Z" fill="white" fill-opacity="0.01"/>
<path d="M12.9 4.8C12.9 5.79411 10.6838 6.6 7.95 6.6C5.21619 6.6 3 5.79411 3 4.8M12.9 4.8C12.9 3.80589 10.6838 3 7.95 3C5.21619 3 3 3.80589 3 4.8M12.9 4.8V6.15M3 4.8V15.6C3 16.5941 5.21619 17.4 7.95 17.4M7.95 10.2C7.79831 10.2 7.64821 10.1975 7.5 10.1927C4.97707 10.11 3 9.33895 3 8.4M7.95 13.8C5.21619 13.8 3 12.9941 3 12M21 10.65C21 11.6441 18.7838 12.45 16.05 12.45C13.3162 12.45 11.1 11.6441 11.1 10.65M21 10.65C21 9.65589 18.7838 8.85 16.05 8.85C13.3162 8.85 11.1 9.65589 11.1 10.65M21 10.65V17.4C21 18.3941 18.7838 19.2 16.05 19.2C13.3162 19.2 11.1 18.3941 11.1 17.4V10.65M21 14.025C21 15.0191 18.7838 15.825 16.05 15.825C13.3162 15.825 11.1 15.0191 11.1 14.025" stroke="black" stroke-width="2" stroke-linecap="round" stroke-linejoin="round"/>
</svg>
