<svg width="24" height="24" viewBox="0 0 24 24" fill="none" xmlns="http://www.w3.org/2000/svg">
<path d="M12 15.6C12 18.0853 14.0147 20.1 16.5 20.1C18.9853 20.1 21 18.0853 21 15.6C21 13.1147 18.9853 11.1 16.5 11.1C14.0147 11.1 12 13.1147 12 15.6ZM12 15.6C12 14.5868 12.3349 13.6517 12.9 12.8996V4.8M12 15.6C12 16.3428 12.18 17.0436 12.4987 17.6611C11.7405 18.3016 9.98926 18.75 7.95 18.75C5.21619 18.75 3 17.9441 3 16.95V4.8M12.9 4.8C12.9 5.79411 10.6838 6.6 7.95 6.6C5.21619 6.6 3 5.79411 3 4.8M12.9 4.8C12.9 3.80589 10.6838 3 7.95 3C5.21619 3 3 3.80589 3 4.8M3 12.9C3 13.8941 5.21619 14.7 7.95 14.7C9.9201 14.7 11.6214 14.2815 12.4182 13.6756M12.9 8.85C12.9 9.84411 10.6838 10.65 7.95 10.65C5.21619 10.65 3 9.84411 3 8.85" stroke="black" stroke-width="2" stroke-linecap="round" stroke-linejoin="round"/>
</svg>
