<svg width="24" height="24" viewBox="0 0 24 24" fill="none" xmlns="http://www.w3.org/2000/svg">
<path d="M12 12.8C14.9823 12.8 17.4 10.3823 17.4 7.4C17.4 4.41766 14.9823 2 12 2C9.01766 2 6.6 4.41766 6.6 7.4C6.6 10.3823 9.01766 12.8 12 12.8Z" fill="white" fill-opacity="0.01"/>
<path d="M12 18.625C12.9554 19.4801 14.217 20 15.6 20C18.5823 20 21 17.5823 21 14.6C21 12.1098 19.3144 10.0132 17.0218 9.38916M6.97816 9.38915C4.68564 10.0132 3 12.1098 3 14.6C3 17.5823 5.41766 20 8.4 20C11.3823 20 13.8 17.5823 13.8 14.6C13.8 13.8976 13.6659 13.2264 13.4218 12.6109M17.4 7.4C17.4 10.3823 14.9823 12.8 12 12.8C9.01766 12.8 6.6 10.3823 6.6 7.4C6.6 4.41766 9.01766 2 12 2C14.9823 2 17.4 4.41766 17.4 7.4Z" stroke="black" stroke-width="2" stroke-linecap="round" stroke-linejoin="round"/>
</svg>
