<svg viewBox="0 0 24 24" fill="none" xmlns="http://www.w3.org/2000/svg">
<path d="M21 11C21 15.9706 16.9706 20 12 20M21 11C21 6.02944 16.9706 2 12 2M21 11H19.2M12 20C7.02944 20 3 15.9706 3 11M12 20V18.2M3 11C3 6.02944 7.02944 2 12 2M3 11H4.8M12 2V3.8M18.364 17.364L17.0912 16.0912M6.90883 5.90883L5.63604 4.63604M17.0912 5.90883L18.364 4.63604M5.63604 17.364L6.90883 16.0912M8.4 11L10.65 9.65L12 7.4L13.35 9.65L15.6 11L13.35 12.35L12 14.6L10.65 12.35L8.4 11Z" stroke="black" stroke-width="2" stroke-linecap="round" stroke-linejoin="round"/>
</svg>