<svg width="24" height="24" viewBox="0 0 24 24" fill="none" xmlns="http://www.w3.org/2000/svg">
<path d="M12 20C16.9706 20 21 15.9706 21 11C21 6.02944 16.9706 2 12 2C7.02944 2 3 6.02944 3 11C3 15.9706 7.02944 20 12 20Z" stroke="black" stroke-width="2" stroke-linecap="round" stroke-linejoin="round"/>
<path d="M14.4499 7.63937C14.8896 7.4928 15.1094 7.41952 15.2556 7.47166C15.3829 7.51702 15.483 7.61714 15.5283 7.74437C15.5805 7.89056 15.5072 8.11041 15.3606 8.5501L14.0218 12.5665C13.9801 12.6917 13.9592 12.7543 13.9237 12.8063C13.8922 12.8524 13.8524 12.8922 13.8063 12.9237C13.7543 12.9592 13.6917 12.9801 13.5665 13.0218L9.55011 14.3606C9.11041 14.5072 8.89056 14.5805 8.74437 14.5283C8.61714 14.483 8.51702 14.3829 8.47166 14.2556C8.41952 14.1094 8.4928 13.8896 8.63937 13.4499L9.97816 9.43353C10.0199 9.3083 10.0408 9.24569 10.0763 9.19369C10.1078 9.14764 10.1476 9.10784 10.1937 9.07634C10.2457 9.04077 10.3083 9.0199 10.4335 8.97816L14.4499 7.63937Z" stroke="black" stroke-width="2" stroke-linecap="round" stroke-linejoin="round"/>
</svg>
