<svg width="24" height="24" viewBox="0 0 24 24" fill="none" xmlns="http://www.w3.org/2000/svg">
<path d="M12 20C16.9706 20 21 15.9706 21 11C21 6.02944 16.9706 2 12 2C7.02944 2 3 6.02944 3 11C3 15.9706 7.02944 20 12 20Z" fill="white" fill-opacity="0.01"/>
<path d="M15.6 7.85C15.6 11.5779 12.5779 14.6 8.85 14.6C8.2968 14.6 7.75915 14.5335 7.24461 14.4079C8.30627 15.8867 10.0406 16.85 12 16.85C15.2309 16.85 17.85 14.2309 17.85 11C17.85 9.04064 16.8867 7.30627 15.4079 6.24461C15.5335 6.75915 15.6 7.2968 15.6 7.85Z" fill="white" fill-opacity="0.01"/>
<path d="M12 20C16.9706 20 21 15.9706 21 11C21 6.02944 16.9706 2 12 2C7.02944 2 3 6.02944 3 11C3 15.9706 7.02944 20 12 20Z" stroke="black" stroke-width="2" stroke-linecap="round" stroke-linejoin="round"/>
<path d="M15.6 7.85C15.6 11.5779 12.5779 14.6 8.85 14.6C8.2968 14.6 7.75915 14.5335 7.24461 14.4079C8.30627 15.8867 10.0406 16.85 12 16.85C15.2309 16.85 17.85 14.2309 17.85 11C17.85 9.04064 16.8867 7.30627 15.4079 6.24461C15.5335 6.75915 15.6 7.2968 15.6 7.85Z" stroke="black" stroke-width="2" stroke-linecap="round" stroke-linejoin="round"/>
</svg>
