<svg width="24" height="24" viewBox="0 0 24 24" fill="none" xmlns="http://www.w3.org/2000/svg">
<path d="M8.4 5.88C8.4 4.87191 8.4 4.36786 8.59619 3.98282C8.76876 3.64413 9.04413 3.36876 9.38282 3.19619C9.76786 3 10.2719 3 11.28 3H18.12C19.1281 3 19.6321 3 20.0172 3.19619C20.3559 3.36876 20.6312 3.64413 20.8038 3.98282C21 4.36786 21 4.87191 21 5.88V12.72C21 13.7281 21 14.2321 20.8038 14.6172C20.6312 14.9559 20.3559 15.2312 20.0172 15.4038C19.6321 15.6 19.1281 15.6 18.12 15.6H11.28C10.2719 15.6 9.76786 15.6 9.38282 15.4038C9.04413 15.2312 8.76876 14.9559 8.59619 14.6172C8.4 14.2321 8.4 13.7281 8.4 12.72V5.88Z" fill="white" fill-opacity="0.01"/>
<path d="M15.6 15.6V18.12C15.6 19.1281 15.6 19.6321 15.4038 20.0172C15.2312 20.3559 14.9559 20.6312 14.6172 20.8038C14.2321 21 13.7281 21 12.72 21H5.88C4.87191 21 4.36786 21 3.98282 20.8038C3.64413 20.6312 3.36876 20.3559 3.19619 20.0172C3 19.6321 3 19.1281 3 18.12V11.28C3 10.2719 3 9.76786 3.19619 9.38282C3.36876 9.04413 3.64413 8.76876 3.98282 8.59619C4.36786 8.4 4.87191 8.4 5.88 8.4H8.4M11.28 15.6H18.12C19.1281 15.6 19.6321 15.6 20.0172 15.4038C20.3559 15.2312 20.6312 14.9559 20.8038 14.6172C21 14.2321 21 13.7281 21 12.72V5.88C21 4.87191 21 4.36786 20.8038 3.98282C20.6312 3.64413 20.3559 3.36876 20.0172 3.19619C19.6321 3 19.1281 3 18.12 3H11.28C10.2719 3 9.76786 3 9.38282 3.19619C9.04413 3.36876 8.76876 3.64413 8.59619 3.98282C8.4 4.36786 8.4 4.87191 8.4 5.88V12.72C8.4 13.7281 8.4 14.2321 8.59619 14.6172C8.76876 14.9559 9.04413 15.2312 9.38282 15.4038C9.76786 15.6 10.2719 15.6 11.28 15.6Z" stroke="black" stroke-width="2" stroke-linecap="round" stroke-linejoin="round"/>
</svg>
