<svg width="24" height="24" viewBox="0 0 24 24" fill="none" xmlns="http://www.w3.org/2000/svg">
<path d="M3 5.88C3 4.87191 3 4.36786 3.19619 3.98282C3.36876 3.64413 3.64413 3.36876 3.98282 3.19619C4.36786 3 4.87191 3 5.88 3H12.72C13.7281 3 14.2321 3 14.6172 3.19619C14.9559 3.36876 15.2312 3.64413 15.4038 3.98282C15.6 4.36786 15.6 4.87191 15.6 5.88V12.72C15.6 13.7281 15.6 14.2321 15.4038 14.6172C15.2312 14.9559 14.9559 15.2312 14.6172 15.4038C14.2321 15.6 13.7281 15.6 12.72 15.6H5.88C4.87191 15.6 4.36786 15.6 3.98282 15.4038C3.64413 15.2312 3.36876 14.9559 3.19619 14.6172C3 14.2321 3 13.7281 3 12.72V5.88Z" fill="white" fill-opacity="0.01"/>
<path d="M8.4 15.6V18.12C8.4 19.1281 8.4 19.6321 8.59619 20.0172C8.76876 20.3559 9.04413 20.6312 9.38282 20.8038C9.76786 21 10.2719 21 11.28 21H18.12C19.1281 21 19.6321 21 20.0172 20.8038C20.3559 20.6312 20.6312 20.3559 20.8038 20.0172C21 19.6321 21 19.1281 21 18.12V11.28C21 10.2719 21 9.76786 20.8038 9.38282C20.6312 9.04413 20.3559 8.76876 20.0172 8.59619C19.6321 8.4 19.1281 8.4 18.12 8.4H15.6M5.88 15.6H12.72C13.7281 15.6 14.2321 15.6 14.6172 15.4038C14.9559 15.2312 15.2312 14.9559 15.4038 14.6172C15.6 14.2321 15.6 13.7281 15.6 12.72V5.88C15.6 4.87191 15.6 4.36786 15.4038 3.98282C15.2312 3.64413 14.9559 3.36876 14.6172 3.19619C14.2321 3 13.7281 3 12.72 3H5.88C4.87191 3 4.36786 3 3.98282 3.19619C3.64413 3.36876 3.36876 3.64413 3.19619 3.98282C3 4.36786 3 4.87191 3 5.88V12.72C3 13.7281 3 14.2321 3.19619 14.6172C3.36876 14.9559 3.64413 15.2312 3.98282 15.4038C4.36786 15.6 4.87191 15.6 5.88 15.6Z" stroke="black" stroke-width="2" stroke-linecap="round" stroke-linejoin="round"/>
</svg>
