<svg viewBox="0 0 24 24" fill="none" xmlns="http://www.w3.org/2000/svg">
<path d="M5.7 14.7C4.86131 14.7 4.44196 14.7 4.11117 14.563C3.67012 14.3803 3.31971 14.0299 3.13702 13.5888C3 13.258 3 12.8387 3 12V5.88C3 4.87191 3 4.36786 3.19619 3.98282C3.36876 3.64413 3.64413 3.36876 3.98282 3.19619C4.36786 3 4.87191 3 5.88 3H12C12.8387 3 13.258 3 13.5888 3.13702C14.0299 3.31971 14.3803 3.67012 14.563 4.11117C14.7 4.44196 14.7 4.86131 14.7 5.7M12.18 21H18.12C19.1281 21 19.6321 21 20.0172 20.8038C20.3559 20.6312 20.6312 20.3559 20.8038 20.0172C21 19.6321 21 19.1281 21 18.12V12.18C21 11.1719 21 10.6679 20.8038 10.2828C20.6312 9.94413 20.3559 9.66876 20.0172 9.49619C19.6321 9.3 19.1281 9.3 18.12 9.3H12.18C11.1719 9.3 10.6679 9.3 10.2828 9.49619C9.94413 9.66876 9.66876 9.94413 9.49619 10.2828C9.3 10.6679 9.3 11.1719 9.3 12.18V18.12C9.3 19.1281 9.3 19.6321 9.49619 20.0172C9.66876 20.3559 9.94413 20.6312 10.2828 20.8038C10.6679 21 11.1719 21 12.18 21Z" stroke="black" stroke-width="2" stroke-linecap="round" stroke-linejoin="round"/>
</svg>