<svg width="24" height="24" viewBox="0 0 24 24" fill="none" xmlns="http://www.w3.org/2000/svg">
<path d="M3 11.28C3 10.2719 3 9.76786 3.19619 9.38282C3.36876 9.04413 3.64413 8.76876 3.98282 8.59619C4.36786 8.4 4.87191 8.4 5.88 8.4H12.72C13.7281 8.4 14.2321 8.4 14.6172 8.59619C14.9559 8.76876 15.2312 9.04413 15.4038 9.38282C15.6 9.76786 15.6 10.2719 15.6 11.28V18.12C15.6 19.1281 15.6 19.6321 15.4038 20.0172C15.2312 20.3559 14.9559 20.6312 14.6172 20.8038C14.2321 21 13.7281 21 12.72 21H5.88C4.87191 21 4.36786 21 3.98282 20.8038C3.64413 20.6312 3.36876 20.3559 3.19619 20.0172C3 19.6321 3 19.1281 3 18.12V11.28Z" fill="white" fill-opacity="0.01"/>
<path d="M10.65 3.00252C10.0425 3.01075 9.67773 3.04592 9.38282 3.19619C9.04413 3.36876 8.76876 3.64413 8.59619 3.98282C8.44592 4.27773 8.41075 4.64245 8.40252 5.25M18.75 3.00252C19.3575 3.01075 19.7223 3.04592 20.0172 3.19619C20.3559 3.36876 20.6312 3.64413 20.8038 3.98282C20.9541 4.27773 20.9892 4.64245 20.9975 5.24999M20.9975 13.35C20.9892 13.9575 20.9541 14.3223 20.8038 14.6172C20.6312 14.9559 20.3559 15.2312 20.0172 15.4038C19.7223 15.5541 19.3575 15.5892 18.75 15.5975M21 8.39999V10.2M13.8 3H15.6M5.88 21H12.72C13.7281 21 14.2321 21 14.6172 20.8038C14.9559 20.6312 15.2312 20.3559 15.4038 20.0172C15.6 19.6321 15.6 19.1281 15.6 18.12V11.28C15.6 10.2719 15.6 9.76786 15.4038 9.38282C15.2312 9.04413 14.9559 8.76876 14.6172 8.59619C14.2321 8.4 13.7281 8.4 12.72 8.4H5.88C4.87191 8.4 4.36786 8.4 3.98282 8.59619C3.64413 8.76876 3.36876 9.04413 3.19619 9.38282C3 9.76786 3 10.2719 3 11.28V18.12C3 19.1281 3 19.6321 3.19619 20.0172C3.36876 20.3559 3.64413 20.6312 3.98282 20.8038C4.36786 21 4.87191 21 5.88 21Z" stroke="black" stroke-width="2" stroke-linecap="round" stroke-linejoin="round"/>
</svg>
