<svg width="24" height="24" viewBox="0 0 24 24" fill="none" xmlns="http://www.w3.org/2000/svg">
<path d="M9.3 2V3.8M14.7 2V3.8M9.3 18.2V20M14.7 18.2V20M19.2 8.3H21M19.2 12.8H21M3 8.3H4.8M3 12.8H4.8M9.12 18.2H14.88C16.3921 18.2 17.1482 18.2 17.7258 17.9057C18.2338 17.6469 18.6469 17.2338 18.9057 16.7258C19.2 16.1482 19.2 15.3921 19.2 13.88V8.12C19.2 6.60786 19.2 5.85179 18.9057 5.27423C18.6469 4.76619 18.2338 4.35314 17.7258 4.09428C17.1482 3.8 16.3921 3.8 14.88 3.8H9.12C7.60786 3.8 6.85179 3.8 6.27423 4.09428C5.76619 4.35314 5.35314 4.76619 5.09428 5.27423C4.8 5.85179 4.8 6.60786 4.8 8.12V13.88C4.8 15.3921 4.8 16.1482 5.09428 16.7258C5.35314 17.2338 5.76619 17.6469 6.27423 17.9057C6.85179 18.2 7.60786 18.2 9.12 18.2ZM10.74 13.7H13.26C13.764 13.7 14.0161 13.7 14.2086 13.6019C14.3779 13.5156 14.5156 13.3779 14.6019 13.2086C14.7 13.0161 14.7 12.764 14.7 12.26V9.74C14.7 9.23595 14.7 8.98393 14.6019 8.79141C14.5156 8.62206 14.3779 8.48438 14.2086 8.39809C14.0161 8.3 13.764 8.3 13.26 8.3H10.74C10.236 8.3 9.98393 8.3 9.79141 8.39809C9.62206 8.48438 9.48438 8.62206 9.39809 8.79141C9.3 8.98393 9.3 9.23595 9.3 9.74V12.26C9.3 12.764 9.3 13.0161 9.39809 13.2086C9.48438 13.3779 9.62206 13.5156 9.79141 13.6019C9.98393 13.7 10.236 13.7 10.74 13.7Z" stroke="black" stroke-width="2" stroke-linecap="round" stroke-linejoin="round"/>
</svg>
