<svg width="24" height="24" viewBox="0 0 24 24" fill="none" xmlns="http://www.w3.org/2000/svg">
<path d="M5.7 9.02C5.7 7.50786 5.7 6.75179 5.99428 6.17423C6.25314 5.66619 6.66619 5.25314 7.17423 4.99428C7.75179 4.7 8.50786 4.7 10.02 4.7H13.98C15.4921 4.7 16.2482 4.7 16.8258 4.99428C17.3338 5.25314 17.7469 5.66619 18.0057 6.17423C18.3 6.75179 18.3 7.50786 18.3 9.02V12.98C18.3 14.4921 18.3 15.2482 18.0057 15.8258C17.7469 16.3338 17.3338 16.7469 16.8258 17.0057C16.2482 17.3 15.4921 17.3 13.98 17.3H10.02C8.50786 17.3 7.75179 17.3 7.17423 17.0057C6.66619 16.7469 6.25314 16.3338 5.99428 15.8258C5.7 15.2482 5.7 14.4921 5.7 12.98V9.02Z" fill="white" fill-opacity="0.01"/>
<path d="M9.3 2V4.7M14.7 2V4.7M9.3 17.3V20M14.7 17.3V20M18.3 8.3H21M18.3 12.8H21M3 8.3H5.7M3 12.8H5.7M10.02 17.3H13.98C15.4921 17.3 16.2482 17.3 16.8258 17.0057C17.3338 16.7469 17.7469 16.3338 18.0057 15.8258C18.3 15.2482 18.3 14.4921 18.3 12.98V9.02C18.3 7.50786 18.3 6.75179 18.0057 6.17423C17.7469 5.66619 17.3338 5.25314 16.8258 4.99428C16.2482 4.7 15.4921 4.7 13.98 4.7H10.02C8.50786 4.7 7.75179 4.7 7.17423 4.99428C6.66619 5.25314 6.25314 5.66619 5.99428 6.17423C5.7 6.75179 5.7 7.50786 5.7 9.02V12.98C5.7 14.4921 5.7 15.2482 5.99428 15.8258C6.25314 16.3338 6.66619 16.7469 7.17423 17.0057C7.75179 17.3 8.50786 17.3 10.02 17.3Z" stroke="black" stroke-width="2" stroke-linecap="round" stroke-linejoin="round"/>
</svg>
