<svg viewBox="0 0 24 24" fill="none" xmlns="http://www.w3.org/2000/svg">
<path d="M21 9.3H3M11.1 17.4L18.12 17.4C19.1281 17.4 19.6321 17.4 20.0172 17.2038C20.3559 17.0312 20.6312 16.7559 20.8038 16.4172C21 16.0321 21 15.5281 21 14.52V7.68C21 6.67191 21 6.16786 20.8038 5.78282C20.6312 5.44413 20.3559 5.16876 20.0172 4.99619C19.6321 4.8 19.1281 4.8 18.12 4.8H16.5M11.1 17.4L12.9 19.2M11.1 17.4L12.9 15.6M7.5 17.4H5.88C4.87191 17.4 4.36786 17.4 3.98282 17.2038C3.64413 17.0312 3.36876 16.7559 3.19619 16.4172C3 16.0321 3 15.5281 3 14.52V7.68C3 6.67191 3 6.16786 3.19619 5.78282C3.36876 5.44413 3.64413 5.16876 3.98282 4.99619C4.36786 4.8 4.87191 4.8 5.88 4.8H12.9M12.9 4.8L11.1 6.6M12.9 4.8L11.1 3" stroke="black" stroke-width="2" stroke-linecap="round" stroke-linejoin="round"/>
</svg>