<svg viewBox="0 0 24 24" fill="none" xmlns="http://www.w3.org/2000/svg">
<path d="M3 9.5H21V7.88C21 6.87191 21 6.36786 20.8038 5.98282C20.6312 5.64413 20.3559 5.36876 20.0172 5.19619C19.6321 5 19.1281 5 18.12 5H5.88C4.87191 5 4.36786 5 3.98282 5.19619C3.64413 5.36876 3.36876 5.64413 3.19619 5.98282C3 6.36786 3 6.87191 3 7.88V14.72C3 15.7281 3 16.2321 3.19619 16.6172C3.36876 16.9559 3.64413 17.2312 3.98282 17.4038C4.36786 17.6 4.87191 17.6 5.88 17.6H11.1M14.25 19.4L16.0725 19.0355C16.2314 19.0037 16.3108 18.9878 16.3849 18.9588C16.4507 18.933 16.5132 18.8995 16.5711 18.8591C16.6364 18.8136 16.6937 18.7563 16.8083 18.6417L20.55 14.9C21.0471 14.4029 21.0471 13.5971 20.55 13.1C20.0529 12.6029 19.2471 12.6029 18.75 13.1L15.0083 16.8417C14.8937 16.9563 14.8364 17.0136 14.7909 17.0789C14.7505 17.1368 14.717 17.1993 14.6912 17.2651C14.6622 17.3392 14.6463 17.4186 14.6145 17.5775L14.25 19.4Z" stroke="black" stroke-width="2" stroke-linecap="round" stroke-linejoin="round"/>
</svg>