<svg viewBox="0 0 24 24" fill="none" xmlns="http://www.w3.org/2000/svg">
<path d="M19.425 16.25V14.675C19.425 13.8052 18.7198 13.1 17.85 13.1C16.9802 13.1 16.275 13.8052 16.275 14.675V16.25M21 9.5H3M21 10.4V7.88C21 6.87191 21 6.36786 20.8038 5.98282C20.6312 5.64413 20.3559 5.36876 20.0172 5.19619C19.6321 5 19.1281 5 18.12 5H5.88C4.87191 5 4.36786 5 3.98282 5.19619C3.64413 5.36876 3.36876 5.64413 3.19619 5.98282C3 6.36786 3 6.87191 3 7.88V14.72C3 15.7281 3 16.2321 3.19619 16.6172C3.36876 16.9559 3.64413 17.2312 3.98282 17.4038C4.36786 17.6 4.87191 17.6 5.88 17.6H11.1M16.14 19.85H19.56C20.064 19.85 20.3161 19.85 20.5086 19.7519C20.6779 19.6656 20.8156 19.5279 20.9019 19.3586C21 19.1661 21 18.914 21 18.41V17.69C21 17.186 21 16.9339 20.9019 16.7414C20.8156 16.5721 20.6779 16.4344 20.5086 16.3481C20.3161 16.25 20.064 16.25 19.56 16.25H16.14C15.636 16.25 15.3839 16.25 15.1914 16.3481C15.0221 16.4344 14.8844 16.5721 14.7981 16.7414C14.7 16.9339 14.7 17.186 14.7 17.69V18.41C14.7 18.914 14.7 19.1661 14.7981 19.3586C14.8844 19.5279 15.0221 19.6656 15.1914 19.7519C15.3839 19.85 15.636 19.85 16.14 19.85Z" stroke="black" stroke-width="2" stroke-linecap="round" stroke-linejoin="round"/>
</svg>