<svg width="24" height="24" viewBox="0 0 24 24" fill="none" xmlns="http://www.w3.org/2000/svg">
<path d="M3 2L4.8 3.8M21 2L19.2 3.8M21 20L19.2 18.2M3 20L4.8 18.2M3 14.6H4.35M8.4 2V3.35M21 7.4H19.65M15.6 20V18.65M17.4 14.6H20.55M15.6 2V5.6M3 7.4H6.6M8.4 20V16.4M11.4909 7.00912L8.00912 10.4909C7.83091 10.6691 7.74181 10.7582 7.70842 10.8609C7.67905 10.9513 7.67905 11.0487 7.70842 11.1391C7.74181 11.2418 7.83091 11.3309 8.00912 11.5091L11.4909 14.9909C11.6691 15.1691 11.7582 15.2582 11.8609 15.2916C11.9513 15.3209 12.0487 15.3209 12.1391 15.2916C12.2418 15.2582 12.3309 15.1691 12.5091 14.9909L15.9909 11.5091C16.1691 11.3309 16.2582 11.2418 16.2916 11.1391C16.3209 11.0487 16.3209 10.9513 16.2916 10.8609C16.2582 10.7582 16.1691 10.6691 15.9909 10.4909L12.5091 7.00912C12.3309 6.83091 12.2418 6.74181 12.1391 6.70842C12.0487 6.67905 11.9513 6.67905 11.8609 6.70842C11.7582 6.74181 11.6691 6.83091 11.4909 7.00912Z" stroke="black" stroke-width="2" stroke-linecap="round" stroke-linejoin="round"/>
</svg>
