<svg width="24" height="24" viewBox="0 0 24 24" fill="none" xmlns="http://www.w3.org/2000/svg">
<path d="M12 20C16.9706 20 21 15.9706 21 11C21 6.02944 16.9706 2 12 2C7.02944 2 3 6.02944 3 11C3 15.9706 7.02944 20 12 20Z" fill="white" fill-opacity="0.01"/>
<path d="M9.75 6.95H8.4H9.75Z" fill="white" fill-opacity="0.01"/>
<path d="M9.75 15.05H8.4H9.75Z" fill="white" fill-opacity="0.01"/>
<path d="M9.75 6.95H13.575C14.6934 6.95 15.6 7.85662 15.6 8.975C15.6 10.0934 14.6934 11 13.575 11H9.75H14.025C15.1434 11 16.05 11.9066 16.05 13.025C16.05 14.1434 15.1434 15.05 14.025 15.05H9.75M9.75 6.95H8.4M9.75 6.95V15.05M9.75 15.05H8.4M10.2 5.6V6.95M10.2 15.05V16.4M12.9 5.6V6.95M12.9 15.05V16.4M21 11C21 15.9706 16.9706 20 12 20C7.02944 20 3 15.9706 3 11C3 6.02944 7.02944 2 12 2C16.9706 2 21 6.02944 21 11Z" stroke="black" stroke-width="2" stroke-linecap="round" stroke-linejoin="round"/>
</svg>
