<svg width="24" height="24" viewBox="0 0 24 24" fill="none" xmlns="http://www.w3.org/2000/svg">
<path d="M12 20C16.9706 20 21 15.9706 21 11C21 6.02944 16.9706 2 12 2C7.02944 2 3 6.02944 3 11C3 15.9706 7.02944 20 12 20Z" fill="white" fill-opacity="0.01"/>
<path d="M9.75 6.05H13.8C15.0426 6.05 16.05 7.05736 16.05 8.3C16.05 9.54264 15.0426 10.55 13.8 10.55H9.75V6.05Z" fill="white" fill-opacity="0.01"/>
<path d="M9.975 10.55H8.4H9.975Z" fill="white" fill-opacity="0.01"/>
<path d="M12.9 13.475H8.4H12.9Z" fill="white" fill-opacity="0.01"/>
<path d="M9.75 6.05H13.8C15.0426 6.05 16.05 7.05736 16.05 8.3C16.05 9.54264 15.0426 10.55 13.8 10.55H9.75V6.05ZM9.75 6.05V15.95M9.975 10.55H8.4M12.9 13.475H8.4M21 11C21 15.9706 16.9706 20 12 20C7.02944 20 3 15.9706 3 11C3 6.02944 7.02944 2 12 2C16.9706 2 21 6.02944 21 11Z" stroke="black" stroke-width="2" stroke-linecap="round" stroke-linejoin="round"/>
</svg>
