<svg width="24" height="24" viewBox="0 0 24 24" fill="none" xmlns="http://www.w3.org/2000/svg">
<path d="M9.6 4.8H11.4V12H13.2C15.1882 12 16.8 13.6118 16.8 15.6C16.8 17.5882 15.1882 19.2 13.2 19.2H11.4V12H9.6C7.61178 12 6 10.3882 6 8.4C6 6.41177 7.61177 4.8 9.6 4.8Z" fill="white" fill-opacity="0.01"/>
<path d="M6 15.6C6 17.5882 7.61177 19.2 9.6 19.2H13.2C15.1882 19.2 16.8 17.5882 16.8 15.6C16.8 13.6118 15.1882 12 13.2 12H9.6C7.61178 12 6 10.3882 6 8.4C6 6.41177 7.61177 4.8 9.6 4.8H13.2C15.1882 4.8 16.8 6.41177 16.8 8.4M11.4 3V21" stroke="black" stroke-width="2" stroke-linecap="round" stroke-linejoin="round"/>
</svg>
