<svg width="24" height="24" viewBox="0 0 24 24" fill="none" xmlns="http://www.w3.org/2000/svg">
<path d="M11.1 4.25H17.67C18.6781 4.25 19.1821 4.25 19.5672 4.44619C19.9059 4.61876 20.1812 4.89413 20.3538 5.23282C20.55 5.61786 20.55 6.12191 20.55 7.13V8.3C20.55 9.13869 20.55 9.55804 20.413 9.88883C20.2303 10.3299 19.8799 10.6803 19.4388 10.863C19.108 11 18.6887 11 17.85 11M12.9 17.75H6.33C5.32191 17.75 4.81786 17.75 4.43282 17.5538C4.09413 17.3812 3.81876 17.1059 3.64619 16.7672C3.45 16.3821 3.45 15.8781 3.45 14.87V13.7C3.45 12.8613 3.45 12.442 3.58702 12.1112C3.76971 11.6701 4.12012 11.3197 4.56117 11.137C4.89196 11 5.31131 11 6.15 11M10.47 13.25H13.53C13.782 13.25 13.908 13.25 14.0043 13.201C14.089 13.1578 14.1578 13.089 14.201 13.0043C14.25 12.908 14.25 12.782 14.25 12.53V9.47C14.25 9.21798 14.25 9.09196 14.201 8.9957C14.1578 8.91103 14.089 8.84219 14.0043 8.79905C13.908 8.75 13.782 8.75 13.53 8.75H10.47C10.218 8.75 10.092 8.75 9.9957 8.79905C9.91103 8.84219 9.84219 8.91103 9.79905 8.9957C9.75 9.09196 9.75 9.21798 9.75 9.47V12.53C9.75 12.782 9.75 12.908 9.79905 13.0043C9.84219 13.089 9.91103 13.1578 9.9957 13.201C10.092 13.25 10.218 13.25 10.47 13.25ZM17.22 20H20.28C20.532 20 20.658 20 20.7543 19.951C20.839 19.9078 20.9078 19.839 20.951 19.7543C21 19.658 21 19.532 21 19.28V16.22C21 15.968 21 15.842 20.951 15.7457C20.9078 15.661 20.839 15.5922 20.7543 15.549C20.658 15.5 20.532 15.5 20.28 15.5H17.22C16.968 15.5 16.842 15.5 16.7457 15.549C16.661 15.5922 16.5922 15.661 16.549 15.7457C16.5 15.842 16.5 15.968 16.5 16.22V19.28C16.5 19.532 16.5 19.658 16.549 19.7543C16.5922 19.839 16.661 19.9078 16.7457 19.951C16.842 20 16.968 20 17.22 20ZM3.72 6.5H6.78C7.03202 6.5 7.15804 6.5 7.2543 6.45095C7.33897 6.40781 7.40781 6.33897 7.45095 6.2543C7.5 6.15804 7.5 6.03202 7.5 5.78V2.72C7.5 2.46798 7.5 2.34196 7.45095 2.2457C7.40781 2.16103 7.33897 2.09219 7.2543 2.04905C7.15804 2 7.03202 2 6.78 2H3.72C3.46798 2 3.34196 2 3.2457 2.04905C3.16103 2.09219 3.09219 2.16103 3.04905 2.2457C3 2.34196 3 2.46798 3 2.72V5.78C3 6.03202 3 6.15804 3.04905 6.2543C3.09219 6.33897 3.16103 6.40781 3.2457 6.45095C3.34196 6.5 3.46798 6.5 3.72 6.5Z" stroke="black" stroke-width="2" stroke-linecap="round" stroke-linejoin="round"/>
</svg>
