<svg width="24" height="24" viewBox="0 0 24 24" fill="none" xmlns="http://www.w3.org/2000/svg">
<path d="M11.1 4.8V14.88C11.1 16.3921 11.1 17.1482 11.3943 17.7258C11.6531 18.2338 12.0662 18.6469 12.5742 18.9057C13.1518 19.2 13.9079 19.2 15.42 19.2H15.6M15.6 19.2C15.6 20.1941 16.4059 21 17.4 21C18.3941 21 19.2 20.1941 19.2 19.2C19.2 18.2059 18.3941 17.4 17.4 17.4C16.4059 17.4 15.6 18.2059 15.6 19.2ZM6.6 4.8L15.6 4.8M6.6 4.8C6.6 5.79411 5.79411 6.6 4.8 6.6C3.80589 6.6 3 5.79411 3 4.8C3 3.80589 3.80589 3 4.8 3C5.79411 3 6.6 3.80589 6.6 4.8ZM15.6 4.8C15.6 5.79411 16.4059 6.6 17.4 6.6C18.3941 6.6 19.2 5.79411 19.2 4.8C19.2 3.80589 18.3941 3 17.4 3C16.4059 3 15.6 3.80589 15.6 4.8ZM11.1 12H15.6M15.6 12C15.6 12.9941 16.4059 13.8 17.4 13.8C18.3941 13.8 19.2 12.9941 19.2 12C19.2 11.0059 18.3941 10.2 17.4 10.2C16.4059 10.2 15.6 11.0059 15.6 12Z" stroke="black" stroke-width="2" stroke-linecap="round" stroke-linejoin="round"/>
</svg>
