<svg width="24" height="24" viewBox="0 0 24 24" fill="none" xmlns="http://www.w3.org/2000/svg">
<path d="M20.28 20C20.532 20 20.658 20 20.7543 19.951C20.839 19.9078 20.9078 19.839 20.951 19.7543C21 19.658 21 19.532 21 19.28V9.92C21 9.66798 21 9.54197 20.951 9.44571C20.9078 9.36103 20.839 9.29219 20.7543 9.24905C20.658 9.2 20.532 9.2 20.28 9.2L18.12 9.2C17.868 9.2 17.742 9.2 17.6457 9.24905C17.561 9.29219 17.4922 9.36103 17.449 9.4457C17.4 9.54197 17.4 9.66798 17.4 9.92V12.08C17.4 12.332 17.4 12.458 17.351 12.5543C17.3078 12.639 17.239 12.7078 17.1543 12.751C17.058 12.8 16.932 12.8 16.68 12.8H14.52C14.268 12.8 14.142 12.8 14.0457 12.849C13.961 12.8922 13.8922 12.961 13.849 13.0457C13.8 13.142 13.8 13.268 13.8 13.52V15.68C13.8 15.932 13.8 16.058 13.751 16.1543C13.7078 16.239 13.639 16.3078 13.5543 16.351C13.458 16.4 13.332 16.4 13.08 16.4H10.92C10.668 16.4 10.542 16.4 10.4457 16.449C10.361 16.4922 10.2922 16.561 10.249 16.6457C10.2 16.742 10.2 16.868 10.2 17.12V19.28C10.2 19.532 10.2 19.658 10.249 19.7543C10.2922 19.839 10.361 19.9078 10.4457 19.951C10.542 20 10.668 20 10.92 20L20.28 20Z" stroke="black" stroke-width="2" stroke-linecap="round" stroke-linejoin="round"/>
<path d="M10.2 6.32C10.2 6.06798 10.2 5.94196 10.249 5.8457C10.2922 5.76103 10.361 5.69219 10.4457 5.64905C10.542 5.6 10.668 5.6 10.92 5.6H13.08C13.332 5.6 13.458 5.6 13.5543 5.64905C13.639 5.69219 13.7078 5.76103 13.751 5.8457C13.8 5.94196 13.8 6.06798 13.8 6.32V8.48C13.8 8.73202 13.8 8.85804 13.751 8.9543C13.7078 9.03897 13.639 9.10781 13.5543 9.15095C13.458 9.2 13.332 9.2 13.08 9.2H10.92C10.668 9.2 10.542 9.2 10.4457 9.15095C10.361 9.10781 10.2922 9.03897 10.249 8.9543C10.2 8.85804 10.2 8.73202 10.2 8.48V6.32Z" stroke="black" stroke-width="2" stroke-linecap="round" stroke-linejoin="round"/>
<path d="M3.9 11.72C3.9 11.468 3.9 11.342 3.94905 11.2457C3.99219 11.161 4.06103 11.0922 4.1457 11.049C4.24196 11 4.36798 11 4.62 11H6.78C7.03202 11 7.15804 11 7.2543 11.049C7.33897 11.0922 7.40781 11.161 7.45095 11.2457C7.5 11.342 7.5 11.468 7.5 11.72V13.88C7.5 14.132 7.5 14.258 7.45095 14.3543C7.40781 14.439 7.33897 14.5078 7.2543 14.551C7.15804 14.6 7.03202 14.6 6.78 14.6H4.62C4.36798 14.6 4.24196 14.6 4.1457 14.551C4.06103 14.5078 3.99219 14.439 3.94905 14.3543C3.9 14.258 3.9 14.132 3.9 13.88V11.72Z" stroke="black" stroke-width="2" stroke-linecap="round" stroke-linejoin="round"/>
<path d="M3 2.72C3 2.46798 3 2.34196 3.04905 2.2457C3.09219 2.16103 3.16103 2.09219 3.2457 2.04905C3.34196 2 3.46798 2 3.72 2H5.88C6.13202 2 6.25804 2 6.3543 2.04905C6.43897 2.09219 6.50781 2.16103 6.55095 2.2457C6.6 2.34196 6.6 2.46798 6.6 2.72V4.88C6.6 5.13202 6.6 5.25804 6.55095 5.3543C6.50781 5.43897 6.43897 5.50781 6.3543 5.55095C6.25804 5.6 6.13202 5.6 5.88 5.6H3.72C3.46798 5.6 3.34196 5.6 3.2457 5.55095C3.16103 5.50781 3.09219 5.43897 3.04905 5.3543C3 5.25804 3 5.13202 3 4.88V2.72Z" stroke="black" stroke-width="2" stroke-linecap="round" stroke-linejoin="round"/>
</svg>
