<svg width="24" height="24" viewBox="0 0 24 24" fill="none" xmlns="http://www.w3.org/2000/svg">
<path d="M4.8 20C5.79411 20 6.6 19.1941 6.6 18.2C6.6 17.2059 5.79411 16.4 4.8 16.4C3.80589 16.4 3 17.2059 3 18.2C3 19.1941 3.80589 20 4.8 20Z" fill="white" fill-opacity="0.01"/>
<path d="M19.2 20C20.1941 20 21 19.1941 21 18.2C21 17.2059 20.1941 16.4 19.2 16.4C18.2059 16.4 17.4 17.2059 17.4 18.2C17.4 19.1941 18.2059 20 19.2 20Z" fill="white" fill-opacity="0.01"/>
<path d="M12 20C12.9941 20 13.8 19.1941 13.8 18.2C13.8 17.2059 12.9941 16.4 12 16.4C11.0059 16.4 10.2 17.2059 10.2 18.2C10.2 19.1941 11.0059 20 12 20Z" fill="white" fill-opacity="0.01"/>
<path d="M3.9 4.7C3.9 3.86131 3.9 3.44196 4.03702 3.11117C4.21971 2.67012 4.57012 2.31971 5.01117 2.13702C5.34196 2 5.76131 2 6.6 2H17.4C18.2387 2 18.658 2 18.9888 2.13702C19.4299 2.31971 19.7803 2.67012 19.963 3.11117C20.1 3.44196 20.1 3.86131 20.1 4.7C20.1 5.53869 20.1 5.95804 19.963 6.28883C19.7803 6.72988 19.4299 7.08029 18.9888 7.26298C18.658 7.4 18.2387 7.4 17.4 7.4H6.6C5.76131 7.4 5.34196 7.4 5.01117 7.26298C4.57012 7.08029 4.21971 6.72988 4.03702 6.28883C3.9 5.95804 3.9 5.53869 3.9 4.7Z" fill="white" fill-opacity="0.01"/>
<path d="M4.8 16.4V16.22C4.8 14.7079 4.8 13.9518 5.09428 13.3742C5.35314 12.8662 5.76619 12.4531 6.27423 12.1943C6.85179 11.9 7.60786 11.9 9.12 11.9H14.88C16.3921 11.9 17.1482 11.9 17.7258 12.1943C18.2338 12.4531 18.6469 12.8662 18.9057 13.3742C19.2 13.9518 19.2 14.7079 19.2 16.22V16.4M4.8 16.4C3.80589 16.4 3 17.2059 3 18.2C3 19.1941 3.80589 20 4.8 20C5.79411 20 6.6 19.1941 6.6 18.2C6.6 17.2059 5.79411 16.4 4.8 16.4ZM19.2 16.4C18.2059 16.4 17.4 17.2059 17.4 18.2C17.4 19.1941 18.2059 20 19.2 20C20.1941 20 21 19.1941 21 18.2C21 17.2059 20.1941 16.4 19.2 16.4ZM12 16.4C11.0059 16.4 10.2 17.2059 10.2 18.2C10.2 19.1941 11.0059 20 12 20C12.9941 20 13.8 19.1941 13.8 18.2C13.8 17.2059 12.9941 16.4 12 16.4ZM12 16.4V7.4M6.6 7.4H17.4C18.2387 7.4 18.658 7.4 18.9888 7.26298C19.4299 7.08029 19.7803 6.72988 19.963 6.28883C20.1 5.95804 20.1 5.53869 20.1 4.7C20.1 3.86131 20.1 3.44196 19.963 3.11117C19.7803 2.67012 19.4299 2.31971 18.9888 2.13702C18.658 2 18.2387 2 17.4 2H6.6C5.76131 2 5.34196 2 5.01117 2.13702C4.57012 2.31971 4.21971 2.67012 4.03702 3.11117C3.9 3.44196 3.9 3.86131 3.9 4.7C3.9 5.53869 3.9 5.95804 4.03702 6.28883C4.21971 6.72988 4.57012 7.08029 5.01117 7.26298C5.34196 7.4 5.76131 7.4 6.6 7.4Z" stroke="black" stroke-width="2" stroke-linecap="round" stroke-linejoin="round"/>
</svg>
