<svg viewBox="0 0 24 24" fill="none" xmlns="http://www.w3.org/2000/svg">
<path d="M15.6 19.2H15.42C13.9079 19.2 13.1518 19.2 12.5742 18.9057C12.0662 18.6469 11.6531 18.2338 11.3943 17.7258C11.1 17.1482 11.1 16.3921 11.1 14.88V9.12C11.1 7.60786 11.1 6.85179 11.3943 6.27423C11.6531 5.76619 12.0662 5.35314 12.5742 5.09428C13.1518 4.8 13.9079 4.8 15.42 4.8H15.6M15.6 19.2C15.6 20.1941 16.4059 21 17.4 21C18.3941 21 19.2 20.1941 19.2 19.2C19.2 18.2059 18.3941 17.4 17.4 17.4C16.4059 17.4 15.6 18.2059 15.6 19.2ZM15.6 4.8C15.6 5.79411 16.4059 6.6 17.4 6.6C18.3941 6.6 19.2 5.79411 19.2 4.8C19.2 3.80589 18.3941 3 17.4 3C16.4059 3 15.6 3.80589 15.6 4.8ZM6.6 12L15.6 12M6.6 12C6.6 12.9941 5.79411 13.8 4.8 13.8C3.80589 13.8 3 12.9941 3 12C3 11.0059 3.80589 10.2 4.8 10.2C5.79411 10.2 6.6 11.0059 6.6 12ZM15.6 12C15.6 12.9941 16.4059 13.8 17.4 13.8C18.3941 13.8 19.2 12.9941 19.2 12C19.2 11.0059 18.3941 10.2 17.4 10.2C16.4059 10.2 15.6 11.0059 15.6 12Z" stroke="black" stroke-width="2" stroke-linecap="round" stroke-linejoin="round"/>
</svg>