<svg viewBox="0 0 24 24" fill="none" xmlns="http://www.w3.org/2000/svg">
<path d="M19.2 5.7C19.2 7.19117 15.5735 8.4 11.1 8.4C6.62649 8.4 3 7.19117 3 5.7M19.2 5.7C19.2 4.20883 15.5735 3 11.1 3C6.62649 3 3 4.20883 3 5.7M19.2 5.7V18.3C19.2 19.794 15.6 21 11.1 21C6.6 21 3 19.794 3 18.3V5.7M19.2 9.94819C19.2 11.4422 15.6 12.6482 11.1 12.6482C6.6 12.6482 3 11.4422 3 9.94819M19.2 14.196C19.2 15.69 15.6 16.896 11.1 16.896C6.6 16.896 3 15.69 3 14.196" stroke="black" stroke-width="2" stroke-linecap="round" stroke-linejoin="round"/>
</svg>