<svg viewBox="0 0 24 24" fill="none" xmlns="http://www.w3.org/2000/svg">
<path d="M12.9 19.2C12.9 20.1941 12.0941 21 11.1 21C10.1059 21 9.3 20.1941 9.3 19.2M12.9 19.2C12.9 18.2059 12.0941 17.4 11.1 17.4M12.9 19.2H19.2M9.3 19.2C9.3 18.2059 10.1059 17.4 11.1 17.4M9.3 19.2H3M11.1 17.4V13.8M19.2 5.7C19.2 7.19117 15.5735 8.4 11.1 8.4C6.62649 8.4 3 7.19117 3 5.7M19.2 5.7C19.2 4.20883 15.5735 3 11.1 3C6.62649 3 3 4.20883 3 5.7M19.2 5.7V11.1C19.2 12.594 15.6 13.8 11.1 13.8M3 5.7V11.1C3 12.594 6.6 13.8 11.1 13.8" stroke="black" stroke-width="2" stroke-linecap="round" stroke-linejoin="round"/>
</svg>