<svg viewBox="0 0 24 24" fill="none" xmlns="http://www.w3.org/2000/svg">
<path d="M4.71661 21H17.3166M2.46661 8.4H19.5666M9.21661 3L7.41661 8.4L11.0166 17.85L14.6166 8.4L12.8166 3M11.5494 17.714L19.595 8.86377C19.7444 8.69938 19.8192 8.61718 19.849 8.52359C19.8752 8.44112 19.8771 8.35283 19.8544 8.2693C19.8287 8.17452 19.7576 8.08918 19.6154 7.91851L15.7325 3.25907C15.6531 3.16384 15.6135 3.11623 15.5648 3.082C15.5217 3.05167 15.4736 3.02914 15.4228 3.01545C15.3653 3 15.3033 3 15.1794 3H6.85384C6.72988 3 6.6679 3 6.61047 3.01545C6.55958 3.02914 6.51149 3.05167 6.46839 3.082C6.41975 3.11623 6.38008 3.16384 6.30072 3.25907L2.41785 7.91851C2.27563 8.08918 2.20451 8.17452 2.17879 8.2693C2.15613 8.35283 2.15803 8.44112 2.18427 8.52359C2.21405 8.61718 2.28877 8.69937 2.43822 8.86376L10.4839 17.714C10.6685 17.9171 10.7609 18.0187 10.8694 18.0563C10.9648 18.0893 11.0684 18.0893 11.1638 18.0563C11.2723 18.0187 11.3647 17.9171 11.5494 17.714Z" stroke="black" stroke-width="2" stroke-linecap="round" stroke-linejoin="round"/>
</svg>