<svg width="24" height="24" viewBox="0 0 24 24" fill="none" xmlns="http://www.w3.org/2000/svg">
<path d="M12 20C16.9706 20 21 15.9706 21 11C21 6.02944 16.9706 2 12 2C7.02944 2 3 6.02944 3 11C3 15.9706 7.02944 20 12 20Z" fill="white" fill-opacity="0.01"/>
<path d="M12 13.7C13.4912 13.7 14.7 12.4912 14.7 11C14.7 9.50883 13.4912 8.3 12 8.3C10.5088 8.3 9.3 9.50883 9.3 11C9.3 12.4912 10.5088 13.7 12 13.7Z" fill="white" fill-opacity="0.01"/>
<path d="M12 20C16.9706 20 21 15.9706 21 11C21 6.02944 16.9706 2 12 2C7.02944 2 3 6.02944 3 11C3 15.9706 7.02944 20 12 20Z" stroke="black" stroke-width="2" stroke-linecap="round" stroke-linejoin="round"/>
<path d="M12 13.7C13.4912 13.7 14.7 12.4912 14.7 11C14.7 9.50883 13.4912 8.3 12 8.3C10.5088 8.3 9.3 9.50883 9.3 11C9.3 12.4912 10.5088 13.7 12 13.7Z" stroke="black" stroke-width="2" stroke-linecap="round" stroke-linejoin="round"/>
</svg>
