<svg width="24" height="24" viewBox="0 0 24 24" fill="none" xmlns="http://www.w3.org/2000/svg">
<path d="M12.45 8.4C12.45 8.64853 12.2485 8.85 12 8.85C11.7515 8.85 11.55 8.64853 11.55 8.4C11.55 8.15147 11.7515 7.95 12 7.95C12.2485 7.95 12.45 8.15147 12.45 8.4Z" fill="white" fill-opacity="0.01"/>
<path d="M12.45 15.6C12.45 15.8485 12.2485 16.05 12 16.05C11.7515 16.05 11.55 15.8485 11.55 15.6C11.55 15.3515 11.7515 15.15 12 15.15C12.2485 15.15 12.45 15.3515 12.45 15.6Z" fill="white" fill-opacity="0.01"/>
<path d="M12 21C16.9706 21 21 16.9706 21 12C21 7.02944 16.9706 3 12 3C7.02944 3 3 7.02944 3 12C3 16.9706 7.02944 21 12 21Z" fill="white" fill-opacity="0.01"/>
<path d="M12 8.4H12.009M12 15.6H12.009M7.5 12H16.5M12.45 8.4C12.45 8.64853 12.2485 8.85 12 8.85C11.7515 8.85 11.55 8.64853 11.55 8.4C11.55 8.15147 11.7515 7.95 12 7.95C12.2485 7.95 12.45 8.15147 12.45 8.4ZM12.45 15.6C12.45 15.8485 12.2485 16.05 12 16.05C11.7515 16.05 11.55 15.8485 11.55 15.6C11.55 15.3515 11.7515 15.15 12 15.15C12.2485 15.15 12.45 15.3515 12.45 15.6ZM21 12C21 16.9706 16.9706 21 12 21C7.02944 21 3 16.9706 3 12C3 7.02944 7.02944 3 12 3C16.9706 3 21 7.02944 21 12Z" stroke="black" stroke-width="2" stroke-linecap="round" stroke-linejoin="round"/>
</svg>
