<svg width="24" height="24" viewBox="0 0 24 24" fill="none" xmlns="http://www.w3.org/2000/svg">
<path d="M21 14.6C21 17.5823 18.5823 20 15.6 20C12.6177 20 10.2 17.5823 10.2 14.6C10.2 10.7177 15.6 2 15.6 2C15.6 2 21 10.7177 21 14.6Z" fill="white" fill-opacity="0.01"/>
<path d="M8.4 8.3C8.4 9.79117 7.19117 11 5.7 11C4.20883 11 3 9.79117 3 8.3C3 6.35883 5.7 2 5.7 2C5.7 2 8.4 6.35883 8.4 8.3Z" fill="white" fill-opacity="0.01"/>
<path d="M21 14.6C21 17.5823 18.5823 20 15.6 20C12.6177 20 10.2 17.5823 10.2 14.6C10.2 10.7177 15.6 2 15.6 2C15.6 2 21 10.7177 21 14.6Z" stroke="black" stroke-width="2" stroke-linecap="round" stroke-linejoin="round"/>
<path d="M8.4 8.3C8.4 9.79117 7.19117 11 5.7 11C4.20883 11 3 9.79117 3 8.3C3 6.35883 5.7 2 5.7 2C5.7 2 8.4 6.35883 8.4 8.3Z" stroke="black" stroke-width="2" stroke-linecap="round" stroke-linejoin="round"/>
</svg>
