<svg width="24" height="24" viewBox="0 0 24 24" fill="none" xmlns="http://www.w3.org/2000/svg">
<path d="M2.81125 15.37C2.84929 15.0277 2.8683 14.8566 2.92009 14.6966C2.96603 14.5547 3.03094 14.4196 3.11307 14.2951C3.20563 14.1547 3.32739 14.033 3.57091 13.7894L14.503 2.85734C15.4174 1.94298 16.8998 1.94298 17.8142 2.85734C18.7286 3.7717 18.7286 5.25416 17.8142 6.16852L6.88209 17.1006C6.63857 17.3441 6.51681 17.4659 6.37644 17.5585C6.25191 17.6406 6.11685 17.7055 5.97493 17.7514C5.81496 17.8032 5.64382 17.8222 5.30153 17.8603L2.49997 18.1716L2.81125 15.37Z" fill="white" fill-opacity="0.01"/>
<path d="M15.3308 8.65191L12.0196 5.34073M2.49997 18.1716L5.30153 17.8603C5.64382 17.8222 5.81496 17.8032 5.97493 17.7514C6.11685 17.7055 6.25191 17.6406 6.37644 17.5585C6.51681 17.4659 6.63857 17.3441 6.88209 17.1006L17.8142 6.16852C18.7286 5.25416 18.7286 3.7717 17.8142 2.85734C16.8998 1.94298 15.4174 1.94298 14.503 2.85734L3.57091 13.7894C3.32739 14.033 3.20563 14.1547 3.11307 14.2951C3.03094 14.4196 2.96603 14.5547 2.92009 14.6966C2.8683 14.8566 2.84929 15.0277 2.81125 15.37L2.49997 18.1716Z" stroke="black" stroke-width="2" stroke-linecap="round" stroke-linejoin="round"/>
</svg>
