<svg width="24" height="24" viewBox="0 0 24 24" fill="none" xmlns="http://www.w3.org/2000/svg">
<path d="M12 20C16.9706 20 21 15.9706 21 11C21 6.02944 16.9706 2 12 2C7.02944 2 3 6.02944 3 11C3 15.9706 7.02944 20 12 20Z" fill="white" fill-opacity="0.01"/>
<path d="M8.4 12.8C8.4 12.8 9.75 14.6 12 14.6C14.25 14.6 15.6 12.8 15.6 12.8" fill="white" fill-opacity="0.01"/>
<path d="M15.15 8.3C15.15 8.54853 14.9485 8.75 14.7 8.75C14.4515 8.75 14.25 8.54853 14.25 8.3C14.25 8.05147 14.4515 7.85 14.7 7.85C14.9485 7.85 15.15 8.05147 15.15 8.3Z" fill="white" fill-opacity="0.01"/>
<path d="M8.4 12.8C8.4 12.8 9.75 14.6 12 14.6C14.25 14.6 15.6 12.8 15.6 12.8M14.7 8.3H14.709M8.4 8.3H10.2M21 11C21 15.9706 16.9706 20 12 20C7.02944 20 3 15.9706 3 11C3 6.02944 7.02944 2 12 2C16.9706 2 21 6.02944 21 11ZM15.15 8.3C15.15 8.54853 14.9485 8.75 14.7 8.75C14.4515 8.75 14.25 8.54853 14.25 8.3C14.25 8.05147 14.4515 7.85 14.7 7.85C14.9485 7.85 15.15 8.05147 15.15 8.3Z" stroke="black" stroke-width="2" stroke-linecap="round" stroke-linejoin="round"/>
</svg>
