<svg viewBox="0 0 24 24" fill="none" xmlns="http://www.w3.org/2000/svg">
<path d="M15.6 14.6C15.6 14.6 14.25 12.8 12 12.8C9.75 12.8 8.4 14.6 8.4 14.6M16.5 8.516C16.1445 8.9525 15.6585 9.2 15.15 9.2C14.6415 9.2 14.169 8.9525 13.8 8.516M10.2 8.516C9.8445 8.9525 9.3585 9.2 8.85 9.2C8.3415 9.2 7.869 8.9525 7.5 8.516M21 11C21 15.9706 16.9706 20 12 20C7.02944 20 3 15.9706 3 11C3 6.02944 7.02944 2 12 2C16.9706 2 21 6.02944 21 11Z" stroke="black" stroke-width="2" stroke-linecap="round" stroke-linejoin="round"/>
</svg>