<svg width="24" height="24" viewBox="0 0 24 24" fill="none" xmlns="http://www.w3.org/2000/svg">
<path d="M18.4 10.2V7.32C18.4 5.80786 18.4 5.05179 18.1057 4.47423C17.8469 3.96619 17.4338 3.55314 16.9258 3.29428C16.3482 3 15.5921 3 14.08 3H8.32C6.80786 3 6.05179 3 5.47423 3.29428C4.96619 3.55314 4.55314 3.96619 4.29428 4.47423C4 5.05179 4 5.80786 4 7.32V16.68C4 18.1921 4 18.9482 4.29428 19.5258C4.55314 20.0338 4.96619 20.4469 5.47423 20.7057C6.05179 21 6.80786 21 8.32 21H9.85M17.725 16.5V14.925C17.725 14.0552 17.0198 13.35 16.15 13.35C15.2802 13.35 14.575 14.0552 14.575 14.925V16.5M14.44 20.1H17.86C18.364 20.1 18.6161 20.1 18.8086 20.0019C18.9779 19.9156 19.1156 19.7779 19.2019 19.6086C19.3 19.4161 19.3 19.164 19.3 18.66V17.94C19.3 17.436 19.3 17.1839 19.2019 16.9914C19.1156 16.8221 18.9779 16.6844 18.8086 16.5981C18.6161 16.5 18.364 16.5 17.86 16.5H14.44C13.936 16.5 13.6839 16.5 13.4914 16.5981C13.3221 16.6844 13.1844 16.8221 13.0981 16.9914C13 17.1839 13 17.436 13 17.94V18.66C13 19.164 13 19.4161 13.0981 19.6086C13.1844 19.7779 13.3221 19.9156 13.4914 20.0019C13.6839 20.1 13.936 20.1 14.44 20.1Z" stroke="black" stroke-width="2" stroke-linecap="round" stroke-linejoin="round"/>
</svg>
