<svg viewBox="0 0 24 24" fill="none" xmlns="http://www.w3.org/2000/svg">
<path d="M13 3.24258V6.96007C13 7.46411 13 7.71613 13.0981 7.90866C13.1844 8.078 13.3221 8.21568 13.4914 8.30197C13.6839 8.40006 13.936 8.40006 14.44 8.40006H18.1575M14.8 17.85L13.45 16.5M13 3H8.32C6.80786 3 6.05179 3 5.47423 3.29428C4.96619 3.55314 4.55314 3.96619 4.29428 4.47423C4 5.05179 4 5.80786 4 7.32V16.68C4 18.1921 4 18.9482 4.29428 19.5258C4.55314 20.0338 4.96619 20.4469 5.47423 20.7057C6.05179 21 6.80786 21 8.32 21H14.08C15.5921 21 16.3482 21 16.9258 20.7057C17.4338 20.4469 17.8469 20.0338 18.1057 19.5258C18.4 18.9482 18.4 18.1921 18.4 16.68V8.4L13 3ZM14.35 14.25C14.35 15.9897 12.9397 17.4 11.2 17.4C9.4603 17.4 8.05 15.9897 8.05 14.25C8.05 12.5103 9.4603 11.1 11.2 11.1C12.9397 11.1 14.35 12.5103 14.35 14.25Z" stroke="black" stroke-width="2" stroke-linecap="round" stroke-linejoin="round"/>
</svg>