<svg width="24" height="24" viewBox="0 0 24 24" fill="none" xmlns="http://www.w3.org/2000/svg">
<path d="M13 11.1H7.6M9.4 14.7H7.6M14.8 7.5H7.6M18.4 10.65V7.32C18.4 5.80786 18.4 5.05179 18.1057 4.47423C17.8469 3.96619 17.4338 3.55314 16.9258 3.29428C16.3482 3 15.5921 3 14.08 3H8.32C6.80786 3 6.05179 3 5.47423 3.29428C4.96619 3.55314 4.55314 3.96619 4.29428 4.47423C4 5.05179 4 5.80786 4 7.32V16.68C4 18.1921 4 18.9482 4.29428 19.5258C4.55314 20.0338 4.96619 20.4469 5.47423 20.7057C6.05179 21 6.80786 21 8.32 21H10.75M20.2 21L18.85 19.65M19.75 17.4C19.75 19.1397 18.3397 20.55 16.6 20.55C14.8603 20.55 13.45 19.1397 13.45 17.4C13.45 15.6603 14.8603 14.25 16.6 14.25C18.3397 14.25 19.75 15.6603 19.75 17.4Z" stroke="black" stroke-width="2" stroke-linecap="round" stroke-linejoin="round"/>
</svg>
