<svg viewBox="0 0 24 24" fill="none" xmlns="http://www.w3.org/2000/svg">
<path d="M13 3H8.32C6.80786 3 6.05179 3 5.47423 3.29428C4.96619 3.55314 4.55314 3.96619 4.29428 4.47423C4 5.05179 4 5.80786 4 7.32V16.68C4 18.1921 4 18.9482 4.29428 19.5258C4.55314 20.0338 4.96619 20.4469 5.47423 20.7057C6.05179 21 6.80786 21 8.32 21H14.08C15.5921 21 16.3482 21 16.9258 20.7057C17.4338 20.4469 17.8469 20.0338 18.1057 19.5258C18.4 18.9482 18.4 18.1921 18.4 16.68V8.4M13 3L18.4 8.4M13 3V8.4H18.4M12.775 13.8V12.225C12.775 11.3552 12.0698 10.65 11.2 10.65C10.3302 10.65 9.625 11.3552 9.625 12.225V13.8M9.49 17.4H12.91C13.414 17.4 13.6661 17.4 13.8586 17.3019C14.0279 17.2156 14.1656 17.0779 14.2519 16.9086C14.35 16.7161 14.35 16.464 14.35 15.96V15.24C14.35 14.736 14.35 14.4839 14.2519 14.2914C14.1656 14.1221 14.0279 13.9844 13.8586 13.8981C13.6661 13.8 13.414 13.8 12.91 13.8H9.49C8.98595 13.8 8.73393 13.8 8.54141 13.8981C8.37206 13.9844 8.23438 14.1221 8.14809 14.2914C8.05 14.4839 8.05 14.736 8.05 15.24V15.96C8.05 16.464 8.05 16.7161 8.14809 16.9086C8.23438 17.0779 8.37206 17.2156 8.54141 17.3019C8.73393 17.4 8.98595 17.4 9.49 17.4Z" stroke="black" stroke-width="2" stroke-linecap="round" stroke-linejoin="round"/>
</svg>