<svg width="24" height="24" viewBox="0 0 24 24" fill="none" xmlns="http://www.w3.org/2000/svg">
<path d="M4 7.32C4 5.80786 4 5.05179 4.29428 4.47423C4.55314 3.96619 4.96619 3.55314 5.47423 3.29428C6.05179 3 6.80786 3 8.32 3H11.2106C11.871 3 12.2012 3 12.5119 3.0746C12.7874 3.14074 13.0508 3.24983 13.2924 3.39787C13.5648 3.56484 13.7983 3.79833 14.2653 4.2653L17.1347 7.1347C17.6017 7.60167 17.8352 7.83516 18.0021 8.10763C18.1502 8.34921 18.2593 8.61258 18.3254 8.88807C18.4 9.19881 18.4 9.52901 18.4 10.1894V16.68C18.4 18.1921 18.4 18.9482 18.1057 19.5258C17.8469 20.0338 17.4338 20.4469 16.9258 20.7057C16.3482 21 15.5921 21 14.08 21H8.32C6.80786 21 6.05179 21 5.47423 20.7057C4.96619 20.4469 4.55314 20.0338 4.29428 19.5258C4 18.9482 4 18.1921 4 16.68V7.32Z" fill="white" fill-opacity="0.01"/>
<path d="M7.6 14.7V17.4V14.7Z" fill="white" fill-opacity="0.01"/>
<path d="M14.8 12.9V17.4V12.9Z" fill="white" fill-opacity="0.01"/>
<path d="M11.2 10.65V17.4V10.65Z" fill="white" fill-opacity="0.01"/>
<path d="M13 3.24258V6.96007C13 7.46411 13 7.71613 13.0981 7.90866C13.1844 8.078 13.3221 8.21568 13.4914 8.30197C13.6839 8.40006 13.936 8.40006 14.44 8.40006H18.1575M7.6 14.7V17.4M14.8 12.9V17.4M11.2 10.65V17.4M18.4 10.1894V16.68C18.4 18.1921 18.4 18.9482 18.1057 19.5258C17.8469 20.0338 17.4338 20.4469 16.9258 20.7057C16.3482 21 15.5921 21 14.08 21H8.32C6.80786 21 6.05179 21 5.47423 20.7057C4.96619 20.4469 4.55314 20.0338 4.29428 19.5258C4 18.9482 4 18.1921 4 16.68V7.32C4 5.80786 4 5.05179 4.29428 4.47423C4.55314 3.96619 4.96619 3.55314 5.47423 3.29428C6.05179 3 6.80786 3 8.32 3H11.2106C11.871 3 12.2012 3 12.5119 3.0746C12.7874 3.14074 13.0508 3.24983 13.2924 3.39787C13.5648 3.56484 13.7983 3.79833 14.2653 4.2653L17.1347 7.1347C17.6017 7.60167 17.8352 7.83516 18.0021 8.10763C18.1502 8.34921 18.2593 8.61258 18.3254 8.88807C18.4 9.19881 18.4 9.52901 18.4 10.1894Z" stroke="black" stroke-width="2" stroke-linecap="round" stroke-linejoin="round"/>
</svg>
