<svg width="24" height="24" viewBox="0 0 24 24" fill="none" xmlns="http://www.w3.org/2000/svg">
<path d="M15.25 14.702C15.4086 14.2512 15.7216 13.8711 16.1336 13.629C16.5455 13.3869 17.0299 13.2983 17.5009 13.3791C17.9719 13.4599 18.3991 13.7048 18.7068 14.0704C19.0146 14.4359 19.183 14.8986 19.1823 15.3765C19.1823 16.7255 17.1588 17.4 17.1588 17.4" fill="white" fill-opacity="0.01"/>
<path d="M18.4 9.75V7.32C18.4 5.80786 18.4 5.05179 18.1057 4.47423C17.8469 3.96619 17.4338 3.55314 16.9258 3.29428C16.3482 3 15.5921 3 14.08 3H8.32C6.80786 3 6.05179 3 5.47423 3.29428C4.96619 3.55314 4.55314 3.96619 4.29428 4.47423C4 5.05179 4 5.80786 4 7.32V16.68C4 18.1921 4 18.9482 4.29428 19.5258C4.55314 20.0338 4.96619 20.4469 5.47423 20.7057C6.05179 21 6.80786 21 8.32 21H13M13 11.1H7.6M9.4 14.7H7.6M14.8 7.5H7.6M15.25 14.702C15.4086 14.2512 15.7216 13.8711 16.1336 13.629C16.5455 13.3869 17.0299 13.2983 17.5009 13.3791C17.9719 13.4599 18.3991 13.7048 18.7068 14.0704C19.0146 14.4359 19.183 14.8986 19.1823 15.3765C19.1823 16.7255 17.1588 17.4 17.1588 17.4M17.1849 20.1H17.1939" stroke="black" stroke-width="2" stroke-linecap="round" stroke-linejoin="round"/>
</svg>
