<svg width="24" height="24" viewBox="0 0 24 24" fill="none" xmlns="http://www.w3.org/2000/svg">
<path d="M4.75 17.85C4.75 18.268 4.75 18.477 4.7731 18.6524C4.93261 19.864 5.886 20.8174 7.09758 20.9769C7.27303 21 7.48202 21 7.9 21H14.83C16.3421 21 17.0982 21 17.6758 20.7057C18.1838 20.4469 18.5969 20.0338 18.8557 19.5258C19.15 18.9482 19.15 18.1921 19.15 16.68V10.1894C19.15 9.52901 19.15 9.19881 19.0754 8.88807C19.0093 8.61258 18.9002 8.34921 18.7521 8.10763C18.5852 7.83516 18.3517 7.60166 17.8847 7.1347L15.0153 4.2653C14.5483 3.79833 14.3148 3.56484 14.0424 3.39787C13.8008 3.24983 13.5374 3.14074 13.2619 3.0746C12.9512 3 12.621 3 11.9606 3H7.9C7.48202 3 7.27303 3 7.09758 3.0231C5.886 3.18261 4.93261 4.136 4.7731 5.34758C4.75 5.52303 4.75 5.73202 4.75 6.15M8.35 14.25L10.6 12L8.35 9.75M4.75 9.75L2.5 12L4.75 14.25" stroke="black" stroke-width="2" stroke-linecap="round" stroke-linejoin="round"/>
</svg>
