<svg width="24" height="24" viewBox="0 0 24 24" fill="none" xmlns="http://www.w3.org/2000/svg">
<path d="M4 7.32C4 5.80786 4 5.05179 4.29428 4.47423C4.55314 3.96619 4.96619 3.55314 5.47423 3.29428C6.05179 3 6.80786 3 8.32 3H13L18.4 8.4V16.68C18.4 18.1921 18.4 18.9482 18.1057 19.5258C17.8469 20.0338 17.4338 20.4469 16.9258 20.7057C16.3482 21 15.5921 21 14.08 21H8.32C6.80786 21 6.05179 21 5.47423 20.7057C4.96619 20.4469 4.55314 20.0338 4.29428 19.5258C4 18.9482 4 18.1921 4 16.68V7.32Z" fill="white" fill-opacity="0.01"/>
<path fill-rule="evenodd" clip-rule="evenodd" d="M11.1975 11.8475C10.4778 11.0294 9.27751 10.8094 8.37569 11.5585C7.47387 12.3076 7.34691 13.5601 8.05511 14.4461C8.76331 15.3321 11.1975 17.4 11.1975 17.4C11.1975 17.4 13.6318 15.3321 14.34 14.4461C15.0482 13.5601 14.9367 12.2998 14.0194 11.5585C13.1021 10.8173 11.9173 11.0294 11.1975 11.8475Z" fill="white" fill-opacity="0.01"/>
<path d="M13 3.24258V6.96007C13 7.46411 13 7.71613 13.0981 7.90866C13.1844 8.078 13.3221 8.21568 13.4914 8.30197C13.6839 8.40006 13.936 8.40006 14.44 8.40006H18.1575M13 3H8.32C6.80786 3 6.05179 3 5.47423 3.29428C4.96619 3.55314 4.55314 3.96619 4.29428 4.47423C4 5.05179 4 5.80786 4 7.32V16.68C4 18.1921 4 18.9482 4.29428 19.5258C4.55314 20.0338 4.96619 20.4469 5.47423 20.7057C6.05179 21 6.80786 21 8.32 21H14.08C15.5921 21 16.3482 21 16.9258 20.7057C17.4338 20.4469 17.8469 20.0338 18.1057 19.5258C18.4 18.9482 18.4 18.1921 18.4 16.68V8.4L13 3ZM11.1975 11.8475C10.4778 11.0294 9.27751 10.8094 8.37569 11.5585C7.47387 12.3076 7.34691 13.5601 8.05511 14.4461C8.76331 15.3321 11.1975 17.4 11.1975 17.4C11.1975 17.4 13.6318 15.3321 14.34 14.4461C15.0482 13.5601 14.9367 12.2998 14.0194 11.5585C13.1021 10.8173 11.9173 11.0294 11.1975 11.8475Z" stroke="black" stroke-width="2" stroke-linecap="round" stroke-linejoin="round"/>
</svg>
