<svg width="24" height="24" viewBox="0 0 24 24" fill="none" xmlns="http://www.w3.org/2000/svg">
<path d="M3 6.32C3 4.80786 3 4.05179 3.29428 3.47423C3.55314 2.96619 3.96619 2.55314 4.47423 2.29428C5.05179 2 5.80786 2 7.32 2H10.56C11.064 2 11.3161 2 11.5086 2.09809C11.6779 2.18438 11.8156 2.32206 11.9019 2.49141C12 2.68393 12 2.93595 12 3.44V18.2H7.32C5.80786 18.2 5.05179 18.2 4.47423 17.9057C3.96619 17.6469 3.55314 17.2338 3.29428 16.7258C3 16.1482 3 15.3921 3 13.88V6.32Z" fill="white" fill-opacity="0.01"/>
<path d="M12 3.8H16.68C18.1921 3.8 18.9482 3.8 19.5258 4.09428C20.0338 4.35314 20.4469 4.76619 20.7057 5.27423C21 5.85179 21 6.60786 21 8.12V15.68C21 17.1921 21 17.9482 20.7057 18.5258C20.4469 19.0338 20.0338 19.4469 19.5258 19.7057C18.9482 20 18.1921 20 16.68 20H13.44C12.936 20 12.6839 20 12.4914 19.9019C12.3221 19.8156 12.1844 19.6779 12.0981 19.5086C12 19.3161 12 19.064 12 18.56V3.8Z" fill="white" fill-opacity="0.01"/>
<path d="M7.5 2V5.6M7.5 14.6V18.2M16.5 3.8V7.4M16.5 16.4V20M3 5.6H12M3 14.6H12M12 7.4H21M12 16.4H21M12 18.2V3.44C12 2.93595 12 2.68393 11.9019 2.49141C11.8156 2.32206 11.6779 2.18438 11.5086 2.09809C11.3161 2 11.064 2 10.56 2H7.32C5.80786 2 5.05179 2 4.47423 2.29428C3.96619 2.55314 3.55314 2.96619 3.29428 3.47423C3 4.05179 3 4.80786 3 6.32V13.88C3 15.3921 3 16.1482 3.29428 16.7258C3.55314 17.2338 3.96619 17.6469 4.47423 17.9057C5.05179 18.2 5.80786 18.2 7.32 18.2H12ZM12 3.8H16.68C18.1921 3.8 18.9482 3.8 19.5258 4.09428C20.0338 4.35314 20.4469 4.76619 20.7057 5.27423C21 5.85179 21 6.60786 21 8.12V15.68C21 17.1921 21 17.9482 20.7057 18.5258C20.4469 19.0338 20.0338 19.4469 19.5258 19.7057C18.9482 20 18.1921 20 16.68 20H13.44C12.936 20 12.6839 20 12.4914 19.9019C12.3221 19.8156 12.1844 19.6779 12.0981 19.5086C12 19.3161 12 19.064 12 18.56V3.8Z" stroke="black" stroke-width="2" stroke-linecap="round" stroke-linejoin="round"/>
</svg>
