<svg width="24" height="24" viewBox="0 0 24 24" fill="none" xmlns="http://www.w3.org/2000/svg">
<path d="M3 6.32C3 4.80786 3 4.05179 3.29428 3.47423C3.55314 2.96619 3.96619 2.55314 4.47423 2.29428C5.05179 2 5.80786 2 7.32 2H16.68C18.1921 2 18.9482 2 19.5258 2.29428C20.0338 2.55314 20.4469 2.96619 20.7057 3.47423C21 4.05179 21 4.80786 21 6.32V15.68C21 17.1921 21 17.9482 20.7057 18.5258C20.4469 19.0338 20.0338 19.4469 19.5258 19.7057C18.9482 20 18.1921 20 16.68 20H7.32C5.80786 20 5.05179 20 4.47423 19.7057C3.96619 19.4469 3.55314 19.0338 3.29428 18.5258C3 17.9482 3 17.1921 3 15.68V6.32Z" fill="white" fill-opacity="0.01"/>
<path d="M3 11H21M3 6.5H7.5M16.5 6.5H21M3 15.5H7.5M16.5 15.5H21M7.5 20V2M16.5 20V2M7.32 20H16.68C18.1921 20 18.9482 20 19.5258 19.7057C20.0338 19.4469 20.4469 19.0338 20.7057 18.5258C21 17.9482 21 17.1921 21 15.68V6.32C21 4.80786 21 4.05179 20.7057 3.47423C20.4469 2.96619 20.0338 2.55314 19.5258 2.29428C18.9482 2 18.1921 2 16.68 2H7.32C5.80786 2 5.05179 2 4.47423 2.29428C3.96619 2.55314 3.55314 2.96619 3.29428 3.47423C3 4.05179 3 4.80786 3 6.32V15.68C3 17.1921 3 17.9482 3.29428 18.5258C3.55314 19.0338 3.96619 19.4469 4.47423 19.7057C5.05179 20 5.80786 20 7.32 20Z" stroke="black" stroke-width="2" stroke-linecap="round" stroke-linejoin="round"/>
</svg>
