<svg width="24" height="24" viewBox="0 0 24 24" fill="none" xmlns="http://www.w3.org/2000/svg">
<path d="M3 4.44C3 3.93595 3 3.68393 3.09809 3.49141C3.18438 3.32206 3.32206 3.18438 3.49141 3.09809C3.68393 3 3.93595 3 4.44 3H19.56C20.064 3 20.3161 3 20.5086 3.09809C20.6779 3.18438 20.8156 3.32206 20.9019 3.49141C21 3.68393 21 3.93595 21 4.44V5.04245C21 5.28437 21 5.40533 20.9704 5.51781C20.9442 5.61748 20.9011 5.71191 20.843 5.79698C20.7773 5.89299 20.6859 5.97221 20.5031 6.13065L14.7469 11.1194C14.5641 11.2778 14.4727 11.357 14.407 11.453C14.3489 11.5381 14.3058 11.6325 14.2796 11.7322C14.25 11.8447 14.25 11.9656 14.25 12.2075V16.9125C14.25 17.0885 14.25 17.1765 14.2216 17.2526C14.1965 17.3199 14.1557 17.3801 14.1026 17.4284C14.0425 17.483 13.9608 17.5157 13.7974 17.581L10.7374 18.805C10.4066 18.9374 10.2412 19.0035 10.1084 18.9759C9.99234 18.9518 9.89045 18.8828 9.82493 18.784C9.75 18.6709 9.75 18.4928 9.75 18.1365V12.2075C9.75 11.9656 9.75 11.8447 9.72044 11.7322C9.69424 11.6325 9.65112 11.5381 9.59296 11.453C9.52732 11.357 9.43591 11.2778 9.2531 11.1194L3.4969 6.13065C3.31409 5.97221 3.22268 5.89299 3.15704 5.79698C3.09888 5.71191 3.05576 5.61748 3.02956 5.51781C3 5.40533 3 5.28437 3 5.04245V4.44Z" fill="white" fill-opacity="0.01" stroke="black" stroke-width="2" stroke-linecap="round" stroke-linejoin="round"/>
</svg>
