<svg width="24" height="24" viewBox="0 0 24 24" fill="none" xmlns="http://www.w3.org/2000/svg">
<path d="M7.6 13.8C4.9 13.8 4 14.7 4 14.7V3.9C4 3.9 4.9 3 7.6 3C10.3 3 12.1 4.8 14.8 4.8C17.5 4.8 18.4 3.9 18.4 3.9V14.7C18.4 14.7 17.5 15.6 14.8 15.6C12.1 15.6 10.3 13.8 7.6 13.8Z" fill="white" fill-opacity="0.01"/>
<path d="M4 14.7C4 14.7 4.9 13.8 7.6 13.8C10.3 13.8 12.1 15.6 14.8 15.6C17.5 15.6 18.4 14.7 18.4 14.7V3.9C18.4 3.9 17.5 4.8 14.8 4.8C12.1 4.8 10.3 3 7.6 3C4.9 3 4 3.9 4 3.9L4 21" stroke="black" stroke-width="2" stroke-linecap="round" stroke-linejoin="round"/>
</svg>
