<svg width="24" height="24" viewBox="0 0 24 24" fill="none" xmlns="http://www.w3.org/2000/svg">
<path d="M11.1 13.8H4.53723C4.04686 13.8 3.80167 13.8 3.67793 13.7C3.57036 13.6131 3.50873 13.4815 3.51082 13.3432C3.51322 13.1841 3.67018 12.9958 3.98411 12.6191L7.5 8.4L14.7 15.6L10.2 21L11.1 13.8Z" fill="white" fill-opacity="0.01"/>
<path d="M7.5 8.4L3.98411 12.6191C3.67018 12.9958 3.51322 13.1841 3.51082 13.3432C3.50873 13.4815 3.57036 13.6131 3.67793 13.7C3.80167 13.8 4.04686 13.8 4.53723 13.8H11.1L10.2 21L14.7 15.6M14.385 10.2H17.6628C18.1531 10.2 18.3983 10.2 18.5221 10.3C18.6296 10.3869 18.6913 10.5185 18.6892 10.6568C18.6868 10.8159 18.5298 11.0042 18.2159 11.3809L16.9952 12.8457M9.81548 5.62138L12 3L11.4602 7.31794M19.2 20.1L3 3.9" stroke="black" stroke-width="2" stroke-linecap="round" stroke-linejoin="round"/>
</svg>
