<svg viewBox="0 0 24 24" fill="none" xmlns="http://www.w3.org/2000/svg">
<path d="M12.9 6.6L11.896 4.59202C11.6071 4.01412 11.4626 3.72516 11.247 3.51405C11.0564 3.32736 10.8267 3.18538 10.5745 3.09838C10.2892 3 9.96619 3 9.32006 3H5.88C4.87191 3 4.36786 3 3.98282 3.19619C3.64413 3.36876 3.36876 3.64413 3.19619 3.98282C3 4.36786 3 4.87191 3 5.88V6.6M3 6.6H16.68C18.1921 6.6 18.9482 6.6 19.5258 6.89428C20.0338 7.15314 20.4469 7.56619 20.7057 8.07423C21 8.65179 21 9.40786 21 10.92V14.88C21 16.3921 21 17.1482 20.7057 17.7258C20.4469 18.2338 20.0338 18.6469 19.5258 18.9057C18.9482 19.2 18.1921 19.2 16.68 19.2H7.32C5.80786 19.2 5.05179 19.2 4.47423 18.9057C3.96619 18.6469 3.55314 18.2338 3.29428 17.7258C3 17.1482 3 16.3921 3 14.88V6.6ZM10.29 16.05H13.71C14.214 16.05 14.4661 16.05 14.6586 15.9519C14.8279 15.8656 14.9656 15.7279 15.0519 15.5586C15.15 15.3661 15.15 15.114 15.15 14.61V13.89C15.15 13.386 15.15 13.1339 15.0519 12.9414C14.9656 12.7721 14.8279 12.6344 14.6586 12.5481C14.4661 12.45 14.214 12.45 13.71 12.45H10.29C9.78595 12.45 9.53393 12.45 9.34141 12.5481C9.17206 12.6344 9.03438 12.7721 8.94809 12.9414C8.85 13.1339 8.85 13.386 8.85 13.89V14.61C8.85 15.114 8.85 15.3661 8.94809 15.5586C9.03438 15.7279 9.17206 15.8656 9.34141 15.9519C9.53393 16.05 9.78595 16.05 10.29 16.05ZM13.575 12.45V10.875C13.575 10.0052 12.8698 9.3 12 9.3C11.1302 9.3 10.425 10.0052 10.425 10.875V12.45H13.575Z" stroke="black" stroke-width="2" stroke-linecap="round" stroke-linejoin="round"/>
</svg>