<svg viewBox="0 0 24 24" fill="none" xmlns="http://www.w3.org/2000/svg">
<path d="M12.9 6.6L11.896 4.59202C11.6071 4.01412 11.4626 3.72516 11.247 3.51405C11.0564 3.32736 10.8267 3.18538 10.5745 3.09838C10.2892 3 9.96619 3 9.32006 3H5.88C4.87191 3 4.36786 3 3.98282 3.19619C3.64413 3.36876 3.36876 3.64413 3.19619 3.98282C3 4.36786 3 4.87191 3 5.88V6.6M3 6.6H16.68C18.1921 6.6 18.9482 6.6 19.5258 6.89428C20.0338 7.15314 20.4469 7.56619 20.7057 8.07423C21 8.65179 21 9.40786 21 10.92V14.88C21 16.3921 21 17.1482 20.7057 17.7258C20.4469 18.2338 20.0338 18.6469 19.5258 18.9057C18.9482 19.2 18.1921 19.2 16.68 19.2H7.32C5.80786 19.2 5.05179 19.2 4.47423 18.9057C3.96619 18.6469 3.55314 18.2338 3.29428 17.7258C3 17.1482 3 16.3921 3 14.88V6.6ZM15.15 16.05L13.8 14.7M14.7 12.45C14.7 14.1897 13.2897 15.6 11.55 15.6C9.8103 15.6 8.4 14.1897 8.4 12.45C8.4 10.7103 9.8103 9.3 11.55 9.3C13.2897 9.3 14.7 10.7103 14.7 12.45Z" stroke="black" stroke-width="2" stroke-linecap="round" stroke-linejoin="round"/>
</svg>