<svg width="24" height="24" viewBox="0 0 24 24" fill="none" xmlns="http://www.w3.org/2000/svg">
<path d="M12 6.5H7.95C7.35326 6.5 6.78097 6.26295 6.35901 5.84099C5.93705 5.41903 5.7 4.84674 5.7 4.25C5.7 3.65326 5.93705 3.08097 6.35901 2.65901C6.78097 2.23705 7.35326 2 7.95 2C11.1 2 12 6.5 12 6.5Z" fill="white" fill-opacity="0.01"/>
<path d="M12 6.5H16.05C16.6467 6.5 17.219 6.26295 17.641 5.84099C18.0629 5.41903 18.3 4.84674 18.3 4.25C18.3 3.65326 18.0629 3.08097 17.641 2.65901C17.219 2.23705 16.6467 2 16.05 2C12.9 2 12 6.5 12 6.5Z" fill="white" fill-opacity="0.01"/>
<path d="M18.12 20C19.1281 20 19.6321 20 20.0172 19.8038C20.3559 19.6312 20.6312 19.3559 20.8038 19.0172C21 18.6321 21 18.1281 21 17.12V9.38C21 8.37191 21 7.86786 20.8038 7.48282C20.6312 7.14413 20.3559 6.86876 20.0172 6.69619C19.6321 6.5 19.1281 6.5 18.12 6.5L5.88 6.5C4.87191 6.5 4.36786 6.5 3.98282 6.69619C3.64413 6.86876 3.36876 7.14413 3.19619 7.48282C3 7.86786 3 8.37191 3 9.38L3 17.12C3 18.1281 3 18.6321 3.19619 19.0172C3.36876 19.3559 3.64413 19.6312 3.98282 19.8038C4.36786 20 4.87191 20 5.88 20L18.12 20Z" fill="white" fill-opacity="0.01"/>
<path d="M12 6.5H7.95C7.35326 6.5 6.78097 6.26295 6.35901 5.84099C5.93705 5.41903 5.7 4.84674 5.7 4.25C5.7 3.65326 5.93705 3.08097 6.35901 2.65901C6.78097 2.23705 7.35326 2 7.95 2C11.1 2 12 6.5 12 6.5ZM12 6.5H16.05C16.6467 6.5 17.219 6.26295 17.641 5.84099C18.0629 5.41903 18.3 4.84674 18.3 4.25C18.3 3.65326 18.0629 3.08097 17.641 2.65901C17.219 2.23705 16.6467 2 16.05 2C12.9 2 12 6.5 12 6.5ZM12 6.5L12 20M3 12.8H21M3 9.38L3 17.12C3 18.1281 3 18.6321 3.19619 19.0172C3.36876 19.3559 3.64413 19.6312 3.98282 19.8038C4.36786 20 4.87191 20 5.88 20L18.12 20C19.1281 20 19.6321 20 20.0172 19.8038C20.3559 19.6312 20.6312 19.3559 20.8038 19.0172C21 18.6321 21 18.1281 21 17.12V9.38C21 8.37191 21 7.86786 20.8038 7.48282C20.6312 7.14413 20.3559 6.86876 20.0172 6.69619C19.6321 6.5 19.1281 6.5 18.12 6.5L5.88 6.5C4.87191 6.5 4.36786 6.5 3.98282 6.69619C3.64413 6.86876 3.36876 7.14413 3.19619 7.48282C3 7.86786 3 8.37191 3 9.38Z" stroke="black" stroke-width="2" stroke-linecap="round" stroke-linejoin="round"/>
</svg>
