<svg viewBox="0 0 24 24" fill="none" xmlns="http://www.w3.org/2000/svg">
<path d="M12 5.6V20M12 5.6H8.81786C8.34899 5.6 7.89933 5.41036 7.56779 5.07279C7.23626 4.73523 7.05 4.27739 7.05 3.8C7.05 3.32261 7.23626 2.86477 7.56779 2.52721C7.89933 2.18964 8.34899 2 8.81786 2C11.2929 2 12 5.6 12 5.6ZM12 5.6H15.1821C15.651 5.6 16.1007 5.41036 16.4322 5.07279C16.7637 4.73523 16.95 4.27739 16.95 3.8C16.95 3.32261 16.7637 2.86477 16.4322 2.52721C16.1007 2.18964 15.651 2 15.1821 2C12.7071 2 12 5.6 12 5.6ZM19.2 10.1V17.12C19.2 18.1281 19.2 18.6321 19.0038 19.0172C18.8312 19.3559 18.5559 19.6312 18.2172 19.8038C17.8321 20 17.3281 20 16.32 20L7.68 20C6.67191 20 6.16786 20 5.78282 19.8038C5.44413 19.6312 5.16876 19.3559 4.99619 19.0172C4.8 18.6321 4.8 18.1281 4.8 17.12V10.1M3 7.04L3 8.66C3 9.16405 3 9.41607 3.09809 9.60859C3.18438 9.77794 3.32206 9.91562 3.49141 10.0019C3.68393 10.1 3.93595 10.1 4.44 10.1L19.56 10.1C20.064 10.1 20.3161 10.1 20.5086 10.0019C20.6779 9.91562 20.8156 9.77794 20.9019 9.60859C21 9.41607 21 9.16405 21 8.66V7.04C21 6.53595 21 6.28393 20.9019 6.09141C20.8156 5.92206 20.6779 5.78438 20.5086 5.69809C20.3161 5.6 20.064 5.6 19.56 5.6L4.44 5.6C3.93595 5.6 3.68393 5.6 3.49141 5.69809C3.32206 5.78438 3.18438 5.92206 3.09809 6.09141C3 6.28393 3 6.53595 3 7.04Z" stroke="black" stroke-width="2" stroke-linecap="round" stroke-linejoin="round"/>
</svg>