<svg width="24" height="24" viewBox="0 0 24 24" fill="none" xmlns="http://www.w3.org/2000/svg">
<path d="M10.2 13.5812C11.3102 12.9396 12.6897 12.9396 13.7999 13.5812M3 14L3.63134 7.6866C3.65528 7.44724 3.66724 7.32755 3.6856 7.22487C3.902 6.01431 4.90908 5.10292 6.13517 5.00805C6.23916 5 6.35944 5 6.6 5M21 14L20.3687 7.6866C20.3447 7.44724 20.3328 7.32755 20.3144 7.22487C20.098 6.01431 19.0909 5.10292 17.8648 5.00805C17.7608 5 17.6406 5 17.4 5M9.14559 11.4544C10.5515 12.8603 10.5515 15.1397 9.14559 16.5456C7.7397 17.9515 5.46031 17.9515 4.05441 16.5456C2.64853 15.1397 2.64853 12.8603 4.05441 11.4544C5.4603 10.0485 7.73969 10.0485 9.14559 11.4544ZM19.9456 11.4544C21.3515 12.8603 21.3515 15.1397 19.9456 16.5456C18.5397 17.9515 16.2603 17.9515 14.8544 16.5456C13.4485 15.1397 13.4485 12.8603 14.8544 11.4544C16.2603 10.0485 18.5397 10.0485 19.9456 11.4544Z" stroke="black" stroke-width="2" stroke-linecap="round" stroke-linejoin="round"/>
</svg>
