<svg viewBox="0 0 24 24" fill="none" xmlns="http://www.w3.org/2000/svg">
<path d="M14.7 2.41202C13.8477 2.14432 12.9407 2 12 2C7.02944 2 3 6.02944 3 11C3 15.9706 7.02944 20 12 20C16.9706 20 21 15.9706 21 11C21 9.45621 20.6113 8.0032 19.9264 6.7335M16.5 5.375H16.5045M10.65 19.8994L10.6501 17.9164C10.6502 17.809 10.6886 17.7052 10.7585 17.6236L12.9957 15.0135C13.1795 14.799 13.1226 14.4701 12.8773 14.3299L10.3067 12.861C10.2368 12.8211 10.179 12.7631 10.1391 12.6933L8.46341 9.75677C8.3762 9.60394 8.20792 9.51596 8.03265 9.53157L3.05777 9.97467M20.1 5.6C20.1 7.58822 18.3 9.2 16.5 11C14.7 9.2 12.9 7.58822 12.9 5.6C12.9 3.61177 14.5118 2 16.5 2C18.4882 2 20.1 3.61177 20.1 5.6ZM16.725 5.375C16.725 5.49926 16.6243 5.6 16.5 5.6C16.3757 5.6 16.275 5.49926 16.275 5.375C16.275 5.25074 16.3757 5.15 16.5 5.15C16.6243 5.15 16.725 5.25074 16.725 5.375Z" stroke="black" stroke-width="2" stroke-linecap="round" stroke-linejoin="round"/>
</svg>