<svg viewBox="0 0 24 24" fill="none" xmlns="http://www.w3.org/2000/svg">
<path d="M3.61807 14.2806L5.33545 13.2892C5.42847 13.2355 5.53764 13.2168 5.64321 13.2366L9.02226 13.869C9.29996 13.921 9.5563 13.7072 9.55504 13.4247L9.54188 10.464C9.54153 10.3836 9.56274 10.3045 9.60331 10.235L11.3086 7.31559C11.3973 7.16365 11.3894 6.97392 11.2882 6.82994L8.41703 2.74312M18.3002 4.57315C13.3502 6.95004 16.05 10.1 16.9502 10.55C18.6396 11.3946 20.9889 11.45 20.9889 11.45C20.9962 11.3009 21 11.1509 21 11C21 6.02944 16.9706 2 12 2C7.02944 2 3 6.02944 3 11C3 15.9706 7.02944 20 12 20C12.1509 20 12.3009 19.9963 12.45 19.9889M16.282 19.9458L13.4319 12.4319L20.9458 15.282L17.6139 16.6139L16.282 19.9458Z" stroke="black" stroke-width="2" stroke-linecap="round" stroke-linejoin="round"/>
</svg>