<svg width="24" height="24" viewBox="0 0 24 24" fill="none" xmlns="http://www.w3.org/2000/svg">
<path d="M14.3147 16.4C14.4555 16.4 14.526 16.4 14.5899 16.3806C14.6465 16.3634 14.6992 16.3352 14.7449 16.2977C14.7965 16.2552 14.8356 16.1966 14.9137 16.0794L16.0199 14.4202C16.1847 14.1729 16.2671 14.0493 16.2746 13.9283C16.2812 13.8222 16.25 13.7172 16.1865 13.6319C16.1142 13.5346 15.9776 13.4761 15.7044 13.359L13.35 12.35L12.5924 12.0975C12.3824 12.0275 12.2773 11.9924 12.1799 12.0029C12.0941 12.0121 12.0127 12.0458 11.9455 12.1C11.8693 12.1615 11.8198 12.2605 11.7207 12.4585L11.2334 13.4333C11.1842 13.5317 11.1595 13.5809 11.1475 13.6328C11.1368 13.6788 11.1335 13.7262 11.1375 13.7732C11.1421 13.8263 11.1595 13.8785 11.1943 13.9829L11.8359 15.9077C11.8949 16.0847 11.9244 16.1733 11.9791 16.2387C12.0275 16.2965 12.0895 16.3412 12.1596 16.3688C12.239 16.4 12.3323 16.4 12.5189 16.4H14.3147Z" fill="white" fill-opacity="0.01"/>
<path d="M12 20C16.9706 20 21 15.9706 21 11C21 6.02944 16.9706 2 12 2C7.02944 2 3 6.02944 3 11C3 15.9706 7.02944 20 12 20Z" fill="white" fill-opacity="0.01"/>
<path d="M3.96839 6.93454L7.82762 9.69109C8.02844 9.83452 8.12884 9.90624 8.23393 9.92277C8.32639 9.93731 8.42109 9.92265 8.50484 9.88084C8.60001 9.83333 8.67404 9.73462 8.82211 9.53719L9.6376 8.44986C9.67947 8.39404 9.70041 8.36612 9.72502 8.34204C9.74687 8.32066 9.77084 8.30156 9.79656 8.28504C9.82553 8.26643 9.85741 8.25226 9.92118 8.22392L13.4029 6.67648C13.5472 6.61233 13.6194 6.58026 13.6738 6.53017C13.722 6.48587 13.7598 6.4316 13.7849 6.37116C13.8131 6.30282 13.8184 6.22402 13.8289 6.06643L14.0838 2.24246M13.35 12.35L15.7044 13.359C15.9776 13.4761 16.1142 13.5346 16.1865 13.6319C16.25 13.7172 16.2812 13.8222 16.2746 13.9283C16.2671 14.0493 16.1847 14.1729 16.0199 14.4202L14.9137 16.0794C14.8356 16.1966 14.7965 16.2552 14.7449 16.2977C14.6992 16.3352 14.6465 16.3634 14.5899 16.3806C14.526 16.4 14.4555 16.4 14.3147 16.4H12.5189C12.3323 16.4 12.239 16.4 12.1596 16.3688C12.0895 16.3412 12.0275 16.2965 11.9791 16.2387C11.9244 16.1733 11.8949 16.0847 11.8359 15.9077L11.1943 13.9829C11.1595 13.8785 11.1421 13.8263 11.1375 13.7732C11.1335 13.7262 11.1368 13.6788 11.1475 13.6328C11.1595 13.5809 11.1842 13.5317 11.2334 13.4333L11.7207 12.4585C11.8198 12.2605 11.8693 12.1615 11.9455 12.1C12.0127 12.0458 12.0941 12.0121 12.1799 12.0029C12.2773 11.9924 12.3824 12.0275 12.5924 12.0975L13.35 12.35ZM21 11C21 15.9706 16.9706 20 12 20C7.02944 20 3 15.9706 3 11C3 6.02944 7.02944 2 12 2C16.9706 2 21 6.02944 21 11Z" stroke="black" stroke-width="2" stroke-linecap="round" stroke-linejoin="round"/>
</svg>
