<svg width="24" height="24" viewBox="0 0 24 24" fill="none" xmlns="http://www.w3.org/2000/svg">
<path d="M12.322 3.66696C12.2039 3.60793 12.1449 3.57842 12.083 3.5668C12.0281 3.55651 11.9719 3.55651 11.917 3.5668C11.8551 3.57842 11.7961 3.60793 11.678 3.66696L3 8.00597L11.678 12.345C11.7961 12.404 11.8551 12.4335 11.917 12.4451C11.9719 12.4554 12.0281 12.4554 12.083 12.4451C12.1449 12.4335 12.2039 12.404 12.322 12.345L21 8.00597L12.322 3.66696Z" fill="white" fill-opacity="0.01"/>
<path d="M16.5 13.406V10.701C16.5 10.5394 16.5 10.4587 16.4754 10.3873C16.4537 10.3243 16.4182 10.2669 16.3715 10.2192C16.3187 10.1653 16.2465 10.1292 16.102 10.057L12 8.00597M4.8 8.90597V15.0319C4.8 15.3666 4.8 15.534 4.85222 15.6805C4.89838 15.8101 4.97361 15.9273 5.07214 16.0233C5.18359 16.1318 5.33575 16.2015 5.64002 16.341L11.4 18.981C11.6207 19.0821 11.7311 19.1327 11.846 19.1527C11.9479 19.1704 12.0521 19.1704 12.154 19.1527C12.2689 19.1327 12.3793 19.0821 12.6 18.981L18.36 16.341C18.6643 16.2015 18.8164 16.1318 18.9279 16.0233C19.0264 15.9273 19.1016 15.8101 19.1478 15.6805C19.2 15.534 19.2 15.3666 19.2 15.0319V8.90597M3 8.00597L11.678 3.66696C11.7961 3.60793 11.8551 3.57842 11.917 3.5668C11.9719 3.55651 12.0281 3.55651 12.083 3.5668C12.1449 3.57842 12.2039 3.60793 12.322 3.66696L21 8.00597L12.322 12.345C12.2039 12.404 12.1449 12.4335 12.083 12.4451C12.0281 12.4554 11.9719 12.4554 11.917 12.4451C11.8551 12.4335 11.7961 12.404 11.678 12.345L3 8.00597Z" stroke="black" stroke-width="2" stroke-linecap="round" stroke-linejoin="round"/>
</svg>
