<svg width="24" height="24" viewBox="0 0 24 24" fill="none" xmlns="http://www.w3.org/2000/svg">
<path d="M6.56 11.5V14M6.56 11.5V5.5C6.56 4.67157 7.245 4 8.09 4C8.935 4 9.62 4.67157 9.62 5.5M6.56 11.5C6.56 10.6716 5.875 10 5.03 10C4.185 10 3.5 10.6716 3.5 11.5V13.5C3.5 17.6421 6.92502 21 11.15 21C15.375 21 18.8 17.6421 18.8 13.5V8.5C18.8 7.67157 18.115 7 17.27 7C16.425 7 15.74 7.67157 15.74 8.5M9.62 5.5V11M9.62 5.5V4.5C9.62 3.67157 10.305 3 11.15 3C11.995 3 12.68 3.67157 12.68 4.5V5.5M12.68 5.5V11M12.68 5.5C12.68 4.67157 13.365 4 14.21 4C15.055 4 15.74 4.67157 15.74 5.5V8.5M15.74 8.5V11" stroke="black" stroke-width="2" stroke-linecap="round" stroke-linejoin="round"/>
</svg>
