<svg width="24" height="24" viewBox="0 0 24 24" fill="none" xmlns="http://www.w3.org/2000/svg">
<path d="M7.85223 3.42177C8.00789 3.26611 8.08572 3.18828 8.17654 3.13262C8.25707 3.08328 8.34486 3.04691 8.43669 3.02487C8.54027 3 8.65034 3 8.87047 3H15.1295C15.3497 3 15.4597 3 15.5633 3.02487C15.6551 3.04691 15.7429 3.08328 15.8235 3.13262C15.9143 3.18828 15.9921 3.26611 16.1478 3.42177L20.5782 7.85223C20.7339 8.00789 20.8117 8.08572 20.8674 8.17654C20.9167 8.25707 20.9531 8.34486 20.9751 8.43669C21 8.54027 21 8.65034 21 8.87047V15.1295C21 15.3497 21 15.4597 20.9751 15.5633C20.9531 15.6551 20.9167 15.7429 20.8674 15.8235C20.8117 15.9143 20.7339 15.9921 20.5782 16.1478L16.1478 20.5782C15.9921 20.7339 15.9143 20.8117 15.8235 20.8674C15.7429 20.9167 15.6551 20.9531 15.5633 20.9751C15.4597 21 15.3497 21 15.1295 21H8.87047C8.65034 21 8.54027 21 8.43669 20.9751C8.34486 20.9531 8.25707 20.9167 8.17654 20.8674C8.08572 20.8117 8.00789 20.7339 7.85223 20.5782L3.42177 16.1478C3.26611 15.9921 3.18828 15.9143 3.13262 15.8235C3.08328 15.7429 3.04691 15.6551 3.02487 15.5633C3 15.4597 3 15.3497 3 15.1295V8.87047C3 8.65034 3 8.54027 3.02487 8.43669C3.04691 8.34486 3.08328 8.25707 3.13262 8.17654C3.18828 8.08572 3.26611 8.00789 3.42177 7.85223L7.85223 3.42177Z" stroke="black" stroke-width="2" stroke-linecap="round" stroke-linejoin="round"/>
<path fill-rule="evenodd" clip-rule="evenodd" d="M11.9969 9.36112C11.0972 8.30928 9.59689 8.02634 8.46961 8.98951C7.34234 9.95267 7.18364 11.563 8.06889 12.7022C8.6359 13.4318 10.088 14.7848 11.0588 15.6633C11.3814 15.9553 11.5427 16.1012 11.7359 16.1598C11.902 16.2101 12.0918 16.2101 12.2579 16.1598C12.4511 16.1012 12.6124 15.9553 12.935 15.6633C13.9058 14.7848 15.3579 13.4318 15.9249 12.7022C16.8102 11.563 16.6709 9.94254 15.5242 8.98951C14.3776 8.03647 12.8966 8.30928 11.9969 9.36112Z" stroke="black" stroke-width="2" stroke-linecap="round" stroke-linejoin="round"/>
</svg>
