<svg width="24" height="24" viewBox="0 0 24 24" fill="none" xmlns="http://www.w3.org/2000/svg">
<path d="M6.6 18.2858H8.94926C9.25556 18.2858 9.55999 18.3222 9.85693 18.3951L12.3392 18.9983C12.8778 19.1296 13.4389 19.1423 13.9831 19.0366L16.7277 18.5027C17.4527 18.3614 18.1196 18.0143 18.6423 17.5058L20.5841 15.6169C21.1386 15.0784 21.1386 14.2045 20.5841 13.6651C20.0848 13.1794 19.2943 13.1248 18.7294 13.5366L16.4663 15.1877C16.1422 15.4246 15.7479 15.5522 15.3423 15.5522H13.1569L14.548 15.5521C15.332 15.5521 15.9671 14.9343 15.9671 14.1717V13.8956C15.9671 13.2623 15.524 12.7101 14.8927 12.557L12.7457 12.0349C12.3963 11.9502 12.0385 11.9074 11.6788 11.9074C10.8105 11.9074 9.2387 12.6263 9.2387 12.6263L6.6 13.7297M3 13.3474L3 18.5674C3 19.0714 3 19.3234 3.09809 19.5159C3.18438 19.6853 3.32206 19.823 3.49141 19.9093C3.68393 20.0074 3.93595 20.0074 4.44 20.0074H5.16C5.66405 20.0074 5.91607 20.0074 6.10859 19.9093C6.27794 19.823 6.41562 19.6853 6.50191 19.5159C6.6 19.3234 6.6 19.0714 6.6 18.5674V13.3474C6.6 12.8433 6.6 12.5913 6.50191 12.3988C6.41562 12.2294 6.27794 12.0917 6.10859 12.0054C5.91607 11.9074 5.66405 11.9074 5.16 11.9074H4.44C3.93595 11.9074 3.68393 11.9074 3.49141 12.0054C3.32206 12.0917 3.18438 12.2294 3.09809 12.3988C3 12.5913 3 12.8433 3 13.3474ZM16.6722 3.44038C16.1351 2.31641 14.8967 1.72096 13.6924 2.29569C12.4881 2.87042 11.975 4.23339 12.4792 5.4299C12.7908 6.16937 13.6837 7.60535 14.3203 8.59448C14.5555 8.95995 14.6731 9.14269 14.8449 9.24959C14.9922 9.34128 15.1767 9.39071 15.3501 9.38497C15.5524 9.37828 15.7456 9.27884 16.132 9.07994C17.1779 8.54163 18.6691 7.74445 19.3087 7.25986C20.3437 6.47578 20.6 5.03457 19.8252 3.93897C19.0504 2.84337 17.6994 2.73556 16.6722 3.44038Z" stroke="black" stroke-width="2" stroke-linecap="round" stroke-linejoin="round"/>
</svg>
