<svg width="24" height="24" viewBox="0 0 24 24" fill="none" xmlns="http://www.w3.org/2000/svg">
<path d="M12 21C16.9706 21 21 16.9706 21 12C21 7.02944 16.9706 3 12 3C7.02944 3 3 7.02944 3 12C3 16.9706 7.02944 21 12 21Z" fill="white" fill-opacity="0.01"/>
<path fill-rule="evenodd" clip-rule="evenodd" d="M11.9969 9.36112C11.0972 8.30928 9.59689 8.02634 8.46961 8.98951C7.34234 9.95267 7.18364 11.563 8.06889 12.7022C8.6359 13.4318 10.088 14.7848 11.0588 15.6633C11.3814 15.9553 11.5427 16.1012 11.7359 16.1598C11.902 16.2101 12.0918 16.2101 12.2579 16.1598C12.4511 16.1012 12.6124 15.9553 12.935 15.6633C13.9058 14.7848 15.3579 13.4318 15.9249 12.7022C16.8102 11.563 16.6709 9.94254 15.5242 8.98951C14.3776 8.03647 12.8966 8.30928 11.9969 9.36112Z" fill="white" fill-opacity="0.01"/>
<path d="M12 21C16.9706 21 21 16.9706 21 12C21 7.02944 16.9706 3 12 3C7.02944 3 3 7.02944 3 12C3 16.9706 7.02944 21 12 21Z" stroke="black" stroke-width="2" stroke-linecap="round" stroke-linejoin="round"/>
<path fill-rule="evenodd" clip-rule="evenodd" d="M11.9969 9.36112C11.0972 8.30928 9.59689 8.02634 8.46961 8.98951C7.34234 9.95267 7.18364 11.563 8.06889 12.7022C8.6359 13.4318 10.088 14.7848 11.0588 15.6633C11.3814 15.9553 11.5427 16.1012 11.7359 16.1598C11.902 16.2101 12.0918 16.2101 12.2579 16.1598C12.4511 16.1012 12.6124 15.9553 12.935 15.6633C13.9058 14.7848 15.3579 13.4318 15.9249 12.7022C16.8102 11.563 16.6709 9.94254 15.5242 8.98951C14.3776 8.03647 12.8966 8.30928 11.9969 9.36112Z" stroke="black" stroke-width="2" stroke-linecap="round" stroke-linejoin="round"/>
</svg>
