<svg viewBox="0 0 24 24" fill="none" xmlns="http://www.w3.org/2000/svg">
<path d="M9.38097 9.29999C9.59256 8.69849 10.0102 8.19129 10.5599 7.86821C11.1097 7.54513 11.756 7.42703 12.3844 7.53483C13.0129 7.64263 13.5829 7.96936 13.9935 8.45717C14.4042 8.94497 14.6289 9.56236 14.628 10.2C14.628 12 11.928 12.9 11.928 12.9M12 16.5H12.009M3 8.87047V15.1295C3 15.3497 3 15.4597 3.02487 15.5633C3.04691 15.6551 3.08328 15.7429 3.13262 15.8235C3.18828 15.9143 3.26611 15.9921 3.42177 16.1478L7.85223 20.5782C8.00789 20.7339 8.08572 20.8117 8.17654 20.8674C8.25707 20.9167 8.34486 20.9531 8.43669 20.9751C8.54027 21 8.65034 21 8.87047 21H15.1295C15.3497 21 15.4597 21 15.5633 20.9751C15.6551 20.9531 15.7429 20.9167 15.8235 20.8674C15.9143 20.8117 15.9921 20.7339 16.1478 20.5782L20.5782 16.1478C20.7339 15.9921 20.8117 15.9143 20.8674 15.8235C20.9167 15.7429 20.9531 15.6551 20.9751 15.5633C21 15.4597 21 15.3497 21 15.1295V8.87047C21 8.65034 21 8.54027 20.9751 8.43669C20.9531 8.34486 20.9167 8.25707 20.8674 8.17654C20.8117 8.08572 20.7339 8.00789 20.5782 7.85223L16.1478 3.42177C15.9921 3.26611 15.9143 3.18828 15.8235 3.13262C15.7429 3.08328 15.6551 3.04691 15.5633 3.02487C15.4597 3 15.3497 3 15.1295 3H8.87047C8.65034 3 8.54027 3 8.43669 3.02487C8.34486 3.04691 8.25707 3.08328 8.17654 3.13262C8.08572 3.18828 8.00789 3.26611 7.85223 3.42177L3.42177 7.85223C3.26611 8.00789 3.18828 8.08572 3.13262 8.17654C3.08328 8.25707 3.04691 8.34486 3.02487 8.43669C3 8.54027 3 8.65034 3 8.87047Z" stroke="black" stroke-width="2" stroke-linecap="round" stroke-linejoin="round"/>
</svg>