<svg width="24" height="24" viewBox="0 0 24 24" fill="none" xmlns="http://www.w3.org/2000/svg">
<path d="M15.6 9.75V12.81C15.6 13.314 15.6 13.5661 15.5019 13.7586C15.4156 13.9279 15.2779 14.0656 15.1086 14.1519C14.9161 14.25 14.664 14.25 14.16 14.25L3 14.25M12 14.25V17.31C12 17.814 12 18.0661 11.9019 18.2586C11.8156 18.4279 11.6779 18.5656 11.5086 18.6519C11.3161 18.75 11.064 18.75 10.56 18.75H3M3 3L3 21M3 9.75L17.76 9.75C18.264 9.75 18.5161 9.75 18.7086 9.65191C18.8779 9.56562 19.0156 9.42794 19.1019 9.25859C19.2 9.06607 19.2 8.81405 19.2 8.31V6.69C19.2 6.18595 19.2 5.93393 19.1019 5.74141C19.0156 5.57206 18.8779 5.43438 18.7086 5.34809C18.5161 5.25 18.264 5.25 17.76 5.25L3 5.25L3 9.75Z" stroke="black" stroke-width="2" stroke-linecap="round" stroke-linejoin="round"/>
</svg>
