<svg width="24" height="24" viewBox="0 0 24 24" fill="none" xmlns="http://www.w3.org/2000/svg">
<path d="M12 9.75V6.69C12 6.18595 12 5.93393 11.9019 5.74141C11.8156 5.57206 11.6779 5.43438 11.5086 5.34809C11.3161 5.25 11.064 5.25 10.56 5.25H3M15.6 14.25V11.19C15.6 10.686 15.6 10.4339 15.5019 10.2414C15.4156 10.0721 15.2779 9.93438 15.1086 9.84809C14.9161 9.75 14.664 9.75 14.16 9.75H3M3 3L3 21M3 18.75H17.76C18.264 18.75 18.5161 18.75 18.7086 18.6519C18.8779 18.5656 19.0156 18.4279 19.1019 18.2586C19.2 18.0661 19.2 17.814 19.2 17.31V15.69C19.2 15.186 19.2 14.9339 19.1019 14.7414C19.0156 14.5721 18.8779 14.4344 18.7086 14.3481C18.5161 14.25 18.264 14.25 17.76 14.25L3 14.25L3 18.75Z" stroke="black" stroke-width="2" stroke-linecap="round" stroke-linejoin="round"/>
</svg>
