<svg width="24" height="24" viewBox="0 0 24 24" fill="none" xmlns="http://www.w3.org/2000/svg">
<path d="M11.2 12L7.3544 8.79533C6.78304 8.3192 6.49735 8.08113 6.29197 7.78929C6.11 7.53072 5.97486 7.24219 5.89271 6.93685C5.8 6.59225 5.8 6.22037 5.8 5.47662V3M11.2 12L15.0456 8.79534C15.617 8.3192 15.9026 8.08113 16.108 7.78929C16.29 7.53072 16.4251 7.24219 16.5073 6.93685C16.6 6.59225 16.6 6.22037 16.6 5.47662V3M11.2 12L7.3544 15.2047C6.78304 15.6808 6.49735 15.9189 6.29197 16.2107C6.11 16.4693 5.97486 16.7578 5.89271 17.0631C5.8 17.4078 5.8 17.7796 5.8 18.5234V21M11.2 12L15.0456 15.2047C15.617 15.6808 15.9026 15.9189 16.108 16.2107C16.29 16.4693 16.4251 16.7578 16.5073 17.0631C16.6 17.4078 16.6 17.7796 16.6 18.5234V21M4 3H18.4M4 21H18.4" stroke="black" stroke-width="2" stroke-linecap="round" stroke-linejoin="round"/>
</svg>
