<svg width="24" height="24" viewBox="0 0 24 24" fill="none" xmlns="http://www.w3.org/2000/svg">
<path d="M8.6 17.85H14M6.44 3H16.16C16.664 3 16.9161 3 17.1086 3.09809C17.2779 3.18438 17.4156 3.32206 17.5019 3.49141C17.6 3.68393 17.6 3.93595 17.6 4.44V6.30706C17.6 6.74733 17.6 6.96746 17.5503 7.17462C17.5062 7.35828 17.4334 7.53386 17.3348 7.69491C17.2234 7.87656 17.0678 8.03222 16.7565 8.34353L14.1182 10.9818C13.7618 11.3382 13.5836 11.5164 13.5168 11.7219C13.4581 11.9026 13.4581 12.0974 13.5168 12.2781C13.5836 12.4836 13.7618 12.6618 14.1182 13.0182L16.7565 15.6565C17.0678 15.9678 17.2234 16.1234 17.3348 16.3051C17.4334 16.4661 17.5062 16.6417 17.5503 16.8254C17.6 17.0325 17.6 17.2527 17.6 17.6929V19.56C17.6 20.064 17.6 20.3161 17.5019 20.5086C17.4156 20.6779 17.2779 20.8156 17.1086 20.9019C16.9161 21 16.664 21 16.16 21H6.44C5.93595 21 5.68393 21 5.49141 20.9019C5.32206 20.8156 5.18438 20.6779 5.09809 20.5086C5 20.3161 5 20.064 5 19.56V17.6929C5 17.2527 5 17.0325 5.04973 16.8254C5.09383 16.6417 5.16656 16.4661 5.26525 16.3051C5.37656 16.1234 5.53222 15.9678 5.84353 15.6565L8.48177 13.0182C8.83818 12.6618 9.01639 12.4836 9.08316 12.2781C9.14189 12.0974 9.14189 11.9026 9.08316 11.7219C9.01639 11.5164 8.83818 11.3382 8.48177 10.9818L5.84353 8.34353C5.53222 8.03222 5.37656 7.87656 5.26525 7.69491C5.16656 7.53386 5.09383 7.35828 5.04973 7.17462C5 6.96746 5 6.74733 5 6.30706V4.44C5 3.93595 5 3.68393 5.09809 3.49141C5.18438 3.32206 5.32206 3.18438 5.49141 3.09809C5.68393 3 5.93595 3 6.44 3Z" stroke="black" stroke-width="2" stroke-linecap="round" stroke-linejoin="round"/>
</svg>
