<svg width="24" height="24" viewBox="0 0 24 24" fill="none" xmlns="http://www.w3.org/2000/svg">
<path d="M16.8463 3H5.7537C5.33744 3 5 3.33744 5 3.7537C5 6.15241 5.95288 8.45288 7.64903 10.149L8.7463 11.2463C8.85527 11.3553 8.90975 11.4097 8.94875 11.4621C9.18669 11.7812 9.18669 12.2188 8.94875 12.5379C8.90975 12.5903 8.85527 12.6447 8.7463 12.7537L7.64904 13.851C5.95289 15.5471 5 17.8476 5 20.2463C5 20.6626 5.33744 21 5.7537 21H16.8463C17.2626 21 17.6 20.6626 17.6 20.2463C17.6 17.8476 16.6471 15.5471 14.951 13.851L13.8537 12.7537C13.7447 12.6447 13.6903 12.5903 13.6512 12.5379C13.4133 12.2188 13.4133 11.7812 13.6512 11.4621C13.6903 11.4097 13.7447 11.3553 13.8537 11.2463L14.951 10.149C16.6471 8.45288 17.6 6.15241 17.6 3.7537C17.6 3.33744 17.2626 3 16.8463 3Z" fill="white" fill-opacity="0.01" stroke="black" stroke-width="2" stroke-linecap="round" stroke-linejoin="round"/>
</svg>
