<svg width="24" height="24" viewBox="0 0 24 24" fill="none" xmlns="http://www.w3.org/2000/svg">
<path d="M12 16.6C14.9823 16.6 17.4 14.1823 17.4 11.2C17.4 8.21766 14.9823 5.8 12 5.8C9.01766 5.8 6.6 8.21766 6.6 11.2C6.6 14.1823 9.01766 16.6 12 16.6Z" fill="white" fill-opacity="0.01"/>
<path d="M12 12.1C12.4971 12.1 12.9 11.6971 12.9 11.2C12.9 10.7029 12.4971 10.3 12 10.3C11.5029 10.3 11.1 10.7029 11.1 11.2C11.1 11.6971 11.5029 12.1 12 12.1Z" fill="white" fill-opacity="0.01"/>
<path d="M17.4 11.2C17.4 14.1823 14.9823 16.6 12 16.6C9.01766 16.6 6.6 14.1823 6.6 11.2M17.4 11.2C17.4 8.21766 14.9823 5.8 12 5.8C9.01766 5.8 6.6 8.21766 6.6 11.2M17.4 11.2C17.4 15.1765 14.1764 18.4 10.2 18.4C6.22355 18.4 3 15.1765 3 11.2M6.6 11.2C6.6 7.22355 9.82355 4 13.8 4C17.7764 4 21 7.22355 21 11.2M12.9 11.2C12.9 11.6971 12.4971 12.1 12 12.1C11.5029 12.1 11.1 11.6971 11.1 11.2C11.1 10.7029 11.5029 10.3 12 10.3C12.4971 10.3 12.9 10.7029 12.9 11.2Z" stroke="black" stroke-width="2" stroke-linecap="round" stroke-linejoin="round"/>
</svg>
