<svg width="24" height="24" viewBox="0 0 24 24" fill="none" xmlns="http://www.w3.org/2000/svg">
<path d="M8.4 10.2C9.39411 10.2 10.2 9.39411 10.2 8.4C10.2 7.40589 9.39411 6.6 8.4 6.6C7.40589 6.6 6.6 7.40589 6.6 8.4C6.6 9.39411 7.40589 10.2 8.4 10.2Z" fill="white" fill-opacity="0.01"/>
<path d="M3 7.32C3 5.80786 3 5.05179 3.29428 4.47423C3.55314 3.96619 3.96619 3.55314 4.47423 3.29428C5.05179 3 5.80786 3 7.32 3H16.68C18.1921 3 18.9482 3 19.5258 3.29428C20.0338 3.55314 20.4469 3.96619 20.7057 4.47423C21 5.05179 21 5.80786 21 7.32V14.88C21 16.3921 21 17.1482 20.7057 17.7258C20.4469 18.2338 20.0338 18.6469 19.5258 18.9057C18.9482 19.2 18.1921 19.2 16.68 19.2H7.32C5.80786 19.2 5.05179 19.2 4.47423 18.9057C3.96619 18.6469 3.55314 18.2338 3.29428 17.7258C3 17.1482 3 16.3921 3 14.88V7.32Z" fill="white" fill-opacity="0.01"/>
<path d="M5.04488 18.9551L10.9818 13.0182C11.3382 12.6618 11.5164 12.4836 11.7219 12.4168C11.9026 12.3581 12.0974 12.3581 12.2781 12.4168C12.4836 12.4836 12.6618 12.6618 13.0182 13.0182L18.9155 18.9155M13.8 13.8L16.3818 11.2182C16.7382 10.8618 16.9164 10.6836 17.1219 10.6168C17.3026 10.5581 17.4974 10.5581 17.6781 10.6168C17.8836 10.6836 18.0618 10.8618 18.4182 11.2182L21 13.8M10.2 8.4C10.2 9.39411 9.39411 10.2 8.4 10.2C7.40589 10.2 6.6 9.39411 6.6 8.4C6.6 7.40589 7.40589 6.6 8.4 6.6C9.39411 6.6 10.2 7.40589 10.2 8.4ZM7.32 19.2H16.68C18.1921 19.2 18.9482 19.2 19.5258 18.9057C20.0338 18.6469 20.4469 18.2338 20.7057 17.7258C21 17.1482 21 16.3921 21 14.88V7.32C21 5.80786 21 5.05179 20.7057 4.47423C20.4469 3.96619 20.0338 3.55314 19.5258 3.29428C18.9482 3 18.1921 3 16.68 3H7.32C5.80786 3 5.05179 3 4.47423 3.29428C3.96619 3.55314 3.55314 3.96619 3.29428 4.47423C3 5.05179 3 5.80786 3 7.32V14.88C3 16.3921 3 17.1482 3.29428 17.7258C3.55314 18.2338 3.96619 18.6469 4.47423 18.9057C5.05179 19.2 5.80786 19.2 7.32 19.2Z" stroke="black" stroke-width="2" stroke-linecap="round" stroke-linejoin="round"/>
</svg>
