<svg width="24" height="24" viewBox="0 0 24 24" fill="none" xmlns="http://www.w3.org/2000/svg">
<path d="M12 12.35C13.9882 12.35 15.6 10.7382 15.6 8.75C15.6 6.76177 13.9882 5.15 12 5.15C10.0118 5.15 8.4 6.76177 8.4 8.75C8.4 10.7382 10.0118 12.35 12 12.35Z" fill="white" fill-opacity="0.01"/>
<path d="M3 6.32C3 4.80786 3 4.05179 3.29428 3.47423C3.55314 2.96619 3.96619 2.55314 4.47423 2.29428C5.05179 2 5.80786 2 7.32 2H16.68C18.1921 2 18.9482 2 19.5258 2.29428C20.0338 2.55314 20.4469 2.96619 20.7057 3.47423C21 4.05179 21 4.80786 21 6.32V15.68C21 17.1921 21 17.9482 20.7057 18.5258C20.4469 19.0338 20.0338 19.4469 19.5258 19.7057C19.4238 19.7577 19.3163 19.8005 19.2 19.8357C18.6577 20 17.9252 20 16.68 20H7.32C6.07484 20 5.34234 20 4.80002 19.8357C4.68374 19.8005 4.5762 19.7577 4.47423 19.7057C3.96619 19.4469 3.55314 19.0338 3.29428 18.5258C3 17.9482 3 17.1921 3 15.68V6.32Z" fill="white" fill-opacity="0.01"/>
<path d="M4.80002 19.8357C5.34234 20 6.07484 20 7.32 20H16.68C17.9252 20 18.6577 20 19.2 19.8357M4.80002 19.8357C4.68374 19.8005 4.5762 19.7577 4.47423 19.7057C3.96619 19.4469 3.55314 19.0338 3.29428 18.5258C3 17.9482 3 17.1921 3 15.68V6.32C3 4.80786 3 4.05179 3.29428 3.47423C3.55314 2.96619 3.96619 2.55314 4.47423 2.29428C5.05179 2 5.80786 2 7.32 2H16.68C18.1921 2 18.9482 2 19.5258 2.29428C20.0338 2.55314 20.4469 2.96619 20.7057 3.47423C21 4.05179 21 4.80786 21 6.32V15.68C21 17.1921 21 17.9482 20.7057 18.5258C20.4469 19.0338 20.0338 19.4469 19.5258 19.7057C19.4238 19.7577 19.3163 19.8005 19.2 19.8357M4.80002 19.8357C4.80032 19.1073 4.80469 18.7219 4.86917 18.3977C5.15324 16.9696 6.26959 15.8532 7.69767 15.5692C8.04543 15.5 8.46362 15.5 9.3 15.5H14.7C15.5364 15.5 15.9546 15.5 16.3023 15.5692C17.7304 15.8532 18.8468 16.9696 19.1308 18.3977C19.1953 18.7219 19.1997 19.1073 19.2 19.8357M15.6 8.75C15.6 10.7382 13.9882 12.35 12 12.35C10.0118 12.35 8.4 10.7382 8.4 8.75C8.4 6.76177 10.0118 5.15 12 5.15C13.9882 5.15 15.6 6.76177 15.6 8.75Z" stroke="black" stroke-width="2" stroke-linecap="round" stroke-linejoin="round"/>
</svg>
