<svg width="24" height="24" viewBox="0 0 24 24" fill="none" xmlns="http://www.w3.org/2000/svg">
<path d="M18.3 7.4L15.6 4.7M15.6 4.7L18.3 2M15.6 4.7L21 4.7M21 11V15.68C21 17.1921 21 17.9482 20.7057 18.5258C20.4469 19.0338 20.0338 19.4469 19.5258 19.7057C18.9482 20 18.1921 20 16.68 20H7.32C5.80786 20 5.05179 20 4.47423 19.7057C3.96619 19.4469 3.55314 19.0338 3.29428 18.5258C3 17.9482 3 17.1921 3 15.68V6.32C3 4.80786 3 4.05179 3.29428 3.47423C3.55314 2.96619 3.96619 2.55314 4.47423 2.29428C5.05179 2 5.80786 2 7.32 2H12M3.13096 18.1337C3.55319 16.6147 4.94631 15.5 6.59979 15.5H12.8998C13.7362 15.5 14.1544 15.5 14.5021 15.5692C15.9302 15.8532 17.0466 16.9696 17.3306 18.3977C17.3998 18.7454 17.3998 19.1636 17.3998 20M13.8 8.75C13.8 10.7382 12.1882 12.35 10.2 12.35C8.21177 12.35 6.6 10.7382 6.6 8.75C6.6 6.76177 8.21177 5.15 10.2 5.15C12.1882 5.15 13.8 6.76177 13.8 8.75Z" stroke="black" stroke-width="2" stroke-linecap="round" stroke-linejoin="round"/>
</svg>
