<svg width="24" height="24" viewBox="0 0 24 24" fill="none" xmlns="http://www.w3.org/2000/svg">
<path d="M3.45 11.2H6.49377C7.11045 11.2 7.67421 11.5484 7.95 12.1C8.22579 12.6516 8.78955 13 9.40623 13H14.5938C15.2105 13 15.7742 12.6516 16.05 12.1C16.3258 11.5484 16.8895 11.2 17.5062 11.2H20.55M9.26991 4H14.7301C15.6993 4 16.1839 4 16.6117 4.14757C16.99 4.27806 17.3346 4.49104 17.6205 4.77107C17.9439 5.08774 18.1606 5.52118 18.594 6.38804L20.5439 10.2879C20.714 10.628 20.7991 10.7981 20.859 10.9764C20.9123 11.1347 20.9508 11.2976 20.9739 11.463C21 11.6493 21 11.8395 21 12.2198V14.08C21 15.5921 21 16.3482 20.7057 16.9258C20.4469 17.4338 20.0338 17.8469 19.5258 18.1057C18.9482 18.4 18.1921 18.4 16.68 18.4H7.32C5.80786 18.4 5.05179 18.4 4.47423 18.1057C3.96619 17.8469 3.55314 17.4338 3.29428 16.9258C3 16.3482 3 15.5921 3 14.08V12.2198C3 11.8395 3 11.6493 3.02608 11.463C3.04924 11.2976 3.08769 11.1347 3.14096 10.9764C3.20093 10.7981 3.28598 10.628 3.45607 10.2879L5.40598 6.38804C5.83941 5.52117 6.05613 5.08774 6.37945 4.77107C6.66537 4.49104 7.00996 4.27806 7.3883 4.14757C7.81613 4 8.30072 4 9.26991 4Z" stroke="black" stroke-width="2" stroke-linecap="round" stroke-linejoin="round"/>
</svg>
