<svg width="24" height="24" viewBox="0 0 24 24" fill="none" xmlns="http://www.w3.org/2000/svg">
<path d="M9.3 14.6C12.7794 14.6 15.6 11.7794 15.6 8.3C15.6 4.82061 12.7794 2 9.3 2C5.82061 2 3 4.82061 3 8.3C3 11.7794 5.82061 14.6 9.3 14.6Z" fill="white" fill-opacity="0.01"/>
<path d="M14.7 20C18.1794 20 21 17.1794 21 13.7C21 10.2206 18.1794 7.4 14.7 7.4C11.2206 7.4 8.4 10.2206 8.4 13.7C8.4 17.1794 11.2206 20 14.7 20Z" fill="white" fill-opacity="0.01"/>
<path d="M9.3 14.6C12.7794 14.6 15.6 11.7794 15.6 8.3C15.6 4.82061 12.7794 2 9.3 2C5.82061 2 3 4.82061 3 8.3C3 11.7794 5.82061 14.6 9.3 14.6Z" stroke="black" stroke-width="2" stroke-linecap="round" stroke-linejoin="round"/>
<path d="M14.7 20C18.1794 20 21 17.1794 21 13.7C21 10.2206 18.1794 7.4 14.7 7.4C11.2206 7.4 8.4 10.2206 8.4 13.7C8.4 17.1794 11.2206 20 14.7 20Z" stroke="black" stroke-width="2" stroke-linecap="round" stroke-linejoin="round"/>
</svg>
