<svg viewBox="0 0 24 24" fill="none" xmlns="http://www.w3.org/2000/svg">
<path d="M3 4.88C3 3.87191 3 3.36786 3.19619 2.98282C3.36876 2.64413 3.64413 2.36876 3.98282 2.19619C4.36786 2 4.87191 2 5.88 2H12.72C13.7281 2 14.2321 2 14.6172 2.19619C14.9559 2.36876 15.2312 2.64413 15.4038 2.98282C15.6 3.36786 15.6 3.87191 15.6 4.88V11.72C15.6 12.7281 15.6 13.2321 15.4038 13.6172C15.2312 13.9559 14.9559 14.2312 14.6172 14.4038C14.2321 14.6 13.7281 14.6 12.72 14.6H5.88C4.87191 14.6 4.36786 14.6 3.98282 14.4038C3.64413 14.2312 3.36876 13.9559 3.19619 13.6172C3 13.2321 3 12.7281 3 11.72V4.88Z" stroke="black" stroke-width="2" stroke-linecap="round" stroke-linejoin="round"/>
<path d="M8.4 10.28C8.4 9.27191 8.4 8.76786 8.59619 8.38282C8.76876 8.04413 9.04413 7.76876 9.38282 7.59619C9.76786 7.4 10.2719 7.4 11.28 7.4H18.12C19.1281 7.4 19.6321 7.4 20.0172 7.59619C20.3559 7.76876 20.6312 8.04413 20.8038 8.38282C21 8.76786 21 9.2719 21 10.28V17.12C21 18.1281 21 18.6321 20.8038 19.0172C20.6312 19.3559 20.3559 19.6312 20.0172 19.8038C19.6321 20 19.1281 20 18.12 20H11.28C10.2719 20 9.76786 20 9.38282 19.8038C9.04413 19.6312 8.76876 19.3559 8.59619 19.0172C8.4 18.6321 8.4 18.1281 8.4 17.12V10.28Z" stroke="black" stroke-width="2" stroke-linecap="round" stroke-linejoin="round"/>
</svg>