<svg width="24" height="24" viewBox="0 0 24 24" fill="none" xmlns="http://www.w3.org/2000/svg">
<path d="M6.6 9.6H6.609M8.4 13.2H8.409M10.2 9.6H10.209M12 13.2H12.009M13.8 9.6H13.809M15.6 13.2H15.609M17.4 9.6H17.409M5.88 16.8H18.12C19.1281 16.8 19.6321 16.8 20.0172 16.6038C20.3559 16.4312 20.6312 16.1559 20.8038 15.8172C21 15.4321 21 14.9281 21 13.92V8.88C21 7.87191 21 7.36786 20.8038 6.98282C20.6312 6.64413 20.3559 6.36876 20.0172 6.19619C19.6321 6 19.1281 6 18.12 6H5.88C4.87191 6 4.36786 6 3.98282 6.19619C3.64413 6.36876 3.36876 6.64413 3.19619 6.98282C3 7.36786 3 7.87191 3 8.88V13.92C3 14.9281 3 15.4321 3.19619 15.8172C3.36876 16.1559 3.64413 16.4312 3.98282 16.6038C4.36786 16.8 4.87191 16.8 5.88 16.8Z" stroke="black" stroke-width="2" stroke-linecap="round" stroke-linejoin="round"/>
</svg>
