<svg viewBox="0 0 24 24" fill="none" xmlns="http://www.w3.org/2000/svg">
<path d="M20.1 14.8V6.88C20.1 5.87191 20.1 5.36786 19.9038 4.98282C19.7312 4.64413 19.4559 4.36876 19.1172 4.19619C18.7321 4 18.2281 4 17.22 4H6.78C5.77191 4 5.26786 4 4.88282 4.19619C4.54413 4.36876 4.26876 4.64413 4.09619 4.98282C3.9 5.36786 3.9 5.87191 3.9 6.88V14.8M5.4 18.4H18.6C19.158 18.4 19.437 18.4 19.6659 18.3387C20.287 18.1722 20.7722 17.687 20.9387 17.0659C21 16.837 21 16.558 21 16C21 15.721 21 15.5815 20.9693 15.4671C20.8861 15.1565 20.6435 14.9139 20.3329 14.8307C20.2185 14.8 20.079 14.8 19.8 14.8H4.2C3.92101 14.8 3.78151 14.8 3.66706 14.8307C3.35648 14.9139 3.11389 15.1565 3.03067 15.4671C3 15.5815 3 15.721 3 16C3 16.558 3 16.837 3.06133 17.0659C3.22777 17.687 3.71296 18.1722 4.33413 18.3387C4.56303 18.4 4.84202 18.4 5.4 18.4Z" stroke="black" stroke-width="2" stroke-linecap="round" stroke-linejoin="round"/>
</svg>