<svg width="24" height="24" viewBox="0 0 24 24" fill="none" xmlns="http://www.w3.org/2000/svg">
<path d="M3.9 6.88C3.9 5.87191 3.9 5.36786 4.09619 4.98282C4.26876 4.64413 4.54413 4.36876 4.88282 4.19619C5.26786 4 5.77191 4 6.78 4H17.22C18.2281 4 18.7321 4 19.1172 4.19619C19.4559 4.36876 19.7312 4.64413 19.9038 4.98282C20.1 5.36786 20.1 5.87191 20.1 6.88V14.8H15.2965C15.0763 14.8 14.9663 14.8 14.8627 14.8249C14.7709 14.8469 14.6831 14.8833 14.6025 14.9326C14.5117 14.9883 14.4339 15.0661 14.2782 15.2218L14.2218 15.2782C14.0661 15.4339 13.9883 15.5117 13.8975 15.5674C13.8169 15.6167 13.7291 15.6531 13.6373 15.6751C13.5337 15.7 13.4237 15.7 13.2035 15.7H10.7965C10.5763 15.7 10.4663 15.7 10.3627 15.6751C10.2709 15.6531 10.1831 15.6167 10.1025 15.5674C10.0117 15.5117 9.93389 15.4339 9.77823 15.2782L9.72177 15.2218C9.56611 15.0661 9.48828 14.9883 9.39746 14.9326C9.31693 14.8833 9.22914 14.8469 9.13731 14.8249C9.03373 14.8 8.92366 14.8 8.70353 14.8H3.9V6.88Z" fill="white" fill-opacity="0.01"/>
<path d="M3.9 14.8V6.88C3.9 5.87191 3.9 5.36786 4.09619 4.98282C4.26876 4.64413 4.54413 4.36876 4.88282 4.19619C5.26786 4 5.77191 4 6.78 4H17.22C18.2281 4 18.7321 4 19.1172 4.19619C19.4559 4.36876 19.7312 4.64413 19.9038 4.98282C20.1 5.36786 20.1 5.87191 20.1 6.88V14.8H15.2965C15.0763 14.8 14.9663 14.8 14.8627 14.8249C14.7709 14.8469 14.6831 14.8833 14.6025 14.9326C14.5117 14.9883 14.4339 15.0661 14.2782 15.2218L14.2218 15.2782C14.0661 15.4339 13.9883 15.5117 13.8975 15.5674C13.8169 15.6167 13.7291 15.6531 13.6373 15.6751C13.5337 15.7 13.4237 15.7 13.2035 15.7H10.7965C10.5763 15.7 10.4663 15.7 10.3627 15.6751C10.2709 15.6531 10.1831 15.6167 10.1025 15.5674C10.0117 15.5117 9.93389 15.4339 9.77823 15.2782L9.72177 15.2218C9.56611 15.0661 9.48828 14.9883 9.39746 14.9326C9.31693 14.8833 9.22914 14.8469 9.13731 14.8249C9.03373 14.8 8.92366 14.8 8.70353 14.8H3.9ZM3.9 14.8C3.40294 14.8 3 15.2029 3 15.7V16C3 16.558 3 16.837 3.06133 17.0659C3.22777 17.687 3.71296 18.1722 4.33413 18.3387C4.56303 18.4 4.84202 18.4 5.4 18.4H18.6C19.158 18.4 19.437 18.4 19.6659 18.3387C20.287 18.1722 20.7722 17.687 20.9387 17.0659C21 16.837 21 16.558 21 16C21 15.721 21 15.5815 20.9693 15.4671C20.8861 15.1565 20.6435 14.9139 20.3329 14.8307C20.2185 14.8 20.079 14.8 19.8 14.8H19.2" stroke="black" stroke-width="2" stroke-linecap="round" stroke-linejoin="round"/>
</svg>
