<svg width="24" height="24" viewBox="0 0 24 24" fill="none" xmlns="http://www.w3.org/2000/svg">
<path d="M7.5 8.75597L3 11.006L11.678 15.345C11.7961 15.404 11.8551 15.4335 11.917 15.4451C11.9719 15.4554 12.0281 15.4554 12.083 15.4451C12.1449 15.4335 12.2039 15.404 12.322 15.345L21 11.006L16.5 8.75597M7.5 13.256L3 15.506L11.678 19.845C11.7961 19.904 11.8551 19.9335 11.917 19.9451C11.9719 19.9554 12.0281 19.9554 12.083 19.9451C12.1449 19.9335 12.2039 19.904 12.322 19.845L21 15.506L16.5 13.256M3 6.50597L11.678 2.16696C11.7961 2.10793 11.8551 2.07842 11.917 2.0668C11.9719 2.05651 12.0281 2.05651 12.083 2.0668C12.1449 2.07842 12.2039 2.10793 12.322 2.16696L21 6.50597L12.322 10.845C12.2039 10.904 12.1449 10.9335 12.083 10.9451C12.0281 10.9554 11.9719 10.9554 11.917 10.9451C11.8551 10.9335 11.7961 10.904 11.678 10.845L3 6.50597Z" stroke="black" stroke-width="2" stroke-linecap="round" stroke-linejoin="round"/>
</svg>
