<svg viewBox="0 0 24 24" fill="none" xmlns="http://www.w3.org/2000/svg">
<path d="M3 13.506L11.678 17.845C11.7961 17.904 11.8551 17.9335 11.917 17.9451C11.9719 17.9554 12.0281 17.9554 12.083 17.9451C12.1449 17.9335 12.2039 17.904 12.322 17.845L21 13.506M3 9.00597L11.678 4.66696C11.7961 4.60793 11.8551 4.57842 11.917 4.5668C11.9719 4.55651 12.0281 4.55651 12.083 4.5668C12.1449 4.57842 12.2039 4.60793 12.322 4.66696L21 9.00597L12.322 13.345C12.2039 13.404 12.1449 13.4335 12.083 13.4451C12.0281 13.4554 11.9719 13.4554 11.917 13.4451C11.8551 13.4335 11.7961 13.404 11.678 13.345L3 9.00597Z" stroke="black" stroke-width="2" stroke-linecap="round" stroke-linejoin="round"/>
</svg>