<svg width="24" height="24" viewBox="0 0 24 24" fill="none" xmlns="http://www.w3.org/2000/svg">
<path d="M15.15 15.3866C16.5127 14.4063 17.4 12.8068 17.4 11C17.4 8.01766 14.9823 5.6 12 5.6C9.01766 5.6 6.6 8.01766 6.6 11C6.6 12.8068 7.48734 14.4063 8.85 15.3866V17.12C8.85 18.1281 8.85 18.6321 9.04619 19.0172C9.21876 19.3559 9.49413 19.6312 9.83282 19.8038C10.2179 20 10.7219 20 11.73 20H12.27C13.2781 20 13.7821 20 14.1672 19.8038C14.5059 19.6312 14.7812 19.3559 14.9538 19.0172C15.15 18.6321 15.15 18.1281 15.15 17.12V15.3866Z" fill="white" fill-opacity="0.01"/>
<path d="M12 2V2.9M3.9 11H3M6.15 5.15L5.60991 4.60991M17.85 5.15L18.3902 4.60991M21 11H20.1M10.2 12.35H13.8M12 12.35V16.85M15.15 15.3866C16.5127 14.4063 17.4 12.8068 17.4 11C17.4 8.01766 14.9823 5.6 12 5.6C9.01766 5.6 6.6 8.01766 6.6 11C6.6 12.8068 7.48734 14.4063 8.85 15.3866V17.12C8.85 18.1281 8.85 18.6321 9.04619 19.0172C9.21876 19.3559 9.49413 19.6312 9.83282 19.8038C10.2179 20 10.7219 20 11.73 20H12.27C13.2781 20 13.7821 20 14.1672 19.8038C14.5059 19.6312 14.7812 19.3559 14.9538 19.0172C15.15 18.6321 15.15 18.1281 15.15 17.12V15.3866Z" stroke="black" stroke-width="2" stroke-linecap="round" stroke-linejoin="round"/>
</svg>
