<svg viewBox="0 0 24 24" fill="none" xmlns="http://www.w3.org/2000/svg">
<path d="M13.1556 3H7.97561C7.81408 3 7.73332 3 7.66201 3.02459C7.59895 3.04634 7.54152 3.08184 7.49387 3.12851C7.43998 3.18129 7.40386 3.25353 7.33162 3.39801L3.55163 10.958C3.37911 11.303 3.29286 11.4755 3.31358 11.6158C3.33167 11.7382 3.3994 11.8478 3.50083 11.9188C3.61699 12 3.80986 12 4.19561 12H9.78063L7.08063 21L18.0544 9.61978C18.4246 9.23583 18.6098 9.04386 18.6206 8.87959C18.63 8.73701 18.5711 8.59844 18.4619 8.50623C18.3362 8.4 18.0695 8.4 17.5361 8.4H11.1306L13.1556 3Z" stroke="black" stroke-width="2" stroke-linecap="round" stroke-linejoin="round"/>
</svg>