<svg width="24" height="24" viewBox="0 0 24 24" fill="none" xmlns="http://www.w3.org/2000/svg">
<path d="M12 20C16.9706 20 21 15.9706 21 11C21 6.02944 16.9706 2 12 2C7.02944 2 3 6.02944 3 11C3 15.9706 7.02944 20 12 20Z" fill="white" fill-opacity="0.01"/>
<path d="M6.6 9.2L9.69088 12.2909C9.86909 12.4691 9.95819 12.5582 10.0609 12.5916C10.1513 12.6209 10.2487 12.6209 10.3391 12.5916C10.4418 12.5582 10.5309 12.4691 10.7091 12.2909L13.2909 9.70912C13.4691 9.53091 13.5582 9.44181 13.6609 9.40842C13.7513 9.37905 13.8487 9.37905 13.9391 9.40842C14.0418 9.44181 14.1309 9.53091 14.3091 9.70912L17.4 12.8" fill="white" fill-opacity="0.01"/>
<path d="M6.6 9.2L9.69088 12.2909C9.86909 12.4691 9.95819 12.5582 10.0609 12.5916C10.1513 12.6209 10.2487 12.6209 10.3391 12.5916C10.4418 12.5582 10.5309 12.4691 10.7091 12.2909L13.2909 9.70912C13.4691 9.53091 13.5582 9.44181 13.6609 9.40842C13.7513 9.37905 13.8487 9.37905 13.9391 9.40842C14.0418 9.44181 14.1309 9.53091 14.3091 9.70912L17.4 12.8M21 11C21 15.9706 16.9706 20 12 20C7.02944 20 3 15.9706 3 11C3 6.02944 7.02944 2 12 2C16.9706 2 21 6.02944 21 11Z" stroke="black" stroke-width="2" stroke-linecap="round" stroke-linejoin="round"/>
</svg>
