<svg width="24" height="24" viewBox="0 0 24 24" fill="none" xmlns="http://www.w3.org/2000/svg">
<path d="M17.4 9.2L14.3091 12.2909C14.1309 12.4691 14.0418 12.5582 13.9391 12.5916C13.8487 12.6209 13.7513 12.6209 13.6609 12.5916C13.5582 12.5582 13.4691 12.4691 13.2909 12.2909L10.7091 9.70912C10.5309 9.53091 10.4418 9.44181 10.3391 9.40842C10.2487 9.37905 10.1513 9.37905 10.0609 9.40842C9.95819 9.44181 9.86909 9.53091 9.69088 9.70912L6.6 12.8M21 11C21 15.9706 16.9706 20 12 20C7.02944 20 3 15.9706 3 11C3 6.02944 7.02944 2 12 2C16.9706 2 21 6.02944 21 11Z" stroke="black" stroke-width="2" stroke-linecap="round" stroke-linejoin="round"/>
</svg>
