<svg viewBox="0 0 24 24" fill="none" xmlns="http://www.w3.org/2000/svg">
<path d="M8.85 15.15L15.15 8.84998M9.3 4.8V3M14.7 19.2V21M4.8 9.3H3M19.2 14.7H21M5.62279 5.62279L4.35 4.35M18.3772 18.3771L19.65 19.6499M12 17.0911L10.0908 19.0003C8.68496 20.4062 6.40556 20.4062 4.99967 19.0003C3.59379 17.5944 3.59379 15.315 4.99967 13.9091L6.90886 11.9999M17.0912 11.9999L19.0004 10.0907C20.4063 8.68484 20.4063 6.40545 19.0004 4.99956C17.5945 3.59368 15.3151 3.59368 13.9092 4.99956L12 6.90875" stroke="black" stroke-width="2" stroke-linecap="round" stroke-linejoin="round"/>
</svg>