<svg viewBox="0 0 24 24" fill="none" xmlns="http://www.w3.org/2000/svg">
<path d="M12 20C16.9706 20 21 15.9706 21 11C21 6.02944 16.9706 2 12 2C7.02944 2 3 6.02944 3 11C3 15.9706 7.02944 20 12 20Z" stroke="black" stroke-width="2" stroke-linecap="round" stroke-linejoin="round"/>
<path d="M13.5584 12.0752C13.4949 11.8847 13.4632 11.7895 13.4648 11.7116C13.4666 11.6297 13.4775 11.5867 13.5152 11.514C13.5511 11.4448 13.647 11.3555 13.8389 11.177C14.3686 10.6841 14.7 9.98072 14.7 9.2C14.7 7.70883 13.4912 6.5 12 6.5C10.5088 6.5 9.3 7.70883 9.3 9.2C9.3 9.98072 9.63137 10.6841 10.1611 11.177C10.353 11.3555 10.4489 11.4448 10.4848 11.514C10.5225 11.5867 10.5334 11.6297 10.5352 11.7116C10.5368 11.7895 10.5051 11.8847 10.4416 12.0752L9.61589 14.5523C9.50924 14.8723 9.45592 15.0323 9.48789 15.1596C9.51588 15.2711 9.58546 15.3676 9.68235 15.4294C9.79305 15.5 9.96168 15.5 10.2989 15.5H13.7011C14.0383 15.5 14.207 15.5 14.3176 15.4294C14.4145 15.3676 14.4841 15.2711 14.5121 15.1596C14.5441 15.0323 14.4908 14.8723 14.3841 14.5523L13.5584 12.0752Z" stroke="black" stroke-width="2" stroke-linecap="round" stroke-linejoin="round"/>
</svg>