<svg width="24" height="24" viewBox="0 0 24 24" fill="none" xmlns="http://www.w3.org/2000/svg">
<path d="M15.6 6.6C15.6 5.76303 15.6 5.34454 15.508 5.00119C15.2583 4.06944 14.5306 3.34166 13.5988 3.092C13.2555 3 12.837 3 12 3C11.163 3 10.7445 3 10.4012 3.092C9.46944 3.34166 8.74166 4.06944 8.492 5.00119C8.4 5.34454 8.4 5.76303 8.4 6.6M12.72 16.05H17.13C17.382 16.05 17.508 16.05 17.6043 16.001C17.689 15.9578 17.7578 15.889 17.801 15.8043C17.85 15.708 17.85 15.582 17.85 15.33V13.17C17.85 12.918 17.85 12.792 17.801 12.6957C17.7578 12.611 17.689 12.5422 17.6043 12.499C17.508 12.45 17.382 12.45 17.13 12.45H12.72C12.468 12.45 12.342 12.45 12.2457 12.499C12.161 12.5422 12.0922 12.611 12.049 12.6957C12 12.792 12 12.918 12 13.17V15.33C12 15.582 12 15.708 12.049 15.8043C12.0922 15.889 12.161 15.9578 12.2457 16.001C12.342 16.05 12.468 16.05 12.72 16.05ZM7.32 19.2H16.68C18.1921 19.2 18.9482 19.2 19.5258 18.9057C20.0338 18.6469 20.4469 18.2338 20.7057 17.7258C21 17.1482 21 16.3921 21 14.88V10.92C21 9.40786 21 8.65179 20.7057 8.07423C20.4469 7.56619 20.0338 7.15314 19.5258 6.89428C18.9482 6.6 18.1921 6.6 16.68 6.6H7.32C5.80786 6.6 5.05179 6.6 4.47423 6.89428C3.96619 7.15314 3.55314 7.56619 3.29428 8.07423C3 8.65179 3 9.40786 3 10.92V14.88C3 16.3921 3 17.1482 3.29428 17.7258C3.55314 18.2338 3.96619 18.6469 4.47423 18.9057C5.05179 19.2 5.80786 19.2 7.32 19.2Z" stroke="black" stroke-width="2" stroke-linecap="round" stroke-linejoin="round"/>
</svg>
