<svg width="24" height="24" viewBox="0 0 24 24" fill="none" xmlns="http://www.w3.org/2000/svg">
<path d="M4 7.32C4 5.80786 4 5.05179 4.29428 4.47423C4.55314 3.96619 4.96619 3.55314 5.47423 3.29428C6.05179 3 6.80786 3 8.32 3H14.08C15.5921 3 16.3482 3 16.9258 3.29428C17.4338 3.55314 17.8469 3.96619 18.1057 4.47423C18.4 5.05179 18.4 5.80786 18.4 7.32V14.88C18.4 16.3921 18.4 17.1482 18.1057 17.7258C17.8469 18.2338 17.4338 18.6469 16.9258 18.9057C16.3482 19.2 15.5921 19.2 14.08 19.2H8.32C6.80786 19.2 6.05179 19.2 5.47423 18.9057C4.96619 18.6469 4.55314 18.2338 4.29428 17.7258C4 17.1482 4 16.3921 4 14.88V7.32Z" fill="white" fill-opacity="0.01"/>
<path d="M7.6 21V19.2M8.95 14.7V7.5M14.8 21V19.2M13.45 14.7V7.5M8.32 19.2H14.08C15.5921 19.2 16.3482 19.2 16.9258 18.9057C17.4338 18.6469 17.8469 18.2338 18.1057 17.7258C18.4 17.1482 18.4 16.3921 18.4 14.88V7.32C18.4 5.80786 18.4 5.05179 18.1057 4.47423C17.8469 3.96619 17.4338 3.55314 16.9258 3.29428C16.3482 3 15.5921 3 14.08 3H8.32C6.80786 3 6.05179 3 5.47423 3.29428C4.96619 3.55314 4.55314 3.96619 4.29428 4.47423C4 5.05179 4 5.80786 4 7.32V14.88C4 16.3921 4 17.1482 4.29428 17.7258C4.55314 18.2338 4.96619 18.6469 5.47423 18.9057C6.05179 19.2 6.80786 19.2 8.32 19.2Z" stroke="black" stroke-width="2" stroke-linecap="round" stroke-linejoin="round"/>
</svg>
