<svg width="24" height="24" viewBox="0 0 24 24" fill="none" xmlns="http://www.w3.org/2000/svg">
<path d="M15 4V2V4Z" fill="white" fill-opacity="0.01"/>
<path d="M15 16V14V16Z" fill="white" fill-opacity="0.01"/>
<path d="M8 9H10H8Z" fill="white" fill-opacity="0.01"/>
<path d="M20 9H22H20Z" fill="white" fill-opacity="0.01"/>
<path d="M17.8 11.8L19 13L17.8 11.8Z" fill="white" fill-opacity="0.01"/>
<path d="M17.8 6.2L19 5L17.8 6.2Z" fill="white" fill-opacity="0.01"/>
<path d="M3 21L12 12L3 21Z" fill="white" fill-opacity="0.01"/>
<path d="M12.2 6.2L11 5L12.2 6.2Z" fill="white" fill-opacity="0.01"/>
<path d="M15 4V2M15 16V14M8 9H10M20 9H22M17.8 11.8L19 13M17.8 6.2L19 5M3 21L12 12M12.2 6.2L11 5" stroke="black" stroke-width="2" stroke-linecap="round" stroke-linejoin="round"/>
</svg>
