<svg width="24" height="24" viewBox="0 0 24 24" fill="none" xmlns="http://www.w3.org/2000/svg">
<path d="M13.5696 2.55876L20.3448 6.96265C20.5842 7.11826 20.7039 7.19607 20.7906 7.29986C20.8674 7.39173 20.9251 7.49799 20.9602 7.61243C21 7.74171 21 7.88447 21 8.17001V14.7685C21 16.2807 21 17.0368 20.7057 17.6143C20.4469 18.1224 20.0338 18.5354 19.5258 18.7943C18.9482 19.0885 18.1921 19.0885 16.68 19.0885H7.32C5.80786 19.0885 5.05179 19.0885 4.47423 18.7943C3.96619 18.5354 3.55314 18.1224 3.29428 17.6143C3 17.0368 3 16.2807 3 14.7685V8.17001C3 7.88447 3 7.74171 3.03975 7.61243C3.07494 7.49799 3.13261 7.39173 3.20938 7.29986C3.29611 7.19607 3.41581 7.11826 3.65522 6.96265L10.4304 2.55876M13.5696 2.55876C13.0014 2.18948 12.7174 2.00484 12.4113 1.933C12.1408 1.8695 11.8592 1.8695 11.5887 1.933C11.2826 2.00484 10.9986 2.18948 10.4304 2.55876M13.5696 2.55876L19.1425 6.18118C19.7616 6.58357 20.0711 6.78477 20.1783 7.03992C20.272 7.26289 20.272 7.51419 20.1783 7.73717C20.0711 7.99231 19.7616 8.19351 19.1425 8.5959L13.5696 12.2183C13.0015 12.5876 12.7174 12.7722 12.4113 12.8441C12.1408 12.9076 11.8592 12.9076 11.5887 12.8441C11.2826 12.7722 10.9986 12.5876 10.4304 12.2183L4.85748 8.5959C4.23841 8.19351 3.92888 7.99231 3.82168 7.73717C3.72799 7.51419 3.72799 7.26289 3.82168 7.03992C3.92888 6.78477 4.23841 6.58357 4.85748 6.18118L10.4304 2.55876M20.55 17.2885L14.5715 11.8885M9.42854 11.8885L3.45 17.2885" stroke="black" stroke-width="2" stroke-linecap="round" stroke-linejoin="round"/>
</svg>
