<svg viewBox="0 0 24 24" fill="none" xmlns="http://www.w3.org/2000/svg">
<path d="M3 6.7L7.67446 9.8163C7.94414 9.99609 8.07898 10.086 8.22486 10.1497C8.35434 10.2062 8.49003 10.2473 8.62912 10.2721C8.78582 10.3 8.94788 10.3 9.27199 10.3H14.728C15.0521 10.3 15.2142 10.3 15.3709 10.2721C15.51 10.2473 15.6457 10.2062 15.7751 10.1497C15.921 10.086 16.0559 9.99609 16.3255 9.8163L21 6.7M7.32 18.4H16.68C18.1921 18.4 18.9482 18.4 19.5258 18.1057C20.0338 17.8469 20.4469 17.4338 20.7057 16.9258C21 16.3482 21 15.5921 21 14.08V8.32C21 6.80786 21 6.05179 20.7057 5.47423C20.4469 4.96619 20.0338 4.55314 19.5258 4.29428C18.9482 4 18.1921 4 16.68 4H7.32C5.80786 4 5.05179 4 4.47423 4.29428C3.96619 4.55314 3.55314 4.96619 3.29428 5.47423C3 6.05179 3 6.80786 3 8.32V14.08C3 15.5921 3 16.3482 3.29428 16.9258C3.55314 17.4338 3.96619 17.8469 4.47423 18.1057C5.05179 18.4 5.80786 18.4 7.32 18.4Z" stroke="black" stroke-width="2" stroke-linecap="round" stroke-linejoin="round"/>
</svg>