<svg viewBox="0 0 24 24" fill="none" xmlns="http://www.w3.org/2000/svg">
<path d="M13.5696 2.55864L20.3448 6.96253C20.5842 7.11814 20.7039 7.19595 20.7906 7.29973C20.8674 7.3916 20.9251 7.49787 20.9602 7.61231C21 7.74158 21 7.88435 21 8.16989V14.7684C21 16.2806 21 17.0366 20.7057 17.6142C20.4469 18.1222 20.0338 18.5353 19.5258 18.7941C18.9482 19.0884 18.1921 19.0884 16.68 19.0884H7.32C5.80786 19.0884 5.05179 19.0884 4.47423 18.7941C3.96619 18.5353 3.55314 18.1222 3.29428 17.6142C3 17.0366 3 16.2806 3 14.7684V8.16989C3 7.88435 3 7.74158 3.03975 7.61231C3.07494 7.49787 3.13261 7.3916 3.20938 7.29973C3.29611 7.19595 3.41581 7.11814 3.65522 6.96253L10.4304 2.55864M13.5696 2.55864C13.0014 2.18936 12.7174 2.00472 12.4113 1.93288C12.1408 1.86938 11.8592 1.86938 11.5887 1.93288C11.2826 2.00472 10.9986 2.18936 10.4304 2.55864M13.5696 2.55864L20.0713 6.78474C20.3808 6.98593 20.5356 7.08653 20.5892 7.21411C20.636 7.32559 20.636 7.45124 20.5892 7.56273C20.5356 7.6903 20.3808 7.7909 20.0713 7.9921L13.5696 12.2182C13.0015 12.5875 12.7174 12.7721 12.4113 12.844C12.1408 12.9075 11.8592 12.9075 11.5887 12.844C11.2826 12.7721 10.9986 12.5875 10.4304 12.2182L3.92874 7.9921C3.61921 7.7909 3.46444 7.6903 3.41084 7.56273C3.36399 7.45124 3.36399 7.32559 3.41084 7.21411C3.46444 7.08653 3.61921 6.98594 3.92874 6.78474L10.4304 2.55864" stroke="black" stroke-width="2" stroke-linecap="round" stroke-linejoin="round"/>
</svg>