<svg width="24" height="24" viewBox="0 0 24 24" fill="none" xmlns="http://www.w3.org/2000/svg">
<path d="M11.2 12.45C12.6912 12.45 13.9 11.2412 13.9 9.75C13.9 8.25883 12.6912 7.05 11.2 7.05C9.70883 7.05 8.5 8.25883 8.5 9.75C8.5 11.2412 9.70883 12.45 11.2 12.45Z" fill="white" fill-opacity="0.01"/>
<path d="M11.2 21C13 17.4 18.4 15.0764 18.4 10.2C18.4 6.22355 15.1764 3 11.2 3C7.22355 3 4 6.22355 4 10.2C4 15.0764 9.4 17.4 11.2 21Z" fill="white" fill-opacity="0.01"/>
<path d="M11.2 12.45C12.6912 12.45 13.9 11.2412 13.9 9.75C13.9 8.25883 12.6912 7.05 11.2 7.05C9.70883 7.05 8.5 8.25883 8.5 9.75C8.5 11.2412 9.70883 12.45 11.2 12.45Z" stroke="black" stroke-width="2" stroke-linecap="round" stroke-linejoin="round"/>
<path d="M11.2 21C13 17.4 18.4 15.0764 18.4 10.2C18.4 6.22355 15.1764 3 11.2 3C7.22355 3 4 6.22355 4 10.2C4 15.0764 9.4 17.4 11.2 21Z" stroke="black" stroke-width="2" stroke-linecap="round" stroke-linejoin="round"/>
</svg>
