<svg width="24" height="24" viewBox="0 0 24 24" fill="none" xmlns="http://www.w3.org/2000/svg">
<path d="M12 15.6V8.4V15.6Z" fill="white" fill-opacity="0.01"/>
<path d="M12 8.4C13.4912 8.4 14.7 7.19117 14.7 5.7C14.7 4.20883 13.4912 3 12 3C10.5088 3 9.3 4.20883 9.3 5.7C9.3 7.19117 10.5088 8.4 12 8.4Z" fill="white" fill-opacity="0.01"/>
<path d="M15.6 12.337C18.7786 12.962 21 14.3892 21 16.05C21 18.2868 16.9706 20.1 12 20.1C7.02944 20.1 3 18.2868 3 16.05C3 14.3892 5.22137 12.962 8.4 12.337M12 15.6V8.4M12 8.4C13.4912 8.4 14.7 7.19117 14.7 5.7C14.7 4.20883 13.4912 3 12 3C10.5088 3 9.3 4.20883 9.3 5.7C9.3 7.19117 10.5088 8.4 12 8.4Z" stroke="black" stroke-width="2" stroke-linecap="round" stroke-linejoin="round"/>
</svg>
