<svg width="24" height="24" viewBox="0 0 24 24" fill="none" xmlns="http://www.w3.org/2000/svg">
<path d="M12 21C16.9706 21 21 16.9706 21 12C21 7.02944 16.9706 3 12 3C7.02944 3 3 7.02944 3 12C3 16.9706 7.02944 21 12 21Z" fill="white" fill-opacity="0.01"/>
<path d="M13.65 7.77C13.65 7.51798 13.65 7.39196 13.601 7.2957C13.5578 7.21103 13.489 7.14219 13.4043 7.09905C13.308 7.05 13.182 7.05 12.93 7.05H11.07C10.818 7.05 10.692 7.05 10.5957 7.09905C10.511 7.14219 10.4422 7.21103 10.399 7.2957C10.35 7.39196 10.35 7.51798 10.35 7.77V9.63C10.35 9.88202 10.35 10.008 10.301 10.1043C10.2578 10.189 10.189 10.2578 10.1043 10.301C10.008 10.35 9.88202 10.35 9.63 10.35H7.77C7.51798 10.35 7.39196 10.35 7.2957 10.399C7.21103 10.4422 7.14219 10.511 7.09905 10.5957C7.05 10.692 7.05 10.818 7.05 11.07V12.93C7.05 13.182 7.05 13.308 7.09905 13.4043C7.14219 13.489 7.21103 13.5578 7.2957 13.601C7.39196 13.65 7.51798 13.65 7.77 13.65H9.63C9.88202 13.65 10.008 13.65 10.1043 13.699C10.189 13.7422 10.2578 13.811 10.301 13.8957C10.35 13.992 10.35 14.118 10.35 14.37V16.23C10.35 16.482 10.35 16.608 10.399 16.7043C10.4422 16.789 10.511 16.8578 10.5957 16.901C10.692 16.95 10.818 16.95 11.07 16.95H12.93C13.182 16.95 13.308 16.95 13.4043 16.901C13.489 16.8578 13.5578 16.789 13.601 16.7043C13.65 16.608 13.65 16.482 13.65 16.23V14.37C13.65 14.118 13.65 13.992 13.699 13.8957C13.7422 13.811 13.811 13.7422 13.8957 13.699C13.992 13.65 14.118 13.65 14.37 13.65H16.23C16.482 13.65 16.608 13.65 16.7043 13.601C16.789 13.5578 16.8578 13.489 16.901 13.4043C16.95 13.308 16.95 13.182 16.95 12.93V11.07C16.95 10.818 16.95 10.692 16.901 10.5957C16.8578 10.511 16.789 10.4422 16.7043 10.399C16.608 10.35 16.482 10.35 16.23 10.35H14.37C14.118 10.35 13.992 10.35 13.8957 10.301C13.811 10.2578 13.7422 10.189 13.699 10.1043C13.65 10.008 13.65 9.88202 13.65 9.63V7.77Z" fill="white" fill-opacity="0.01"/>
<path d="M12 21C16.9706 21 21 16.9706 21 12C21 7.02944 16.9706 3 12 3C7.02944 3 3 7.02944 3 12C3 16.9706 7.02944 21 12 21Z" stroke="black" stroke-width="2" stroke-linecap="round" stroke-linejoin="round"/>
<path d="M13.65 7.77C13.65 7.51798 13.65 7.39196 13.601 7.2957C13.5578 7.21103 13.489 7.14219 13.4043 7.09905C13.308 7.05 13.182 7.05 12.93 7.05H11.07C10.818 7.05 10.692 7.05 10.5957 7.09905C10.511 7.14219 10.4422 7.21103 10.399 7.2957C10.35 7.39196 10.35 7.51798 10.35 7.77V9.63C10.35 9.88202 10.35 10.008 10.301 10.1043C10.2578 10.189 10.189 10.2578 10.1043 10.301C10.008 10.35 9.88202 10.35 9.63 10.35H7.77C7.51798 10.35 7.39196 10.35 7.2957 10.399C7.21103 10.4422 7.14219 10.511 7.09905 10.5957C7.05 10.692 7.05 10.818 7.05 11.07V12.93C7.05 13.182 7.05 13.308 7.09905 13.4043C7.14219 13.489 7.21103 13.5578 7.2957 13.601C7.39196 13.65 7.51798 13.65 7.77 13.65H9.63C9.88202 13.65 10.008 13.65 10.1043 13.699C10.189 13.7422 10.2578 13.811 10.301 13.8957C10.35 13.992 10.35 14.118 10.35 14.37V16.23C10.35 16.482 10.35 16.608 10.399 16.7043C10.4422 16.789 10.511 16.8578 10.5957 16.901C10.692 16.95 10.818 16.95 11.07 16.95H12.93C13.182 16.95 13.308 16.95 13.4043 16.901C13.489 16.8578 13.5578 16.789 13.601 16.7043C13.65 16.608 13.65 16.482 13.65 16.23V14.37C13.65 14.118 13.65 13.992 13.699 13.8957C13.7422 13.811 13.811 13.7422 13.8957 13.699C13.992 13.65 14.118 13.65 14.37 13.65H16.23C16.482 13.65 16.608 13.65 16.7043 13.601C16.789 13.5578 16.8578 13.489 16.901 13.4043C16.95 13.308 16.95 13.182 16.95 12.93V11.07C16.95 10.818 16.95 10.692 16.901 10.5957C16.8578 10.511 16.789 10.4422 16.7043 10.399C16.608 10.35 16.482 10.35 16.23 10.35H14.37C14.118 10.35 13.992 10.35 13.8957 10.301C13.811 10.2578 13.7422 10.189 13.699 10.1043C13.65 10.008 13.65 9.88202 13.65 9.63V7.77Z" stroke="black" stroke-width="2" stroke-linecap="round" stroke-linejoin="round"/>
</svg>
