<svg viewBox="0 0 24 24" fill="none" xmlns="http://www.w3.org/2000/svg">
<path d="M5.68493 11.3059C5.62899 10.9454 5.59997 10.5761 5.59997 10.2C5.59997 6.22355 8.84472 3 12.8473 3C16.8499 3 20.0947 6.22355 20.0947 10.2C20.0947 11.0983 19.9291 11.9581 19.6266 12.7511C19.5638 12.9157 19.5324 12.9981 19.5181 13.0624C19.504 13.1261 19.4986 13.1709 19.497 13.2361C19.4955 13.3019 19.5044 13.3745 19.5222 13.5195L19.8846 16.4627C19.9238 16.7813 19.9434 16.9406 19.8904 17.0564C19.844 17.1579 19.7615 17.2385 19.659 17.2826C19.542 17.3329 19.3832 17.3096 19.0655 17.263L16.1988 16.8428C16.0491 16.8209 15.9743 16.8099 15.9061 16.8103C15.8387 16.8107 15.792 16.8157 15.726 16.8295C15.6593 16.8436 15.5741 16.8755 15.4037 16.9393C14.6087 17.2371 13.7472 17.4 12.8473 17.4C12.471 17.4 12.1013 17.3715 11.7404 17.3165M7.06842 21C9.73683 21 11.9 18.7838 11.9 16.05C11.9 13.3162 9.73683 11.1 7.06842 11.1C4.40001 11.1 2.23684 13.3162 2.23684 16.05C2.23684 16.5995 2.32425 17.1281 2.48559 17.6221C2.5538 17.8308 2.5879 17.9352 2.59909 18.0065C2.61078 18.081 2.61282 18.1228 2.60847 18.198C2.6043 18.2701 2.58627 18.3516 2.55021 18.5145L2 21L4.69532 20.6319C4.84244 20.6118 4.916 20.6018 4.98023 20.6022C5.04787 20.6027 5.08377 20.6063 5.1501 20.6195C5.21309 20.6321 5.30674 20.6652 5.49404 20.7313C5.98753 20.9054 6.5172 21 7.06842 21Z" stroke="black" stroke-width="2" stroke-linecap="round" stroke-linejoin="round"/>
</svg>