<svg width="24" height="24" viewBox="0 0 24 24" fill="none" xmlns="http://www.w3.org/2000/svg">
<path d="M21 12.98C21 11.9719 21 11.4679 20.8038 11.0828C20.6312 10.7441 20.3559 10.4688 20.0172 10.2962C19.6321 10.1 19.1281 10.1 18.12 10.1H13.08C12.0719 10.1 11.5679 10.1 11.1828 10.2962C10.8441 10.4688 10.5688 10.7441 10.3962 11.0828C10.2 11.4679 10.2 11.9719 10.2 12.98V15.2429C10.2 16.251 10.2 16.755 10.3962 17.14C10.5688 17.4787 10.8441 17.7541 11.1828 17.9267C11.5679 18.1229 12.0719 18.1229 13.08 18.1229H14.6972C15.0326 18.1229 15.2003 18.1229 15.362 18.1527C15.5056 18.1791 15.6454 18.223 15.7784 18.2832C15.9282 18.351 16.0659 18.4468 16.3412 18.6382L18.3 20V18.1229C19.1387 18.1229 19.558 18.1229 19.8888 17.9858C20.3299 17.8032 20.6803 17.4527 20.863 17.0117C21 16.6809 21 16.2616 21 15.4229V12.98Z" fill="white" fill-opacity="0.01"/>
<path d="M10.2 13.7L7.43227 16.5023C7.04621 16.8932 6.85318 17.0887 6.68726 17.1024C6.54331 17.1144 6.40237 17.0565 6.30836 16.9469C6.2 16.8205 6.2 16.5458 6.2 15.9964V14.5925C6.2 14.0996 5.79637 13.7429 5.30868 13.6715V13.6715C4.12837 13.4986 3.2014 12.5716 3.02851 11.3913C3 11.1967 3 10.9645 3 10.5V6.32C3 4.80786 3 4.05179 3.29428 3.47423C3.55314 2.96619 3.96619 2.55314 4.47423 2.29428C5.05179 2 5.80786 2 7.32 2H13.98C15.4921 2 16.2482 2 16.8258 2.29428C17.3338 2.55314 17.7469 2.96619 18.0057 3.47423C18.3 4.05179 18.3 4.80786 18.3 6.32V10.1M18.3 20L16.3412 18.6382C16.0659 18.4468 15.9282 18.351 15.7784 18.2832C15.6454 18.223 15.5056 18.1791 15.362 18.1527C15.2003 18.1229 15.0326 18.1229 14.6972 18.1229H13.08C12.0719 18.1229 11.5679 18.1229 11.1828 17.9267C10.8441 17.7541 10.5688 17.4787 10.3962 17.14C10.2 16.755 10.2 16.251 10.2 15.2429V12.98C10.2 11.9719 10.2 11.4679 10.3962 11.0828C10.5688 10.7441 10.8441 10.4688 11.1828 10.2962C11.5679 10.1 12.0719 10.1 13.08 10.1H18.12C19.1281 10.1 19.6321 10.1 20.0172 10.2962C20.3559 10.4688 20.6312 10.7441 20.8038 11.0828C21 11.4679 21 11.9719 21 12.98V15.4229C21 16.2616 21 16.6809 20.863 17.0117C20.6803 17.4527 20.3299 17.8032 19.8888 17.9858C19.558 18.1229 19.1387 18.1229 18.3 18.1229V20Z" stroke="black" stroke-width="2" stroke-linecap="round" stroke-linejoin="round"/>
</svg>
