<svg width="24" height="24" viewBox="0 0 24 24" fill="none" xmlns="http://www.w3.org/2000/svg">
<path d="M8.4 11.9C8.4 13.8882 10.0118 15.5 12 15.5C13.2225 15.5 14.3026 14.8907 14.9533 13.9592L8.4 7.4V11.9Z" fill="white" fill-opacity="0.01"/>
<path d="M4.8 11V11.9C4.8 15.8764 8.02355 19.1 12 19.1C14.2187 19.1 16.2031 18.0964 17.5238 16.5184M3 2L21 20M15.6 9.56V6.5C15.6 4.51177 13.9882 2.9 12 2.9C11.1365 2.9 10.3441 3.204 9.72377 3.71081M12 15.5C10.0118 15.5 8.4 13.8882 8.4 11.9V7.4L14.9533 13.9592C14.3026 14.8907 13.2225 15.5 12 15.5Z" stroke="black" stroke-width="2" stroke-linecap="round" stroke-linejoin="round"/>
</svg>
