<svg viewBox="0 0 24 24" fill="none" xmlns="http://www.w3.org/2000/svg">
<path d="M3 21H11.1M10.2 6.82683C10.7753 6.67876 11.3785 6.6 12 6.6C15.9765 6.6 19.2 9.82355 19.2 13.8C19.2 16.8216 17.3386 19.4085 14.7 20.4766M5.25 12.9H8.85C9.26819 12.9 9.47728 12.9 9.65116 12.9346C10.3652 13.0766 10.9234 13.6348 11.0654 14.3488C11.1 14.5227 11.1 14.7318 11.1 15.15C11.1 15.5682 11.1 15.7773 11.0654 15.9512C10.9234 16.6652 10.3652 17.2234 9.65116 17.3654C9.47728 17.4 9.26819 17.4 8.85 17.4H5.25C4.83181 17.4 4.62272 17.4 4.44884 17.3654C3.73479 17.2234 3.17662 16.6652 3.03459 15.9512C3 15.7773 3 15.5682 3 15.15C3 14.7318 3 14.5227 3.03459 14.3488C3.17662 13.6348 3.73479 13.0766 4.44884 12.9346C4.62272 12.9 4.83181 12.9 5.25 12.9ZM3.9 6.15V12.9H10.2V6.15C10.2 4.4103 8.7897 3 7.05 3C5.3103 3 3.9 4.4103 3.9 6.15Z" stroke="black" stroke-width="2" stroke-linecap="round" stroke-linejoin="round"/>
</svg>