<svg width="24" height="24" viewBox="0 0 24 24" fill="none" xmlns="http://www.w3.org/2000/svg">
<path d="M3 12.9L21 12.9M8.4 19.2H15.6M7.32 16.5H16.68C18.1921 16.5 18.9482 16.5 19.5258 16.2057C20.0338 15.9469 20.4469 15.5338 20.7057 15.0258C21 14.4482 21 13.6921 21 12.18V7.32C21 5.80786 21 5.05179 20.7057 4.47423C20.4469 3.96619 20.0338 3.55314 19.5258 3.29428C18.9482 3 18.1921 3 16.68 3H7.32C5.80786 3 5.05179 3 4.47423 3.29428C3.96619 3.55314 3.55314 3.96619 3.29428 4.47423C3 5.05179 3 5.80786 3 7.32V12.18C3 13.6921 3 14.4482 3.29428 15.0258C3.55314 15.5338 3.96619 15.9469 4.47423 16.2057C5.05179 16.5 5.80786 16.5 7.32 16.5Z" stroke="black" stroke-width="2" stroke-linecap="round" stroke-linejoin="round"/>
</svg>
