<svg width="24" height="24" viewBox="0 0 24 24" fill="none" xmlns="http://www.w3.org/2000/svg">
<path d="M6.15 18.4H8.4H6.15Z" fill="white" fill-opacity="0.01"/>
<path d="M16.5 8.5H16.509H16.5Z" fill="white" fill-opacity="0.01"/>
<path d="M12 6.88C12 5.87191 12 5.36786 12.1962 4.98282C12.3688 4.64413 12.6441 4.36876 12.9828 4.19619C13.3679 4 13.8719 4 14.88 4H18.12C19.1281 4 19.6321 4 20.0172 4.19619C20.3559 4.36876 20.6312 4.64413 20.8038 4.98282C21 5.36786 21 5.87191 21 6.88V15.52C21 16.5281 21 17.0321 20.8038 17.4172C20.6312 17.7559 20.3559 18.0312 20.0172 18.2038C19.6321 18.4 19.1281 18.4 18.12 18.4H14.88C13.8719 18.4 13.3679 18.4 12.9828 18.2038C12.6441 18.0312 12.3688 17.7559 12.1962 17.4172C12 17.0321 12 16.5281 12 15.52V6.88Z" fill="white" fill-opacity="0.01"/>
<path d="M16.5 14.8C16.9971 14.8 17.4 14.3971 17.4 13.9C17.4 13.4029 16.9971 13 16.5 13C16.0029 13 15.6 13.4029 15.6 13.9C15.6 14.3971 16.0029 14.8 16.5 14.8Z" fill="white" fill-opacity="0.01"/>
<path d="M6.15 18.4H8.4M16.5 8.5H16.509M8.4 5.8H5.88C4.87191 5.8 4.36786 5.8 3.98282 5.99619C3.64413 6.16876 3.36876 6.44413 3.19619 6.78282C3 7.16786 3 7.67191 3 8.68V11.92C3 12.9281 3 13.4321 3.19619 13.8172C3.36876 14.1559 3.64413 14.4312 3.98282 14.6038C4.36786 14.8 4.87191 14.8 5.88 14.8H8.4M14.88 18.4H18.12C19.1281 18.4 19.6321 18.4 20.0172 18.2038C20.3559 18.0312 20.6312 17.7559 20.8038 17.4172C21 17.0321 21 16.5281 21 15.52V6.88C21 5.87191 21 5.36786 20.8038 4.98282C20.6312 4.64413 20.3559 4.36876 20.0172 4.19619C19.6321 4 19.1281 4 18.12 4H14.88C13.8719 4 13.3679 4 12.9828 4.19619C12.6441 4.36876 12.3688 4.64413 12.1962 4.98282C12 5.36786 12 5.87191 12 6.88V15.52C12 16.5281 12 17.0321 12.1962 17.4172C12.3688 17.7559 12.6441 18.0312 12.9828 18.2038C13.3679 18.4 13.8719 18.4 14.88 18.4ZM17.4 13.9C17.4 14.3971 16.9971 14.8 16.5 14.8C16.0029 14.8 15.6 14.3971 15.6 13.9C15.6 13.4029 16.0029 13 16.5 13C16.9971 13 17.4 13.4029 17.4 13.9Z" stroke="black" stroke-width="2" stroke-linecap="round" stroke-linejoin="round"/>
</svg>
