<svg width="24" height="24" viewBox="0 0 24 24" fill="none" xmlns="http://www.w3.org/2000/svg">
<path d="M8.01463 19.2C9.21595 18.6238 10.569 18.3 12 18.3C13.431 18.3 14.784 18.6238 15.9854 19.2M7.32 15.6H16.68C18.1921 15.6 18.9482 15.6 19.5258 15.3057C20.0338 15.0469 20.4469 14.6338 20.7057 14.1258C21 13.5482 21 12.7921 21 11.28V7.32C21 5.80786 21 5.05179 20.7057 4.47423C20.4469 3.96619 20.0338 3.55314 19.5258 3.29428C18.9482 3 18.1921 3 16.68 3H7.32C5.80786 3 5.05179 3 4.47423 3.29428C3.96619 3.55314 3.55314 3.96619 3.29428 4.47423C3 5.05179 3 5.80786 3 7.32V11.28C3 12.7921 3 13.5482 3.29428 14.1258C3.55314 14.6338 3.96619 15.0469 4.47423 15.3057C5.05179 15.6 5.80786 15.6 7.32 15.6Z" stroke="black" stroke-width="2" stroke-linecap="round" stroke-linejoin="round"/>
</svg>
