<svg width="24" height="24" viewBox="0 0 24 24" fill="none" xmlns="http://www.w3.org/2000/svg">
<path d="M3 5.88C3 4.87191 3 4.36786 3.19619 3.98282C3.36876 3.64413 3.64413 3.36876 3.98282 3.19619C4.36786 3 4.87191 3 5.88 3H18.12C19.1281 3 19.6321 3 20.0172 3.19619C20.3559 3.36876 20.6312 3.64413 20.8038 3.98282C21 4.36786 21 4.87191 21 5.88V12.72C21 13.7281 21 14.2321 20.8038 14.6172C20.6312 14.9559 20.3559 15.2312 20.0172 15.4038C19.6321 15.6 19.1281 15.6 18.12 15.6H5.88C4.87191 15.6 4.36786 15.6 3.98282 15.4038C3.64413 15.2312 3.36876 14.9559 3.19619 14.6172C3 14.2321 3 13.7281 3 12.72V5.88Z" fill="white" fill-opacity="0.01"/>
<path d="M14.7 15.6V19.2H9.3V15.6M5.88 15.6H18.12C19.1281 15.6 19.6321 15.6 20.0172 15.4038C20.3559 15.2312 20.6312 14.9559 20.8038 14.6172C21 14.2321 21 13.7281 21 12.72V5.88C21 4.87191 21 4.36786 20.8038 3.98282C20.6312 3.64413 20.3559 3.36876 20.0172 3.19619C19.6321 3 19.1281 3 18.12 3H5.88C4.87191 3 4.36786 3 3.98282 3.19619C3.64413 3.36876 3.36876 3.64413 3.19619 3.98282C3 4.36786 3 4.87191 3 5.88V12.72C3 13.7281 3 14.2321 3.19619 14.6172C3.36876 14.9559 3.64413 15.2312 3.98282 15.4038C4.36786 15.6 4.87191 15.6 5.88 15.6Z" stroke="black" stroke-width="2" stroke-linecap="round" stroke-linejoin="round"/>
</svg>
