<svg viewBox="0 0 24 24" fill="none" xmlns="http://www.w3.org/2000/svg">
<path d="M17.4 2L17.956 3.11202C18.195 3.58991 18.3144 3.82885 18.474 4.0359C18.6157 4.21963 18.7804 4.38435 18.9641 4.52597C19.1712 4.68558 19.4101 4.80505 19.888 5.04399L21 5.6L19.888 6.15601C19.4101 6.39495 19.1712 6.51442 18.9641 6.67403C18.7804 6.81565 18.6157 6.98037 18.474 7.1641C18.3144 7.37115 18.195 7.61009 17.956 8.08798L17.4 9.2L16.844 8.08798C16.605 7.61009 16.4856 7.37115 16.326 7.1641C16.1843 6.98037 16.0196 6.81565 15.8359 6.67403C15.6288 6.51442 15.3899 6.39495 14.912 6.15601L13.8 5.6L14.912 5.04399C15.3899 4.80505 15.6288 4.68558 15.8359 4.52597C16.0196 4.38435 16.1843 4.21963 16.326 4.0359C16.4856 3.82885 16.605 3.58991 16.844 3.11202L17.4 2Z" stroke="black" stroke-width="2" stroke-linecap="round" stroke-linejoin="round"/>
<path d="M20.1 12.2504C18.9201 14.3201 16.6931 15.7155 14.1402 15.7155C10.354 15.7155 7.28467 12.6463 7.28467 8.8601C7.28467 6.30698 8.68034 4.07985 10.7503 2.9C6.40181 3.31231 3 6.97423 3 11.4307C3 16.1634 6.83663 20 11.5693 20C16.0256 20 19.6874 16.5986 20.1 12.2504Z" stroke="black" stroke-width="2" stroke-linecap="round" stroke-linejoin="round"/>
</svg>