<svg width="24" height="24" viewBox="0 0 24 24" fill="none" xmlns="http://www.w3.org/2000/svg">
<path d="M5.7 8.3L3 11L5.7 13.7" fill="white" fill-opacity="0.01"/>
<path d="M9.3 4.7L12 2L14.7 4.7" fill="white" fill-opacity="0.01"/>
<path d="M14.7 17.3L12 20L9.3 17.3" fill="white" fill-opacity="0.01"/>
<path d="M18.3 8.3L21 11L18.3 13.7" fill="white" fill-opacity="0.01"/>
<path d="M5.7 8.3L3 11M3 11L5.7 13.7M3 11H21M9.3 4.7L12 2M12 2L14.7 4.7M12 2V20M14.7 17.3L12 20M12 20L9.3 17.3M18.3 8.3L21 11M21 11L18.3 13.7" stroke="black" stroke-width="2" stroke-linecap="round" stroke-linejoin="round"/>
</svg>
