<svg width="24" height="24" viewBox="0 0 24 24" fill="none" xmlns="http://www.w3.org/2000/svg">
<path d="M10.6241 5.1282L11.3368 3.50339C11.5452 3.02813 11.6494 2.79049 11.7951 2.71776C11.9217 2.65459 12.0706 2.65459 12.1971 2.71776C12.3428 2.79049 12.447 3.02813 12.6555 3.50339L15.5106 10.013M9.25201 8.25638L4.78342 18.4448C4.5525 18.9713 4.43704 19.2345 4.48808 19.3959C4.53232 19.5358 4.64201 19.6454 4.78197 19.6895C4.94343 19.7403 5.20654 19.6245 5.73276 19.393L11.706 16.7648C11.8129 16.7178 11.8663 16.6943 11.9217 16.685C11.9709 16.6767 12.0211 16.6767 12.0703 16.685C12.1258 16.6943 12.1792 16.7178 12.286 16.7648L18.2593 19.393C18.7855 19.6245 19.0486 19.7403 19.2101 19.6895C19.35 19.6454 19.4597 19.5358 19.504 19.3959C19.555 19.2345 19.4395 18.9713 19.2086 18.4448L19.0249 18.0259M21 20L3 2" stroke="black" stroke-width="2" stroke-linecap="round" stroke-linejoin="round"/>
</svg>
