<svg viewBox="0 0 24 24" fill="none" xmlns="http://www.w3.org/2000/svg">
<path d="M14.5825 11.1L1.98254 11.1M9.18254 4.8L7.38254 3M12.7825 21L1.98254 21M19.9825 15.6C19.9825 16.5941 19.1767 17.4 18.1825 17.4C17.1884 17.4 16.3825 16.5941 16.3825 15.6C16.3825 14.6059 18.1825 12.9 18.1825 12.9C18.1825 12.9 19.9825 14.6059 19.9825 15.6ZM8.28254 3.9L14.4643 10.0818C14.8207 10.4382 14.9989 10.6164 15.0657 10.8219C15.1244 11.0026 15.1244 11.1974 15.0657 11.3781C14.9989 11.5836 14.8207 11.7618 14.4643 12.1182L10.319 16.2635C9.60618 16.9764 9.24976 17.3328 8.83877 17.4663C8.47725 17.5838 8.08783 17.5838 7.72631 17.4663C7.31532 17.3328 6.9589 16.9764 6.24607 16.2635L3.11901 13.1365C2.40618 12.4236 2.04976 12.0672 1.91622 11.6562C1.79876 11.2947 1.79876 10.9053 1.91622 10.5438C2.04976 10.1328 2.40618 9.77636 3.11901 9.06353L8.28254 3.9Z" stroke="black" stroke-width="2" stroke-linecap="round" stroke-linejoin="round"/>
</svg>