<svg width="24" height="24" viewBox="0 0 24 24" fill="none" xmlns="http://www.w3.org/2000/svg">
<path d="M3 11C3 15.9706 7.02944 20 12 20C13.4912 20 14.7 18.7912 14.7 17.3V16.85C14.7 16.432 14.7 16.223 14.7231 16.0476C14.8826 14.836 15.836 13.8826 17.0476 13.7231C17.223 13.7 17.432 13.7 17.85 13.7H18.3C19.7912 13.7 21 12.4912 21 11C21 6.02944 16.9706 2 12 2C7.02944 2 3 6.02944 3 11Z" stroke="black" stroke-width="2" stroke-linecap="round" stroke-linejoin="round"/>
<path d="M7.5 11.9C7.99706 11.9 8.4 11.4971 8.4 11C8.4 10.5029 7.99706 10.1 7.5 10.1C7.00294 10.1 6.6 10.5029 6.6 11C6.6 11.4971 7.00294 11.9 7.5 11.9Z" stroke="black" stroke-width="2" stroke-linecap="round" stroke-linejoin="round"/>
<path d="M15.6 8.3C16.0971 8.3 16.5 7.89706 16.5 7.4C16.5 6.90294 16.0971 6.5 15.6 6.5C15.1029 6.5 14.7 6.90294 14.7 7.4C14.7 7.89706 15.1029 8.3 15.6 8.3Z" stroke="black" stroke-width="2" stroke-linecap="round" stroke-linejoin="round"/>
<path d="M10.2 7.4C10.6971 7.4 11.1 6.99706 11.1 6.5C11.1 6.00294 10.6971 5.6 10.2 5.6C9.70294 5.6 9.3 6.00294 9.3 6.5C9.3 6.99706 9.70294 7.4 10.2 7.4Z" stroke="black" stroke-width="2" stroke-linecap="round" stroke-linejoin="round"/>
</svg>
