<svg width="24" height="24" viewBox="0 0 24 24" fill="none" xmlns="http://www.w3.org/2000/svg">
<path d="M18.12 7H5.88C4.87191 7 4.36786 7 3.98282 7.19619C3.64413 7.36876 3.36876 7.64413 3.19619 7.98282C3 8.36786 3 8.87191 3 9.88V13.12C3 14.1281 3 14.6321 3.19619 15.0172C3.36876 15.3559 3.64413 15.6312 3.98282 15.8038C4.36786 16 4.87191 16 5.88 16H18.12C19.1281 16 19.6321 16 20.0172 15.8038C20.3559 15.6312 20.6312 15.3559 20.8038 15.0172C21 14.6321 21 14.1281 21 13.12V9.88C21 8.87191 21 8.36786 20.8038 7.98282C20.6312 7.64413 20.3559 7.36876 20.0172 7.19619C19.6321 7 19.1281 7 18.12 7Z" fill="white" fill-opacity="0.01"/>
<path d="M12.225 11.5C12.225 11.6243 12.1243 11.725 12 11.725C11.8757 11.725 11.775 11.6243 11.775 11.5C11.775 11.3757 11.8757 11.275 12 11.275C12.1243 11.275 12.225 11.3757 12.225 11.5Z" fill="white" fill-opacity="0.01"/>
<path d="M16.725 11.5C16.725 11.6243 16.6243 11.725 16.5 11.725C16.3757 11.725 16.275 11.6243 16.275 11.5C16.275 11.3757 16.3757 11.275 16.5 11.275C16.6243 11.275 16.725 11.3757 16.725 11.5Z" fill="white" fill-opacity="0.01"/>
<path d="M7.725 11.5C7.725 11.6243 7.62426 11.725 7.5 11.725C7.37574 11.725 7.275 11.6243 7.275 11.5C7.275 11.3757 7.37574 11.275 7.5 11.275C7.62426 11.275 7.725 11.3757 7.725 11.5Z" fill="white" fill-opacity="0.01"/>
<path d="M12 11.5H12.0045M16.5 11.5H16.5045M7.5 11.5H7.5045M5.88 7H18.12C19.1281 7 19.6321 7 20.0172 7.19619C20.3559 7.36876 20.6312 7.64413 20.8038 7.98282C21 8.36786 21 8.87191 21 9.88V13.12C21 14.1281 21 14.6321 20.8038 15.0172C20.6312 15.3559 20.3559 15.6312 20.0172 15.8038C19.6321 16 19.1281 16 18.12 16H5.88C4.87191 16 4.36786 16 3.98282 15.8038C3.64413 15.6312 3.36876 15.3559 3.19619 15.0172C3 14.6321 3 14.1281 3 13.12V9.88C3 8.87191 3 8.36786 3.19619 7.98282C3.36876 7.64413 3.64413 7.36876 3.98282 7.19619C4.36786 7 4.87191 7 5.88 7ZM12.225 11.5C12.225 11.6243 12.1243 11.725 12 11.725C11.8757 11.725 11.775 11.6243 11.775 11.5C11.775 11.3757 11.8757 11.275 12 11.275C12.1243 11.275 12.225 11.3757 12.225 11.5ZM16.725 11.5C16.725 11.6243 16.6243 11.725 16.5 11.725C16.3757 11.725 16.275 11.6243 16.275 11.5C16.275 11.3757 16.3757 11.275 16.5 11.275C16.6243 11.275 16.725 11.3757 16.725 11.5ZM7.725 11.5C7.725 11.6243 7.62426 11.725 7.5 11.725C7.37574 11.725 7.275 11.6243 7.275 11.5C7.275 11.3757 7.37574 11.275 7.5 11.275C7.62426 11.275 7.725 11.3757 7.725 11.5Z" stroke="black" stroke-width="2" stroke-linecap="round" stroke-linejoin="round"/>
</svg>
