<svg viewBox="0 0 24 24" fill="none" xmlns="http://www.w3.org/2000/svg">
<path d="M21 10.4V7.88C21 6.87191 21 6.36786 20.8038 5.98282C20.6312 5.64413 20.3559 5.36876 20.0172 5.19619C19.6321 5 19.1281 5 18.12 5H5.88C4.87191 5 4.36786 5 3.98282 5.19619C3.64413 5.36876 3.36876 5.64413 3.19619 5.98282C3 6.36786 3 6.87191 3 7.88V11.12C3 12.1281 3 12.6321 3.19619 13.0172C3.36876 13.3559 3.64413 13.6312 3.98282 13.8038C4.36786 14 4.87191 14 5.88 14H11.1M12 9.5H12.0045M16.5 9.5H16.5045M7.5 9.5H7.5045M18.525 15.8V14.225C18.525 13.3552 17.8198 12.65 16.95 12.65C16.0802 12.65 15.375 13.3552 15.375 14.225V15.8M12.225 9.5C12.225 9.62426 12.1243 9.725 12 9.725C11.8757 9.725 11.775 9.62426 11.775 9.5C11.775 9.37574 11.8757 9.275 12 9.275C12.1243 9.275 12.225 9.37574 12.225 9.5ZM16.725 9.5C16.725 9.62426 16.6243 9.725 16.5 9.725C16.3757 9.725 16.275 9.62426 16.275 9.5C16.275 9.37574 16.3757 9.275 16.5 9.275C16.6243 9.275 16.725 9.37574 16.725 9.5ZM7.725 9.5C7.725 9.62426 7.62426 9.725 7.5 9.725C7.37574 9.725 7.275 9.62426 7.275 9.5C7.275 9.37574 7.37574 9.275 7.5 9.275C7.62426 9.275 7.725 9.37574 7.725 9.5ZM15.24 19.4H18.66C19.164 19.4 19.4161 19.4 19.6086 19.3019C19.7779 19.2156 19.9156 19.0779 20.0019 18.9086C20.1 18.7161 20.1 18.464 20.1 17.96V17.24C20.1 16.736 20.1 16.4839 20.0019 16.2914C19.9156 16.1221 19.7779 15.9844 19.6086 15.8981C19.4161 15.8 19.164 15.8 18.66 15.8H15.24C14.736 15.8 14.4839 15.8 14.2914 15.8981C14.1221 15.9844 13.9844 16.1221 13.8981 16.2914C13.8 16.4839 13.8 16.736 13.8 17.24V17.96C13.8 18.464 13.8 18.7161 13.8981 18.9086C13.9844 19.0779 14.1221 19.2156 14.2914 19.3019C14.4839 19.4 14.736 19.4 15.24 19.4Z" stroke="black" stroke-width="2" stroke-linecap="round" stroke-linejoin="round"/>
</svg>