<svg width="24" height="24" viewBox="0 0 24 24" fill="none" xmlns="http://www.w3.org/2000/svg">
<path d="M13.7 7.5L8.15102 9.08542C7.87661 9.16383 7.7394 9.20303 7.62605 9.27672C7.52572 9.34196 7.43941 9.42654 7.37216 9.52554C7.29619 9.63737 7.25423 9.77376 7.1703 10.0465L3.8 21M3.8 21L14.7535 17.6297C15.0262 17.5458 15.1626 17.5038 15.2745 17.4278C15.3735 17.3606 15.458 17.2743 15.5233 17.1739C15.597 17.0606 15.6362 16.9234 15.7146 16.649L17.3 11.1M3.8 21L9.7274 15.0725M4.7 8.4V3M2 5.7H7.4M19.8818 8.28177L16.5182 4.91823C16.1618 4.56182 15.9836 4.38361 15.7781 4.31684C15.5974 4.25811 15.4026 4.25811 15.2219 4.31684C15.0164 4.38361 14.8382 4.56182 14.4818 4.91823L13.8182 5.58177C13.4618 5.93818 13.2836 6.11639 13.2168 6.32188C13.1581 6.50264 13.1581 6.69736 13.2168 6.87812C13.2836 7.08361 13.4618 7.26182 13.8182 7.61823L17.1818 10.9818C17.5382 11.3382 17.7164 11.5164 17.9219 11.5832C18.1026 11.6419 18.2974 11.6419 18.4781 11.5832C18.6836 11.5164 18.8618 11.3382 19.2182 10.9818L19.8818 10.3182C20.2382 9.96182 20.4164 9.78361 20.4832 9.57811C20.5419 9.39736 20.5419 9.20264 20.4832 9.02188C20.4164 8.81639 20.2382 8.63818 19.8818 8.28177ZM11 12C11.9941 12 12.8 12.8059 12.8 13.8C12.8 14.7941 11.9941 15.6 11 15.6C10.0059 15.6 9.2 14.7941 9.2 13.8C9.2 12.8059 10.0059 12 11 12Z" stroke="black" stroke-width="2" stroke-linecap="round" stroke-linejoin="round"/>
</svg>
