<svg width="24" height="24" viewBox="0 0 24 24" fill="none" xmlns="http://www.w3.org/2000/svg">
<path d="M17.4 2L21 5.6M3 20L4.14876 15.7879C4.22371 15.5131 4.26118 15.3757 4.31871 15.2475C4.36979 15.1338 4.43255 15.0256 4.50598 14.9248C4.58869 14.8113 4.6894 14.7106 4.89081 14.5092L14.1909 5.20912C14.3691 5.03091 14.4582 4.94181 14.5609 4.90842C14.6513 4.87905 14.7487 4.87905 14.8391 4.90842C14.9418 4.94181 15.0309 5.03091 15.2091 5.20912L17.7909 7.79088C17.9691 7.96909 18.0582 8.05819 18.0916 8.16094C18.1209 8.25132 18.1209 8.34868 18.0916 8.43906C18.0582 8.54181 17.9691 8.63091 17.7909 8.80912L8.49081 18.1092C8.2894 18.3106 8.18869 18.4113 8.07517 18.494C7.97438 18.5675 7.86623 18.6302 7.75246 18.6813C7.62433 18.7388 7.48693 18.7763 7.21212 18.8512L3 20Z" stroke="black" stroke-width="2" stroke-linecap="round" stroke-linejoin="round"/>
</svg>
