<svg width="24" height="24" viewBox="0 0 24 24" fill="none" xmlns="http://www.w3.org/2000/svg">
<path d="M2.5 18.1714L7.09366 16.4046C7.38748 16.2916 7.53439 16.2351 7.67183 16.1613C7.79392 16.0958 7.9103 16.0201 8.01977 15.9352C8.14302 15.8395 8.25431 15.7282 8.47691 15.5056L17.8142 6.16834C18.7286 5.25398 18.7286 3.77151 17.8142 2.85715C16.8999 1.9428 15.4174 1.9428 14.5031 2.85715L5.16573 12.1945C4.94314 12.4171 4.83184 12.5284 4.7362 12.6516C4.65125 12.7611 4.57562 12.8775 4.51008 12.9995C4.4363 13.137 4.3798 13.2839 4.26679 13.5777L2.5 18.1714ZM2.5 18.1714L4.2037 13.7418C4.32562 13.4248 4.38657 13.2663 4.49113 13.1937C4.5825 13.1303 4.69556 13.1063 4.80483 13.1272C4.92985 13.151 5.04993 13.2711 5.29007 13.5113L7.16013 15.3813C7.40028 15.6215 7.52035 15.7415 7.54422 15.8666C7.56509 15.9758 7.5411 16.0889 7.47765 16.1803C7.40506 16.2848 7.24657 16.3458 6.92959 16.4677L2.5 18.1714Z" stroke="black" stroke-width="2" stroke-linecap="round" stroke-linejoin="round"/>
</svg>
