<svg width="24" height="24" viewBox="0 0 24 24" fill="none" xmlns="http://www.w3.org/2000/svg">
<path d="M9.3 9.3H9.309M14.7 14.7H14.709M15.6 8.4L8.4 15.6M9.75 9.3C9.75 9.54853 9.54853 9.75 9.3 9.75C9.05147 9.75 8.85 9.54853 8.85 9.3C8.85 9.05147 9.05147 8.85 9.3 8.85C9.54853 8.85 9.75 9.05147 9.75 9.3ZM15.15 14.7C15.15 14.9485 14.9485 15.15 14.7 15.15C14.4515 15.15 14.25 14.9485 14.25 14.7C14.25 14.4515 14.4515 14.25 14.7 14.25C14.9485 14.25 15.15 14.4515 15.15 14.7ZM21 12C21 16.9706 16.9706 21 12 21C7.02944 21 3 16.9706 3 12C3 7.02944 7.02944 3 12 3C16.9706 3 21 7.02944 21 12Z" stroke="black" stroke-width="2" stroke-linecap="round" stroke-linejoin="round"/>
</svg>
