<svg width="24" height="24" viewBox="0 0 24 24" fill="none" xmlns="http://www.w3.org/2000/svg">
<path d="M15.8785 16.2582C14.6647 15.8318 13.3594 15.6 12 15.6C10.6406 15.6 9.33529 15.8318 8.12155 16.2582C8.08119 16.2723 8.06101 16.2794 8.02918 16.2934C7.74066 16.4206 7.5191 16.7332 7.49477 17.0476C7.49208 17.0823 7.49208 17.113 7.49208 17.1744C7.49208 17.3839 7.49208 17.4887 7.48337 17.5769C7.39902 18.4311 6.7232 19.1069 5.86896 19.1913C5.78073 19.2 5.67599 19.2 5.46651 19.2H5.24604C4.83154 19.2 4.62429 19.2 4.45189 19.166C3.73538 19.0248 3.17522 18.4646 3.03398 17.7481C3 17.5757 3 17.3685 3 16.954V16.7756C3 16.3479 3 16.134 3.04567 15.8889C3.14779 15.3407 3.54607 14.6624 3.97506 14.3062C4.16689 14.1469 4.29699 14.0743 4.55718 13.9292C6.76017 12.7003 9.29831 12 12 12C14.7017 12 17.2398 12.7003 19.4428 13.9292C19.703 14.0743 19.8331 14.1469 20.0249 14.3062C20.4539 14.6624 20.8522 15.3407 20.9543 15.8889C21 16.134 21 16.3479 21 16.7756V16.954C21 17.3685 21 17.5757 20.966 17.7481C20.8248 18.4646 20.2646 19.0248 19.5481 19.166C19.3757 19.2 19.1685 19.2 18.754 19.2H18.5335C18.324 19.2 18.2193 19.2 18.131 19.1913C17.2768 19.1069 16.601 18.4311 16.5166 17.5769C16.5079 17.4887 16.5079 17.3839 16.5079 17.1744C16.5079 17.113 16.5079 17.0823 16.5052 17.0476C16.4809 16.7332 16.2593 16.4206 15.9708 16.2934C15.939 16.2794 15.9188 16.2723 15.8785 16.2582Z" fill="white" fill-opacity="0.01"/>
<path d="M5.57278 5.7C7.20621 4.03377 9.48241 3 12.0001 3C14.5177 3 16.7939 4.03377 18.4274 5.7M16.025 8.4C15.0363 7.29525 13.5993 6.6 12 6.6C10.4007 6.6 8.96383 7.29525 7.97505 8.4M12 15.6C13.3594 15.6 14.6647 15.8318 15.8785 16.2582C15.9188 16.2723 15.939 16.2794 15.9708 16.2934C16.2593 16.4206 16.4809 16.7332 16.5052 17.0476C16.5079 17.0823 16.5079 17.113 16.5079 17.1744C16.5079 17.3839 16.5079 17.4887 16.5166 17.5769C16.601 18.4311 17.2768 19.1069 18.131 19.1913C18.2193 19.2 18.324 19.2 18.5335 19.2H18.754C19.1685 19.2 19.3757 19.2 19.5481 19.166C20.2646 19.0248 20.8248 18.4646 20.966 17.7481C21 17.5757 21 17.3685 21 16.954V16.7756C21 16.3479 21 16.134 20.9543 15.8889C20.8522 15.3407 20.4539 14.6624 20.0249 14.3062C19.8331 14.1469 19.703 14.0743 19.4428 13.9292C17.2398 12.7003 14.7017 12 12 12C9.29831 12 6.76017 12.7003 4.55718 13.9292C4.29699 14.0743 4.16689 14.1469 3.97506 14.3062C3.54607 14.6624 3.14779 15.3407 3.04567 15.8889C3 16.134 3 16.3479 3 16.7756V16.954C3 17.3685 3 17.5757 3.03398 17.7481C3.17522 18.4646 3.73538 19.0248 4.45189 19.166C4.62429 19.2 4.83154 19.2 5.24604 19.2H5.46651C5.67599 19.2 5.78073 19.2 5.86896 19.1913C6.7232 19.1069 7.39902 18.4311 7.48337 17.5769C7.49208 17.4887 7.49208 17.3839 7.49208 17.1744C7.49208 17.113 7.49208 17.0823 7.49477 17.0476C7.5191 16.7332 7.74066 16.4206 8.02918 16.2934C8.06101 16.2794 8.08119 16.2723 8.12155 16.2582C9.33529 15.8318 10.6406 15.6 12 15.6Z" stroke="black" stroke-width="2" stroke-linecap="round" stroke-linejoin="round"/>
</svg>
