<svg width="24" height="24" viewBox="0 0 24 24" fill="none" xmlns="http://www.w3.org/2000/svg">
<path d="M5 5.88C5 4.87191 5 4.36786 5.19619 3.98282C5.36876 3.64413 5.64413 3.36876 5.98282 3.19619C6.36786 3 6.87191 3 7.88 3H14.72C15.7281 3 16.2321 3 16.6172 3.19619C16.9559 3.36876 17.2312 3.64413 17.4038 3.98282C17.6 4.36786 17.6 4.87191 17.6 5.88V18.12C17.6 19.1281 17.6 19.6321 17.4038 20.0172C17.2312 20.3559 16.9559 20.6312 16.6172 20.8038C16.2321 21 15.7281 21 14.72 21H7.88C6.87191 21 6.36786 21 5.98282 20.8038C5.64413 20.6312 5.36876 20.3559 5.19619 20.0172C5 19.6321 5 19.1281 5 18.12V5.88Z" fill="white" fill-opacity="0.01"/>
<path d="M11.75 16.95C11.75 17.1985 11.5485 17.4 11.3 17.4C11.0515 17.4 10.85 17.1985 10.85 16.95C10.85 16.7015 11.0515 16.5 11.3 16.5C11.5485 16.5 11.75 16.7015 11.75 16.95Z" fill="white" fill-opacity="0.01"/>
<path d="M11.3 16.95H11.309M7.88 21H14.72C15.7281 21 16.2321 21 16.6172 20.8038C16.9559 20.6312 17.2312 20.3559 17.4038 20.0172C17.6 19.6321 17.6 19.1281 17.6 18.12V5.88C17.6 4.87191 17.6 4.36786 17.4038 3.98282C17.2312 3.64413 16.9559 3.36876 16.6172 3.19619C16.2321 3 15.7281 3 14.72 3H7.88C6.87191 3 6.36786 3 5.98282 3.19619C5.64413 3.36876 5.36876 3.64413 5.19619 3.98282C5 4.36786 5 4.87191 5 5.88V18.12C5 19.1281 5 19.6321 5.19619 20.0172C5.36876 20.3559 5.64413 20.6312 5.98282 20.8038C6.36786 21 6.87191 21 7.88 21ZM11.75 16.95C11.75 17.1985 11.5485 17.4 11.3 17.4C11.0515 17.4 10.85 17.1985 10.85 16.95C10.85 16.7015 11.0515 16.5 11.3 16.5C11.5485 16.5 11.75 16.7015 11.75 16.95Z" stroke="black" stroke-width="2" stroke-linecap="round" stroke-linejoin="round"/>
</svg>
