<svg width="24" height="24" viewBox="0 0 24 24" fill="none" xmlns="http://www.w3.org/2000/svg">
<path d="M14 3V4.26C14 4.76405 14 5.01607 13.9019 5.20859C13.8156 5.37794 13.6779 5.51562 13.5086 5.60191C13.3161 5.7 13.064 5.7 12.56 5.7H10.04C9.53595 5.7 9.28393 5.7 9.09141 5.60191C8.92206 5.51562 8.78438 5.37794 8.69809 5.20859C8.6 5.01607 8.6 4.76405 8.6 4.26V3M7.88 21H14.72C15.7281 21 16.2321 21 16.6172 20.8038C16.9559 20.6312 17.2312 20.3559 17.4038 20.0172C17.6 19.6321 17.6 19.1281 17.6 18.12V5.88C17.6 4.87191 17.6 4.36786 17.4038 3.98282C17.2312 3.64413 16.9559 3.36876 16.6172 3.19619C16.2321 3 15.7281 3 14.72 3H7.88C6.87191 3 6.36786 3 5.98282 3.19619C5.64413 3.36876 5.36876 3.64413 5.19619 3.98282C5 4.36786 5 4.87191 5 5.88V18.12C5 19.1281 5 19.6321 5.19619 20.0172C5.36876 20.3559 5.64413 20.6312 5.98282 20.8038C6.36786 21 6.87191 21 7.88 21Z" stroke="black" stroke-width="2" stroke-linecap="round" stroke-linejoin="round"/>
</svg>
