<svg width="24" height="24" viewBox="0 0 24 24" fill="none" xmlns="http://www.w3.org/2000/svg">
<path d="M12 2C13.1819 2 14.3522 2.23279 15.4442 2.68508C16.5361 3.13738 17.5282 3.80031 18.364 4.63604C19.1997 5.47177 19.8626 6.46392 20.3149 7.55585C20.7672 8.64778 21 9.81811 21 11L12 11V2Z" fill="white" fill-opacity="0.01"/>
<path d="M21 11C21 12.4203 20.6639 13.8204 20.0191 15.0859C19.3743 16.3514 18.4391 17.4463 17.2901 18.2812L12 11L21 11Z" fill="white" fill-opacity="0.01"/>
<path d="M21 11C21 15.9706 16.9706 20 12 20C7.02944 20 3 15.9706 3 11C3 6.02944 7.02944 2 12 2C16.9706 2 21 6.02944 21 11Z" fill="white" fill-opacity="0.01"/>
<path d="M12 2C13.1819 2 14.3522 2.23279 15.4442 2.68508C16.5361 3.13738 17.5282 3.80031 18.364 4.63604C19.1997 5.47177 19.8626 6.46392 20.3149 7.55585C20.7672 8.64778 21 9.81811 21 11M12 2V11M12 2C7.02944 2 3 6.02944 3 11C3 15.9706 7.02944 20 12 20C16.9706 20 21 15.9706 21 11M12 2C16.9706 2 21 6.02944 21 11M21 11L12 11M21 11C21 12.4203 20.6639 13.8204 20.0191 15.0859C19.3743 16.3514 18.4391 17.4463 17.2901 18.2812L12 11" stroke="black" stroke-width="2" stroke-linecap="round" stroke-linejoin="round"/>
</svg>
