<svg width="24" height="24" viewBox="0 0 24 24" fill="none" xmlns="http://www.w3.org/2000/svg">
<path d="M11 12L2.2986 9.70099C1.73877 11.8199 1.97132 14.0702 2.95262 16.0298C3.93393 17.9895 5.59655 19.5237 7.62855 20.3447L11 12ZM11 12L11.0943 3.00049C9.09702 2.97958 7.14957 3.62364 5.55862 4.83123C3.96767 6.03883 2.82363 7.74134 2.30668 9.67063L11 12ZM20 12C20 16.9706 15.9706 21 11 21C6.02945 21 2.00001 16.9706 2.00001 12C2.00001 7.02944 6.02945 3 11 3C15.9706 3 20 7.02944 20 12Z" stroke="black" stroke-width="2" stroke-linecap="round" stroke-linejoin="round"/>
</svg>
