<svg viewBox="0 0 24 24" fill="none" xmlns="http://www.w3.org/2000/svg">
<path d="M5.69994 12C5.69994 9.01766 8.1176 6.6 11.0999 6.6M5.69994 12C5.69994 13.4835 6.29819 14.8274 7.26661 15.8034C7.36 15.8975 7.4067 15.9446 7.43427 15.9898C7.46057 16.033 7.47588 16.0702 7.48763 16.1194C7.49994 16.1709 7.49994 16.2295 7.49994 16.3468V18.48C7.49994 18.732 7.49994 18.858 7.54898 18.9543C7.59213 19.039 7.66097 19.1078 7.74564 19.151C7.8419 19.2 7.96791 19.2 8.21994 19.2H9.92994C10.182 19.2 10.308 19.2 10.4042 19.151C10.4889 19.1078 10.5577 19.039 10.6009 18.9543C10.6499 18.858 10.6499 18.732 10.6499 18.48V18.12C10.6499 17.868 10.6499 17.742 10.699 17.6457C10.7421 17.561 10.811 17.4922 10.8956 17.449C10.9919 17.4 11.1179 17.4 11.3699 17.4H12.6299C12.882 17.4 13.008 17.4 13.1042 17.449C13.1889 17.4922 13.2577 17.561 13.3009 17.6457C13.3499 17.742 13.3499 17.868 13.3499 18.12V18.48C13.3499 18.732 13.3499 18.858 13.399 18.9543C13.4421 19.039 13.511 19.1078 13.5956 19.151C13.6919 19.2 13.8179 19.2 14.0699 19.2H15.78C16.032 19.2 16.158 19.2 16.2543 19.151C16.339 19.1078 16.4078 19.039 16.451 18.9543C16.5 18.858 16.5 18.732 16.5 18.48V17.6019C16.5 17.42 16.5 17.3291 16.5259 17.2561C16.5507 17.1862 16.582 17.1372 16.635 17.0852C16.6903 17.031 16.7839 16.9875 16.9713 16.9005C17.8553 16.4901 18.6096 15.8476 19.156 15.0511C19.2521 14.9111 19.3001 14.8411 19.3514 14.7997C19.4005 14.7602 19.4445 14.737 19.5049 14.7189C19.568 14.7 19.643 14.7 19.7929 14.7H20.28C20.532 14.7 20.658 14.7 20.7543 14.651C20.839 14.6078 20.9078 14.539 20.951 14.4543C21 14.358 21 14.232 21 13.98V10.9072C21 10.6672 21 10.5473 20.9554 10.4547C20.9112 10.3629 20.8371 10.2888 20.7453 10.2446C20.6527 10.2 20.5328 10.2 20.2928 10.2C20.1192 10.2 20.0323 10.2 19.9624 10.1764C19.887 10.151 19.8341 10.1172 19.7794 10.0594C19.7286 10.0058 19.6872 9.91618 19.6043 9.73693C19.3384 9.1616 18.9742 8.641 18.5333 8.19663C18.4399 8.10251 18.3932 8.05545 18.3657 8.01019C18.3394 7.967 18.3241 7.92983 18.3123 7.88065C18.3 7.8291 18.3 7.77046 18.3 7.65316V6.65452C18.3 6.33048 18.3 6.16846 18.2325 6.05956C18.1734 5.96416 18.0808 5.89429 17.9728 5.86366C17.8496 5.82869 17.6938 5.8732 17.3822 5.96222L15.2469 6.5723C15.2106 6.58267 15.1925 6.58785 15.174 6.59149C15.1576 6.59472 15.1411 6.59704 15.1244 6.59843C15.1057 6.6 15.0867 6.6 15.0487 6.6H11.0999M5.69994 12H4.8C3.80589 12 3 11.1941 3 10.2C3 9.53375 3.36198 8.95204 3.9 8.64081M11.0999 6.6H14.6681C14.6891 6.45303 14.7 6.30278 14.7 6.15C14.7 4.4103 13.2897 3 11.55 3C9.8103 3 8.4 4.4103 8.4 6.15C8.4 6.52548 8.4657 6.88562 8.58622 7.21955C9.33703 6.82393 10.1923 6.6 11.0999 6.6Z" stroke="black" stroke-width="2" stroke-linecap="round" stroke-linejoin="round"/>
</svg>