<svg width="24" height="24" viewBox="0 0 24 24" fill="none" xmlns="http://www.w3.org/2000/svg">
<path d="M6.69841 4.9748C6.43378 4.31322 6.30147 3.98243 6.35665 3.71689C6.4049 3.48468 6.54287 3.2809 6.74055 3.14985C6.96661 3 7.32288 3 8.03542 3H14.5816C15.2941 3 15.6504 3 15.8764 3.14985C16.0741 3.2809 16.2121 3.48468 16.2603 3.71689C16.3155 3.98243 16.1832 4.31322 15.9186 4.9748L15.0115 7.24252C14.973 7.33872 14.9538 7.38682 14.9402 7.43643C14.9282 7.4805 14.9196 7.52542 14.9144 7.57081C14.9085 7.6219 14.9085 7.67371 14.9085 7.77732V9.69488C14.9085 9.88209 14.9085 9.9757 14.9269 10.0652C14.9432 10.1447 14.9701 10.2215 15.007 10.2938C15.0486 10.3751 15.1071 10.4482 15.224 10.5944L16.6368 12.3604C17.236 13.1094 17.5356 13.4839 17.5359 13.799C17.5362 14.0731 17.4116 14.3324 17.1974 14.5034C16.9511 14.7 16.4715 14.7 15.5124 14.7H7.10459C6.14546 14.7 5.6659 14.7 5.41959 14.5034C5.20538 14.3324 5.08076 14.0731 5.08106 13.799C5.0814 13.4839 5.38098 13.1094 5.98014 12.3604L7.39294 10.5944C7.5099 10.4482 7.56837 10.3751 7.60996 10.2938C7.64685 10.2215 7.67381 10.1447 7.69012 10.0652C7.70849 9.9757 7.70849 9.88209 7.70849 9.69488V7.77732C7.70849 7.67371 7.70849 7.6219 7.70264 7.57081C7.69743 7.52542 7.68878 7.4805 7.67676 7.43643C7.66322 7.38682 7.64398 7.33872 7.6055 7.24252L6.69841 4.9748Z" fill="white" fill-opacity="0.01"/>
<path d="M11.3085 14.7L11.3085 21M7.70849 7.77732V9.69488C7.70849 9.88209 7.70849 9.9757 7.69012 10.0652C7.67381 10.1447 7.64685 10.2215 7.60996 10.2938C7.56837 10.3751 7.5099 10.4482 7.39294 10.5944L5.98014 12.3604C5.38098 13.1094 5.0814 13.4839 5.08106 13.799C5.08076 14.0731 5.20538 14.3324 5.41959 14.5034C5.6659 14.7 6.14546 14.7 7.10459 14.7H15.5124C16.4715 14.7 16.9511 14.7 17.1974 14.5034C17.4116 14.3324 17.5362 14.0731 17.5359 13.799C17.5356 13.4839 17.236 13.1094 16.6368 12.3604L15.224 10.5944C15.1071 10.4482 15.0486 10.3751 15.007 10.2938C14.9701 10.2215 14.9432 10.1447 14.9269 10.0652C14.9085 9.9757 14.9085 9.88209 14.9085 9.69488V7.77732C14.9085 7.67371 14.9085 7.6219 14.9144 7.57081C14.9196 7.52542 14.9282 7.4805 14.9402 7.43643C14.9538 7.38682 14.973 7.33872 15.0115 7.24252L15.9186 4.9748C16.1832 4.31322 16.3155 3.98243 16.2603 3.71689C16.2121 3.48468 16.0741 3.2809 15.8764 3.14985C15.6504 3 15.2941 3 14.5816 3H8.03542C7.32288 3 6.96661 3 6.74055 3.14985C6.54287 3.2809 6.4049 3.48468 6.35665 3.71689C6.30147 3.98243 6.43378 4.31322 6.69841 4.9748L7.6055 7.24252C7.64398 7.33872 7.66322 7.38682 7.67676 7.43643C7.68878 7.4805 7.69743 7.52542 7.70263 7.57081C7.70849 7.6219 7.70849 7.67371 7.70849 7.77732Z" stroke="black" stroke-width="2" stroke-linecap="round" stroke-linejoin="round"/>
</svg>
