<svg width="24" height="24" viewBox="0 0 24 24" fill="none" xmlns="http://www.w3.org/2000/svg">
<path d="M12 20C16.9706 20 21 15.9706 21 11C21 6.02944 16.9706 2 12 2C7.02944 2 3 6.02944 3 11C3 15.9706 7.02944 20 12 20Z" stroke="black" stroke-width="2" stroke-linecap="round" stroke-linejoin="round"/>
<path d="M9.75 8.2688C9.75 7.83924 9.75 7.62446 9.83977 7.50456C9.918 7.40007 10.0377 7.33469 10.1679 7.32539C10.3173 7.31472 10.498 7.43086 10.8593 7.66315L15.1079 10.3944C15.4214 10.5959 15.5782 10.6967 15.6323 10.8249C15.6797 10.9368 15.6797 11.0632 15.6323 11.1751C15.5782 11.3033 15.4214 11.4041 15.1079 11.6056L10.8593 14.3368C10.498 14.5691 10.3173 14.6853 10.1679 14.6746C10.0377 14.6653 9.918 14.5999 9.83977 14.4954C9.75 14.3755 9.75 14.1608 9.75 13.7312V8.2688Z" stroke="black" stroke-width="2" stroke-linecap="round" stroke-linejoin="round"/>
</svg>
