<svg viewBox="0 0 24 24" fill="none" xmlns="http://www.w3.org/2000/svg">
<path d="M15.707 17.4C17.8161 15.9736 19.2 13.6001 19.2 10.9065C19.2 6.53997 15.5734 3 11.1 3C6.62662 3 3 6.53997 3 10.9065C3 13.6001 4.38394 15.9736 6.49302 17.4M7.8237 13.8C7.06687 13.035 6.6 12.0078 6.6 10.8755C6.6 8.5144 8.61493 6.6 11.1 6.6C13.5851 6.6 15.6 8.5144 15.6 10.8755C15.6 12.0086 15.1331 13.035 14.3763 13.8M11.1 21C10.1059 21 9.3 20.1941 9.3 19.2V17.4C9.3 16.4059 10.1059 15.6 11.1 15.6C12.0941 15.6 12.9 16.4059 12.9 17.4V19.2C12.9 20.1941 12.0941 21 11.1 21ZM12 11.1C12 11.5971 11.5971 12 11.1 12C10.6029 12 10.2 11.5971 10.2 11.1C10.2 10.6029 10.6029 10.2 11.1 10.2C11.5971 10.2 12 10.6029 12 11.1Z" stroke="black" stroke-width="2" stroke-linecap="round" stroke-linejoin="round"/>
</svg>