<svg viewBox="0 0 24 24" fill="none" xmlns="http://www.w3.org/2000/svg">
<path d="M12 14.7V19.2M17.4 19.2L13.8437 16.2364C13.1878 15.6899 12.8599 15.4166 12.4938 15.3121C12.171 15.2201 11.829 15.2201 11.5062 15.3121C11.1401 15.4166 10.8122 15.6899 10.1563 16.2364L6.6 19.2M8.4 10.2V11.1M12 8.4V11.1M15.6 6.6V11.1M21 3H3M3.9 3H20.1V10.38C20.1 11.8921 20.1 12.6482 19.8057 13.2258C19.5469 13.7338 19.1338 14.1469 18.6258 14.4057C18.0482 14.7 17.2921 14.7 15.78 14.7H8.22C6.70786 14.7 5.95179 14.7 5.37423 14.4057C4.86619 14.1469 4.45314 13.7338 4.19428 13.2258C3.9 12.6482 3.9 11.8921 3.9 10.38V3Z" stroke="black" stroke-width="2" stroke-linecap="round" stroke-linejoin="round"/>
</svg>