<svg viewBox="0 0 24 24" fill="none" xmlns="http://www.w3.org/2000/svg">
<path d="M17.4 6.5V4.88C17.4 3.87191 17.4 3.36786 17.2038 2.98282C17.0312 2.64413 16.7559 2.36876 16.4172 2.19619C16.0321 2 15.5281 2 14.52 2H9.48C8.47191 2 7.96786 2 7.58282 2.19619C7.24413 2.36876 6.96876 2.64413 6.79619 2.98282C6.6 3.36786 6.6 3.87191 6.6 4.88V6.5M6.6 16.4C5.76303 16.4 5.34454 16.4 5.00119 16.308C4.06944 16.0583 3.34166 15.3306 3.092 14.3988C3 14.0555 3 13.637 3 12.8V10.82C3 9.30786 3 8.55179 3.29428 7.97423C3.55314 7.46619 3.96619 7.05314 4.47423 6.79428C5.05179 6.5 5.80786 6.5 7.32 6.5H16.68C18.1921 6.5 18.9482 6.5 19.5258 6.79428C20.0338 7.05314 20.4469 7.46619 20.7057 7.97423C21 8.55179 21 9.30786 21 10.82V12.8C21 13.637 21 14.0555 20.908 14.3988C20.6583 15.3306 19.9306 16.0583 18.9988 16.308C18.6555 16.4 18.237 16.4 17.4 16.4M14.7 9.65H17.4M9.48 20H14.52C15.5281 20 16.0321 20 16.4172 19.8038C16.7559 19.6312 17.0312 19.3559 17.2038 19.0172C17.4 18.6321 17.4 18.1281 17.4 17.12V15.68C17.4 14.6719 17.4 14.1679 17.2038 13.7828C17.0312 13.4441 16.7559 13.1688 16.4172 12.9962C16.0321 12.8 15.5281 12.8 14.52 12.8H9.48C8.47191 12.8 7.96786 12.8 7.58282 12.9962C7.24413 13.1688 6.96876 13.4441 6.79619 13.7828C6.6 14.1679 6.6 14.6719 6.6 15.68V17.12C6.6 18.1281 6.6 18.6321 6.79619 19.0172C6.96876 19.3559 7.24413 19.6312 7.58282 19.8038C7.96786 20 8.47191 20 9.48 20Z" stroke="black" stroke-width="2" stroke-linecap="round" stroke-linejoin="round"/>
</svg>