<svg width="24" height="24" viewBox="0 0 24 24" fill="none" xmlns="http://www.w3.org/2000/svg">
<path d="M12 20C16.9706 20 21 15.9706 21 11C21 6.02944 16.9706 2 12 2C7.02944 2 3 6.02944 3 11C3 15.9706 7.02944 20 12 20Z" fill="white" fill-opacity="0.01"/>
<path d="M6.6 10.1V11.9V10.1Z" fill="white" fill-opacity="0.01"/>
<path d="M10.2 8.3V13.7V8.3Z" fill="white" fill-opacity="0.01"/>
<path d="M13.8 6.5V15.5V6.5Z" fill="white" fill-opacity="0.01"/>
<path d="M17.4 10.1V11.9V10.1Z" fill="white" fill-opacity="0.01"/>
<path d="M6.6 10.1V11.9M10.2 8.3V13.7M13.8 6.5V15.5M17.4 10.1V11.9M21 11C21 15.9706 16.9706 20 12 20C7.02944 20 3 15.9706 3 11C3 6.02944 7.02944 2 12 2C16.9706 2 21 6.02944 21 11Z" stroke="black" stroke-width="2" stroke-linecap="round" stroke-linejoin="round"/>
</svg>
