<svg width="24" height="24" viewBox="0 0 24 24" fill="none" xmlns="http://www.w3.org/2000/svg">
<path d="M3 14.1378C3 14.6074 3 14.8422 3.09671 14.9648C3.18084 15.0715 3.30866 15.1344 3.44449 15.1361C3.60061 15.138 3.78674 14.9948 4.15899 14.7085L8.1081 11.6707C8.36055 11.4765 8.48677 11.3794 8.53213 11.2611C8.57188 11.1574 8.57188 11.0426 8.53213 10.9389C8.48677 10.8206 8.36055 10.7235 8.1081 10.5293L4.15899 7.49153C3.78674 7.20518 3.60061 7.06201 3.44449 7.06392C3.30866 7.06559 3.18084 7.12852 3.09671 7.23517C3 7.35775 3 7.59258 3 8.06222V14.1378Z" fill="white" fill-opacity="0.01"/>
<path d="M21 14.1378C21 14.6074 21 14.8422 20.9033 14.9648C20.8192 15.0715 20.6913 15.1344 20.5555 15.1361C20.3994 15.138 20.2133 14.9948 19.841 14.7085L15.8919 11.6707C15.6395 11.4765 15.5132 11.3794 15.4679 11.2611C15.4281 11.1574 15.4281 11.0426 15.4679 10.9389C15.5132 10.8206 15.6395 10.7235 15.8919 10.5293L19.841 7.49153C20.2133 7.20518 20.3994 7.06201 20.5555 7.06392C20.6913 7.06559 20.8192 7.12852 20.9033 7.23517C21 7.35775 21 7.59258 21 8.06222V14.1378Z" fill="white" fill-opacity="0.01"/>
<path d="M12 3V5.7M12 9.75V12.45M12 16.5V19.2M4.15899 7.49153L8.1081 10.5293C8.36055 10.7235 8.48677 10.8206 8.53213 10.9389C8.57188 11.0426 8.57188 11.1574 8.53213 11.2611C8.48677 11.3794 8.36055 11.4765 8.1081 11.6707L4.15899 14.7085C3.78674 14.9948 3.60061 15.138 3.44449 15.1361C3.30866 15.1344 3.18084 15.0715 3.09671 14.9648C3 14.8422 3 14.6074 3 14.1378V8.06222C3 7.59258 3 7.35775 3.09671 7.23517C3.18084 7.12852 3.30866 7.06559 3.44449 7.06392C3.60061 7.06201 3.78674 7.20518 4.15899 7.49153ZM19.841 7.49153L15.8919 10.5293C15.6395 10.7235 15.5132 10.8206 15.4679 10.9389C15.4281 11.0426 15.4281 11.1574 15.4679 11.2611C15.5132 11.3794 15.6395 11.4765 15.8919 11.6707L19.841 14.7085C20.2133 14.9948 20.3994 15.138 20.5555 15.1361C20.6913 15.1344 20.8192 15.0715 20.9033 14.9648C21 14.8422 21 14.6074 21 14.1378V8.06222C21 7.59258 21 7.35775 20.9033 7.23517C20.8192 7.12852 20.6913 7.06559 20.5555 7.06392C20.3994 7.06201 20.2133 7.20518 19.841 7.49153Z" stroke="black" stroke-width="2" stroke-linecap="round" stroke-linejoin="round"/>
</svg>
