<svg width="24" height="24" viewBox="0 0 24 24" fill="none" xmlns="http://www.w3.org/2000/svg">
<path d="M17.4 5.25C17.4 5.66819 17.4 5.87728 17.3654 6.05116C17.2234 6.76521 16.6652 7.32338 15.9512 7.46541C15.7773 7.5 15.5682 7.5 15.15 7.5H5.25C4.83181 7.5 4.62272 7.5 4.44884 7.46541C3.73479 7.32338 3.17662 6.76521 3.03459 6.05116C3 5.87728 3 5.66819 3 5.25C3 4.83181 3 4.62272 3.03459 4.44884C3.17662 3.73479 3.73479 3.17662 4.44884 3.03459C4.62272 3 4.83181 3 5.25 3H15.15C15.5682 3 15.7773 3 15.9512 3.03459C16.6652 3.17662 17.2234 3.73479 17.3654 4.44884C17.4 4.62272 17.4 4.83181 17.4 5.25ZM17.4 5.25C18.2387 5.25 18.658 5.25 18.9888 5.38702C19.4299 5.56971 19.7803 5.92012 19.963 6.36117C20.1 6.69196 20.1 7.11131 20.1 7.95V8.22C20.1 9.22809 20.1 9.73214 19.9038 10.1172C19.7312 10.4559 19.4559 10.7312 19.1172 10.9038C18.7321 11.1 18.2281 11.1 17.22 11.1H13.98C12.9719 11.1 12.4679 11.1 12.0828 11.2962C11.7441 11.4688 11.4688 11.7441 11.2962 12.0828C11.1 12.4679 11.1 12.9719 11.1 13.98V14.7M10.74 21H11.46C11.964 21 12.2161 21 12.4086 20.9019C12.5779 20.8156 12.7156 20.6779 12.8019 20.5086C12.9 20.3161 12.9 20.064 12.9 19.56V16.14C12.9 15.636 12.9 15.3839 12.8019 15.1914C12.7156 15.0221 12.5779 14.8844 12.4086 14.7981C12.2161 14.7 11.964 14.7 11.46 14.7H10.74C10.236 14.7 9.98393 14.7 9.79141 14.7981C9.62206 14.8844 9.48438 15.0221 9.39809 15.1914C9.3 15.3839 9.3 15.636 9.3 16.14V19.56C9.3 20.064 9.3 20.3161 9.39809 20.5086C9.48438 20.6779 9.62206 20.8156 9.79141 20.9019C9.98393 21 10.236 21 10.74 21Z" stroke="black" stroke-width="2" stroke-linecap="round" stroke-linejoin="round"/>
</svg>
