<svg viewBox="0 0 24 24" fill="none" xmlns="http://www.w3.org/2000/svg">
<path d="M11.55 4.7H11.941C14.6835 4.7 16.0547 4.7 16.5753 5.19256C17.0252 5.61833 17.2246 6.24555 17.1031 6.85299C16.9626 7.55571 15.8431 8.34757 13.6041 9.93128L9.94595 12.5187C7.70691 14.1024 6.58739 14.8943 6.44685 15.597C6.32537 16.2044 6.52477 16.8317 6.97473 17.2574C7.49526 17.75 8.86652 17.75 11.609 17.75H12.45M8.4 4.7C8.4 6.19117 7.19117 7.4 5.7 7.4C4.20883 7.4 3 6.19117 3 4.7C3 3.20883 4.20883 2 5.7 2C7.19117 2 8.4 3.20883 8.4 4.7ZM21 17.3C21 18.7912 19.7912 20 18.3 20C16.8088 20 15.6 18.7912 15.6 17.3C15.6 15.8088 16.8088 14.6 18.3 14.6C19.7912 14.6 21 15.8088 21 17.3Z" stroke="black" stroke-width="2" stroke-linecap="round" stroke-linejoin="round"/>
</svg>