<svg width="24" height="24" viewBox="0 0 24 24" fill="none" xmlns="http://www.w3.org/2000/svg">
<path d="M12 20C16.9706 20 21 15.9706 21 11C21 6.02944 16.9706 2 12 2C7.02944 2 3 6.02944 3 11C3 15.9706 7.02944 20 12 20Z" fill="white" fill-opacity="0.01"/>
<path d="M9.75 8.3C9.75 8.54853 9.54853 8.75 9.3 8.75C9.05147 8.75 8.85 8.54853 8.85 8.3C8.85 8.05147 9.05147 7.85 9.3 7.85C9.54853 7.85 9.75 8.05147 9.75 8.3Z" fill="white" fill-opacity="0.01"/>
<path d="M15.15 13.7C15.15 13.9485 14.9485 14.15 14.7 14.15C14.4515 14.15 14.25 13.9485 14.25 13.7C14.25 13.4515 14.4515 13.25 14.7 13.25C14.9485 13.25 15.15 13.4515 15.15 13.7Z" fill="white" fill-opacity="0.01"/>
<path d="M9.3 8.3H9.309M14.7 13.7H14.709M15.6 7.4L8.4 14.6M21 11C21 15.9706 16.9706 20 12 20C7.02944 20 3 15.9706 3 11C3 6.02944 7.02944 2 12 2C16.9706 2 21 6.02944 21 11ZM9.75 8.3C9.75 8.54853 9.54853 8.75 9.3 8.75C9.05147 8.75 8.85 8.54853 8.85 8.3C8.85 8.05147 9.05147 7.85 9.3 7.85C9.54853 7.85 9.75 8.05147 9.75 8.3ZM15.15 13.7C15.15 13.9485 14.9485 14.15 14.7 14.15C14.4515 14.15 14.25 13.9485 14.25 13.7C14.25 13.4515 14.4515 13.25 14.7 13.25C14.9485 13.25 15.15 13.4515 15.15 13.7Z" stroke="black" stroke-width="2" stroke-linecap="round" stroke-linejoin="round"/>
</svg>
