<svg width="24" height="24" viewBox="0 0 24 24" fill="none" xmlns="http://www.w3.org/2000/svg">
<path d="M9.3 8.3H9.309M14.7 13.7H14.709M15.6 7.4L8.4 14.6M9.48171 18.7408C9.77669 18.7018 10.0747 18.7818 10.3096 18.9628L11.3926 19.7938C11.7505 20.0688 12.2485 20.0688 12.6054 19.7938L13.7294 18.9308C13.9393 18.7698 14.2043 18.6988 14.4663 18.7338L15.8722 18.9188C16.3191 18.9778 16.7501 18.7288 16.9231 18.3118L17.464 17.0038C17.565 16.7588 17.759 16.5648 18.004 16.4639L19.3119 15.9229C19.7289 15.7509 19.9778 15.3189 19.9188 14.8719L19.7409 13.5169C19.7019 13.2219 19.7819 12.9239 19.9628 12.689L20.7938 11.606C21.0687 11.248 21.0687 10.75 20.7938 10.393L19.9308 9.26905C19.7699 9.05905 19.6989 8.79406 19.7339 8.53207L19.9188 7.12611C19.9778 6.67912 19.7289 6.24813 19.3119 6.07514L18.004 5.53415C17.759 5.43315 17.565 5.23916 17.464 4.99417L16.9231 3.6862C16.7511 3.26921 16.3191 3.02022 15.8722 3.07922L14.4663 3.26421C14.2043 3.30021 13.9393 3.22922 13.7304 3.06922L12.6064 2.20624C12.2485 1.93125 11.7505 1.93125 11.3936 2.20624L10.2696 3.06922C10.0597 3.22922 9.79468 3.30021 9.53271 3.26621L8.12682 3.08122C7.67986 3.02222 7.2489 3.27121 7.07591 3.6882L6.53595 4.99617C6.43396 5.24016 6.23998 5.43415 5.996 5.53615L4.68811 6.07614C4.27114 6.24913 4.02216 6.68012 4.08116 7.12711L4.26614 8.53307C4.30014 8.79506 4.22915 9.06005 4.06916 9.26905L3.20623 10.393C2.93126 10.751 2.93126 11.249 3.20623 11.606L4.06916 12.73C4.23015 12.9399 4.30114 13.2049 4.26614 13.4669L4.08116 14.8729C4.02216 15.3199 4.27114 15.7509 4.68811 15.9239L5.996 16.4648C6.24098 16.5658 6.43496 16.7598 6.53595 17.0048L7.07691 18.3128C7.2489 18.7298 7.68086 18.9788 8.12782 18.9198L9.48171 18.7408ZM9.75 8.3C9.75 8.54853 9.54853 8.75 9.3 8.75C9.05147 8.75 8.85 8.54853 8.85 8.3C8.85 8.05147 9.05147 7.85 9.3 7.85C9.54853 7.85 9.75 8.05147 9.75 8.3ZM15.15 13.7C15.15 13.9485 14.9485 14.15 14.7 14.15C14.4515 14.15 14.25 13.9485 14.25 13.7C14.25 13.4515 14.4515 13.25 14.7 13.25C14.9485 13.25 15.15 13.4515 15.15 13.7Z" stroke="black" stroke-width="2" stroke-linecap="round" stroke-linejoin="round"/>
</svg>
