<svg width="24" height="24" viewBox="0 0 24 24" fill="none" xmlns="http://www.w3.org/2000/svg">
<path d="M9.76302 2.82388C9.21064 3.29461 8.52384 3.57909 7.80039 3.63683C6.11215 3.77155 4.77155 5.11215 4.63683 6.80039C4.57909 7.52384 4.29461 8.21064 3.82388 8.76302C2.72537 10.0521 2.72537 11.9479 3.82388 13.237C4.29461 13.7894 4.57909 14.4762 4.63683 15.1996C4.77155 16.8878 6.11215 18.2285 7.80039 18.3632C8.52384 18.4209 9.21064 18.7054 9.76302 19.1761C11.0521 20.2746 12.9479 20.2746 14.237 19.1761C14.7894 18.7054 15.4762 18.4209 16.1996 18.3632C17.8878 18.2285 19.2285 16.8878 19.3632 15.1996C19.4209 14.4762 19.7054 13.7894 20.1761 13.237C21.2746 11.9479 21.2746 10.0521 20.1761 8.76302C19.7054 8.21064 19.4209 7.52384 19.3632 6.80039C19.2285 5.11215 17.8878 3.77155 16.1996 3.63683C15.4762 3.57909 14.7894 3.29461 14.237 2.82388C12.9479 1.72537 11.0521 1.72537 9.76302 2.82388Z" fill="white" fill-opacity="0.01"/>
<path d="M9.75 8.3C9.75 8.54853 9.54853 8.75 9.3 8.75C9.05147 8.75 8.85 8.54853 8.85 8.3C8.85 8.05147 9.05147 7.85 9.3 7.85C9.54853 7.85 9.75 8.05147 9.75 8.3Z" fill="white" fill-opacity="0.01"/>
<path d="M15.15 13.7C15.15 13.9485 14.9485 14.15 14.7 14.15C14.4515 14.15 14.25 13.9485 14.25 13.7C14.25 13.4515 14.4515 13.25 14.7 13.25C14.9485 13.25 15.15 13.4515 15.15 13.7Z" fill="white" fill-opacity="0.01"/>
<path d="M9.3 8.3H9.309M14.7 13.7H14.709M15.6 7.4L8.4 14.6M7.80039 3.63683C8.52384 3.57909 9.21064 3.29461 9.76302 2.82388C11.0521 1.72537 12.9479 1.72537 14.237 2.82388C14.7894 3.29461 15.4762 3.57909 16.1996 3.63683C17.8878 3.77155 19.2285 5.11215 19.3632 6.80039C19.4209 7.52384 19.7054 8.21064 20.1761 8.76302C21.2746 10.0521 21.2746 11.9479 20.1761 13.237C19.7054 13.7894 19.4209 14.4762 19.3632 15.1996C19.2285 16.8878 17.8878 18.2285 16.1996 18.3632C15.4762 18.4209 14.7894 18.7054 14.237 19.1761C12.9479 20.2746 11.0521 20.2746 9.76302 19.1761C9.21064 18.7054 8.52384 18.4209 7.80039 18.3632C6.11215 18.2285 4.77155 16.8878 4.63683 15.1996C4.57909 14.4762 4.29461 13.7894 3.82388 13.237C2.72537 11.9479 2.72537 10.0521 3.82388 8.76302C4.29461 8.21064 4.57909 7.52384 4.63683 6.80039C4.77155 5.11215 6.11215 3.77155 7.80039 3.63683ZM9.75 8.3C9.75 8.54853 9.54853 8.75 9.3 8.75C9.05147 8.75 8.85 8.54853 8.85 8.3C8.85 8.05147 9.05147 7.85 9.3 7.85C9.54853 7.85 9.75 8.05147 9.75 8.3ZM15.15 13.7C15.15 13.9485 14.9485 14.15 14.7 14.15C14.4515 14.15 14.25 13.9485 14.25 13.7C14.25 13.4515 14.4515 13.25 14.7 13.25C14.9485 13.25 15.15 13.4515 15.15 13.7Z" stroke="black" stroke-width="2" stroke-linecap="round" stroke-linejoin="round"/>
</svg>
