<svg viewBox="0 0 24 24" fill="none" xmlns="http://www.w3.org/2000/svg">
<path d="M13.8 20H7.32M7.32 20C5.80786 20 5.05179 20 4.47423 19.7057C3.96619 19.4469 3.55314 19.0338 3.29428 18.5258C3 17.9482 3 17.1921 3 15.68M7.32 20H7.68C9.19214 20 9.94821 20 10.5258 19.7057C11.0338 19.4469 11.4469 19.0338 11.7057 18.5258C12 17.9482 12 17.1921 12 15.68V15.32C12 13.8079 12 13.0518 11.7057 12.4742C11.4469 11.9662 11.0338 11.5531 10.5258 11.2943C9.94821 11 9.19214 11 7.68 11H7.32C5.80786 11 5.05179 11 4.47423 11.2943C3.96619 11.5531 3.55314 11.9662 3.29428 12.4742C3 13.0518 3 13.8079 3 15.32V15.68M3 15.68V9.2M10.2 2H13.8M21 9.2V12.8M17.4 20C18.237 20 18.6555 20 18.9988 19.908C19.9306 19.6583 20.6583 18.9306 20.908 17.9988C21 17.6555 21 17.237 21 16.4M21 5.6C21 4.76303 21 4.34454 20.908 4.00119C20.6583 3.06944 19.9306 2.34166 18.9988 2.092C18.6555 2 18.237 2 17.4 2M6.6 2C5.76303 2 5.34454 2 5.00119 2.092C4.06944 2.34166 3.34166 3.06944 3.092 4.00119C3 4.34454 3 4.76303 3 5.6" stroke="black" stroke-width="2" stroke-linecap="round" stroke-linejoin="round"/>
</svg>