<svg width="24" height="24" viewBox="0 0 24 24" fill="none" xmlns="http://www.w3.org/2000/svg">
<path d="M6.6 19.2C8.58822 19.2 10.2 17.5882 10.2 15.6V15.42C10.2 15.168 10.2 15.042 10.151 14.9457C10.1078 14.861 10.039 14.7922 9.9543 14.749C9.85804 14.7 9.73202 14.7 9.48 14.7H3.72C3.46798 14.7 3.34196 14.7 3.2457 14.749C3.16103 14.7922 3.09219 14.861 3.04905 14.9457C3 15.042 3 15.168 3 15.42V15.6C3 17.5882 4.61177 19.2 6.6 19.2Z" fill="white" fill-opacity="0.01"/>
<path d="M17.4 17.4C19.3882 17.4 21 15.7882 21 13.8V13.62C21 13.368 21 13.242 20.951 13.1457C20.9078 13.061 20.839 12.9922 20.7543 12.949C20.658 12.9 20.532 12.9 20.28 12.9H14.52C14.268 12.9 14.142 12.9 14.0457 12.949C13.961 12.9922 13.8922 13.061 13.849 13.1457C13.8 13.242 13.8 13.368 13.8 13.62V13.8C13.8 15.7882 15.4118 17.4 17.4 17.4Z" fill="white" fill-opacity="0.01"/>
<path d="M3 15.6V15.4648C3 15.18 3 15.0376 3.02179 14.8988C3.04113 14.7756 3.07322 14.6548 3.11755 14.5382C3.16748 14.4069 3.23814 14.2833 3.37946 14.0359L6.6 8.4M3 15.6C3 17.5882 4.61177 19.2 6.6 19.2C8.58822 19.2 10.2 17.5882 10.2 15.6M3 15.6V15.42C3 15.168 3 15.042 3.04905 14.9457C3.09219 14.861 3.16103 14.7922 3.2457 14.749C3.34196 14.7 3.46798 14.7 3.72 14.7H9.48C9.73202 14.7 9.85804 14.7 9.9543 14.749C10.039 14.7922 10.1078 14.861 10.151 14.9457C10.2 15.042 10.2 15.168 10.2 15.42V15.6M6.6 8.4L9.82054 14.0359C9.96186 14.2833 10.0325 14.4069 10.0824 14.5382C10.1268 14.6548 10.1589 14.7756 10.1782 14.8988C10.2 15.0376 10.2 15.18 10.2 15.4648V15.6M6.6 8.4L17.4 6.6M13.8 13.8V13.6648C13.8 13.38 13.8 13.2376 13.8218 13.0988C13.8411 12.9756 13.8732 12.8548 13.9176 12.7382C13.9675 12.6069 14.0381 12.4833 14.1795 12.2359L17.4 6.6M13.8 13.8C13.8 15.7882 15.4118 17.4 17.4 17.4C19.3882 17.4 21 15.7882 21 13.8M13.8 13.8V13.62C13.8 13.368 13.8 13.242 13.849 13.1457C13.8922 13.061 13.961 12.9922 14.0457 12.949C14.142 12.9 14.268 12.9 14.52 12.9H20.28C20.532 12.9 20.658 12.9 20.7543 12.949C20.839 12.9922 20.9078 13.061 20.951 13.1457C21 13.242 21 13.368 21 13.62V13.8M17.4 6.6L20.6205 12.2359C20.7619 12.4833 20.8325 12.6069 20.8824 12.7382C20.9268 12.8548 20.9589 12.9756 20.9782 13.0988C21 13.2376 21 13.38 21 13.6648V13.8M12 3V7.5" stroke="black" stroke-width="2" stroke-linecap="round" stroke-linejoin="round"/>
</svg>
