<svg width="24" height="24" viewBox="0 0 24 24" fill="none" xmlns="http://www.w3.org/2000/svg">
<path d="M3 7.6C3 5.61177 4.61177 4 6.6 4H17.4C19.3882 4 21 5.61177 21 7.6C21 9.58822 19.3882 11.2 17.4 11.2H6.6C4.61177 11.2 3 9.58822 3 7.6Z" fill="white" fill-opacity="0.01"/>
<path d="M3 14.8C3 12.8118 4.61177 11.2 6.6 11.2H17.4C19.3882 11.2 21 12.8118 21 14.8C21 16.7882 19.3882 18.4 17.4 18.4H6.6C4.61177 18.4 3 16.7882 3 14.8Z" fill="white" fill-opacity="0.01"/>
<path d="M6.6 7.6H6.609M6.6 14.8H6.609M6.6 11.2H17.4M6.6 11.2C4.61177 11.2 3 9.58822 3 7.6C3 5.61177 4.61177 4 6.6 4H17.4C19.3882 4 21 5.61177 21 7.6C21 9.58822 19.3882 11.2 17.4 11.2M6.6 11.2C4.61177 11.2 3 12.8118 3 14.8C3 16.7882 4.61177 18.4 6.6 18.4H17.4C19.3882 18.4 21 16.7882 21 14.8C21 12.8118 19.3882 11.2 17.4 11.2" stroke="black" stroke-width="2" stroke-linecap="round" stroke-linejoin="round"/>
</svg>
