<svg width="24" height="24" viewBox="0 0 24 24" fill="none" xmlns="http://www.w3.org/2000/svg">
<path d="M17.4 9.3C17.4 12.7794 14.5794 15.6 11.1 15.6M17.4 9.3C17.4 5.82061 14.5794 3 11.1 3M17.4 9.3H4.8M11.1 15.6C7.62061 15.6 4.8 12.7794 4.8 9.3M11.1 15.6C12.6758 13.8748 13.5722 11.636 13.6208 9.3C13.5722 6.96398 12.6758 4.72516 11.1 3M11.1 15.6C9.52419 13.8748 8.62949 11.636 8.58082 9.3C8.62949 6.96398 9.52419 4.72516 11.1 3M11.1 15.6V17.4M4.8 9.3C4.8 5.82061 7.62061 3 11.1 3M12.9 19.2C12.9 20.1941 12.0941 21 11.1 21C10.1059 21 9.3 20.1941 9.3 19.2M12.9 19.2C12.9 18.2059 12.0941 17.4 11.1 17.4M12.9 19.2H19.2M9.3 19.2C9.3 18.2059 10.1059 17.4 11.1 17.4M9.3 19.2H3" stroke="black" stroke-width="2" stroke-linecap="round" stroke-linejoin="round"/>
</svg>
