<svg viewBox="0 0 24 24" fill="none" xmlns="http://www.w3.org/2000/svg">
<path d="M21 16.05L20.3774 7.02278C20.2797 5.60553 20.2308 4.89691 19.9237 4.35974C19.6532 3.8868 19.246 3.50673 18.7556 3.26948C18.1986 3 17.4883 3 16.0677 3H7.93233C6.51172 3 5.80142 3 5.24438 3.26948C4.75396 3.50673 4.34678 3.8868 4.07634 4.35974C3.76918 4.89691 3.72031 5.60553 3.62257 7.02277L3 16.05M21 16.05C21 17.7897 19.5897 19.2 17.85 19.2H6.15C4.4103 19.2 3 17.7897 3 16.05M21 16.05C21 14.3103 19.5897 12.9 17.85 12.9H6.15C4.4103 12.9 3 14.3103 3 16.05M6.6 16.05H6.609M12 16.05H17.4" stroke="black" stroke-width="2" stroke-linecap="round" stroke-linejoin="round"/>
</svg>