<svg width="24" height="24" viewBox="0 0 24 24" fill="none" xmlns="http://www.w3.org/2000/svg">
<path d="M12 18.2C15.9765 18.2 19.2 14.9765 19.2 11C19.2 7.02355 15.9765 3.8 12 3.8C8.02355 3.8 4.8 7.02355 4.8 11C4.8 14.9765 8.02355 18.2 12 18.2Z" fill="white" fill-opacity="0.01"/>
<path d="M12 3.8C13.8009 5.77161 14.8249 8.33026 14.8805 11C14.8249 13.6697 13.8009 16.2284 12 18.2C10.1991 16.2284 9.17611 13.6697 9.1205 11C9.17611 8.33026 10.1991 5.77161 12 3.8Z" fill="white" fill-opacity="0.01"/>
<path d="M4.8 20C5.79411 20 6.6 19.1941 6.6 18.2C6.6 17.2059 5.79411 16.4 4.8 16.4C3.80589 16.4 3 17.2059 3 18.2C3 19.1941 3.80589 20 4.8 20Z" fill="white" fill-opacity="0.01"/>
<path d="M19.2 20C20.1941 20 21 19.1941 21 18.2C21 17.2059 20.1941 16.4 19.2 16.4C18.2059 16.4 17.4 17.2059 17.4 18.2C17.4 19.1941 18.2059 20 19.2 20Z" fill="white" fill-opacity="0.01"/>
<path d="M4.8 5.6C5.79411 5.6 6.6 4.79411 6.6 3.8C6.6 2.80589 5.79411 2 4.8 2C3.80589 2 3 2.80589 3 3.8C3 4.79411 3.80589 5.6 4.8 5.6Z" fill="white" fill-opacity="0.01"/>
<path d="M19.2 5.6C20.1941 5.6 21 4.79411 21 3.8C21 2.80589 20.1941 2 19.2 2C18.2059 2 17.4 2.80589 17.4 3.8C17.4 4.79411 18.2059 5.6 19.2 5.6Z" fill="white" fill-opacity="0.01"/>
<path d="M19.2 11C19.2 14.9765 15.9765 18.2 12 18.2M19.2 11C19.2 7.02355 15.9765 3.8 12 3.8M19.2 11H4.8M12 18.2C8.02355 18.2 4.8 14.9765 4.8 11M12 18.2C13.8009 16.2284 14.8249 13.6697 14.8805 11C14.8249 8.33026 13.8009 5.77161 12 3.8M12 18.2C10.1991 16.2284 9.17611 13.6697 9.1205 11C9.17611 8.33026 10.1991 5.77161 12 3.8M4.8 11C4.8 7.02355 8.02355 3.8 12 3.8M6.6 18.2C6.6 19.1941 5.79411 20 4.8 20C3.80589 20 3 19.1941 3 18.2C3 17.2059 3.80589 16.4 4.8 16.4C5.79411 16.4 6.6 17.2059 6.6 18.2ZM21 18.2C21 19.1941 20.1941 20 19.2 20C18.2059 20 17.4 19.1941 17.4 18.2C17.4 17.2059 18.2059 16.4 19.2 16.4C20.1941 16.4 21 17.2059 21 18.2ZM6.6 3.8C6.6 4.79411 5.79411 5.6 4.8 5.6C3.80589 5.6 3 4.79411 3 3.8C3 2.80589 3.80589 2 4.8 2C5.79411 2 6.6 2.80589 6.6 3.8ZM21 3.8C21 4.79411 20.1941 5.6 19.2 5.6C18.2059 5.6 17.4 4.79411 17.4 3.8C17.4 2.80589 18.2059 2 19.2 2C20.1941 2 21 2.80589 21 3.8Z" stroke="black" stroke-width="2" stroke-linecap="round" stroke-linejoin="round"/>
</svg>
