<svg width="24" height="24" viewBox="0 0 24 24" fill="none" xmlns="http://www.w3.org/2000/svg">
<path d="M3 4.88C3 3.87191 3 3.36786 3.19619 2.98282C3.36876 2.64413 3.64413 2.36876 3.98282 2.19619C4.36786 2 4.87191 2 5.88 2H18.12C19.1281 2 19.6321 2 20.0172 2.19619C20.3559 2.36876 20.6312 2.64413 20.8038 2.98282C21 3.36786 21 3.87191 21 4.88V6.32C21 7.32809 21 7.83214 20.8038 8.21718C20.6312 8.55587 20.3559 8.83124 20.0172 9.00381C19.6321 9.2 19.1281 9.2 18.12 9.2H5.88C4.87191 9.2 4.36786 9.2 3.98282 9.00381C3.64413 8.83124 3.36876 8.55587 3.19619 8.21718C3 7.83214 3 7.32809 3 6.32V4.88Z" fill="white" fill-opacity="0.01"/>
<path d="M3 15.68C3 14.6719 3 14.1679 3.19619 13.7828C3.36876 13.4441 3.64413 13.1688 3.98282 12.9962C4.36786 12.8 4.87191 12.8 5.88 12.8H18.12C19.1281 12.8 19.6321 12.8 20.0172 12.9962C20.3559 13.1688 20.6312 13.4441 20.8038 13.7828C21 14.1679 21 14.6719 21 15.68V17.12C21 18.1281 21 18.6321 20.8038 19.0172C20.6312 19.3559 20.3559 19.6312 20.0172 19.8038C19.6321 20 19.1281 20 18.12 20H5.88C4.87191 20 4.36786 20 3.98282 19.8038C3.64413 19.6312 3.36876 19.3559 3.19619 19.0172C3 18.6321 3 18.1281 3 17.12V15.68Z" fill="white" fill-opacity="0.01"/>
<path d="M6.6 5.6H6.609M6.6 16.4H6.609M5.88 9.2H18.12C19.1281 9.2 19.6321 9.2 20.0172 9.00381C20.3559 8.83124 20.6312 8.55587 20.8038 8.21718C21 7.83214 21 7.32809 21 6.32V4.88C21 3.87191 21 3.36786 20.8038 2.98282C20.6312 2.64413 20.3559 2.36876 20.0172 2.19619C19.6321 2 19.1281 2 18.12 2H5.88C4.87191 2 4.36786 2 3.98282 2.19619C3.64413 2.36876 3.36876 2.64413 3.19619 2.98282C3 3.36786 3 3.87191 3 4.88V6.32C3 7.32809 3 7.83214 3.19619 8.21718C3.36876 8.55587 3.64413 8.83124 3.98282 9.00381C4.36786 9.2 4.87191 9.2 5.88 9.2ZM5.88 20H18.12C19.1281 20 19.6321 20 20.0172 19.8038C20.3559 19.6312 20.6312 19.3559 20.8038 19.0172C21 18.6321 21 18.1281 21 17.12V15.68C21 14.6719 21 14.1679 20.8038 13.7828C20.6312 13.4441 20.3559 13.1688 20.0172 12.9962C19.6321 12.8 19.1281 12.8 18.12 12.8H5.88C4.87191 12.8 4.36786 12.8 3.98282 12.9962C3.64413 13.1688 3.36876 13.4441 3.19619 13.7828C3 14.1679 3 14.6719 3 15.68V17.12C3 18.1281 3 18.6321 3.19619 19.0172C3.36876 19.3559 3.64413 19.6312 3.98282 19.8038C4.36786 20 4.87191 20 5.88 20Z" stroke="black" stroke-width="2" stroke-linecap="round" stroke-linejoin="round"/>
</svg>
