<svg viewBox="0 0 24 24" fill="none" xmlns="http://www.w3.org/2000/svg">
<path d="M8.76009 18.634L9.28609 19.817C9.44246 20.1691 9.69764 20.4684 10.0207 20.6783C10.3437 20.8883 10.7208 21.0001 11.1061 21C11.4914 21.0001 11.8684 20.8883 12.1915 20.6783C12.5145 20.4684 12.7697 20.1691 12.9261 19.817L13.4521 18.634C13.6393 18.2142 13.9543 17.8643 14.3521 17.634C14.7524 17.4031 15.2155 17.3047 15.6751 17.353L16.9621 17.49C17.3452 17.5305 17.7318 17.459 18.0751 17.2842C18.4184 17.1094 18.7036 16.8387 18.8961 16.505C19.0889 16.1715 19.1807 15.7893 19.1604 15.4046C19.1402 15.0199 19.0088 14.6494 18.7821 14.338L18.0201 13.291C17.7488 12.9154 17.6038 12.4633 17.6061 12C17.606 11.5379 17.7523 11.0877 18.0241 10.714L18.7861 9.667C19.0128 9.35558 19.1442 8.98506 19.1644 8.60041C19.1847 8.21575 19.0929 7.83349 18.9001 7.5C18.7076 7.16631 18.4224 6.89564 18.0791 6.7208C17.7358 6.54597 17.3492 6.47448 16.9661 6.515L15.6791 6.652C15.2195 6.70027 14.7564 6.60191 14.3561 6.371C13.9575 6.13943 13.6425 5.78762 13.4561 5.366L12.9261 4.183C12.7697 3.83085 12.5145 3.53164 12.1915 3.32166C11.8684 3.11167 11.4914 2.99994 11.1061 3C10.7208 2.99994 10.3437 3.11167 10.0207 3.32166C9.69764 3.53164 9.44246 3.83085 9.28609 4.183L8.76009 5.366C8.57373 5.78762 8.25868 6.13943 7.86009 6.371C7.45978 6.60191 6.99669 6.70027 6.53709 6.652L5.24609 6.515C4.86299 6.47448 4.47636 6.54597 4.13307 6.7208C3.78979 6.89564 3.50461 7.16631 3.31209 7.5C3.11933 7.83349 3.0275 8.21575 3.04773 8.60041C3.06797 8.98506 3.1994 9.35558 3.42609 9.667L4.18809 10.714C4.45984 11.0877 4.60618 11.5379 4.60609 12C4.60618 12.4621 4.45984 12.9123 4.18809 13.286L3.42609 14.333C3.1994 14.6444 3.06797 15.0149 3.04773 15.3996C3.0275 15.7843 3.11933 16.1665 3.31209 16.5C3.5048 16.8335 3.79002 17.104 4.13325 17.2789C4.47648 17.4537 4.86302 17.5253 5.24609 17.485L6.53309 17.348C6.99269 17.2997 7.45579 17.3981 7.85609 17.629C8.25617 17.8599 8.57268 18.2118 8.76009 18.634Z" stroke="black" stroke-width="2" stroke-linecap="round" stroke-linejoin="round"/>
<path d="M11.1045 14.7C12.5957 14.7 13.8045 13.4912 13.8045 12C13.8045 10.5088 12.5957 9.3 11.1045 9.3C9.61331 9.3 8.40448 10.5088 8.40448 12C8.40448 13.4912 9.61331 14.7 11.1045 14.7Z" stroke="black" stroke-width="2" stroke-linecap="round" stroke-linejoin="round"/>
</svg>