<svg width="24" height="24" viewBox="0 0 24 24" fill="none" xmlns="http://www.w3.org/2000/svg">
<path d="M16.5 8.4C17.9912 8.4 19.2 7.19117 19.2 5.7C19.2 4.20883 17.9912 3 16.5 3C15.0088 3 13.8 4.20883 13.8 5.7C13.8 7.19117 15.0088 8.4 16.5 8.4Z" fill="white" fill-opacity="0.01"/>
<path d="M5.7 14.7C7.19117 14.7 8.4 13.4912 8.4 12C8.4 10.5088 7.19117 9.3 5.7 9.3C4.20883 9.3 3 10.5088 3 12C3 13.4912 4.20883 14.7 5.7 14.7Z" fill="white" fill-opacity="0.01"/>
<path d="M16.5 21C17.9912 21 19.2 19.7912 19.2 18.3C19.2 16.8088 17.9912 15.6 16.5 15.6C15.0088 15.6 13.8 16.8088 13.8 18.3C13.8 19.7912 15.0088 21 16.5 21Z" fill="white" fill-opacity="0.01"/>
<path d="M8.031 13.359L14.178 16.941M14.169 7.059L8.031 10.641M19.2 5.7C19.2 7.19117 17.9912 8.4 16.5 8.4C15.0088 8.4 13.8 7.19117 13.8 5.7C13.8 4.20883 15.0088 3 16.5 3C17.9912 3 19.2 4.20883 19.2 5.7ZM8.4 12C8.4 13.4912 7.19117 14.7 5.7 14.7C4.20883 14.7 3 13.4912 3 12C3 10.5088 4.20883 9.3 5.7 9.3C7.19117 9.3 8.4 10.5088 8.4 12ZM19.2 18.3C19.2 19.7912 17.9912 21 16.5 21C15.0088 21 13.8 19.7912 13.8 18.3C13.8 16.8088 15.0088 15.6 16.5 15.6C17.9912 15.6 19.2 16.8088 19.2 18.3Z" stroke="black" stroke-width="2" stroke-linecap="round" stroke-linejoin="round"/>
</svg>
