<svg viewBox="0 0 24 24" fill="none" xmlns="http://www.w3.org/2000/svg">
<path d="M2 3H3.17555C3.39696 3 3.50767 3 3.59676 3.04072C3.67528 3.0766 3.74181 3.1343 3.78843 3.20695C3.84134 3.28939 3.857 3.39899 3.88831 3.61818L4.31429 6.6M4.31429 6.6L5.26099 13.5583C5.38113 14.4413 5.44119 14.8828 5.65229 15.2151C5.8383 15.508 6.10497 15.7408 6.42022 15.8856C6.77798 16.05 7.22355 16.05 8.1147 16.05H15.8168C16.6651 16.05 17.0892 16.05 17.4359 15.8974C17.7415 15.7628 18.0037 15.5459 18.193 15.2708C18.4078 14.9589 18.4872 14.5422 18.6459 13.7089L19.8372 7.45472C19.8931 7.16143 19.921 7.01478 19.8805 6.90015C19.845 6.79959 19.7749 6.71492 19.6828 6.66122C19.5778 6.6 19.4285 6.6 19.1299 6.6H4.31429ZM9.2 20.1C9.2 20.5971 8.79706 21 8.3 21C7.80294 21 7.4 20.5971 7.4 20.1C7.4 19.6029 7.80294 19.2 8.3 19.2C8.79706 19.2 9.2 19.6029 9.2 20.1ZM16.4 20.1C16.4 20.5971 15.9971 21 15.5 21C15.0029 21 14.6 20.5971 14.6 20.1C14.6 19.6029 15.0029 19.2 15.5 19.2C15.9971 19.2 16.4 19.6029 16.4 20.1Z" stroke="black" stroke-width="2" stroke-linecap="round" stroke-linejoin="round"/>
</svg>