<svg width="24" height="24" viewBox="0 0 24 24" fill="none" xmlns="http://www.w3.org/2000/svg">
<path d="M7.4 20.55C7.4 20.7985 7.19853 21 6.95 21C6.70147 21 6.5 20.7985 6.5 20.55C6.5 20.3015 6.70147 20.1 6.95 20.1C7.19853 20.1 7.4 20.3015 7.4 20.55Z" fill="white" fill-opacity="0.01"/>
<path d="M15.5 20.55C15.5 20.7985 15.2985 21 15.05 21C14.8015 21 14.6 20.7985 14.6 20.55C14.6 20.3015 14.8015 20.1 15.05 20.1C15.2985 20.1 15.5 20.3015 15.5 20.55Z" fill="white" fill-opacity="0.01"/>
<path d="M4.70013 13.8H16.5223C17.4338 13.8 17.8896 13.8 18.2524 13.6301C18.572 13.4803 18.8406 13.24 19.0247 12.9388C19.2337 12.597 19.284 12.144 19.3847 11.238L19.9112 6.49951C19.9419 6.22279 19.9573 6.08444 19.9128 5.97734C19.8737 5.88329 19.8039 5.80527 19.7147 5.75605C19.6132 5.7 19.474 5.7 19.1956 5.7H4.25013M2 3H3.1236C3.36176 3 3.48084 3 3.574 3.04529C3.65602 3.08517 3.72398 3.14902 3.76889 3.22839C3.81991 3.31854 3.82734 3.43739 3.84219 3.67509L4.65781 16.7249C4.67266 16.9626 4.68009 17.0815 4.73111 17.1716C4.77602 17.251 4.84398 17.3148 4.926 17.3547C5.01916 17.4 5.13824 17.4 5.3764 17.4H17.3M6.95 20.55H6.959M15.05 20.55H15.059M7.4 20.55C7.4 20.7985 7.19853 21 6.95 21C6.70147 21 6.5 20.7985 6.5 20.55C6.5 20.3015 6.70147 20.1 6.95 20.1C7.19853 20.1 7.4 20.3015 7.4 20.55ZM15.5 20.55C15.5 20.7985 15.2985 21 15.05 21C14.8015 21 14.6 20.7985 14.6 20.55C14.6 20.3015 14.8015 20.1 15.05 20.1C15.2985 20.1 15.5 20.3015 15.5 20.55Z" stroke="black" stroke-width="2" stroke-linecap="round" stroke-linejoin="round"/>
</svg>
