<svg width="24" height="24" viewBox="0 0 24 24" fill="none" xmlns="http://www.w3.org/2000/svg">
<path d="M4 7.32C4 5.80786 4 5.05179 4.29428 4.47423C4.55314 3.96619 4.96619 3.55314 5.47423 3.29428C6.05179 3 6.80786 3 8.32 3H11.2106C11.871 3 12.2012 3 12.5119 3.0746C12.7874 3.14074 13.0508 3.24983 13.2924 3.39787C13.5648 3.56484 13.7983 3.79833 14.2653 4.2653L17.1347 7.1347C17.6017 7.60167 17.8352 7.83516 18.0021 8.10763C18.1502 8.34921 18.2593 8.61258 18.3254 8.88807C18.4 9.19881 18.4 9.52901 18.4 10.1894V16.68C18.4 18.1921 18.4 18.9482 18.1057 19.5258C17.8469 20.0338 17.4338 20.4469 16.9258 20.7057C16.3482 21 15.5921 21 14.08 21H8.32C6.80786 21 6.05179 21 5.47423 20.7057C4.96619 20.4469 4.55314 20.0338 4.29428 19.5258C4 18.9482 4 18.1921 4 16.68V7.32Z" fill="white" fill-opacity="0.01"/>
<path d="M7.6 13.62C7.6 13.368 7.6 13.242 7.64905 13.1457C7.69219 13.061 7.76103 12.9922 7.8457 12.949C7.94196 12.9 8.06798 12.9 8.32 12.9H14.08C14.332 12.9 14.458 12.9 14.5543 12.949C14.639 12.9922 14.7078 13.061 14.751 13.1457C14.8 13.242 14.8 13.368 14.8 13.62V16.68C14.8 16.932 14.8 17.058 14.751 17.1543C14.7078 17.239 14.639 17.3078 14.5543 17.351C14.458 17.4 14.332 17.4 14.08 17.4H8.32C8.06798 17.4 7.94196 17.4 7.8457 17.351C7.76103 17.3078 7.69219 17.239 7.64905 17.1543C7.6 17.058 7.6 16.932 7.6 16.68V13.62Z" fill="white" fill-opacity="0.01"/>
<path d="M4 7.32C4 5.80786 4 5.05179 4.29428 4.47423C4.55314 3.96619 4.96619 3.55314 5.47423 3.29428C6.05179 3 6.80786 3 8.32 3H11.2106C11.871 3 12.2012 3 12.5119 3.0746C12.7874 3.14074 13.0508 3.24983 13.2924 3.39787C13.5648 3.56484 13.7983 3.79833 14.2653 4.2653L17.1347 7.1347C17.6017 7.60167 17.8352 7.83516 18.0021 8.10763C18.1502 8.34921 18.2593 8.61258 18.3254 8.88807C18.4 9.19881 18.4 9.52901 18.4 10.1894V16.68C18.4 18.1921 18.4 18.9482 18.1057 19.5258C17.8469 20.0338 17.4338 20.4469 16.9258 20.7057C16.3482 21 15.5921 21 14.08 21H8.32C6.80786 21 6.05179 21 5.47423 20.7057C4.96619 20.4469 4.55314 20.0338 4.29428 19.5258C4 18.9482 4 18.1921 4 16.68V7.32Z" stroke="black" stroke-width="2" stroke-linecap="round" stroke-linejoin="round"/>
<path d="M7.6 13.62C7.6 13.368 7.6 13.242 7.64905 13.1457C7.69219 13.061 7.76103 12.9922 7.8457 12.949C7.94196 12.9 8.06798 12.9 8.32 12.9H14.08C14.332 12.9 14.458 12.9 14.5543 12.949C14.639 12.9922 14.7078 13.061 14.751 13.1457C14.8 13.242 14.8 13.368 14.8 13.62V16.68C14.8 16.932 14.8 17.058 14.751 17.1543C14.7078 17.239 14.639 17.3078 14.5543 17.351C14.458 17.4 14.332 17.4 14.08 17.4H8.32C8.06798 17.4 7.94196 17.4 7.8457 17.351C7.76103 17.3078 7.69219 17.239 7.64905 17.1543C7.6 17.058 7.6 16.932 7.6 16.68V13.62Z" stroke="black" stroke-width="2" stroke-linecap="round" stroke-linejoin="round"/>
</svg>
