<svg width="24" height="24" viewBox="0 0 24 24" fill="none" xmlns="http://www.w3.org/2000/svg">
<path d="M18.9427 6.59991L17.657 15.5999M6.72857 6.6L5.12143 15.6M17.4 4.8L8.4 4.8M15.6 17.4L6.6 17.4M6.24 6.6H6.96C7.46405 6.6 7.71607 6.6 7.90859 6.50191C8.07794 6.41562 8.21562 6.27794 8.30191 6.10859C8.4 5.91607 8.4 5.66405 8.4 5.16V4.44C8.4 3.93595 8.4 3.68393 8.30191 3.49141C8.21562 3.32206 8.07794 3.18438 7.90859 3.09809C7.71607 3 7.46405 3 6.96 3H6.24C5.73595 3 5.48393 3 5.29141 3.09809C5.12206 3.18438 4.98438 3.32206 4.89809 3.49141C4.8 3.68393 4.8 3.93595 4.8 4.44V5.16C4.8 5.66405 4.8 5.91607 4.89809 6.10859C4.98438 6.27794 5.12206 6.41562 5.29141 6.50191C5.48393 6.6 5.73595 6.6 6.24 6.6ZM4.44 19.2H5.16C5.66405 19.2 5.91607 19.2 6.10859 19.1019C6.27794 19.0156 6.41562 18.8779 6.50191 18.7086C6.6 18.5161 6.6 18.264 6.6 17.76V17.04C6.6 16.536 6.6 16.2839 6.50191 16.0914C6.41562 15.9221 6.27794 15.7844 6.10859 15.6981C5.91607 15.6 5.66405 15.6 5.16 15.6H4.44C3.93595 15.6 3.68393 15.6 3.49141 15.6981C3.32206 15.7844 3.18438 15.9221 3.09809 16.0914C3 16.2839 3 16.536 3 17.04V17.76C3 18.264 3 18.5161 3.09809 18.7086C3.18438 18.8779 3.32206 19.0156 3.49141 19.1019C3.68393 19.2 3.93595 19.2 4.44 19.2ZM18.84 6.6H19.56C20.064 6.6 20.3161 6.6 20.5086 6.50191C20.6779 6.41562 20.8156 6.27794 20.9019 6.10859C21 5.91607 21 5.66405 21 5.16V4.44C21 3.93595 21 3.68393 20.9019 3.49141C20.8156 3.32206 20.6779 3.18438 20.5086 3.09809C20.3161 3 20.064 3 19.56 3H18.84C18.336 3 18.0839 3 17.8914 3.09809C17.7221 3.18438 17.5844 3.32206 17.4981 3.49141C17.4 3.68393 17.4 3.93595 17.4 4.44V5.16C17.4 5.66405 17.4 5.91607 17.4981 6.10859C17.5844 6.27794 17.7221 6.41562 17.8914 6.50191C18.0839 6.6 18.336 6.6 18.84 6.6ZM17.04 19.2H17.76C18.264 19.2 18.5161 19.2 18.7086 19.1019C18.8779 19.0156 19.0156 18.8779 19.1019 18.7086C19.2 18.5161 19.2 18.264 19.2 17.76V17.04C19.2 16.536 19.2 16.2839 19.1019 16.0914C19.0156 15.9221 18.8779 15.7844 18.7086 15.6981C18.5161 15.6 18.264 15.6 17.76 15.6H17.04C16.536 15.6 16.2839 15.6 16.0914 15.6981C15.9221 15.7844 15.7844 15.9221 15.6981 16.0914C15.6 16.2839 15.6 16.536 15.6 17.04V17.76C15.6 18.264 15.6 18.5161 15.6981 18.7086C15.7844 18.8779 15.9221 19.0156 16.0914 19.1019C16.2839 19.2 16.536 19.2 17.04 19.2Z" stroke="black" stroke-width="2" stroke-linecap="round" stroke-linejoin="round"/>
</svg>
