<svg width="24" height="24" viewBox="0 0 24 24" fill="none" xmlns="http://www.w3.org/2000/svg">
<path d="M16.4399 8.85L5.52799 15.15M16.4399 8.85L17.4282 5.16173M16.4399 8.85L20.1282 9.83827M5.52799 15.15L1.83972 14.1617M5.52799 15.15L4.53972 18.8383M16.4398 15.1499L5.52792 8.84987M16.4398 15.1499L20.1282 14.1616M16.4398 15.1499L17.4282 18.8382M5.52792 8.84987L4.53985 5.16183M5.52792 8.84987L1.83985 9.83837M10.984 5.7L10.984 18.3M10.984 5.7L8.28395 3M10.984 5.7L13.684 3M10.984 18.3L8.28395 21M10.984 18.3L13.684 21" stroke="black" stroke-width="2" stroke-linecap="round" stroke-linejoin="round"/>
</svg>
