<svg width="24" height="24" viewBox="0 0 24 24" fill="none" xmlns="http://www.w3.org/2000/svg">
<path d="M3 7.32C3 5.80786 3 5.05179 3.29428 4.47423C3.55314 3.96619 3.96619 3.55314 4.47423 3.29428C5.05179 3 5.80786 3 7.32 3H14.88C16.3921 3 17.1482 3 17.7258 3.29428C18.2338 3.55314 18.6469 3.96619 18.9057 4.47423C19.2 5.05179 19.2 5.80786 19.2 7.32V13.08C19.2 14.5921 19.2 15.3482 18.9057 15.9258C18.6469 16.4338 18.2338 16.8469 17.7258 17.1057C17.1482 17.4 16.3921 17.4 14.88 17.4H7.32C5.80786 17.4 5.05179 17.4 4.47423 17.1057C3.96619 16.8469 3.55314 16.4338 3.29428 15.9258C3 15.3482 3 14.5921 3 13.08V7.32Z" fill="white" fill-opacity="0.01"/>
<path d="M11.1 14.7C13.5853 14.7 15.6 12.6853 15.6 10.2C15.6 7.71472 13.5853 5.7 11.1 5.7C8.61472 5.7 6.6 7.71472 6.6 10.2C6.6 12.6853 8.61472 14.7 11.1 14.7Z" fill="white" fill-opacity="0.01"/>
<path d="M11.55 10.2C11.55 10.4485 11.3485 10.65 11.1 10.65C10.8515 10.65 10.65 10.4485 10.65 10.2C10.65 9.95147 10.8515 9.75 11.1 9.75C11.3485 9.75 11.55 9.95147 11.55 10.2Z" fill="white" fill-opacity="0.01"/>
<path d="M16.5 17.4V19.56C16.5 20.064 16.5 20.3161 16.4019 20.5086C16.3156 20.6779 16.1779 20.8156 16.0086 20.9019C15.8161 21 15.564 21 15.06 21H7.14C6.63595 21 6.38393 21 6.19141 20.9019C6.02206 20.8156 5.88438 20.6779 5.79809 20.5086C5.7 20.3161 5.7 20.064 5.7 19.56V17.4M11.1 10.2H11.109M7.32 17.4H14.88C16.3921 17.4 17.1482 17.4 17.7258 17.1057C18.2338 16.8469 18.6469 16.4338 18.9057 15.9258C19.2 15.3482 19.2 14.5921 19.2 13.08V7.32C19.2 5.80786 19.2 5.05179 18.9057 4.47423C18.6469 3.96619 18.2338 3.55314 17.7258 3.29428C17.1482 3 16.3921 3 14.88 3H7.32C5.80786 3 5.05179 3 4.47423 3.29428C3.96619 3.55314 3.55314 3.96619 3.29428 4.47423C3 5.05179 3 5.80786 3 7.32V13.08C3 14.5921 3 15.3482 3.29428 15.9258C3.55314 16.4338 3.96619 16.8469 4.47423 17.1057C5.05179 17.4 5.80786 17.4 7.32 17.4ZM15.6 10.2C15.6 12.6853 13.5853 14.7 11.1 14.7C8.61472 14.7 6.6 12.6853 6.6 10.2C6.6 7.71472 8.61472 5.7 11.1 5.7C13.5853 5.7 15.6 7.71472 15.6 10.2ZM11.55 10.2C11.55 10.4485 11.3485 10.65 11.1 10.65C10.8515 10.65 10.65 10.4485 10.65 10.2C10.65 9.95147 10.8515 9.75 11.1 9.75C11.3485 9.75 11.55 9.95147 11.55 10.2Z" stroke="black" stroke-width="2" stroke-linecap="round" stroke-linejoin="round"/>
</svg>
