<svg width="24" height="24" viewBox="0 0 24 24" fill="none" xmlns="http://www.w3.org/2000/svg">
<path d="M3 6.32C3 4.80786 3 4.05179 3.29428 3.47423C3.55314 2.96619 3.96619 2.55314 4.47423 2.29428C5.05179 2 5.80786 2 7.32 2H16.68C18.1921 2 18.9482 2 19.5258 2.29428C20.0338 2.55314 20.4469 2.96619 20.7057 3.47423C21 4.05179 21 4.80786 21 6.32V15.68C21 17.1921 21 17.9482 20.7057 18.5258C20.4469 19.0338 20.0338 19.4469 19.5258 19.7057C18.9482 20 18.1921 20 16.68 20H7.32C5.80786 20 5.05179 20 4.47423 19.7057C3.96619 19.4469 3.55314 19.0338 3.29428 18.5258C3 17.9482 3 17.1921 3 15.68V6.32Z" fill="white" fill-opacity="0.01"/>
<path d="M12.45 11C12.45 11.2485 12.2485 11.45 12 11.45C11.7515 11.45 11.55 11.2485 11.55 11C11.55 10.7515 11.7515 10.55 12 10.55C12.2485 10.55 12.45 10.7515 12.45 11Z" fill="white" fill-opacity="0.01"/>
<path d="M12 15.5C14.4853 15.5 16.5 13.4853 16.5 11C16.5 8.51472 14.4853 6.5 12 6.5C9.51472 6.5 7.5 8.51472 7.5 11C7.5 13.4853 9.51472 15.5 12 15.5Z" fill="white" fill-opacity="0.01"/>
<path d="M12 11H12.009M17.4 5.6H17.409M6.6 5.6H6.609M17.4 16.4H17.409M6.6 16.4H6.609M7.32 20H16.68C18.1921 20 18.9482 20 19.5258 19.7057C20.0338 19.4469 20.4469 19.0338 20.7057 18.5258C21 17.9482 21 17.1921 21 15.68V6.32C21 4.80786 21 4.05179 20.7057 3.47423C20.4469 2.96619 20.0338 2.55314 19.5258 2.29428C18.9482 2 18.1921 2 16.68 2H7.32C5.80786 2 5.05179 2 4.47423 2.29428C3.96619 2.55314 3.55314 2.96619 3.29428 3.47423C3 4.05179 3 4.80786 3 6.32V15.68C3 17.1921 3 17.9482 3.29428 18.5258C3.55314 19.0338 3.96619 19.4469 4.47423 19.7057C5.05179 20 5.80786 20 7.32 20ZM12.45 11C12.45 11.2485 12.2485 11.45 12 11.45C11.7515 11.45 11.55 11.2485 11.55 11C11.55 10.7515 11.7515 10.55 12 10.55C12.2485 10.55 12.45 10.7515 12.45 11ZM16.5 11C16.5 13.4853 14.4853 15.5 12 15.5C9.51472 15.5 7.5 13.4853 7.5 11C7.5 8.51472 9.51472 6.5 12 6.5C14.4853 6.5 16.5 8.51472 16.5 11Z" stroke="black" stroke-width="2" stroke-linecap="round" stroke-linejoin="round"/>
</svg>
