<svg viewBox="0 0 24 24" fill="none" xmlns="http://www.w3.org/2000/svg">
<path d="M11.2 6.6H11.209M8.32 21H14.08C15.5921 21 16.3482 21 16.9258 20.7057C17.4338 20.4469 17.8469 20.0338 18.1057 19.5258C18.4 18.9482 18.4 18.1921 18.4 16.68V7.32C18.4 5.80786 18.4 5.05179 18.1057 4.47423C17.8469 3.96619 17.4338 3.55314 16.9258 3.29428C16.3482 3 15.5921 3 14.08 3H8.32C6.80786 3 6.05179 3 5.47423 3.29428C4.96619 3.55314 4.55314 3.96619 4.29428 4.47423C4 5.05179 4 5.80786 4 7.32V16.68C4 18.1921 4 18.9482 4.29428 19.5258C4.55314 20.0338 4.96619 20.4469 5.47423 20.7057C6.05179 21 6.80786 21 8.32 21ZM11.65 6.6C11.65 6.84853 11.4485 7.05 11.2 7.05C10.9515 7.05 10.75 6.84853 10.75 6.6C10.75 6.35147 10.9515 6.15 11.2 6.15C11.4485 6.15 11.65 6.35147 11.65 6.6ZM14.8 13.8C14.8 15.7882 13.1882 17.4 11.2 17.4C9.21177 17.4 7.6 15.7882 7.6 13.8C7.6 11.8118 9.21177 10.2 11.2 10.2C13.1882 10.2 14.8 11.8118 14.8 13.8Z" stroke="black" stroke-width="2" stroke-linecap="round" stroke-linejoin="round"/>
</svg>