<svg width="24" height="24" viewBox="0 0 24 24" fill="none" xmlns="http://www.w3.org/2000/svg">
<path d="M12 21C16.9706 21 21 16.9706 21 12C21 7.02944 16.9706 3 12 3C7.02944 3 3 7.02944 3 12C3 16.9706 7.02944 21 12 21Z" fill="white" fill-opacity="0.01"/>
<path d="M12 12.9C12.4971 12.9 12.9 12.4971 12.9 12C12.9 11.5029 12.4971 11.1 12 11.1C11.5029 11.1 11.1 11.5029 11.1 12C11.1 12.4971 11.5029 12.9 12 12.9Z" fill="white" fill-opacity="0.01"/>
<path d="M17.1708 15.6C17.8826 14.5795 18.3 13.3385 18.3 12C18.3 11.5366 18.25 11.0849 18.155 10.65M6.82922 15.6C6.11743 14.5795 5.7 13.3385 5.7 12C5.7 8.52061 8.52061 5.7 12 5.7C12.3799 5.7 12.752 5.73363 13.1134 5.79807M16.0499 7.95L11.9999 12M21 12C21 16.9706 16.9706 21 12 21C7.02944 21 3 16.9706 3 12C3 7.02944 7.02944 3 12 3C16.9706 3 21 7.02944 21 12ZM12.9 12C12.9 12.4971 12.4971 12.9 12 12.9C11.5029 12.9 11.1 12.4971 11.1 12C11.1 11.5029 11.5029 11.1 12 11.1C12.4971 11.1 12.9 11.5029 12.9 12Z" stroke="black" stroke-width="2" stroke-linecap="round" stroke-linejoin="round"/>
</svg>
