<svg width="24" height="24" viewBox="0 0 24 24" fill="none" xmlns="http://www.w3.org/2000/svg">
<path d="M21 12C21 16.9706 16.9706 21 12 21C7.02944 21 3 16.9706 3 12M21 12C21 7.02944 16.9706 3 12 3M21 12H18.75M3 12C3 7.02944 7.02944 3 12 3M3 12H5.25M12 3V5.25M18.3706 5.7L13.3499 10.65M18.3706 18.3706L18.1871 18.1871C17.5645 17.5644 17.2531 17.2531 16.8898 17.0305C16.5677 16.8331 16.2166 16.6877 15.8492 16.5995C15.4349 16.5 14.9946 16.5 14.1141 16.5L9.88586 16.5C9.00534 16.5 8.56508 16.5 8.15076 16.5995C7.78343 16.6877 7.43228 16.8332 7.11018 17.0305C6.74688 17.2532 6.43557 17.5645 5.81294 18.1871L5.62947 18.3706M5.62947 5.7L7.19227 7.26281M13.8 12C13.8 12.9941 12.9941 13.8 12 13.8C11.0059 13.8 10.2 12.9941 10.2 12C10.2 11.0059 11.0059 10.2 12 10.2C12.9941 10.2 13.8 11.0059 13.8 12Z" stroke="black" stroke-width="2" stroke-linecap="round" stroke-linejoin="round"/>
</svg>
