<svg width="24" height="24" viewBox="0 0 24 24" fill="none" xmlns="http://www.w3.org/2000/svg">
<path d="M5.7 12C5.7 8.52061 8.52061 5.7 12 5.7M16.0499 7.95L11.9999 12M21 12C21 16.9706 16.9706 21 12 21C7.02944 21 3 16.9706 3 12C3 7.02944 7.02944 3 12 3C16.9706 3 21 7.02944 21 12ZM12.9 12C12.9 12.4971 12.4971 12.9 12 12.9C11.5029 12.9 11.1 12.4971 11.1 12C11.1 11.5029 11.5029 11.1 12 11.1C12.4971 11.1 12.9 11.5029 12.9 12Z" stroke="black" stroke-width="2" stroke-linecap="round" stroke-linejoin="round"/>
</svg>
