<svg width="24" height="24" viewBox="0 0 24 24" fill="none" xmlns="http://www.w3.org/2000/svg">
<path d="M9.3 15.5L4.8 20M14.7 15.5L19.2 20M12 2V3.8M12 20V15.5M5.88 15.5H18.12C19.1281 15.5 19.6321 15.5 20.0172 15.3038C20.3559 15.1312 20.6312 14.8559 20.8038 14.5172C21 14.1321 21 13.6281 21 12.62V6.68C21 5.67191 21 5.16786 20.8038 4.78282C20.6312 4.44413 20.3559 4.16876 20.0172 3.99619C19.6321 3.8 19.1281 3.8 18.12 3.8H5.88C4.87191 3.8 4.36786 3.8 3.98282 3.99619C3.64413 4.16876 3.36876 4.44413 3.19619 4.78282C3 5.16786 3 5.67191 3 6.68V12.62C3 13.6281 3 14.1321 3.19619 14.5172C3.36876 14.8559 3.64413 15.1312 3.98282 15.3038C4.36786 15.5 4.87191 15.5 5.88 15.5Z" stroke="black" stroke-width="2" stroke-linecap="round" stroke-linejoin="round"/>
</svg>
