<svg width="24" height="24" viewBox="0 0 24 24" fill="none" xmlns="http://www.w3.org/2000/svg">
<path d="M12 2L13.8108 6.70798C14.0646 7.36788 14.1915 7.69784 14.3888 7.97538C14.5637 8.22136 14.7786 8.43627 15.0246 8.61118C15.3022 8.80852 15.6321 8.93543 16.292 9.18924L21 11L16.292 12.8108C15.6321 13.0646 15.3022 13.1915 15.0246 13.3888C14.7786 13.5637 14.5637 13.7786 14.3888 14.0246C14.1915 14.3022 14.0646 14.6321 13.8108 15.292L12 20L10.1892 15.292C9.93543 14.6321 9.80852 14.3022 9.61118 14.0246C9.43627 13.7786 9.22136 13.5637 8.97538 13.3888C8.69784 13.1915 8.36788 13.0646 7.70798 12.8108L3 11L7.70798 9.18924C8.36788 8.93543 8.69784 8.80852 8.97538 8.61118C9.22136 8.43627 9.43627 8.22136 9.61118 7.97538C9.80852 7.69784 9.93543 7.36788 10.1892 6.70798L12 2Z" fill="white" fill-opacity="0.01" stroke="black" stroke-width="2" stroke-linecap="round" stroke-linejoin="round"/>
</svg>
