<svg width="24" height="24" viewBox="0 0 24 24" fill="none" xmlns="http://www.w3.org/2000/svg">
<path d="M12.9 2.9L14.4608 6.95797C14.7146 7.61788 14.8415 7.94784 15.0388 8.22538C15.2137 8.47136 15.4286 8.68627 15.6746 8.86118C15.9522 9.05852 16.2821 9.18543 16.942 9.43924L21 11L16.942 12.5608C16.2821 12.8146 15.9522 12.9415 15.6746 13.1388C15.4286 13.3137 15.2137 13.5286 15.0388 13.7746C14.8415 14.0522 14.7146 14.3821 14.4608 15.042L12.9 19.1L11.3392 15.042C11.0854 14.3821 10.9585 14.0522 10.7612 13.7746C10.5863 13.5286 10.3714 13.3137 10.1254 13.1388C9.84784 12.9415 9.51788 12.8146 8.85798 12.5608L4.8 11L8.85797 9.43924C9.51788 9.18543 9.84784 9.05852 10.1254 8.86118C10.3714 8.68627 10.5863 8.47136 10.7612 8.22538C10.9585 7.94784 11.0854 7.61788 11.3392 6.95798L12.9 2.9Z" fill="white" fill-opacity="0.01"/>
<path d="M5.25 20V15.5M5.25 6.5V2M3 4.25H7.5M3 17.75H7.5M12.9 2.9L11.3392 6.95798C11.0854 7.61788 10.9585 7.94784 10.7612 8.22538C10.5863 8.47136 10.3714 8.68627 10.1254 8.86118C9.84784 9.05852 9.51788 9.18543 8.85797 9.43924L4.8 11L8.85798 12.5608C9.51788 12.8146 9.84784 12.9415 10.1254 13.1388C10.3714 13.3137 10.5863 13.5286 10.7612 13.7746C10.9585 14.0522 11.0854 14.3821 11.3392 15.042L12.9 19.1L14.4608 15.042C14.7146 14.3821 14.8415 14.0522 15.0388 13.7746C15.2137 13.5286 15.4286 13.3137 15.6746 13.1388C15.9522 12.9415 16.2821 12.8146 16.942 12.5608L21 11L16.942 9.43924C16.2821 9.18543 15.9522 9.05852 15.6746 8.86118C15.4286 8.68627 15.2137 8.47136 15.0388 8.22538C14.8415 7.94784 14.7146 7.61788 14.4608 6.95797L12.9 2.9Z" stroke="black" stroke-width="2" stroke-linecap="round" stroke-linejoin="round"/>
</svg>
