<svg width="24" height="24" viewBox="0 0 24 24" fill="none" xmlns="http://www.w3.org/2000/svg">
<path d="M12 6.5L13.3905 9.317L16.5 9.7715L14.25 11.963L14.781 15.059L12 13.5965L9.219 15.059L9.75 11.963L7.5 9.7715L10.6095 9.317L12 6.5Z" fill="white" fill-opacity="0.01"/>
<path d="M21 11H19.2M18.3639 17.364L17.0911 16.0912M4.8 11H3M6.90863 5.90885L5.63584 4.63606M12 3.8V2M17.0911 5.90885L18.3639 4.63606M12 20V18.2M5.63584 17.364L6.90863 16.0912M12 6.5L13.3905 9.317L16.5 9.7715L14.25 11.963L14.781 15.059L12 13.5965L9.219 15.059L9.75 11.963L7.5 9.7715L10.6095 9.317L12 6.5Z" stroke="black" stroke-width="2" stroke-linecap="round" stroke-linejoin="round"/>
</svg>
