<svg viewBox="0 0 24 24" fill="none" xmlns="http://www.w3.org/2000/svg">
<path d="M12 2L13.1713 6.68539C13.3999 7.59966 13.5142 8.0568 13.7522 8.42878C13.9628 8.75781 14.2422 9.03724 14.5712 9.24778C14.9432 9.4858 15.4003 9.60008 16.3146 9.82865L21 11L16.3146 12.1713C15.4003 12.3999 14.9432 12.5142 14.5712 12.7522C14.2422 12.9628 13.9628 13.2422 13.7522 13.5712C13.5142 13.9432 13.3999 14.4003 13.1713 15.3146L12 20L10.8287 15.3146C10.6001 14.4003 10.4858 13.9432 10.2478 13.5712C10.0372 13.2422 9.75781 12.9628 9.42878 12.7522C9.0568 12.5142 8.59966 12.3999 7.68539 12.1713L3 11L7.68539 9.82865C8.59966 9.60008 9.0568 9.4858 9.42878 9.24778C9.75781 9.03724 10.0372 8.75781 10.2478 8.42878C10.4858 8.0568 10.6001 7.59966 10.8287 6.68539L12 2Z" stroke="black" stroke-width="2" stroke-linecap="round" stroke-linejoin="round"/>
<path d="M12 2L13.1713 6.68539C13.3999 7.59966 13.5142 8.0568 13.7522 8.42878C13.9628 8.75781 14.2422 9.03724 14.5712 9.24778C14.9432 9.4858 15.4003 9.60008 16.3146 9.82865L21 11L16.3146 12.1713C15.4003 12.3999 14.9432 12.5142 14.5712 12.7522C14.2422 12.9628 13.9628 13.2422 13.7522 13.5712C13.5142 13.9432 13.3999 14.4003 13.1713 15.3146L12 20L10.8287 15.3146C10.6001 14.4003 10.4858 13.9432 10.2478 13.5712C10.0372 13.2422 9.75781 12.9628 9.42878 12.7522C9.0568 12.5142 8.59966 12.3999 7.68539 12.1713L3 11L7.68539 9.82865C8.59966 9.60008 9.0568 9.4858 9.42878 9.24778C9.75781 9.03724 10.0372 8.75781 10.2478 8.42878C10.4858 8.0568 10.6001 7.59966 10.8287 6.68539L12 2Z" stroke="black" stroke-width="2" stroke-linecap="round" stroke-linejoin="round"/>
</svg>