<svg viewBox="0 0 24 24" fill="none" xmlns="http://www.w3.org/2000/svg">
<path d="M7.05 11.9L7.75601 13.312C7.99495 13.7899 8.11442 14.0288 8.27403 14.2359C8.41565 14.4196 8.58037 14.5843 8.7641 14.726C8.97115 14.8856 9.21009 15.005 9.68797 15.244L11.1 15.95L9.68797 16.656C9.21009 16.895 8.97115 17.0144 8.7641 17.174C8.58037 17.3157 8.41565 17.4804 8.27403 17.6641C8.11442 17.8712 7.99495 18.1101 7.75601 18.588L7.05 20L6.34399 18.588C6.10505 18.1101 5.98558 17.8712 5.82597 17.6641C5.68435 17.4804 5.51963 17.3157 5.3359 17.174C5.12885 17.0144 4.88991 16.895 4.41203 16.656L3 15.95L4.41202 15.244C4.88991 15.005 5.12885 14.8856 5.3359 14.726C5.51963 14.5843 5.68435 14.4196 5.82597 14.2359C5.98558 14.0288 6.10505 13.7899 6.34399 13.312L7.05 11.9Z" stroke="black" stroke-width="2" stroke-linecap="round" stroke-linejoin="round"/>
<path d="M14.7 2L15.7608 4.75798C16.0146 5.41788 16.1415 5.74784 16.3388 6.02538C16.5137 6.27136 16.7286 6.48627 16.9746 6.66118C17.2522 6.85852 17.5821 6.98543 18.242 7.23924L21 8.3L18.242 9.36076C17.5821 9.61457 17.2522 9.74148 16.9746 9.93882C16.7286 10.1137 16.5137 10.3286 16.3388 10.5746C16.1415 10.8522 16.0146 11.1821 15.7608 11.842L14.7 14.6L13.6392 11.842C13.3854 11.1821 13.2585 10.8522 13.0612 10.5746C12.8863 10.3286 12.6714 10.1137 12.4254 9.93882C12.1478 9.74148 11.8179 9.61457 11.158 9.36076L8.4 8.3L11.158 7.23924C11.8179 6.98543 12.1478 6.85852 12.4254 6.66118C12.6714 6.48627 12.8863 6.27136 13.0612 6.02538C13.2585 5.74784 13.3854 5.41788 13.6392 4.75798L14.7 2Z" stroke="black" stroke-width="2" stroke-linecap="round" stroke-linejoin="round"/>
</svg>