<svg viewBox="0 0 24 24" fill="none" xmlns="http://www.w3.org/2000/svg">
<path d="M17.85 7.4V2.9M6.15 19.1V14.6M15.6 5.15H20.1M3.9 16.85H8.4M7.05 2L6.34399 3.41202C6.10505 3.88991 5.98558 4.12885 5.82597 4.3359C5.68435 4.51963 5.51963 4.68435 5.3359 4.82597C5.12885 4.98558 4.88991 5.10505 4.41202 5.34399L3 6.05L4.41203 6.75601C4.88991 6.99495 5.12885 7.11442 5.3359 7.27403C5.51963 7.41565 5.68435 7.58037 5.82597 7.7641C5.98558 7.97115 6.10505 8.21009 6.34399 8.68797L7.05 10.1L7.75601 8.68798C7.99495 8.21009 8.11442 7.97115 8.27403 7.7641C8.41565 7.58037 8.58037 7.41565 8.7641 7.27403C8.97115 7.11442 9.21009 6.99495 9.68797 6.75601L11.1 6.05L9.68797 5.34399C9.21009 5.10505 8.97115 4.98558 8.7641 4.82597C8.58037 4.68435 8.41565 4.51963 8.27403 4.3359C8.11442 4.12885 7.99495 3.88991 7.75601 3.41203L7.05 2ZM16.5 11L15.644 12.712C15.405 13.1899 15.2856 13.4288 15.126 13.6359C14.9843 13.8196 14.8196 13.9843 14.6359 14.126C14.4288 14.2856 14.1899 14.405 13.712 14.644L12 15.5L13.712 16.356C14.1899 16.595 14.4288 16.7144 14.6359 16.874C14.8196 17.0157 14.9843 17.1804 15.126 17.3641C15.2856 17.5712 15.405 17.8101 15.644 18.288L16.5 20L17.356 18.288C17.595 17.8101 17.7144 17.5712 17.874 17.3641C18.0157 17.1804 18.1804 17.0157 18.3641 16.874C18.5712 16.7144 18.8101 16.595 19.288 16.356L21 15.5L19.288 14.644C18.8101 14.405 18.5712 14.2856 18.3641 14.126C18.1804 13.9843 18.0157 13.8196 17.874 13.6359C17.7144 13.4288 17.595 13.1899 17.356 12.712L16.5 11Z" stroke="black" stroke-width="2" stroke-linecap="round" stroke-linejoin="round"/>
</svg>