<svg viewBox="0 0 24 24" fill="none" xmlns="http://www.w3.org/2000/svg">
<path d="M12 20C16.9706 20 21 15.9706 21 11C21 6.02944 16.9706 2 12 2C7.02944 2 3 6.02944 3 11C3 15.9706 7.02944 20 12 20Z" stroke="black" stroke-width="2" stroke-linecap="round" stroke-linejoin="round"/>
<path d="M8.4 8.84C8.4 8.33595 8.4 8.08393 8.49809 7.89141C8.58438 7.72206 8.72206 7.58438 8.89141 7.49809C9.08393 7.4 9.33595 7.4 9.84 7.4H14.16C14.664 7.4 14.9161 7.4 15.1086 7.49809C15.2779 7.58438 15.4156 7.72206 15.5019 7.89141C15.6 8.08393 15.6 8.33595 15.6 8.84V13.16C15.6 13.664 15.6 13.9161 15.5019 14.1086C15.4156 14.2779 15.2779 14.4156 15.1086 14.5019C14.9161 14.6 14.664 14.6 14.16 14.6H9.84C9.33595 14.6 9.08393 14.6 8.89141 14.5019C8.72206 14.4156 8.58438 14.2779 8.49809 14.1086C8.4 13.9161 8.4 13.664 8.4 13.16V8.84Z" stroke="black" stroke-width="2" stroke-linecap="round" stroke-linejoin="round"/>
</svg>