<svg viewBox="0 0 24 24" fill="none" xmlns="http://www.w3.org/2000/svg">
<path d="M6.65405 19.1212C7.74305 19.6162 9.12905 19.6162 10.2181 19.1212C11.3071 18.6262 12.6931 18.6262 13.7821 19.1212C14.8711 19.6162 16.2571 19.6162 17.3461 19.1212M12 3V4.8M4.8 12H3M6.8827 6.8827L5.60991 5.60991M17.117 6.8827L18.3898 5.60991M21 12H19.2M7.5 12C7.5 9.51472 9.51472 7.5 12 7.5C14.4853 7.5 16.5 9.51472 16.5 12M3.09009 15.9712C4.17909 15.4763 5.56509 15.4763 6.65409 15.9712C7.74309 16.4662 9.12909 16.4662 10.2181 15.9712C11.3071 15.4763 12.6931 15.4763 13.7821 15.9712C14.8711 16.4662 16.2571 16.4662 17.3461 15.9712C18.4351 15.4763 19.8211 15.4763 20.9101 15.9712" stroke="black" stroke-width="2" stroke-linecap="round" stroke-linejoin="round"/>
</svg>