<svg width="24" height="24" viewBox="0 0 24 24" fill="none" xmlns="http://www.w3.org/2000/svg">
<path d="M13.9 3V4.26C13.9 4.76405 13.9 5.01607 13.8019 5.20859C13.7156 5.37794 13.5779 5.51562 13.4086 5.60191C13.2161 5.7 12.964 5.7 12.46 5.7H9.94C9.43595 5.7 9.18393 5.7 8.99141 5.60191C8.82206 5.51562 8.68438 5.37794 8.59809 5.20859C8.5 5.01607 8.5 4.76405 8.5 4.26V3M6.88 21H15.52C16.5281 21 17.0321 21 17.4172 20.8038C17.7559 20.6312 18.0312 20.3559 18.2038 20.0172C18.4 19.6321 18.4 19.1281 18.4 18.12V5.88C18.4 4.87191 18.4 4.36786 18.2038 3.98282C18.0312 3.64413 17.7559 3.36876 17.4172 3.19619C17.0321 3 16.5281 3 15.52 3H6.88C5.87191 3 5.36786 3 4.98282 3.19619C4.64413 3.36876 4.36876 3.64413 4.19619 3.98282C4 4.36786 4 4.87191 4 5.88V18.12C4 19.1281 4 19.6321 4.19619 20.0172C4.36876 20.3559 4.64413 20.6312 4.98282 20.8038C5.36786 21 5.87191 21 6.88 21Z" stroke="black" stroke-width="2" stroke-linecap="round" stroke-linejoin="round"/>
</svg>
