<svg width="24" height="24" viewBox="0 0 24 24" fill="none" xmlns="http://www.w3.org/2000/svg">
<path d="M4 5.88C4 4.87191 4 4.36786 4.19619 3.98282C4.36876 3.64413 4.64413 3.36876 4.98282 3.19619C5.36786 3 5.87191 3 6.88 3H15.52C16.5281 3 17.0321 3 17.4172 3.19619C17.7559 3.36876 18.0312 3.64413 18.2038 3.98282C18.4 4.36786 18.4 4.87191 18.4 5.88V18.12C18.4 19.1281 18.4 19.6321 18.2038 20.0172C18.0312 20.3559 17.7559 20.6312 17.4172 20.8038C17.0321 21 16.5281 21 15.52 21H6.88C5.87191 21 5.36786 21 4.98282 20.8038C4.64413 20.6312 4.36876 20.3559 4.19619 20.0172C4 19.6321 4 19.1281 4 18.12V5.88Z" fill="white" fill-opacity="0.01"/>
<path d="M11.65 16.95C11.65 17.1985 11.4485 17.4 11.2 17.4C10.9515 17.4 10.75 17.1985 10.75 16.95C10.75 16.7015 10.9515 16.5 11.2 16.5C11.4485 16.5 11.65 16.7015 11.65 16.95Z" fill="white" fill-opacity="0.01"/>
<path d="M11.2 16.95H11.209M6.88 21H15.52C16.5281 21 17.0321 21 17.4172 20.8038C17.7559 20.6312 18.0312 20.3559 18.2038 20.0172C18.4 19.6321 18.4 19.1281 18.4 18.12V5.88C18.4 4.87191 18.4 4.36786 18.2038 3.98282C18.0312 3.64413 17.7559 3.36876 17.4172 3.19619C17.0321 3 16.5281 3 15.52 3H6.88C5.87191 3 5.36786 3 4.98282 3.19619C4.64413 3.36876 4.36876 3.64413 4.19619 3.98282C4 4.36786 4 4.87191 4 5.88V18.12C4 19.1281 4 19.6321 4.19619 20.0172C4.36876 20.3559 4.64413 20.6312 4.98282 20.8038C5.36786 21 5.87191 21 6.88 21ZM11.65 16.95C11.65 17.1985 11.4485 17.4 11.2 17.4C10.9515 17.4 10.75 17.1985 10.75 16.95C10.75 16.7015 10.9515 16.5 11.2 16.5C11.4485 16.5 11.65 16.7015 11.65 16.95Z" stroke="black" stroke-width="2" stroke-linecap="round" stroke-linejoin="round"/>
</svg>
