<svg width="24" height="24" viewBox="0 0 24 24" fill="none" xmlns="http://www.w3.org/2000/svg">
<path d="M18.3 3L15.6 5.7V8.4H18.3L21 5.7L19.2 4.8L18.3 3Z" fill="white" fill-opacity="0.01"/>
<path d="M15.6 8.4L12 12L15.6 8.4Z" fill="white" fill-opacity="0.01"/>
<path d="M15.6 8.4V5.7L18.3 3L19.2 4.8L21 5.7L18.3 8.4H15.6ZM15.6 8.4L12 12M21 12C21 16.9706 16.9706 21 12 21C7.02944 21 3 16.9706 3 12C3 7.02944 7.02944 3 12 3M16.5 12C16.5 14.4853 14.4853 16.5 12 16.5C9.51472 16.5 7.5 14.4853 7.5 12C7.5 9.51472 9.51472 7.5 12 7.5" stroke="black" stroke-width="2" stroke-linecap="round" stroke-linejoin="round"/>
</svg>
