<svg width="24" height="24" viewBox="0 0 24 24" fill="none" xmlns="http://www.w3.org/2000/svg">
<path d="M12 19.2C15.9765 19.2 19.2 15.9765 19.2 12C19.2 8.02355 15.9765 4.8 12 4.8C8.02355 4.8 4.8 8.02355 4.8 12C4.8 15.9765 8.02355 19.2 12 19.2Z" fill="white" fill-opacity="0.01"/>
<path d="M21 12H17.4M6.6 12H3M12 6.6V3M12 21V17.4M19.2 12C19.2 15.9765 15.9765 19.2 12 19.2C8.02355 19.2 4.8 15.9765 4.8 12C4.8 8.02355 8.02355 4.8 12 4.8C15.9765 4.8 19.2 8.02355 19.2 12Z" stroke="black" stroke-width="2" stroke-linecap="round" stroke-linejoin="round"/>
</svg>
