<svg viewBox="0 0 24 24" fill="none" xmlns="http://www.w3.org/2000/svg">
<path d="M13.8 5.25C13.8 4.00736 12.7926 3 11.55 3C10.3074 3 9.3 4.00736 9.3 5.25V13.582C8.21461 14.3085 7.5 15.5458 7.5 16.95C7.5 19.1868 9.31325 21 11.55 21C13.7868 21 15.6 19.1868 15.6 16.95C15.6 15.5458 14.8854 14.3085 13.8 13.582V5.25Z" stroke="black" stroke-width="2" stroke-linecap="round" stroke-linejoin="round"/>
<path d="M11.55 17.85C12.0471 17.85 12.45 17.4471 12.45 16.95C12.45 16.4529 12.0471 16.05 11.55 16.05C11.0529 16.05 10.65 16.4529 10.65 16.95C10.65 17.4471 11.0529 17.85 11.55 17.85Z" stroke="black" stroke-width="2" stroke-linecap="round" stroke-linejoin="round"/>
</svg>