<svg width="24" height="24" viewBox="0 0 24 24" fill="none" xmlns="http://www.w3.org/2000/svg">
<path d="M3 11H12H3Z" fill="white" fill-opacity="0.01"/>
<path d="M9.3 3.8V18.2V3.8Z" fill="white" fill-opacity="0.01"/>
<path d="M3.9 8.3L6.6 11L3.9 13.7" fill="white" fill-opacity="0.01"/>
<path d="M12 5.6L9.3 8.3L6.6 5.6" fill="white" fill-opacity="0.01"/>
<path d="M6.6 16.4L9.3 13.7L10.65 15.05" fill="white" fill-opacity="0.01"/>
<path d="M15.6 3.8C15.6 2.80589 16.4059 2 17.4 2C18.3941 2 19.2 2.80589 19.2 3.8V13.2816C20.276 13.9041 21 15.0675 21 16.4C21 18.3882 19.3882 20 17.4 20C15.4118 20 13.8 18.3882 13.8 16.4C13.8 15.0675 14.524 13.9041 15.6 13.2816V3.8Z" fill="white" fill-opacity="0.01"/>
<path d="M3 11H12M9.3 3.8V18.2M3.9 8.3L6.6 11L3.9 13.7M12 5.6L9.3 8.3L6.6 5.6M6.6 16.4L9.3 13.7L10.65 15.05M19.2 13.2816V3.8C19.2 2.80589 18.3941 2 17.4 2C16.4059 2 15.6 2.80589 15.6 3.8V13.2816C14.524 13.9041 13.8 15.0675 13.8 16.4C13.8 18.3882 15.4118 20 17.4 20C19.3882 20 21 18.3882 21 16.4C21 15.0675 20.276 13.9041 19.2 13.2816Z" stroke="black" stroke-width="2" stroke-linecap="round" stroke-linejoin="round"/>
</svg>
