<svg width="24" height="24" viewBox="0 0 24 24" fill="none" xmlns="http://www.w3.org/2000/svg">
<path d="M12 8.3C11.1969 8.28706 10.4126 8.54303 9.77182 9.0272C9.131 9.51136 8.67049 10.1959 8.46355 10.9719C8.25661 11.748 8.31511 12.5709 8.62976 13.3099C8.94441 14.0488 9.49713 14.6614 10.2 15.05" fill="white" fill-opacity="0.01"/>
<path d="M12 2.9V4.7V2.9Z" fill="white" fill-opacity="0.01"/>
<path d="M7.14 16.76L5.88 18.02L7.14 16.76Z" fill="white" fill-opacity="0.01"/>
<path d="M4.8 11.9H3H4.8Z" fill="white" fill-opacity="0.01"/>
<path d="M7.14 7.04L5.88 5.78L7.14 7.04Z" fill="white" fill-opacity="0.01"/>
<path d="M15.6 3.8C15.6 2.80589 16.4059 2 17.4 2C18.3941 2 19.2 2.80589 19.2 3.8V13.2816C20.276 13.9041 21 15.0675 21 16.4C21 18.3882 19.3882 20 17.4 20C15.4118 20 13.8 18.3882 13.8 16.4C13.8 15.0675 14.524 13.9041 15.6 13.2816V3.8Z" fill="white" fill-opacity="0.01"/>
<path d="M12 8.3C11.1969 8.28706 10.4126 8.54303 9.77182 9.0272C9.131 9.51136 8.67049 10.1959 8.46355 10.9719C8.25661 11.748 8.31511 12.5709 8.62976 13.3099C8.94441 14.0488 9.49713 14.6614 10.2 15.05M12 2.9V4.7M7.14 16.76L5.88 18.02M4.8 11.9H3M7.14 7.04L5.88 5.78M19.2 13.2816V3.8C19.2 2.80589 18.3941 2 17.4 2C16.4059 2 15.6 2.80589 15.6 3.8V13.2816C14.524 13.9041 13.8 15.0675 13.8 16.4C13.8 18.3882 15.4118 20 17.4 20C19.3882 20 21 18.3882 21 16.4C21 15.0675 20.276 13.9041 19.2 13.2816Z" stroke="black" stroke-width="2" stroke-linecap="round" stroke-linejoin="round"/>
</svg>
