<svg viewBox="0 0 24 24" fill="none" xmlns="http://www.w3.org/2000/svg">
<path d="M6.5 21V11.1M2 12.9V19.2C2 20.1941 2.80589 21 3.8 21H15.8836C17.2163 21 18.3496 20.0277 18.5522 18.7106L19.5215 12.4106C19.7731 10.775 18.5076 9.3 16.8529 9.3H13.7C13.2029 9.3 12.8 8.89706 12.8 8.4V5.21926C12.8 3.99359 11.8064 3 10.5807 3C10.2884 3 10.0235 3.17217 9.90475 3.43931L6.73754 10.5655C6.59309 10.8905 6.27078 11.1 5.91511 11.1H3.8C2.80589 11.1 2 11.9059 2 12.9Z" stroke="black" stroke-width="2" stroke-linecap="round" stroke-linejoin="round"/>
</svg>