<svg width="24" height="24" viewBox="0 0 24 24" fill="none" xmlns="http://www.w3.org/2000/svg">
<path d="M15.5542 3V12.9M20.0542 10.02V5.88C20.0542 4.87191 20.0542 4.36786 19.8581 3.98282C19.6855 3.64413 19.4101 3.36876 19.0714 3.19619C18.6864 3 18.1823 3 17.1742 3H7.56046C6.24512 3 5.58746 3 5.05627 3.24069C4.58811 3.45282 4.19022 3.79418 3.90936 4.22464C3.5907 4.71305 3.4907 5.36307 3.29069 6.66311L2.81992 9.72311C2.55613 11.4378 2.42423 12.2951 2.67867 12.9622C2.90199 13.5477 3.32203 14.0373 3.86678 14.3471C4.48743 14.7 5.35485 14.7 7.08969 14.7H7.81425C8.31829 14.7 8.57032 14.7 8.76284 14.7981C8.93218 14.8844 9.06987 15.0221 9.15615 15.1914C9.25425 15.3839 9.25425 15.636 9.25425 16.14V18.7807C9.25425 20.0064 10.2478 21 11.4735 21C11.7658 21 12.0308 20.8278 12.1495 20.5607L15.1742 13.7552C15.3117 13.4456 15.3805 13.2909 15.4893 13.1774C15.5854 13.0771 15.7034 13.0004 15.8341 12.9533C15.982 12.9 16.1513 12.9 16.4901 12.9H17.1742C18.1823 12.9 18.6864 12.9 19.0714 12.7038C19.4101 12.5312 19.6855 12.2559 19.8581 11.9172C20.0542 11.5321 20.0542 11.0281 20.0542 10.02Z" stroke="black" stroke-width="2" stroke-linecap="round" stroke-linejoin="round"/>
</svg>
