<svg viewBox="0 0 24 24" fill="none" xmlns="http://www.w3.org/2000/svg">
<path d="M10.2 7.6V6.7M10.2 11.65V10.75M10.2 15.7V14.8M5.88 4H18.12C19.1281 4 19.6321 4 20.0172 4.19619C20.3559 4.36876 20.6312 4.64413 20.8038 4.98282C21 5.36786 21 5.87191 21 6.88V8.05C19.2603 8.05 17.85 9.4603 17.85 11.2C17.85 12.9397 19.2603 14.35 21 14.35V15.52C21 16.5281 21 17.0321 20.8038 17.4172C20.6312 17.7559 20.3559 18.0312 20.0172 18.2038C19.6321 18.4 19.1281 18.4 18.12 18.4H5.88C4.87191 18.4 4.36786 18.4 3.98282 18.2038C3.64413 18.0312 3.36876 17.7559 3.19619 17.4172C3 17.0321 3 16.5281 3 15.52V14.35C4.7397 14.35 6.15 12.9397 6.15 11.2C6.15 9.4603 4.7397 8.05 3 8.05V6.88C3 5.87191 3 5.36786 3.19619 4.98282C3.36876 4.64413 3.64413 4.36876 3.98282 4.19619C4.36786 4 4.87191 4 5.88 4Z" stroke="black" stroke-width="2" stroke-linecap="round" stroke-linejoin="round"/>
</svg>