<svg width="24" height="24" viewBox="0 0 24 24" fill="none" xmlns="http://www.w3.org/2000/svg">
<path d="M3 11.4C3 8.41766 5.41766 6 8.4 6H15.6C18.5823 6 21 8.41766 21 11.4C21 14.3823 18.5823 16.8 15.6 16.8H8.4C5.41766 16.8 3 14.3823 3 11.4Z" fill="white" fill-opacity="0.01"/>
<path d="M8.4 13.65C9.64264 13.65 10.65 12.6426 10.65 11.4C10.65 10.1574 9.64264 9.15 8.4 9.15C7.15736 9.15 6.15 10.1574 6.15 11.4C6.15 12.6426 7.15736 13.65 8.4 13.65Z" fill="white" fill-opacity="0.01"/>
<path d="M3 11.4C3 8.41766 5.41766 6 8.4 6H15.6C18.5823 6 21 8.41766 21 11.4C21 14.3823 18.5823 16.8 15.6 16.8H8.4C5.41766 16.8 3 14.3823 3 11.4Z" stroke="black" stroke-width="2" stroke-linecap="round" stroke-linejoin="round"/>
<path d="M8.4 13.65C9.64264 13.65 10.65 12.6426 10.65 11.4C10.65 10.1574 9.64264 9.15 8.4 9.15C7.15736 9.15 6.15 10.1574 6.15 11.4C6.15 12.6426 7.15736 13.65 8.4 13.65Z" stroke="black" stroke-width="2" stroke-linecap="round" stroke-linejoin="round"/>
</svg>
