<svg viewBox="0 0 24 24" fill="none" xmlns="http://www.w3.org/2000/svg">
<path d="M6.6 5.6L10.65 9.65M6.6 5.6H3.9L3 2.9L3.9 2L6.6 2.9V5.6ZM18.5331 2.66691L16.1682 5.03177C15.8118 5.38818 15.6336 5.56639 15.5668 5.77188C15.5081 5.95264 15.5081 6.14736 15.5668 6.32812C15.6336 6.53361 15.8118 6.71182 16.1682 7.06823L16.3818 7.28177C16.7382 7.63818 16.9164 7.81639 17.1219 7.88316C17.3026 7.94189 17.4974 7.94189 17.6781 7.88316C17.8836 7.81639 18.0618 7.63818 18.4182 7.28177L20.6304 5.06965C20.8686 5.6494 21 6.28435 21 6.95C21 9.68381 18.7838 11.9 16.05 11.9C15.7204 11.9 15.3983 11.8678 15.0868 11.8063C14.6493 11.7201 14.4305 11.6769 14.2979 11.6901C14.1569 11.7042 14.0874 11.7253 13.9625 11.7922C13.8449 11.855 13.7271 11.9729 13.4913 12.2087L7.05 18.65C6.30442 19.3956 5.09559 19.3956 4.35 18.65C3.60442 17.9044 3.60442 16.6956 4.35 15.95L10.7913 9.50867C11.0271 9.27292 11.145 9.15505 11.2078 9.03754C11.2747 8.91261 11.2958 8.84312 11.3099 8.70213C11.3231 8.56951 11.2799 8.35074 11.1937 7.91322C11.1322 7.60165 11.1 7.27959 11.1 6.95C11.1 4.21619 13.3162 2 16.05 2C16.955 2 17.8032 2.24284 18.5331 2.66691ZM12 13.7L16.95 18.6499C17.6956 19.3955 18.9044 19.3955 19.65 18.6499C20.3956 17.9043 20.3956 16.6955 19.65 15.9499L15.5778 11.8778C15.2895 11.8505 15.0084 11.7985 14.7367 11.7239C14.3865 11.6278 14.0024 11.6975 13.7457 11.9543L12 13.7Z" stroke="black" stroke-width="2" stroke-linecap="round" stroke-linejoin="round"/>
</svg>