<svg width="24" height="24" viewBox="0 0 24 24" fill="none" xmlns="http://www.w3.org/2000/svg">
<path d="M8.95 21H13.45M7.6 3H14.8M11.2 5.7V3M4 12H18.4M15.7 18.3L17.05 21M6.7 18.3L5.35 21M8.05 15.15H8.059M14.35 15.15H14.359M8.32 18.3H14.08C15.5921 18.3 16.3482 18.3 16.9258 18.0057C17.4338 17.7469 17.8469 17.3338 18.1057 16.8258C18.4 16.2482 18.4 15.4921 18.4 13.98V10.02C18.4 8.50786 18.4 7.75179 18.1057 7.17423C17.8469 6.66619 17.4338 6.25314 16.9258 5.99428C16.3482 5.7 15.5921 5.7 14.08 5.7H8.32C6.80786 5.7 6.05179 5.7 5.47423 5.99428C4.96619 6.25314 4.55314 6.66619 4.29428 7.17423C4 7.75179 4 8.50786 4 10.02V13.98C4 15.4921 4 16.2482 4.29428 16.8258C4.55314 17.3338 4.96619 17.7469 5.47423 18.0057C6.05179 18.3 6.80786 18.3 8.32 18.3ZM8.5 15.15C8.5 15.3985 8.29853 15.6 8.05 15.6C7.80147 15.6 7.6 15.3985 7.6 15.15C7.6 14.9015 7.80147 14.7 8.05 14.7C8.29853 14.7 8.5 14.9015 8.5 15.15ZM14.8 15.15C14.8 15.3985 14.5985 15.6 14.35 15.6C14.1015 15.6 13.9 15.3985 13.9 15.15C13.9 14.9015 14.1015 14.7 14.35 14.7C14.5985 14.7 14.8 14.9015 14.8 15.15Z" stroke="black" stroke-width="2" stroke-linecap="round" stroke-linejoin="round"/>
</svg>
