<svg width="24" height="24" viewBox="0 0 24 24" fill="none" xmlns="http://www.w3.org/2000/svg">
<path d="M4 10.92C4 9.40786 4 8.65179 4.29428 8.07423C4.55314 7.56619 4.96619 7.15314 5.47423 6.89428C6.05179 6.6 6.80786 6.6 8.32 6.6H14.08C15.5921 6.6 16.3482 6.6 16.9258 6.89428C17.4338 7.15314 17.8469 7.56619 18.1057 8.07423C18.4 8.65179 18.4 9.40786 18.4 10.92V14.88C18.4 16.3921 18.4 17.1482 18.1057 17.7258C17.8469 18.2338 17.4338 18.6469 16.9258 18.9057C16.3482 19.2 15.5921 19.2 14.08 19.2H8.32C6.80786 19.2 6.05179 19.2 5.47423 18.9057C4.96619 18.6469 4.55314 18.2338 4.29428 17.7258C4 17.1482 4 16.3921 4 14.88V10.92Z" fill="white" fill-opacity="0.01"/>
<path d="M8.5 16.05C8.5 16.2985 8.29853 16.5 8.05 16.5C7.80147 16.5 7.6 16.2985 7.6 16.05C7.6 15.8015 7.80147 15.6 8.05 15.6C8.29853 15.6 8.5 15.8015 8.5 16.05Z" fill="white" fill-opacity="0.01"/>
<path d="M14.8 16.05C14.8 16.2985 14.5985 16.5 14.35 16.5C14.1015 16.5 13.9 16.2985 13.9 16.05C13.9 15.8015 14.1015 15.6 14.35 15.6C14.5985 15.6 14.8 15.8015 14.8 16.05Z" fill="white" fill-opacity="0.01"/>
<path d="M17.05 3.9L16.1621 3.45607C15.822 3.28598 15.6519 3.20093 15.4736 3.14096C15.3153 3.08769 15.1524 3.04924 14.987 3.02608C14.8007 3 14.6105 3 14.2302 3H8.16981C7.78947 3 7.5993 3 7.41304 3.02608C7.24762 3.04924 7.08471 3.08769 6.92639 3.14096C6.74813 3.20093 6.57804 3.28598 6.23785 3.45607L5.35 3.9M10.3 6.6L8.5 3M12.1 6.6L13.9 3M4 12.9H18.4M15.7 19.2L16.6 21M6.7 19.2L5.80014 21M8.05 16.05H8.059M14.35 16.05H14.359M8.32 19.2H14.08C15.5921 19.2 16.3482 19.2 16.9258 18.9057C17.4338 18.6469 17.8469 18.2338 18.1057 17.7258C18.4 17.1482 18.4 16.3921 18.4 14.88V10.92C18.4 9.40786 18.4 8.65179 18.1057 8.07423C17.8469 7.56619 17.4338 7.15314 16.9258 6.89428C16.3482 6.6 15.5921 6.6 14.08 6.6H8.32C6.80786 6.6 6.05179 6.6 5.47423 6.89428C4.96619 7.15314 4.55314 7.56619 4.29428 8.07423C4 8.65179 4 9.40786 4 10.92V14.88C4 16.3921 4 17.1482 4.29428 17.7258C4.55314 18.2338 4.96619 18.6469 5.47423 18.9057C6.05179 19.2 6.80786 19.2 8.32 19.2ZM8.5 16.05C8.5 16.2985 8.29853 16.5 8.05 16.5C7.80147 16.5 7.6 16.2985 7.6 16.05C7.6 15.8015 7.80147 15.6 8.05 15.6C8.29853 15.6 8.5 15.8015 8.5 16.05ZM14.8 16.05C14.8 16.2985 14.5985 16.5 14.35 16.5C14.1015 16.5 13.9 16.2985 13.9 16.05C13.9 15.8015 14.1015 15.6 14.35 15.6C14.5985 15.6 14.8 15.8015 14.8 16.05Z" stroke="black" stroke-width="2" stroke-linecap="round" stroke-linejoin="round"/>
</svg>
