<svg viewBox="0 0 24 24" fill="none" xmlns="http://www.w3.org/2000/svg">
<path d="M12.8217 15.6H19.2783M12.8217 15.6L11.1 19.2M12.8217 15.6L15.4005 10.2081C15.6083 9.77364 15.7122 9.55641 15.8543 9.48776C15.9779 9.42806 16.1221 9.42806 16.2457 9.48776C16.3878 9.55641 16.4917 9.77365 16.6995 10.2081L19.2783 15.6M19.2783 15.6L21 19.2M3 4.8H8.4M8.4 4.8H11.55M8.4 4.8V3M11.55 4.8H13.8M11.55 4.8C11.1035 7.46156 10.0673 9.87256 8.54899 11.896M10.2 12.9C9.64873 12.6523 9.08638 12.3079 8.54899 11.896M8.54899 11.896C7.33172 10.963 6.24249 9.68397 5.7 8.4M8.54899 11.896C7.10477 13.8206 5.22429 15.3946 3 16.5" stroke="black" stroke-width="2" stroke-linecap="round" stroke-linejoin="round"/>
</svg>