<svg width="24" height="24" viewBox="0 0 24 24" fill="none" xmlns="http://www.w3.org/2000/svg">
<path d="M21 16L13.9182 8.91823C13.5618 8.56182 13.3836 8.38361 13.1781 8.31684C12.9974 8.25811 12.8026 8.25811 12.6219 8.31684C12.4164 8.38361 12.2382 8.56182 11.8818 8.91823L9.41823 11.3818C9.06182 11.7382 8.88361 11.9164 8.67812 11.9832C8.49736 12.0419 8.30264 12.0419 8.12188 11.9832C7.91639 11.9164 7.73818 11.7382 7.38177 11.3818L3 7" fill="white" fill-opacity="0.01"/>
<path d="M14.7 16H21V9.7" fill="white" fill-opacity="0.01"/>
<path d="M21 16L13.9182 8.91823C13.5618 8.56182 13.3836 8.38361 13.1781 8.31684C12.9974 8.25811 12.8026 8.25811 12.6219 8.31684C12.4164 8.38361 12.2382 8.56182 11.8818 8.91823L9.41823 11.3818C9.06182 11.7382 8.88361 11.9164 8.67812 11.9832C8.49736 12.0419 8.30264 12.0419 8.12188 11.9832C7.91639 11.9164 7.73818 11.7382 7.38177 11.3818L3 7M21 16H14.7M21 16V9.7" stroke="black" stroke-width="2" stroke-linecap="round" stroke-linejoin="round"/>
</svg>
