<svg width="24" height="24" viewBox="0 0 24 24" fill="none" xmlns="http://www.w3.org/2000/svg">
<path d="M7.5 18.4C8.99117 18.4 10.2 17.1912 10.2 15.7C10.2 14.2088 8.99117 13 7.5 13C6.00883 13 4.8 14.2088 4.8 15.7C4.8 17.1912 6.00883 18.4 7.5 18.4Z" fill="white" fill-opacity="0.01"/>
<path d="M17.4 18.4C18.6426 18.4 19.65 17.3926 19.65 16.15C19.65 14.9074 18.6426 13.9 17.4 13.9C16.1574 13.9 15.15 14.9074 15.15 16.15C15.15 17.3926 16.1574 18.4 17.4 18.4Z" fill="white" fill-opacity="0.01"/>
<path d="M13.8 6.7H15.9035C16.1237 6.7 16.2337 6.7 16.3373 6.72487C16.4291 6.74691 16.5169 6.78328 16.5975 6.83262C16.6883 6.88828 16.7661 6.96611 16.9218 7.12177L20.5782 10.7782C20.7339 10.9339 20.8117 11.0117 20.8674 11.1025C20.9167 11.1831 20.9531 11.2709 20.9751 11.3627C21 11.4663 21 11.5763 21 11.7965V14.35C21 14.7693 21 14.979 20.9315 15.1444C20.8401 15.3649 20.6649 15.5401 20.4444 15.6315C20.279 15.7 20.0693 15.7 19.65 15.7M15.15 15.7H13.8M13.8 15.7V6.88C13.8 5.87191 13.8 5.36786 13.6038 4.98282C13.4312 4.64413 13.1559 4.36876 12.8172 4.19619C12.4321 4 11.9281 4 10.92 4H5.88C4.87191 4 4.36786 4 3.98282 4.19619C3.64413 4.36876 3.36876 4.64413 3.19619 4.98282C3 5.36786 3 5.87191 3 6.88V13.9C3 14.8941 3.80589 15.7 4.8 15.7M13.8 15.7H10.2M10.2 15.7C10.2 17.1912 8.99117 18.4 7.5 18.4C6.00883 18.4 4.8 17.1912 4.8 15.7M10.2 15.7C10.2 14.2088 8.99117 13 7.5 13C6.00883 13 4.8 14.2088 4.8 15.7M19.65 16.15C19.65 17.3926 18.6426 18.4 17.4 18.4C16.1574 18.4 15.15 17.3926 15.15 16.15C15.15 14.9074 16.1574 13.9 17.4 13.9C18.6426 13.9 19.65 14.9074 19.65 16.15Z" stroke="black" stroke-width="2" stroke-linecap="round" stroke-linejoin="round"/>
</svg>
