<svg viewBox="0 0 24 24" fill="none" xmlns="http://www.w3.org/2000/svg">
<path d="M15.6 14.7V5.88C15.6 4.87191 15.6 4.36786 15.4038 3.98282C15.2312 3.64413 14.9559 3.36876 14.6172 3.19619C14.2321 3 13.7281 3 12.72 3H5.88C4.87191 3 4.36786 3 3.98282 3.19619C3.64413 3.36876 3.36876 3.64413 3.19619 3.98282C3 4.36786 3 4.87191 3 5.88V11.82C3 12.8281 3 13.3321 3.19619 13.7172C3.36876 14.0559 3.64413 14.3312 3.98282 14.5038C4.36786 14.7 4.87191 14.7 5.88 14.7H15.6ZM15.6 14.7H19.56C20.064 14.7 20.3161 14.7 20.5086 14.6019C20.6779 14.5156 20.8156 14.3779 20.9019 14.2086C21 14.0161 21 13.764 21 13.26V10.7965C21 10.5763 21 10.4663 20.9751 10.3627C20.9531 10.2709 20.9167 10.1831 20.8674 10.1025C20.8117 10.0117 20.7339 9.93389 20.5782 9.77823L18.7218 7.92177C18.5661 7.76611 18.4883 7.68828 18.3975 7.63262C18.3169 7.58328 18.2291 7.54691 18.1373 7.52487C18.0337 7.5 17.9237 7.5 17.7035 7.5H15.6M9.3 16.95C9.3 18.1926 8.29264 19.2 7.05 19.2C5.80736 19.2 4.8 18.1926 4.8 16.95C4.8 15.7074 5.80736 14.7 7.05 14.7C8.29264 14.7 9.3 15.7074 9.3 16.95ZM19.2 16.95C19.2 18.1926 18.1926 19.2 16.95 19.2C15.7074 19.2 14.7 18.1926 14.7 16.95C14.7 15.7074 15.7074 14.7 16.95 14.7C18.1926 14.7 19.2 15.7074 19.2 16.95Z" stroke="black" stroke-width="2" stroke-linecap="round" stroke-linejoin="round"/>
</svg>