<svg viewBox="0 0 24 24" fill="none" xmlns="http://www.w3.org/2000/svg">
<path d="M16.5 3L12 6.6L7.5 3M7.32 19.2H16.68C18.1921 19.2 18.9482 19.2 19.5258 18.9057C20.0338 18.6469 20.4469 18.2338 20.7057 17.7258C21 17.1482 21 16.3921 21 14.88V10.92C21 9.40786 21 8.65179 20.7057 8.07423C20.4469 7.56619 20.0338 7.15314 19.5258 6.89428C18.9482 6.6 18.1921 6.6 16.68 6.6H7.32C5.80786 6.6 5.05179 6.6 4.47423 6.89428C3.96619 7.15314 3.55314 7.56619 3.29428 8.07423C3 8.65179 3 9.40786 3 10.92V14.88C3 16.3921 3 17.1482 3.29428 17.7258C3.55314 18.2338 3.96619 18.6469 4.47423 18.9057C5.05179 19.2 5.80786 19.2 7.32 19.2Z" stroke="black" stroke-width="2" stroke-linecap="round" stroke-linejoin="round"/>
</svg>