<svg width="24" height="24" viewBox="0 0 24 24" fill="none" xmlns="http://www.w3.org/2000/svg">
<path d="M15.5052 18.66C15.5052 19.9523 14.4979 21 13.2552 21C12.0126 21 11.0052 19.9523 11.0052 18.66V12M2.11889 10.5656C2.80578 6.27682 6.52283 3 11.0052 3C15.4876 3 19.2047 6.27682 19.8915 10.5656C19.9586 10.9842 19.9921 11.1935 19.9079 11.4171C19.841 11.595 19.677 11.7873 19.512 11.8815C19.3045 12 19.0581 12 18.5652 12H3.44522C2.95234 12 2.7059 12 2.49846 11.8815C2.33342 11.7873 2.16946 11.595 2.1025 11.4171C2.01833 11.1935 2.05185 10.9842 2.11889 10.5656Z" stroke="black" stroke-width="2" stroke-linecap="round" stroke-linejoin="round"/>
</svg>
