<svg width="24" height="24" viewBox="0 0 24 24" fill="none" xmlns="http://www.w3.org/2000/svg">
<path d="M4 12.18C4 11.1719 4 10.6679 4.19619 10.2828C4.36876 9.94413 4.64413 9.66876 4.98282 9.49619C5.36786 9.3 5.87191 9.3 6.88 9.3H15.52C16.5281 9.3 17.0321 9.3 17.4172 9.49619C17.7559 9.66876 18.0312 9.94413 18.2038 10.2828C18.4 10.6679 18.4 11.1719 18.4 12.18V16.68C18.4 18.1921 18.4 18.9482 18.1057 19.5258C17.8469 20.0338 17.4338 20.4469 16.9258 20.7057C16.3482 21 15.5921 21 14.08 21H8.32C6.80786 21 6.05179 21 5.47423 20.7057C4.96619 20.4469 4.55314 20.0338 4.29428 19.5258C4 18.9482 4 18.1921 4 16.68V12.18Z" fill="white" fill-opacity="0.01"/>
<path d="M16.6 9.3V4.44C16.6 3.93595 16.6 3.68393 16.5019 3.49141C16.4156 3.32206 16.2779 3.18438 16.1086 3.09809C15.9161 3 15.664 3 15.16 3H7.24C6.73595 3 6.48393 3 6.29141 3.09809C6.12206 3.18438 5.98438 3.32206 5.89809 3.49141C5.8 3.68393 5.8 3.93595 5.8 4.44V9.3M9.4 6.6V5.7M13 6.6V5.7M8.32 21H14.08C15.5921 21 16.3482 21 16.9258 20.7057C17.4338 20.4469 17.8469 20.0338 18.1057 19.5258C18.4 18.9482 18.4 18.1921 18.4 16.68V12.18C18.4 11.1719 18.4 10.6679 18.2038 10.2828C18.0312 9.94413 17.7559 9.66876 17.4172 9.49619C17.0321 9.3 16.5281 9.3 15.52 9.3H6.88C5.87191 9.3 5.36786 9.3 4.98282 9.49619C4.64413 9.66876 4.36876 9.94413 4.19619 10.2828C4 10.6679 4 11.1719 4 12.18V16.68C4 18.1921 4 18.9482 4.29428 19.5258C4.55314 20.0338 4.96619 20.4469 5.47423 20.7057C6.05179 21 6.80786 21 8.32 21Z" stroke="black" stroke-width="2" stroke-linecap="round" stroke-linejoin="round"/>
</svg>
