<svg width="24" height="24" viewBox="0 0 24 24" fill="none" xmlns="http://www.w3.org/2000/svg">
<path d="M5.98467 17.6946C6.53216 16.4047 7.81043 15.5 9.3 15.5H14.7C16.1896 15.5 17.4678 16.4047 18.0153 17.6946M15.6 8.75C15.6 10.7382 13.9882 12.35 12 12.35C10.0118 12.35 8.4 10.7382 8.4 8.75C8.4 6.76177 10.0118 5.15 12 5.15C13.9882 5.15 15.6 6.76177 15.6 8.75ZM21 11C21 15.9706 16.9706 20 12 20C7.02944 20 3 15.9706 3 11C3 6.02944 7.02944 2 12 2C16.9706 2 21 6.02944 21 11Z" stroke="black" stroke-width="2" stroke-linecap="round" stroke-linejoin="round"/>
</svg>
