<svg viewBox="0 0 24 24" fill="none" xmlns="http://www.w3.org/2000/svg">
<path d="M18.3 19.2L21 16.5M21 16.5L18.3 13.8M21 16.5H15.6M15.15 3.26168C16.4693 3.79573 17.4 5.08918 17.4 6.6C17.4 8.11082 16.4693 9.40427 15.15 9.93832M12 13.8H8.4C6.72261 13.8 5.88392 13.8 5.22234 14.074C4.34024 14.4394 3.63941 15.1402 3.27403 16.0223C3 16.6839 3 17.5226 3 19.2M13.35 6.6C13.35 8.58823 11.7382 10.2 9.75 10.2C7.76177 10.2 6.15 8.58823 6.15 6.6C6.15 4.61177 7.76177 3 9.75 3C11.7382 3 13.35 4.61177 13.35 6.6Z" stroke="black" stroke-width="2" stroke-linecap="round" stroke-linejoin="round"/>
</svg>