<svg viewBox="0 0 24 24" fill="none" xmlns="http://www.w3.org/2000/svg">
<path d="M15.6 3.42098C16.9335 4.0837 17.85 5.45983 17.85 7.05C17.85 8.64017 16.9335 10.0163 15.6 10.679M17.4 15.3897C18.7603 16.0053 19.9853 17.0085 21 18.3M3 18.3C4.75184 16.0703 7.13026 14.7 9.75 14.7C12.3697 14.7 14.7482 16.0703 16.5 18.3M13.8 7.05C13.8 9.28675 11.9868 11.1 9.75 11.1C7.51325 11.1 5.7 9.28675 5.7 7.05C5.7 4.81325 7.51325 3 9.75 3C11.9868 3 13.8 4.81325 13.8 7.05Z" stroke="black" stroke-width="2" stroke-linecap="round" stroke-linejoin="round"/>
</svg>