<svg viewBox="0 0 24 24" fill="none" xmlns="http://www.w3.org/2000/svg">
<path d="M18.3 9.4V4M15.6 6.7H21M15.6 19.3V18.22C15.6 16.7079 15.6 15.9518 15.3057 15.3742C15.0469 14.8662 14.6338 14.4531 14.1258 14.1943C13.5482 13.9 12.7921 13.9 11.28 13.9H7.32C5.80786 13.9 5.05179 13.9 4.47423 14.1943C3.96619 14.4531 3.55314 14.8662 3.29428 15.3742C3 15.9518 3 16.7079 3 18.22V19.3M12.45 7.15C12.45 8.8897 11.0397 10.3 9.3 10.3C7.5603 10.3 6.15 8.8897 6.15 7.15C6.15 5.4103 7.5603 4 9.3 4C11.0397 4 12.45 5.4103 12.45 7.15Z" stroke="black" stroke-width="2" stroke-linecap="round" stroke-linejoin="round"/>
</svg>