<svg viewBox="0 0 24 24" fill="none" xmlns="http://www.w3.org/2000/svg">
<path d="M15.6 5.7L18.3 3M18.3 3L21 5.7M18.3 3V8.4M15.6 19.2V18.12C15.6 16.6079 15.6 15.8518 15.3057 15.2742C15.0469 14.7662 14.6338 14.3531 14.1258 14.0943C13.5482 13.8 12.7921 13.8 11.28 13.8H7.32C5.80786 13.8 5.05179 13.8 4.47423 14.0943C3.96619 14.3531 3.55314 14.7662 3.29428 15.2742C3 15.8518 3 16.6079 3 18.12V19.2M12.45 7.05C12.45 8.7897 11.0397 10.2 9.3 10.2C7.5603 10.2 6.15 8.7897 6.15 7.05C6.15 5.3103 7.5603 3.9 9.3 3.9C11.0397 3.9 12.45 5.3103 12.45 7.05Z" stroke="black" stroke-width="2" stroke-linecap="round" stroke-linejoin="round"/>
</svg>