<svg viewBox="0 0 24 24" fill="none" xmlns="http://www.w3.org/2000/svg">
<path d="M19.1155 19.2C20.3217 16.76 21 14.0096 21 11.1C21 8.1904 20.3217 5.44004 19.1155 3M4.88454 3C3.67827 5.44004 3 8.1904 3 11.1C3 14.0096 3.67827 16.76 4.88454 19.2M16.0938 8.0625H16.0131C15.425 8.0625 14.8663 8.32081 14.4836 8.76965L9.64624 14.4429C9.26353 14.8917 8.70483 15.15 8.11677 15.15H8.03607M9.04335 8.0625H10.298C10.7477 8.0625 11.1429 8.36218 11.2665 8.79685L12.8635 14.4157C12.987 14.8503 13.3822 15.15 13.8319 15.15H15.0866" stroke="black" stroke-width="2" stroke-linecap="round" stroke-linejoin="round"/>
</svg>