<svg viewBox="0 0 24 24" fill="none" xmlns="http://www.w3.org/2000/svg">
<path d="M21 8.53823C21 7.993 21 7.72038 20.8922 7.59414C20.7986 7.48461 20.6583 7.42648 20.5147 7.43778C20.3492 7.45081 20.1564 7.64358 19.7709 8.02912L16.5 11.3L19.7709 14.5709C20.1564 14.9564 20.3492 15.1492 20.5147 15.1622C20.6583 15.1735 20.7986 15.1154 20.8922 15.0059C21 14.8796 21 14.607 21 14.0618V8.53823Z" stroke="black" stroke-width="2" stroke-linecap="round" stroke-linejoin="round"/>
<path d="M3 9.32C3 7.80786 3 7.05179 3.29428 6.47423C3.55314 5.96619 3.96619 5.55314 4.47423 5.29428C5.05179 5 5.80786 5 7.32 5H12.18C13.6921 5 14.4482 5 15.0258 5.29428C15.5338 5.55314 15.9469 5.96619 16.2057 6.47423C16.5 7.05179 16.5 7.80786 16.5 9.32V13.28C16.5 14.7921 16.5 15.5482 16.2057 16.1258C15.9469 16.6338 15.5338 17.0469 15.0258 17.3057C14.4482 17.6 13.6921 17.6 12.18 17.6H7.32C5.80786 17.6 5.05179 17.6 4.47423 17.3057C3.96619 17.0469 3.55314 16.6338 3.29428 16.1258C3 15.5482 3 14.7921 3 13.28V9.32Z" stroke="black" stroke-width="2" stroke-linecap="round" stroke-linejoin="round"/>
</svg>