<svg viewBox="0 0 24 24" fill="none" xmlns="http://www.w3.org/2000/svg">
<path d="M12 3V7.5M12 3C11.358 3 10.7318 3.06721 10.1279 3.19497M12 3C12.6419 3 13.2682 3.06721 13.872 3.19497M12 7.5C9.5147 7.5 7.5 9.51474 7.5 12M12 7.5C14.4853 7.5 16.5 9.51474 16.5 12M12 16.5V21M12 16.5C14.4853 16.5 16.5 14.4853 16.5 12M12 16.5C9.5147 16.5 7.5 14.4853 7.5 12M12 21C12.641 21 13.2663 20.933 13.8693 20.8056M12 21C11.3566 21 10.729 20.9325 10.1239 20.8042M5.63602 5.63604L8.818 8.81802M15.182 15.182L18.3639 18.364M3 12H7.5M3 12C3 12.642 3.0672 13.2683 3.19498 13.8722M3 12C3 11.3571 3.06739 10.7299 3.19554 10.1251M16.5 12H21M21 12C21 11.358 20.9328 10.7317 20.805 10.1278M21 12C21 12.6418 20.9328 13.2678 20.8051 13.8715M5.63602 18.364L8.818 15.182M15.182 8.81802L18.3639 5.63604M16.902 4.45087C17.9589 5.13857 18.8624 6.04221 19.5499 7.09922M19.5474 16.9046C18.8598 17.9606 17.9565 18.8634 16.9 19.5504M7.09834 19.5494C6.04293 18.8627 5.14048 17.9607 4.45327 16.9057M4.45054 7.09848C5.1379 6.04195 6.04104 5.13869 7.09748 4.4512" stroke="black" stroke-width="2" stroke-linecap="round" stroke-linejoin="round"/>
</svg>