<svg width="24" height="24" viewBox="0 0 24 24" fill="none" xmlns="http://www.w3.org/2000/svg">
<path d="M17.85 14.3206V8.02064M14.7 11.1706H21M9.87088 4.29975L7.02177 7.14887C6.86611 7.30453 6.78828 7.38236 6.69746 7.43801C6.61693 7.48736 6.52914 7.52372 6.43731 7.54577C6.33373 7.57064 6.22366 7.57064 6.00353 7.57064H4.44C3.93595 7.57064 3.68393 7.57064 3.49141 7.66873C3.32206 7.75502 3.18438 7.8927 3.09809 8.06205C3 8.25457 3 8.50659 3 9.01064V13.3306C3 13.8347 3 14.0867 3.09809 14.2792C3.18438 14.4486 3.32206 14.5863 3.49141 14.6725C3.68393 14.7706 3.93595 14.7706 4.44 14.7706H6.00353C6.22366 14.7706 6.33373 14.7706 6.43731 14.7955C6.52914 14.8176 6.61693 14.8539 6.69746 14.9033C6.78828 14.9589 6.86611 15.0367 7.02177 15.1924L9.87088 18.0415C10.2564 18.4271 10.4492 18.6198 10.6147 18.6329C10.7583 18.6442 10.8986 18.586 10.9922 18.4765C11.1 18.3503 11.1 18.0776 11.1 17.5324V4.80887C11.1 4.26364 11.1 3.99102 10.9922 3.86478C10.8986 3.75525 10.7583 3.69712 10.6147 3.70842C10.4492 3.72145 10.2564 3.91422 9.87088 4.29975Z" stroke="black" stroke-width="2" stroke-linecap="round" stroke-linejoin="round"/>
</svg>
