<svg viewBox="0 0 24 24" fill="none" xmlns="http://www.w3.org/2000/svg">
<path d="M18.9731 4.97064C20.2487 6.74385 21 8.91951 21 11.2706C21 13.6218 20.2487 15.7974 18.9731 17.5706M15.3708 7.67064C16.0826 8.69109 16.5 9.93211 16.5 11.2706C16.5 12.6092 16.0826 13.8502 15.3708 14.8706M9.87088 5.29975L7.02177 8.14887C6.86611 8.30453 6.78828 8.38236 6.69746 8.43801C6.61693 8.48736 6.52914 8.52372 6.43731 8.54577C6.33373 8.57064 6.22366 8.57064 6.00353 8.57064H4.44C3.93595 8.57064 3.68393 8.57064 3.49141 8.66873C3.32206 8.75502 3.18438 8.8927 3.09809 9.06205C3 9.25457 3 9.50659 3 10.0106V12.5306C3 13.0347 3 13.2867 3.09809 13.4792C3.18438 13.6486 3.32206 13.7863 3.49141 13.8725C3.68393 13.9706 3.93595 13.9706 4.44 13.9706H6.00353C6.22366 13.9706 6.33373 13.9706 6.43731 13.9955C6.52914 14.0176 6.61693 14.0539 6.69746 14.1033C6.78828 14.1589 6.86611 14.2367 7.02177 14.3924L9.87088 17.2415C10.2564 17.6271 10.4492 17.8198 10.6147 17.8329C10.7583 17.8442 10.8986 17.786 10.9922 17.6765C11.1 17.5503 11.1 17.2776 11.1 16.7324V5.80887C11.1 5.26364 11.1 4.99102 10.9922 4.86478C10.8986 4.75525 10.7583 4.69712 10.6147 4.70842C10.4492 4.72145 10.2564 4.91422 9.87088 5.29975Z" stroke="black" stroke-width="2" stroke-linecap="round" stroke-linejoin="round"/>
</svg>