<svg width="24" height="24" viewBox="0 0 24 24" fill="none" xmlns="http://www.w3.org/2000/svg">
<path d="M18.75 13.45C19.1682 13.45 19.3773 13.45 19.5512 13.4154C20.2652 13.2734 20.8234 12.7152 20.9654 12.0012C21 11.8273 21 11.6182 21 11.2C21 10.7818 21 10.5727 20.9654 10.3988C20.8234 9.68479 20.2652 9.12662 19.5512 8.98459C19.3773 8.95 19.1682 8.95 18.75 8.95H16.95C16.5318 8.95 16.3227 8.95 16.1488 8.98459C15.4348 9.12662 14.8766 9.68479 14.7346 10.3988C14.7 10.5727 14.7 10.7818 14.7 11.2C14.7 11.6182 14.7 11.8273 14.7346 12.0012C14.8766 12.7152 15.4348 13.2734 16.1488 13.4154C16.3227 13.45 16.5318 13.45 16.95 13.45H18.75Z" fill="white" fill-opacity="0.01"/>
<path d="M19.2 8.95V6.88C19.2 5.87191 19.2 5.36786 19.0038 4.98282C18.8312 4.64413 18.5559 4.36876 18.2172 4.19619C17.8321 4 17.3281 4 16.32 4H5.88C4.87191 4 4.36786 4 3.98282 4.19619C3.64413 4.36876 3.36876 4.64413 3.19619 4.98282C3 5.36786 3 5.87191 3 6.88V15.52C3 16.5281 3 17.0321 3.19619 17.4172C3.36876 17.7559 3.64413 18.0312 3.98282 18.2038C4.36786 18.4 4.87191 18.4 5.88 18.4L16.32 18.4C17.3281 18.4 17.8321 18.4 18.2172 18.2038C18.5559 18.0312 18.8312 17.7559 19.0038 17.4172C19.2 17.0321 19.2 16.5281 19.2 15.52V13.45M14.7 11.2C14.7 10.7818 14.7 10.5727 14.7346 10.3988C14.8766 9.68479 15.4348 9.12662 16.1488 8.98459C16.3227 8.95 16.5318 8.95 16.95 8.95H18.75C19.1682 8.95 19.3773 8.95 19.5512 8.98459C20.2652 9.12662 20.8234 9.68479 20.9654 10.3988C21 10.5727 21 10.7818 21 11.2C21 11.6182 21 11.8273 20.9654 12.0012C20.8234 12.7152 20.2652 13.2734 19.5512 13.4154C19.3773 13.45 19.1682 13.45 18.75 13.45H16.95C16.5318 13.45 16.3227 13.45 16.1488 13.4154C15.4348 13.2734 14.8766 12.7152 14.7346 12.0012C14.7 11.8273 14.7 11.6182 14.7 11.2Z" stroke="black" stroke-width="2" stroke-linecap="round" stroke-linejoin="round"/>
</svg>
