<svg viewBox="0 0 24 24" fill="none" xmlns="http://www.w3.org/2000/svg">
<path d="M21 8.05H3M3 11.65H6.19201C6.67818 11.65 6.92127 11.65 7.15632 11.6919C7.36496 11.7291 7.56849 11.7907 7.76272 11.8755C7.98154 11.971 8.18379 12.1059 8.58831 12.3755L9.11169 12.7245C9.5162 12.9941 9.71846 13.129 9.93728 13.2245C10.1315 13.3093 10.335 13.3709 10.5437 13.4081C10.7787 13.45 11.0218 13.45 11.508 13.45H12.492C12.9782 13.45 13.2213 13.45 13.4563 13.4081C13.665 13.3709 13.8685 13.3093 14.0627 13.2245C14.2815 13.129 14.4838 12.9941 14.8883 12.7245L15.4117 12.3755C15.8162 12.1059 16.0185 11.971 16.2373 11.8755C16.4315 11.7907 16.635 11.7291 16.8437 11.6919C17.0787 11.65 17.3218 11.65 17.808 11.65H21M3 6.88L3 15.52C3 16.5281 3 17.0321 3.19619 17.4172C3.36876 17.7559 3.64413 18.0312 3.98282 18.2038C4.36786 18.4 4.87191 18.4 5.88 18.4L18.12 18.4C19.1281 18.4 19.6321 18.4 20.0172 18.2038C20.3559 18.0312 20.6312 17.7559 20.8038 17.4172C21 17.0321 21 16.5281 21 15.52V6.88C21 5.87191 21 5.36786 20.8038 4.98282C20.6312 4.64413 20.3559 4.36876 20.0172 4.19619C19.6321 4 19.1281 4 18.12 4L5.88 4C4.87191 4 4.36786 4 3.98282 4.19619C3.64413 4.36876 3.36876 4.64413 3.19619 4.98282C3 5.36786 3 5.87191 3 6.88Z" stroke="black" stroke-width="2" stroke-linecap="round" stroke-linejoin="round"/>
</svg>