<svg width="24" height="24" viewBox="0 0 24 24" fill="none" xmlns="http://www.w3.org/2000/svg">
<path d="M11.3 9.3V12L12.65 13.35" fill="white" fill-opacity="0.01"/>
<path d="M11.3 18.3C14.7794 18.3 17.6 15.4794 17.6 12C17.6 8.52061 14.7794 5.7 11.3 5.7C7.82061 5.7 5 8.52061 5 12C5 15.4794 7.82061 18.3 11.3 18.3Z" fill="white" fill-opacity="0.01"/>
<path d="M6.8 16.5L7.23696 18.6848C7.4019 19.5095 7.48437 19.9219 7.69968 20.2303C7.88954 20.5023 8.15087 20.7165 8.45482 20.8494C8.79949 21 9.22001 21 10.061 21H12.539C13.38 21 13.8005 21 14.1452 20.8494C14.4491 20.7165 14.7105 20.5023 14.9003 20.2303C15.1156 19.9219 15.1981 19.5095 15.363 18.6848L15.8 16.5M6.8 7.5L7.23696 5.31519C7.4019 4.49049 7.48437 4.07814 7.69968 3.7697C7.88954 3.49771 8.15087 3.28347 8.45482 3.15064C8.79949 3 9.22001 3 10.061 3H12.539C13.38 3 13.8005 3 14.1452 3.15064C14.4491 3.28347 14.7105 3.49771 14.9003 3.7697C15.1156 4.07814 15.1981 4.49049 15.363 5.31519L15.8 7.5M11.3 9.3V12L12.65 13.35M17.6 12C17.6 15.4794 14.7794 18.3 11.3 18.3C7.82061 18.3 5 15.4794 5 12C5 8.52061 7.82061 5.7 11.3 5.7C14.7794 5.7 17.6 8.52061 17.6 12Z" stroke="black" stroke-width="2" stroke-linecap="round" stroke-linejoin="round"/>
</svg>
