<svg width="24" height="24" viewBox="0 0 24 24" fill="none" xmlns="http://www.w3.org/2000/svg">
<path d="M11.35 9.3V12L12.7 13.35" fill="white" fill-opacity="0.01"/>
<path d="M5.5 9.03C5.5 8.02191 5.5 7.51786 5.69619 7.13282C5.86876 6.79413 6.14413 6.51876 6.48282 6.34619C6.86786 6.15 7.37191 6.15 8.38 6.15H14.32C15.3281 6.15 15.8321 6.15 16.2172 6.34619C16.5559 6.51876 16.8312 6.79413 17.0038 7.13282C17.2 7.51786 17.2 8.0219 17.2 9.03V14.97C17.2 15.9781 17.2 16.4821 17.0038 16.8672C16.8312 17.2059 16.5559 17.4812 16.2172 17.6538C15.8321 17.85 15.3281 17.85 14.32 17.85H8.38C7.37191 17.85 6.86786 17.85 6.48282 17.6538C6.14413 17.4812 5.86876 17.2059 5.69619 16.8672C5.5 16.4821 5.5 15.9781 5.5 14.97V9.03Z" fill="white" fill-opacity="0.01"/>
<path d="M15.85 17.85L15.5468 18.9112C15.3329 19.6599 15.2259 20.0343 15.0075 20.3122C14.8148 20.5575 14.5616 20.7484 14.2728 20.8664C13.9457 21 13.5563 21 12.7776 21H9.92239C9.14368 21 8.75433 21 8.42715 20.8664C8.13837 20.7484 7.8852 20.5575 7.69246 20.3122C7.47409 20.0343 7.36713 19.6599 7.1532 18.9112L6.85 17.85M15.85 6.15L15.5468 5.0888C15.3329 4.34006 15.2259 3.96569 15.0075 3.68781C14.8148 3.44254 14.5616 3.25157 14.2728 3.13363C13.9457 3 13.5563 3 12.7776 3H9.92239C9.14368 3 8.75433 3 8.42715 3.13363C8.13837 3.25157 7.8852 3.44254 7.69246 3.68781C7.47409 3.96569 7.36713 4.34006 7.1532 5.0888L6.85 6.15M11.35 9.3V12L12.7 13.35M8.38 17.85H14.32C15.3281 17.85 15.8321 17.85 16.2172 17.6538C16.5559 17.4812 16.8312 17.2059 17.0038 16.8672C17.2 16.4821 17.2 15.9781 17.2 14.97V9.03C17.2 8.02191 17.2 7.51786 17.0038 7.13282C16.8312 6.79413 16.5559 6.51876 16.2172 6.34619C15.8321 6.15 15.3281 6.15 14.32 6.15H8.38C7.37191 6.15 6.86786 6.15 6.48282 6.34619C6.14413 6.51876 5.86876 6.79413 5.69619 7.13282C5.5 7.51786 5.5 8.02191 5.5 9.03V14.97C5.5 15.9781 5.5 16.4821 5.69619 16.8672C5.86876 17.2059 6.14413 17.4812 6.48282 17.6538C6.86786 17.85 7.37191 17.85 8.38 17.85Z" stroke="black" stroke-width="2" stroke-linecap="round" stroke-linejoin="round"/>
</svg>
