<svg width="24" height="24" viewBox="0 0 24 24" fill="none" xmlns="http://www.w3.org/2000/svg">
<path d="M3 5.9C3.54 6.35 4.08 6.8 5.25 6.8C7.5 6.8 7.5 5 9.75 5C10.92 5 11.46 5.45 12 5.9" fill="white" fill-opacity="0.01"/>
<path d="M3 16.7C3.54 17.15 4.08 17.6 5.25 17.6C7.5 17.6 7.5 15.8 9.75 15.8C10.92 15.8 11.46 16.25 12 16.7" fill="white" fill-opacity="0.01"/>
<path d="M3 11.3C3.54 11.75 4.08 12.2 5.25 12.2C7.5 12.2 7.5 10.4 9.75 10.4C10.92 10.4 11.46 10.85 12 11.3" fill="white" fill-opacity="0.01"/>
<path d="M12 5.9C12.54 6.35 13.08 6.8 14.25 6.8C16.5 6.8 16.5 5 18.75 5C19.92 5 20.46 5.45 21 5.9" fill="white" fill-opacity="0.01"/>
<path d="M12 16.7C12.54 17.15 13.08 17.6 14.25 17.6C16.5 17.6 16.5 15.8 18.75 15.8C19.92 15.8 20.46 16.25 21 16.7" fill="white" fill-opacity="0.01"/>
<path d="M12 11.3C12.54 11.75 13.08 12.2 14.25 12.2C16.5 12.2 16.5 10.4 18.75 10.4C19.92 10.4 20.46 10.85 21 11.3" fill="white" fill-opacity="0.01"/>
<path d="M3 5.9C3.54 6.35 4.08 6.8 5.25 6.8C7.5 6.8 7.5 5 9.75 5C10.92 5 11.46 5.45 12 5.9C12.54 6.35 13.08 6.8 14.25 6.8C16.5 6.8 16.5 5 18.75 5C19.92 5 20.46 5.45 21 5.9M3 16.7C3.54 17.15 4.08 17.6 5.25 17.6C7.5 17.6 7.5 15.8 9.75 15.8C10.92 15.8 11.46 16.25 12 16.7C12.54 17.15 13.08 17.6 14.25 17.6C16.5 17.6 16.5 15.8 18.75 15.8C19.92 15.8 20.46 16.25 21 16.7M3 11.3C3.54 11.75 4.08 12.2 5.25 12.2C7.5 12.2 7.5 10.4 9.75 10.4C10.92 10.4 11.46 10.85 12 11.3C12.54 11.75 13.08 12.2 14.25 12.2C16.5 12.2 16.5 10.4 18.75 10.4C19.92 10.4 20.46 10.85 21 11.3" stroke="black" stroke-width="2" stroke-linecap="round" stroke-linejoin="round"/>
</svg>
