<svg width="24" height="24" viewBox="0 0 24 24" fill="none" xmlns="http://www.w3.org/2000/svg">
<path d="M11.2 17.4C15.1764 17.4 18.4 14.1764 18.4 10.2C18.4 6.22355 15.1764 3 11.2 3C7.22355 3 4 6.22355 4 10.2C4 14.1764 7.22355 17.4 11.2 17.4ZM11.2 17.4V21M11.2 21H6.7M11.2 21H15.7M13.9 10.2C13.9 11.6912 12.6912 12.9 11.2 12.9C9.70883 12.9 8.5 11.6912 8.5 10.2C8.5 8.70883 9.70883 7.5 11.2 7.5C12.6912 7.5 13.9 8.70883 13.9 10.2Z" stroke="black" stroke-width="2" stroke-linecap="round" stroke-linejoin="round"/>
</svg>
