<svg width="24" height="24" viewBox="0 0 24 24" fill="none" xmlns="http://www.w3.org/2000/svg">
<path d="M12 6.15L7.82543 12.2221C7.57412 12.5876 7.44847 12.7704 7.45602 12.9223C7.46259 13.0546 7.52713 13.1773 7.63244 13.2577C7.75335 13.35 7.97515 13.35 8.41874 13.35H12V17.85L16.1746 11.7779C16.4259 11.4124 16.5515 11.2296 16.544 11.0777C16.5374 10.9454 16.4729 10.8227 16.3676 10.7423C16.2466 10.65 16.0248 10.65 15.5813 10.65H12V6.15Z" stroke="black" stroke-width="2" stroke-linecap="round" stroke-linejoin="round"/>
<path d="M12 21C16.9706 21 21 16.9706 21 12C21 7.02944 16.9706 3 12 3C7.02944 3 3 7.02944 3 12C3 16.9706 7.02944 21 12 21Z" stroke="black" stroke-width="2" stroke-linecap="round" stroke-linejoin="round"/>
</svg>
